<svg width="186" height="126" viewBox="0 0 186 126" fill="none" xmlns="http://www.w3.org/2000/svg">
<path d="M53.0958 5.94778L53.0993 5.94705C69.3669 2.50081 86.383 2.246 104.823 2.63816C123.317 3.03226 142.503 4.08025 156.915 10.2658L156.92 10.268C171.315 16.4076 180.857 27.5864 182.998 38.6575L182.999 38.6584C184.064 44.1552 183.346 49.8292 181.652 55.7915C180.156 61.0608 177.951 66.3874 175.66 71.9235C175.345 72.6849 175.028 73.4502 174.711 74.2199C174.421 74.9241 174.133 75.6263 173.846 76.326C168.939 88.285 164.325 99.5279 153.859 107.576L153.856 107.579C142.73 116.161 124.607 121.32 105.539 122.948L105.539 122.948C86.5676 124.57 67.1647 122.662 52.0438 116.66C36.9938 110.686 26.016 100.572 17.733 89.9588C9.48653 79.3215 4.23049 68.4721 2.84123 57.1496C1.48608 45.8075 4.03851 34.099 12.672 25.1146C21.4401 16.015 36.7445 9.38754 53.0958 5.94778Z" stroke="#00CAB2" stroke-width="5"/>
<path d="M50.0184 40.76C51.7384 40.76 53.1584 41.1867 54.2784 42.04C55.3984 42.88 56.1717 44.0333 56.5984 45.5H54.6784C54.3184 44.5667 53.7384 43.8267 52.9384 43.28C52.1384 42.72 51.1584 42.44 49.9984 42.44C49.0784 42.44 48.2517 42.6667 47.5184 43.12C46.7984 43.56 46.225 44.2 45.7984 45.04C45.385 45.8667 45.1784 46.84 45.1784 47.96C45.1784 49.0667 45.385 50.0333 45.7984 50.86C46.225 51.6867 46.7984 52.3267 47.5184 52.78C48.2517 53.22 49.0784 53.44 49.9984 53.44C51.1584 53.44 52.1384 53.1667 52.9384 52.62C53.7384 52.06 54.3184 51.3133 54.6784 50.38H56.5984C56.1717 51.8467 55.3984 53.0067 54.2784 53.86C53.1584 54.7 51.7384 55.12 50.0184 55.12C48.6984 55.12 47.5317 54.82 46.5184 54.22C45.505 53.6067 44.7117 52.76 44.1384 51.68C43.5784 50.5867 43.2984 49.3467 43.2984 47.96C43.2984 46.56 43.5784 45.3133 44.1384 44.22C44.7117 43.1267 45.505 42.28 46.5184 41.68C47.5317 41.0667 48.6984 40.76 50.0184 40.76ZM64.8123 43.84C66.0923 43.84 67.1256 44.2533 67.9123 45.08C68.6989 45.8933 69.0923 47.0733 69.0923 48.62V55H67.2723V48.78C67.2723 47.6867 66.9923 46.8467 66.4323 46.26C65.8723 45.6733 65.1123 45.38 64.1523 45.38C63.1523 45.38 62.3523 45.7067 61.7523 46.36C61.1523 47 60.8523 47.94 60.8523 49.18V55H59.0323V40.2H60.8523V46.62C61.1323 45.7267 61.6256 45.04 62.3323 44.56C63.0523 44.08 63.8789 43.84 64.8123 43.84ZM76.3838 43.88C77.4505 43.88 78.3505 44.1467 79.0838 44.68C79.8305 45.2133 80.3505 45.9267 80.6438 46.82V44.02H82.4638V55H80.6438V52.2C80.3505 53.0933 79.8305 53.8067 79.0838 54.34C78.3505 54.8733 77.4505 55.14 76.3838 55.14C75.4105 55.14 74.5438 54.9133 73.7838 54.46C73.0238 54.0067 72.4238 53.36 71.9838 52.52C71.5572 51.6667 71.3438 50.6667 71.3438 49.52C71.3438 48.3733 71.5572 47.3733 71.9838 46.52C72.4238 45.6667 73.0238 45.0133 73.7838 44.56C74.5438 44.1067 75.4105 43.88 76.3838 43.88ZM76.9038 45.5C75.7838 45.5 74.8838 45.86 74.2038 46.58C73.5372 47.2867 73.2038 48.2667 73.2038 49.52C73.2038 50.7733 73.5372 51.76 74.2038 52.48C74.8838 53.1867 75.7838 53.54 76.9038 53.54C77.6238 53.54 78.2638 53.3733 78.8238 53.04C79.3972 52.7067 79.8438 52.24 80.1638 51.64C80.4838 51.0267 80.6438 50.32 80.6438 49.52C80.6438 48.72 80.4838 48.0133 80.1638 47.4C79.8438 46.7867 79.3972 46.32 78.8238 46C78.2638 45.6667 77.6238 45.5 76.9038 45.5ZM87.1804 40.2V55H85.3604V40.2H87.1804ZM91.9265 40.2V55H90.1065V40.2H91.9265ZM104.953 48.9C104.953 49.2867 104.926 49.62 104.873 49.9H96.0926C96.1326 51.1533 96.4859 52.0933 97.1526 52.72C97.8326 53.3467 98.6592 53.66 99.6326 53.66C100.513 53.66 101.246 53.44 101.833 53C102.433 52.5467 102.799 51.9467 102.933 51.2H104.873C104.739 51.96 104.439 52.64 103.973 53.24C103.519 53.84 102.926 54.3067 102.193 54.64C101.459 54.9733 100.633 55.14 99.7126 55.14C98.6592 55.14 97.7259 54.9133 96.9126 54.46C96.0992 54.0067 95.4592 53.36 94.9926 52.52C94.5392 51.6667 94.3126 50.6667 94.3126 49.52C94.3126 48.3733 94.5392 47.3733 94.9926 46.52C95.4592 45.6667 96.0992 45.0133 96.9126 44.56C97.7259 44.1067 98.6592 43.88 99.7126 43.88C100.779 43.88 101.706 44.1067 102.493 44.56C103.293 45.0133 103.899 45.62 104.313 46.38C104.739 47.14 104.953 47.98 104.953 48.9ZM103.113 49.02C103.153 48.2067 103.019 47.5267 102.713 46.98C102.406 46.4333 101.986 46.0267 101.453 45.76C100.919 45.4933 100.339 45.36 99.7126 45.36C98.7126 45.36 97.8726 45.6733 97.1926 46.3C96.5126 46.9133 96.1459 47.82 96.0926 49.02H103.113ZM113.113 43.84C114.393 43.84 115.426 44.2533 116.213 45.08C117 45.8933 117.393 47.0733 117.393 48.62V55H115.573V48.78C115.573 47.6867 115.293 46.8467 114.733 46.26C114.173 45.6733 113.413 45.38 112.453 45.38C111.453 45.38 110.653 45.7067 110.053 46.36C109.453 47 109.153 47.94 109.153 49.18V55H107.333V44.02H109.153V46.62C109.433 45.7267 109.926 45.04 110.633 44.56C111.353 44.08 112.18 43.84 113.113 43.84ZM124.685 43.88C125.751 43.88 126.651 44.1467 127.385 44.68C128.131 45.2133 128.651 45.9267 128.945 46.82V44.02H130.765V55.18C130.765 56.1933 130.551 57.0933 130.125 57.88C129.698 58.6667 129.098 59.28 128.325 59.72C127.551 60.16 126.651 60.38 125.625 60.38C124.145 60.38 122.938 60.02 122.005 59.3C121.071 58.5933 120.478 57.6333 120.225 56.42H122.025C122.238 57.1533 122.638 57.7267 123.225 58.14C123.825 58.5667 124.591 58.78 125.525 58.78C126.511 58.78 127.325 58.46 127.965 57.82C128.618 57.1933 128.945 56.3133 128.945 55.18V52.2C128.651 53.0933 128.131 53.8067 127.385 54.34C126.651 54.8733 125.751 55.14 124.685 55.14C123.711 55.14 122.845 54.9133 122.085 54.46C121.325 54.0067 120.725 53.36 120.285 52.52C119.858 51.6667 119.645 50.6667 119.645 49.52C119.645 48.3733 119.858 47.3733 120.285 46.52C120.725 45.6667 121.325 45.0133 122.085 44.56C122.845 44.1067 123.711 43.88 124.685 43.88ZM125.205 45.5C124.085 45.5 123.185 45.86 122.505 46.58C121.838 47.2867 121.505 48.2667 121.505 49.52C121.505 50.7733 121.838 51.76 122.505 52.48C123.185 53.1867 124.085 53.54 125.205 53.54C125.925 53.54 126.565 53.3733 127.125 53.04C127.698 52.7067 128.145 52.24 128.465 51.64C128.785 51.0267 128.945 50.32 128.945 49.52C128.945 48.72 128.785 48.0133 128.465 47.4C128.145 46.7867 127.698 46.32 127.125 46C126.565 45.6667 125.925 45.5 125.205 45.5ZM143.761 48.9C143.761 49.2867 143.735 49.62 143.681 49.9H134.901C134.941 51.1533 135.295 52.0933 135.961 52.72C136.641 53.3467 137.468 53.66 138.441 53.66C139.321 53.66 140.055 53.44 140.641 53C141.241 52.5467 141.608 51.9467 141.741 51.2H143.681C143.548 51.96 143.248 52.64 142.781 53.24C142.328 53.84 141.735 54.3067 141.001 54.64C140.268 54.9733 139.441 55.14 138.521 55.14C137.468 55.14 136.535 54.9133 135.721 54.46C134.908 54.0067 134.268 53.36 133.801 52.52C133.348 51.6667 133.121 50.6667 133.121 49.52C133.121 48.3733 133.348 47.3733 133.801 46.52C134.268 45.6667 134.908 45.0133 135.721 44.56C136.535 44.1067 137.468 43.88 138.521 43.88C139.588 43.88 140.515 44.1067 141.301 44.56C142.101 45.0133 142.708 45.62 143.121 46.38C143.548 47.14 143.761 47.98 143.761 48.9ZM141.921 49.02C141.961 48.2067 141.828 47.5267 141.521 46.98C141.215 46.4333 140.795 46.0267 140.261 45.76C139.728 45.4933 139.148 45.36 138.521 45.36C137.521 45.36 136.681 45.6733 136.001 46.3C135.321 46.9133 134.955 47.82 134.901 49.02H141.921ZM54.4895 81.74H48.2895L47.1095 85H45.1495L50.3695 71.16H52.4295L57.6295 85H55.6695L54.4895 81.74ZM53.9695 80.32L51.3895 73.2L48.8095 80.32H53.9695ZM64.3317 73.88C65.7317 73.88 66.8917 74.2533 67.8117 75C68.7317 75.7467 69.2984 76.7467 69.5117 78H67.5917C67.4584 77.2133 67.0917 76.6 66.4917 76.16C65.9051 75.7067 65.1717 75.48 64.2917 75.48C63.6517 75.48 63.0651 75.6267 62.5317 75.92C62.0117 76.2133 61.5917 76.6667 61.2717 77.28C60.9517 77.88 60.7917 78.6267 60.7917 79.52C60.7917 80.4133 60.9517 81.1667 61.2717 81.78C61.5917 82.38 62.0117 82.8267 62.5317 83.12C63.0651 83.4133 63.6517 83.56 64.2917 83.56C65.1717 83.56 65.9051 83.3333 66.4917 82.88C67.0917 82.4267 67.4584 81.8067 67.5917 81.02H69.5117C69.2984 82.2867 68.7317 83.2933 67.8117 84.04C66.8917 84.7733 65.7317 85.14 64.3317 85.14C63.2784 85.14 62.3451 84.9133 61.5317 84.46C60.7184 84.0067 60.0784 83.36 59.6117 82.52C59.1584 81.6667 58.9317 80.6667 58.9317 79.52C58.9317 78.3733 59.1584 77.3733 59.6117 76.52C60.0784 75.6667 60.7184 75.0133 61.5317 74.56C62.3451 74.1067 63.2784 73.88 64.3317 73.88ZM76.7536 73.88C78.1536 73.88 79.3136 74.2533 80.2336 75C81.1536 75.7467 81.7203 76.7467 81.9336 78H80.0136C79.8803 77.2133 79.5136 76.6 78.9136 76.16C78.3269 75.7067 77.5936 75.48 76.7136 75.48C76.0736 75.48 75.4869 75.6267 74.9536 75.92C74.4336 76.2133 74.0136 76.6667 73.6936 77.28C73.3736 77.88 73.2136 78.6267 73.2136 79.52C73.2136 80.4133 73.3736 81.1667 73.6936 81.78C74.0136 82.38 74.4336 82.8267 74.9536 83.12C75.4869 83.4133 76.0736 83.56 76.7136 83.56C77.5936 83.56 78.3269 83.3333 78.9136 82.88C79.5136 82.4267 79.8803 81.8067 80.0136 81.02H81.9336C81.7203 82.2867 81.1536 83.2933 80.2336 84.04C79.3136 84.7733 78.1536 85.14 76.7536 85.14C75.7003 85.14 74.7669 84.9133 73.9536 84.46C73.1403 84.0067 72.5003 83.36 72.0336 82.52C71.5803 81.6667 71.3536 80.6667 71.3536 79.52C71.3536 78.3733 71.5803 77.3733 72.0336 76.52C72.5003 75.6667 73.1403 75.0133 73.9536 74.56C74.7669 74.1067 75.7003 73.88 76.7536 73.88ZM94.4155 78.9C94.4155 79.2867 94.3888 79.62 94.3355 79.9H85.5555C85.5955 81.1533 85.9488 82.0933 86.6155 82.72C87.2955 83.3467 88.1221 83.66 89.0955 83.66C89.9755 83.66 90.7088 83.44 91.2955 83C91.8955 82.5467 92.2621 81.9467 92.3955 81.2H94.3355C94.2021 81.96 93.9021 82.64 93.4355 83.24C92.9821 83.84 92.3888 84.3067 91.6555 84.64C90.9221 84.9733 90.0955 85.14 89.1755 85.14C88.1221 85.14 87.1888 84.9133 86.3755 84.46C85.5621 84.0067 84.9221 83.36 84.4555 82.52C84.0021 81.6667 83.7755 80.6667 83.7755 79.52C83.7755 78.3733 84.0021 77.3733 84.4555 76.52C84.9221 75.6667 85.5621 75.0133 86.3755 74.56C87.1888 74.1067 88.1221 73.88 89.1755 73.88C90.2421 73.88 91.1688 74.1067 91.9555 74.56C92.7555 75.0133 93.3621 75.62 93.7755 76.38C94.2021 77.14 94.4155 77.98 94.4155 78.9ZM92.5755 79.02C92.6155 78.2067 92.4821 77.5267 92.1755 76.98C91.8688 76.4333 91.4488 76.0267 90.9155 75.76C90.3821 75.4933 89.8021 75.36 89.1755 75.36C88.1755 75.36 87.3355 75.6733 86.6555 76.3C85.9755 76.9133 85.6088 77.82 85.5555 79.02H92.5755ZM102.856 73.88C103.829 73.88 104.696 74.1067 105.456 74.56C106.216 75.0133 106.809 75.6667 107.236 76.52C107.676 77.3733 107.896 78.3733 107.896 79.52C107.896 80.6667 107.676 81.6667 107.236 82.52C106.809 83.36 106.216 84.0067 105.456 84.46C104.696 84.9133 103.829 85.14 102.856 85.14C101.789 85.14 100.883 84.8733 100.136 84.34C99.4026 83.7933 98.8959 83.08 98.6159 82.2V90.2H96.7959V74.02H98.6159V76.82C98.8959 75.94 99.4026 75.2333 100.136 74.7C100.883 74.1533 101.789 73.88 102.856 73.88ZM102.336 75.5C101.629 75.5 100.989 75.6667 100.416 76C99.8426 76.32 99.3959 76.7867 99.0759 77.4C98.7559 78.0133 98.5959 78.72 98.5959 79.52C98.5959 80.32 98.7559 81.0267 99.0759 81.64C99.3959 82.24 99.8426 82.7067 100.416 83.04C100.989 83.3733 101.629 83.54 102.336 83.54C103.469 83.54 104.369 83.1867 105.036 82.48C105.716 81.76 106.056 80.7733 106.056 79.52C106.056 78.2667 105.716 77.2867 105.036 76.58C104.369 75.86 103.469 75.5 102.336 75.5ZM115.513 83.4V85H114.153C113.033 85 112.193 84.7333 111.633 84.2C111.086 83.6667 110.813 82.7733 110.813 81.52V75.6H109.173V74.02H110.813V71.28H112.653V74.02H115.493V75.6H112.653V81.56C112.653 82.2667 112.779 82.7533 113.033 83.02C113.299 83.2733 113.753 83.4 114.393 83.4H115.513ZM127.833 78.9C127.833 79.2867 127.807 79.62 127.753 79.9H118.973C119.013 81.1533 119.367 82.0933 120.033 82.72C120.713 83.3467 121.54 83.66 122.513 83.66C123.393 83.66 124.127 83.44 124.713 83C125.313 82.5467 125.68 81.9467 125.813 81.2H127.753C127.62 81.96 127.32 82.64 126.853 83.24C126.4 83.84 125.807 84.3067 125.073 84.64C124.34 84.9733 123.513 85.14 122.593 85.14C121.54 85.14 120.607 84.9133 119.793 84.46C118.98 84.0067 118.34 83.36 117.873 82.52C117.42 81.6667 117.193 80.6667 117.193 79.52C117.193 78.3733 117.42 77.3733 117.873 76.52C118.34 75.6667 118.98 75.0133 119.793 74.56C120.607 74.1067 121.54 73.88 122.593 73.88C123.66 73.88 124.587 74.1067 125.373 74.56C126.173 75.0133 126.78 75.62 127.193 76.38C127.62 77.14 127.833 77.98 127.833 78.9ZM125.993 79.02C126.033 78.2067 125.9 77.5267 125.593 76.98C125.287 76.4333 124.867 76.0267 124.333 75.76C123.8 75.4933 123.22 75.36 122.593 75.36C121.593 75.36 120.753 75.6733 120.073 76.3C119.393 76.9133 119.027 77.82 118.973 79.02H125.993ZM134.714 73.88C135.781 73.88 136.681 74.1467 137.414 74.68C138.161 75.2133 138.681 75.9267 138.974 76.82V70.2H140.794V85H138.974V82.2C138.681 83.0933 138.161 83.8067 137.414 84.34C136.681 84.8733 135.781 85.14 134.714 85.14C133.741 85.14 132.874 84.9133 132.114 84.46C131.354 84.0067 130.754 83.36 130.314 82.52C129.887 81.6667 129.674 80.6667 129.674 79.52C129.674 78.3733 129.887 77.3733 130.314 76.52C130.754 75.6667 131.354 75.0133 132.114 74.56C132.874 74.1067 133.741 73.88 134.714 73.88ZM135.234 75.5C134.114 75.5 133.214 75.86 132.534 76.58C131.867 77.2867 131.534 78.2667 131.534 79.52C131.534 80.7733 131.867 81.76 132.534 82.48C133.214 83.1867 134.114 83.54 135.234 83.54C135.954 83.54 136.594 83.3733 137.154 83.04C137.727 82.7067 138.174 82.24 138.494 81.64C138.814 81.0267 138.974 80.32 138.974 79.52C138.974 78.72 138.814 78.0133 138.494 77.4C138.174 76.7867 137.727 76.32 137.154 76C136.594 75.6667 135.954 75.5 135.234 75.5Z" fill="white" fill-opacity="0.95"/>
</svg>
