<svg width="206" height="120" viewBox="0 0 206 120" fill="none" xmlns="http://www.w3.org/2000/svg">
<path d="M199.314 41.876L199.315 41.8788C203.714 49.3461 204.596 57.8581 202.193 68.4809L202.193 68.4821C201.771 70.3527 201.406 72.2169 201.044 74.0635C199.159 83.6849 197.368 92.8277 188.101 99.8909L188.098 99.8929C182.492 104.177 174.006 107.762 163.656 110.557C153.351 113.341 141.387 115.292 128.979 116.416C104.142 118.642 77.7652 117.552 56.4975 112.099C45.8758 109.375 36.5471 105.571 29.1931 101.172C21.8035 96.7521 16.5822 91.837 13.9235 86.9786C8.15937 76.4452 4.36853 65.0467 3.00716 53.3658C1.62858 41.5372 2.77372 30.1123 10.0014 22.3953C11.6895 20.5929 14.3368 18.8638 17.8834 17.2389C21.405 15.6253 25.6662 14.1802 30.4454 12.8749C40.0075 10.2634 51.412 8.27236 62.6564 6.57472C85.161 3.17707 106.37 1.08879 124.401 3.62147C142.381 6.14716 157.417 13.338 172.163 20.4493C186.675 27.4481 194.868 34.3075 199.314 41.876Z" stroke="#FF8368" stroke-width="5"/>
<path d="M42.5279 44.4024V45.8824H36.3679V50.7624H41.5879V52.1824H36.3679V58.5024H34.5479V44.4024H42.5279ZM49.6646 47.3824C50.7179 47.3824 51.6579 47.6091 52.4846 48.0624C53.3246 48.5158 53.9779 49.1691 54.4446 50.0224C54.9246 50.8758 55.1646 51.8758 55.1646 53.0224C55.1646 54.1691 54.9246 55.1691 54.4446 56.0224C53.9779 56.8624 53.3246 57.5091 52.4846 57.9624C51.6579 58.4158 50.7179 58.6424 49.6646 58.6424C48.6113 58.6424 47.6646 58.4158 46.8246 57.9624C45.9979 57.5091 45.3446 56.8624 44.8646 56.0224C44.3846 55.1691 44.1446 54.1691 44.1446 53.0224C44.1446 51.8758 44.3846 50.8758 44.8646 50.0224C45.3446 49.1691 45.9979 48.5158 46.8246 48.0624C47.6646 47.6091 48.6113 47.3824 49.6646 47.3824ZM49.6646 48.9824C49.0113 48.9824 48.4046 49.1291 47.8446 49.4224C47.2979 49.7158 46.8513 50.1691 46.5046 50.7824C46.1713 51.3824 46.0046 52.1291 46.0046 53.0224C46.0046 53.9024 46.1713 54.6491 46.5046 55.2624C46.8513 55.8624 47.2979 56.3091 47.8446 56.6024C48.4046 56.8958 49.0113 57.0424 49.6646 57.0424C50.3179 57.0424 50.9179 56.8958 51.4646 56.6024C52.0246 56.3091 52.4713 55.8624 52.8046 55.2624C53.1513 54.6491 53.3246 53.9024 53.3246 53.0224C53.3246 52.1291 53.1513 51.3824 52.8046 50.7824C52.4713 50.1691 52.0246 49.7158 51.4646 49.4224C50.9179 49.1291 50.3179 48.9824 49.6646 48.9824ZM67.2962 47.5224V58.5024H65.4762V55.9224C65.1962 56.8158 64.6962 57.5024 63.9762 57.9824C63.2695 58.4491 62.4428 58.6824 61.4962 58.6824C60.2295 58.6824 59.2028 58.2758 58.4162 57.4624C57.6295 56.6358 57.2362 55.4558 57.2362 53.9224V47.5224H59.0562V53.7424C59.0562 54.8358 59.3362 55.6824 59.8962 56.2824C60.4562 56.8691 61.2162 57.1624 62.1762 57.1624C63.1762 57.1624 63.9762 56.8424 64.5762 56.2024C65.1762 55.5491 65.4762 54.6024 65.4762 53.3624V47.5224H67.2962ZM72.032 49.7424C72.392 48.9824 72.9186 48.3958 73.612 47.9824C74.3053 47.5558 75.132 47.3424 76.092 47.3424V49.3224H75.532C74.5053 49.3224 73.6653 49.5891 73.012 50.1224C72.3586 50.6424 72.032 51.5091 72.032 52.7224V58.5024H70.212V47.5224H72.032V49.7424ZM97.9091 47.5224L94.7491 58.5024H92.7891L89.7691 49.5624L86.7291 58.5024H84.7491L81.6291 47.5224H83.4691L85.8091 56.7624L88.8491 47.5224H90.7491L93.8091 56.7424L96.1691 47.5224H97.9091ZM109.706 52.4024C109.706 52.7891 109.68 53.1224 109.626 53.4024H100.846C100.886 54.6558 101.24 55.5958 101.906 56.2224C102.586 56.8491 103.413 57.1624 104.386 57.1624C105.266 57.1624 106 56.9424 106.586 56.5024C107.186 56.0491 107.553 55.4491 107.686 54.7024H109.626C109.493 55.4624 109.193 56.1424 108.726 56.7424C108.273 57.3424 107.68 57.8091 106.946 58.1424C106.213 58.4758 105.386 58.6424 104.466 58.6424C103.413 58.6424 102.48 58.4158 101.666 57.9624C100.853 57.5091 100.213 56.8624 99.7465 56.0224C99.2932 55.1691 99.0665 54.1691 99.0665 53.0224C99.0665 51.8758 99.2932 50.8758 99.7465 50.0224C100.213 49.1691 100.853 48.5158 101.666 48.0624C102.48 47.6091 103.413 47.3824 104.466 47.3824C105.533 47.3824 106.46 47.6091 107.246 48.0624C108.046 48.5158 108.653 49.1224 109.066 49.8824C109.493 50.6424 109.706 51.4824 109.706 52.4024ZM107.866 52.5224C107.906 51.7091 107.773 51.0291 107.466 50.4824C107.16 49.9358 106.74 49.5291 106.206 49.2624C105.673 48.9958 105.093 48.8624 104.466 48.8624C103.466 48.8624 102.626 49.1758 101.946 49.8024C101.266 50.4158 100.9 51.3224 100.846 52.5224H107.866ZM122.187 52.4024C122.187 52.7891 122.16 53.1224 122.107 53.4024H113.327C113.367 54.6558 113.72 55.5958 114.387 56.2224C115.067 56.8491 115.894 57.1624 116.867 57.1624C117.747 57.1624 118.48 56.9424 119.067 56.5024C119.667 56.0491 120.034 55.4491 120.167 54.7024H122.107C121.974 55.4624 121.674 56.1424 121.207 56.7424C120.754 57.3424 120.16 57.8091 119.427 58.1424C118.694 58.4758 117.867 58.6424 116.947 58.6424C115.894 58.6424 114.96 58.4158 114.147 57.9624C113.334 57.5091 112.694 56.8624 112.227 56.0224C111.774 55.1691 111.547 54.1691 111.547 53.0224C111.547 51.8758 111.774 50.8758 112.227 50.0224C112.694 49.1691 113.334 48.5158 114.147 48.0624C114.96 47.6091 115.894 47.3824 116.947 47.3824C118.014 47.3824 118.94 47.6091 119.727 48.0624C120.527 48.5158 121.134 49.1224 121.547 49.8824C121.974 50.6424 122.187 51.4824 122.187 52.4024ZM120.347 52.5224C120.387 51.7091 120.254 51.0291 119.947 50.4824C119.64 49.9358 119.22 49.5291 118.687 49.2624C118.154 48.9958 117.574 48.8624 116.947 48.8624C115.947 48.8624 115.107 49.1758 114.427 49.8024C113.747 50.4158 113.38 51.3224 113.327 52.5224H120.347ZM130.587 58.5024L126.387 53.5624V58.5024H124.567V43.7024H126.387V52.3024L130.527 47.5224H132.747L127.827 52.9824L132.867 58.5024H130.587ZM137.91 47.3824C139.15 47.3824 140.143 47.7091 140.89 48.3624C141.65 49.0024 142.11 49.8691 142.27 50.9624H140.53C140.45 50.3091 140.176 49.7758 139.71 49.3624C139.256 48.9358 138.643 48.7224 137.87 48.7224C137.216 48.7224 136.703 48.8824 136.33 49.2024C135.97 49.5091 135.79 49.9291 135.79 50.4624C135.79 50.8624 135.91 51.1891 136.15 51.4424C136.403 51.6824 136.71 51.8691 137.07 52.0024C137.443 52.1224 137.95 52.2558 138.59 52.4024C139.403 52.5891 140.056 52.7824 140.55 52.9824C141.056 53.1691 141.483 53.4758 141.83 53.9024C142.19 54.3291 142.37 54.9024 142.37 55.6224C142.37 56.5158 142.03 57.2424 141.35 57.8024C140.683 58.3624 139.79 58.6424 138.67 58.6424C137.363 58.6424 136.296 58.3291 135.47 57.7024C134.643 57.0758 134.156 56.2024 134.01 55.0824H135.77C135.836 55.7491 136.123 56.2891 136.63 56.7024C137.15 57.1158 137.83 57.3224 138.67 57.3224C139.296 57.3224 139.783 57.1624 140.13 56.8424C140.49 56.5224 140.67 56.1024 140.67 55.5824C140.67 55.1558 140.543 54.8158 140.29 54.5624C140.036 54.3091 139.723 54.1158 139.35 53.9824C138.976 53.8491 138.463 53.7091 137.81 53.5624C136.996 53.3758 136.343 53.1891 135.85 53.0024C135.37 52.8158 134.956 52.5224 134.61 52.1224C134.276 51.7091 134.11 51.1558 134.11 50.4624C134.11 49.5424 134.45 48.8024 135.13 48.2424C135.81 47.6691 136.736 47.3824 137.91 47.3824ZM154.723 47.3824C155.777 47.3824 156.717 47.6091 157.543 48.0624C158.383 48.5158 159.037 49.1691 159.503 50.0224C159.983 50.8758 160.223 51.8758 160.223 53.0224C160.223 54.1691 159.983 55.1691 159.503 56.0224C159.037 56.8624 158.383 57.5091 157.543 57.9624C156.717 58.4158 155.777 58.6424 154.723 58.6424C153.67 58.6424 152.723 58.4158 151.883 57.9624C151.057 57.5091 150.403 56.8624 149.923 56.0224C149.443 55.1691 149.203 54.1691 149.203 53.0224C149.203 51.8758 149.443 50.8758 149.923 50.0224C150.403 49.1691 151.057 48.5158 151.883 48.0624C152.723 47.6091 153.67 47.3824 154.723 47.3824ZM154.723 48.9824C154.07 48.9824 153.463 49.1291 152.903 49.4224C152.357 49.7158 151.91 50.1691 151.563 50.7824C151.23 51.3824 151.063 52.1291 151.063 53.0224C151.063 53.9024 151.23 54.6491 151.563 55.2624C151.91 55.8624 152.357 56.3091 152.903 56.6024C153.463 56.8958 154.07 57.0424 154.723 57.0424C155.377 57.0424 155.977 56.8958 156.523 56.6024C157.083 56.3091 157.53 55.8624 157.863 55.2624C158.21 54.6491 158.383 53.9024 158.383 53.0224C158.383 52.1291 158.21 51.3824 157.863 50.7824C157.53 50.1691 157.083 49.7158 156.523 49.4224C155.977 49.1291 155.377 48.9824 154.723 48.9824ZM167.455 44.9224C166.481 44.9091 165.801 45.0758 165.415 45.4224C165.041 45.7691 164.855 46.3691 164.855 47.2224V47.5224H167.455V49.1224H164.855V58.5024H163.035V49.1224H161.455V47.5224H163.035V47.0824C163.035 44.4558 164.508 43.2024 167.455 43.3224V44.9224ZM42.5036 77.3824C43.9036 77.3824 45.0636 77.7558 45.9836 78.5024C46.9036 79.2491 47.4703 80.2491 47.6836 81.5024H45.7636C45.6303 80.7158 45.2636 80.1024 44.6636 79.6624C44.0769 79.2091 43.3436 78.9824 42.4636 78.9824C41.8236 78.9824 41.2369 79.1291 40.7036 79.4224C40.1836 79.7158 39.7636 80.1691 39.4436 80.7824C39.1236 81.3824 38.9636 82.1291 38.9636 83.0224C38.9636 83.9158 39.1236 84.6691 39.4436 85.2824C39.7636 85.8824 40.1836 86.3291 40.7036 86.6224C41.2369 86.9158 41.8236 87.0624 42.4636 87.0624C43.3436 87.0624 44.0769 86.8358 44.6636 86.3824C45.2636 85.9291 45.6303 85.3091 45.7636 84.5224H47.6836C47.4703 85.7891 46.9036 86.7958 45.9836 87.5424C45.0636 88.2758 43.9036 88.6424 42.5036 88.6424C41.4503 88.6424 40.5169 88.4158 39.7036 87.9624C38.8903 87.5091 38.2503 86.8624 37.7836 86.0224C37.3303 85.1691 37.1036 84.1691 37.1036 83.0224C37.1036 81.8758 37.3303 80.8758 37.7836 80.0224C38.2503 79.1691 38.8903 78.5158 39.7036 78.0624C40.5169 77.6091 41.4503 77.3824 42.5036 77.3824ZM55.0455 77.3824C56.0988 77.3824 57.0388 77.6091 57.8655 78.0624C58.7055 78.5158 59.3588 79.1691 59.8255 80.0224C60.3055 80.8758 60.5455 81.8758 60.5455 83.0224C60.5455 84.1691 60.3055 85.1691 59.8255 86.0224C59.3588 86.8624 58.7055 87.5091 57.8655 87.9624C57.0388 88.4158 56.0988 88.6424 55.0455 88.6424C53.9921 88.6424 53.0455 88.4158 52.2055 87.9624C51.3788 87.5091 50.7255 86.8624 50.2455 86.0224C49.7655 85.1691 49.5255 84.1691 49.5255 83.0224C49.5255 81.8758 49.7655 80.8758 50.2455 80.0224C50.7255 79.1691 51.3788 78.5158 52.2055 78.0624C53.0455 77.6091 53.9921 77.3824 55.0455 77.3824ZM55.0455 78.9824C54.3921 78.9824 53.7855 79.1291 53.2255 79.4224C52.6788 79.7158 52.2321 80.1691 51.8855 80.7824C51.5521 81.3824 51.3855 82.1291 51.3855 83.0224C51.3855 83.9024 51.5521 84.6491 51.8855 85.2624C52.2321 85.8624 52.6788 86.3091 53.2255 86.6024C53.7855 86.8958 54.3921 87.0424 55.0455 87.0424C55.6988 87.0424 56.2988 86.8958 56.8455 86.6024C57.4055 86.3091 57.8521 85.8624 58.1855 85.2624C58.5321 84.6491 58.7055 83.9024 58.7055 83.0224C58.7055 82.1291 58.5321 81.3824 58.1855 80.7824C57.8521 80.1691 57.4055 79.7158 56.8455 79.4224C56.2988 79.1291 55.6988 78.9824 55.0455 78.9824ZM64.737 73.7024V88.5024H62.917V73.7024H64.737ZM69.4831 73.7024V88.5024H67.6631V73.7024H69.4831ZM76.9092 77.3824C77.9759 77.3824 78.8759 77.6491 79.6092 78.1824C80.3559 78.7158 80.8759 79.4291 81.1692 80.3224V77.5224H82.9892V88.5024H81.1692V85.7024C80.8759 86.5958 80.3559 87.3091 79.6092 87.8424C78.8759 88.3758 77.9759 88.6424 76.9092 88.6424C75.9359 88.6424 75.0692 88.4158 74.3092 87.9624C73.5492 87.5091 72.9492 86.8624 72.5092 86.0224C72.0826 85.1691 71.8692 84.1691 71.8692 83.0224C71.8692 81.8758 72.0826 80.8758 72.5092 80.0224C72.9492 79.1691 73.5492 78.5158 74.3092 78.0624C75.0692 77.6091 75.9359 77.3824 76.9092 77.3824ZM77.4292 79.0024C76.3092 79.0024 75.4092 79.3624 74.7292 80.0824C74.0626 80.7891 73.7292 81.7691 73.7292 83.0224C73.7292 84.2758 74.0626 85.2624 74.7292 85.9824C75.4092 86.6891 76.3092 87.0424 77.4292 87.0424C78.1492 87.0424 78.7892 86.8758 79.3492 86.5424C79.9226 86.2091 80.3692 85.7424 80.6892 85.1424C81.0092 84.5291 81.1692 83.8224 81.1692 83.0224C81.1692 82.2224 81.0092 81.5158 80.6892 80.9024C80.3692 80.2891 79.9226 79.8224 79.3492 79.5024C78.7892 79.1691 78.1492 79.0024 77.4292 79.0024ZM91.9458 77.3824C92.9191 77.3824 93.7858 77.6091 94.5458 78.0624C95.3058 78.5158 95.8991 79.1691 96.3258 80.0224C96.7658 80.8758 96.9858 81.8758 96.9858 83.0224C96.9858 84.1691 96.7658 85.1691 96.3258 86.0224C95.8991 86.8624 95.3058 87.5091 94.5458 87.9624C93.7858 88.4158 92.9191 88.6424 91.9458 88.6424C90.8791 88.6424 89.9724 88.3758 89.2258 87.8424C88.4924 87.2958 87.9858 86.5824 87.7058 85.7024V88.5024H85.8858V73.7024H87.7058V80.3224C87.9858 79.4424 88.4924 78.7358 89.2258 78.2024C89.9724 77.6558 90.8791 77.3824 91.9458 77.3824ZM91.4258 79.0024C90.7191 79.0024 90.0791 79.1691 89.5058 79.5024C88.9324 79.8224 88.4858 80.2891 88.1658 80.9024C87.8458 81.5158 87.6858 82.2224 87.6858 83.0224C87.6858 83.8224 87.8458 84.5291 88.1658 85.1424C88.4858 85.7424 88.9324 86.2091 89.5058 86.5424C90.0791 86.8758 90.7191 87.0424 91.4258 87.0424C92.5591 87.0424 93.4591 86.6891 94.1258 85.9824C94.8058 85.2624 95.1458 84.2758 95.1458 83.0224C95.1458 81.7691 94.8058 80.7891 94.1258 80.0824C93.4591 79.3624 92.5591 79.0024 91.4258 79.0024ZM104.342 77.3824C105.396 77.3824 106.336 77.6091 107.162 78.0624C108.002 78.5158 108.656 79.1691 109.122 80.0224C109.602 80.8758 109.842 81.8758 109.842 83.0224C109.842 84.1691 109.602 85.1691 109.122 86.0224C108.656 86.8624 108.002 87.5091 107.162 87.9624C106.336 88.4158 105.396 88.6424 104.342 88.6424C103.289 88.6424 102.342 88.4158 101.502 87.9624C100.676 87.5091 100.022 86.8624 99.5423 86.0224C99.0623 85.1691 98.8223 84.1691 98.8223 83.0224C98.8223 81.8758 99.0623 80.8758 99.5423 80.0224C100.022 79.1691 100.676 78.5158 101.502 78.0624C102.342 77.6091 103.289 77.3824 104.342 77.3824ZM104.342 78.9824C103.689 78.9824 103.082 79.1291 102.522 79.4224C101.976 79.7158 101.529 80.1691 101.182 80.7824C100.849 81.3824 100.682 82.1291 100.682 83.0224C100.682 83.9024 100.849 84.6491 101.182 85.2624C101.529 85.8624 101.976 86.3091 102.522 86.6024C103.082 86.8958 103.689 87.0424 104.342 87.0424C104.996 87.0424 105.596 86.8958 106.142 86.6024C106.702 86.3091 107.149 85.8624 107.482 85.2624C107.829 84.6491 108.002 83.9024 108.002 83.0224C108.002 82.1291 107.829 81.3824 107.482 80.7824C107.149 80.1691 106.702 79.7158 106.142 79.4224C105.596 79.1291 104.996 78.9824 104.342 78.9824ZM114.034 79.7424C114.394 78.9824 114.921 78.3958 115.614 77.9824C116.307 77.5558 117.134 77.3424 118.094 77.3424V79.3224H117.534C116.507 79.3224 115.667 79.5891 115.014 80.1224C114.361 80.6424 114.034 81.5091 114.034 82.7224V88.5024H112.214V77.5224H114.034V79.7424ZM124.39 77.3824C125.456 77.3824 126.356 77.6491 127.09 78.1824C127.836 78.7158 128.356 79.4291 128.65 80.3224V77.5224H130.47V88.5024H128.65V85.7024C128.356 86.5958 127.836 87.3091 127.09 87.8424C126.356 88.3758 125.456 88.6424 124.39 88.6424C123.416 88.6424 122.55 88.4158 121.79 87.9624C121.03 87.5091 120.43 86.8624 119.99 86.0224C119.563 85.1691 119.35 84.1691 119.35 83.0224C119.35 81.8758 119.563 80.8758 119.99 80.0224C120.43 79.1691 121.03 78.5158 121.79 78.0624C122.55 77.6091 123.416 77.3824 124.39 77.3824ZM124.91 79.0024C123.79 79.0024 122.89 79.3624 122.21 80.0824C121.543 80.7891 121.21 81.7691 121.21 83.0224C121.21 84.2758 121.543 85.2624 122.21 85.9824C122.89 86.6891 123.79 87.0424 124.91 87.0424C125.63 87.0424 126.27 86.8758 126.83 86.5424C127.403 86.2091 127.85 85.7424 128.17 85.1424C128.49 84.5291 128.65 83.8224 128.65 83.0224C128.65 82.2224 128.49 81.5158 128.17 80.9024C127.85 80.2891 127.403 79.8224 126.83 79.5024C126.27 79.1691 125.63 79.0024 124.91 79.0024ZM138.606 86.9024V88.5024H137.246C136.126 88.5024 135.286 88.2358 134.726 87.7024C134.18 87.1691 133.906 86.2758 133.906 85.0224V79.1024H132.266V77.5224H133.906V74.7824H135.746V77.5224H138.586V79.1024H135.746V85.0624C135.746 85.7691 135.873 86.2558 136.126 86.5224C136.393 86.7758 136.846 86.9024 137.486 86.9024H138.606ZM140.507 74.3024C140.507 73.9691 140.621 73.7024 140.847 73.5024C141.074 73.2891 141.374 73.1824 141.747 73.1824C142.121 73.1824 142.421 73.2891 142.647 73.5024C142.874 73.7024 142.987 73.9691 142.987 74.3024C142.987 74.6358 142.874 74.9091 142.647 75.1224C142.421 75.3224 142.121 75.4224 141.747 75.4224C141.374 75.4224 141.074 75.3224 140.847 75.1224C140.621 74.9091 140.507 74.6358 140.507 74.3024ZM142.647 77.5224V88.5024H140.827V77.5224H142.647ZM150.553 77.3824C151.607 77.3824 152.547 77.6091 153.373 78.0624C154.213 78.5158 154.867 79.1691 155.333 80.0224C155.813 80.8758 156.053 81.8758 156.053 83.0224C156.053 84.1691 155.813 85.1691 155.333 86.0224C154.867 86.8624 154.213 87.5091 153.373 87.9624C152.547 88.4158 151.607 88.6424 150.553 88.6424C149.5 88.6424 148.553 88.4158 147.713 87.9624C146.887 87.5091 146.233 86.8624 145.753 86.0224C145.273 85.1691 145.033 84.1691 145.033 83.0224C145.033 81.8758 145.273 80.8758 145.753 80.0224C146.233 79.1691 146.887 78.5158 147.713 78.0624C148.553 77.6091 149.5 77.3824 150.553 77.3824ZM150.553 78.9824C149.9 78.9824 149.293 79.1291 148.733 79.4224C148.187 79.7158 147.74 80.1691 147.393 80.7824C147.06 81.3824 146.893 82.1291 146.893 83.0224C146.893 83.9024 147.06 84.6491 147.393 85.2624C147.74 85.8624 148.187 86.3091 148.733 86.6024C149.293 86.8958 149.9 87.0424 150.553 87.0424C151.207 87.0424 151.807 86.8958 152.353 86.6024C152.913 86.3091 153.36 85.8624 153.693 85.2624C154.04 84.6491 154.213 83.9024 154.213 83.0224C154.213 82.1291 154.04 81.3824 153.693 80.7824C153.36 80.1691 152.913 79.7158 152.353 79.4224C151.807 79.1291 151.207 78.9824 150.553 78.9824ZM164.205 77.3424C165.485 77.3424 166.518 77.7558 167.305 78.5824C168.092 79.3958 168.485 80.5758 168.485 82.1224V88.5024H166.665V82.2824C166.665 81.1891 166.385 80.3491 165.825 79.7624C165.265 79.1758 164.505 78.8824 163.545 78.8824C162.545 78.8824 161.745 79.2091 161.145 79.8624C160.545 80.5024 160.245 81.4424 160.245 82.6824V88.5024H158.425V77.5224H160.245V80.1224C160.525 79.2291 161.018 78.5424 161.725 78.0624C162.445 77.5824 163.272 77.3424 164.205 77.3424Z" fill="white" fill-opacity="0.95"/>
</svg>
