<svg width="322" height="55" viewBox="0 0 322 55" fill="none" xmlns="http://www.w3.org/2000/svg">
<path d="M28.3 14.4C26.785 11.7482 24.5249 9.59932 21.8 8.22001C18.8161 6.74606 15.528 5.99255 12.2 6.02001H0V40.92H12.2C15.5364 41.0288 18.8439 40.2708 21.8 38.72C24.5205 37.4189 26.7857 35.3279 28.3 32.72C29.8684 29.9114 30.6622 26.7363 30.6 23.52C30.6644 20.3288 29.87 17.179 28.3 14.4ZM20.4 32.1C18.4 34.1 15.6 35.1 11.9 35.1H6.9V12.1H11.9C15.6 12.1 18.4 13.1 20.4 15.2C21.4345 16.3499 22.2319 17.6926 22.7467 19.1512C23.2615 20.6097 23.4835 22.1555 23.4 23.7C23.4 27.3 22.4 30.1 20.4 32.1Z" fill="#19191E"/>
<path d="M61.5 26.6C61.5601 24.1133 60.9375 21.6577 59.7 19.5C58.5856 17.4529 56.9236 15.7563 54.9 14.6C52.7421 13.4658 50.3377 12.8819 47.9 12.9C45.3826 12.8492 42.8973 13.4705 40.7 14.7C38.6227 15.8646 36.9224 17.5996 35.8 19.7C34.5653 22.0397 33.9458 24.655 34 27.3C33.9584 29.9117 34.5776 32.4916 35.8 34.8C36.9291 36.9292 38.6708 38.6708 40.8 39.8C42.9978 41.0281 45.4828 41.6493 48 41.6C50.9632 41.679 53.8733 40.8025 56.3 39.1C58.5314 37.4794 60.1519 35.1544 60.9 32.5H53.4C52.921 33.5462 52.1432 34.4273 51.1645 35.0323C50.1858 35.6374 49.0499 35.9393 47.9 35.9C46.2363 35.9379 44.623 35.3284 43.4 34.2C42.1383 32.9501 41.3893 31.2737 41.3 29.5H61.5V26.6ZM41.1 24.6C41.2805 22.9666 42.0228 21.4466 43.2 20.3C44.4067 19.2212 45.9822 18.6483 47.6 18.7C49.2924 18.6689 50.9345 19.2758 52.2 20.4C52.822 20.9316 53.3224 21.5906 53.6675 22.3325C54.0126 23.0744 54.1942 23.8818 54.2 24.7H41.1V24.6Z" fill="#19191E"/>
<path d="M77.2 41.5001C75.1044 41.5386 73.0248 41.1295 71.1 40.3001C69.4337 39.5424 67.9629 38.4136 66.8 37.0001C65.8009 35.6253 65.2115 33.9958 65.1 32.3001H72.2C72.2439 32.8308 72.4004 33.3461 72.6591 33.8117C72.9177 34.2772 73.2726 34.6823 73.7 35.0001C74.7207 35.7181 75.954 36.0705 77.2 36.0001C78.29 36.0491 79.3698 35.7705 80.3 35.2001C80.673 34.9934 80.9822 34.6882 81.1938 34.318C81.4054 33.9477 81.5113 33.5264 81.5 33.1001C81.4983 32.6637 81.3634 32.2383 81.1132 31.8808C80.8629 31.5234 80.5094 31.2509 80.1 31.1001C78.7317 30.4301 77.2881 29.9265 75.8 29.6001C74.0696 29.2099 72.366 28.7089 70.7 28.1001C69.3675 27.5784 68.1951 26.7164 67.3 25.6001C66.3367 24.3404 65.8417 22.7848 65.9 21.2001C65.8875 19.6991 66.3418 18.2315 67.2 17.0001C68.1643 15.6674 69.4799 14.6288 71 14.0001C72.8427 13.2574 74.8133 12.8836 76.8 12.9001C79.6496 12.7455 82.458 13.6342 84.7 15.4001C85.6967 16.1875 86.5022 17.1903 87.0564 18.3333C87.6106 19.4763 87.899 20.7298 87.9 22.0001H81.2C81.1637 21.4923 81.0202 20.9981 80.7788 20.5499C80.5375 20.1017 80.2039 19.7098 79.8 19.4001C78.8912 18.6872 77.753 18.3315 76.6 18.4001C75.5534 18.3389 74.5114 18.582 73.6 19.1001C73.272 19.3159 73.0068 19.6145 72.8312 19.9657C72.6556 20.3168 72.5758 20.7082 72.6 21.1001C72.6083 21.5601 72.7434 22.0089 72.9904 22.397C73.2374 22.7852 73.5868 23.0977 74 23.3001C75.3737 23.9568 76.8158 24.4598 78.3 24.8001C79.993 25.2075 81.6622 25.7082 83.3 26.3001C84.5966 26.8358 85.7332 27.6969 86.6 28.8001C87.6399 30.0234 88.1761 31.5962 88.1 33.2001C88.1335 34.735 87.6783 36.2408 86.8 37.5001C85.8646 38.8602 84.54 39.9059 83 40.5001C81.1428 41.1806 79.1778 41.5194 77.2 41.5001Z" fill="#19191E"/>
<path d="M100.9 13.3H93.9V41H100.9V13.3Z" fill="#19191E"/>
<path d="M127.8 13.3V17.3C126.834 15.9587 125.567 14.8627 124.1 14.1C121.161 12.7103 117.796 12.5175 114.717 13.5625C111.638 14.6074 109.086 16.8082 107.6 19.7C106.458 22.0337 105.876 24.6018 105.9 27.2C105.811 29.8047 106.397 32.3881 107.6 34.7C108.637 36.7896 110.228 38.554 112.2 39.8C114.118 40.9974 116.339 41.6219 118.6 41.6C120.483 41.6505 122.346 41.202 124 40.3C125.476 39.5101 126.77 38.4201 127.8 37.1V41.4C127.8 43.9 127.2 45.7 125.9 46.9C124.535 48.1339 122.738 48.7806 120.9 48.7C119.331 48.7183 117.783 48.34 116.4 47.6C115.826 47.2914 115.324 46.8644 114.928 46.3472C114.531 45.83 114.249 45.2345 114.1 44.6H107.1C107.216 46.0795 107.652 47.5162 108.377 48.8111C109.102 50.1059 110.099 51.228 111.3 52.1C114.155 54.0377 117.552 55.0182 121 54.9C123.615 54.9711 126.202 54.3501 128.5 53.1C130.492 51.9801 132.122 50.3148 133.2 48.3C134.226 46.1824 134.74 43.853 134.7 41.5V13.6H127.8V13.3ZM126.8 31.6C126.144 32.7413 125.217 33.703 124.1 34.4C122.97 35.0383 121.698 35.3821 120.4 35.4C119.128 35.428 117.876 35.0801 116.8 34.4C115.687 33.6989 114.76 32.7381 114.1 31.6C113.396 30.243 113.052 28.7281 113.1 27.2C113.043 25.7031 113.389 24.2184 114.1 22.9C114.735 21.7429 115.667 20.7763 116.8 20.1C117.898 19.4727 119.136 19.129 120.4 19.1C121.701 19.0924 122.98 19.438 124.1 20.1C125.236 20.7732 126.169 21.7406 126.8 22.9C127.517 24.2524 127.862 25.7707 127.8 27.3C127.843 28.7956 127.499 30.277 126.8 31.6Z" fill="#19191E"/>
<path d="M157 12.8999C158.476 12.8281 159.951 13.0669 161.329 13.6009C162.707 14.1349 163.958 14.9522 165 15.9999C167.137 18.3794 168.251 21.5051 168.1 24.6999V40.8999H161.1V25.5999C161.161 24.6955 161.042 23.788 160.75 22.9298C160.459 22.0716 160 21.2797 159.4 20.5999C158.822 19.9953 158.122 19.5216 157.346 19.2111C156.569 18.9005 155.735 18.7603 154.9 18.7999C154.049 18.7563 153.199 18.8942 152.406 19.2046C151.613 19.515 150.895 19.9906 150.3 20.5999C149.102 21.9807 148.492 23.7752 148.6 25.5999V40.8999H141.6V13.2199H148.6V16.7199C149.549 15.5026 150.786 14.5404 152.2 13.9199C153.722 13.2822 155.35 12.9362 157 12.8999Z" fill="#19191E"/>
<path d="M210.9 4H203.9V41H210.9V4Z" fill="#19191E"/>
<path d="M247.8 27.2199C247.73 24.6052 248.351 22.0182 249.6 19.7199C250.713 17.646 252.373 15.9167 254.4 14.7199C256.565 13.5005 259.015 12.8792 261.5 12.9199C264.544 12.8155 267.535 13.7305 270 15.5199C272.337 17.2998 273.967 19.8511 274.6 22.7199H267C266.636 21.6037 265.938 20.6263 265 19.9199C263.976 19.2096 262.745 18.858 261.5 18.9199C260.583 18.8814 259.67 19.0607 258.836 19.4431C258.001 19.8255 257.269 20.4001 256.7 21.1199C255.5 22.5199 254.9 24.6199 254.9 27.3199C254.759 29.5022 255.397 31.6636 256.7 33.4199C257.283 34.1244 258.017 34.6882 258.848 35.0692C259.679 35.4501 260.586 35.6384 261.5 35.6199C262.715 35.7222 263.928 35.3992 264.931 34.706C265.935 34.0129 266.666 32.9927 267 31.8199H274.6C273.938 34.6493 272.312 37.1598 270 38.9199C267.565 40.7766 264.56 41.7308 261.5 41.6199C259.015 41.6689 256.562 41.0471 254.4 39.8199C252.347 38.6565 250.679 36.9186 249.6 34.8199C248.387 32.472 247.769 29.8624 247.8 27.2199Z" fill="#19191E"/>
<path d="M300.75 13.3V17.3C299.744 15.9576 298.444 14.863 296.95 14.1C295.277 13.2608 293.421 12.8486 291.55 12.9C289.259 12.8648 287.005 13.4865 285.056 14.6915C283.106 15.8965 281.543 17.6345 280.55 19.7C279.408 22.0338 278.826 24.6018 278.85 27.2C278.808 29.8001 279.391 32.3723 280.55 34.7C281.575 36.7663 283.127 38.5255 285.05 39.8C286.833 40.8673 288.85 41.4802 290.925 41.5849C293 41.6895 295.069 41.2826 296.95 40.4C298.407 39.5904 299.696 38.5113 300.75 37.22V41.22H307.75V13.5H300.75V13.3ZM299.75 31.6C299.094 32.7413 298.167 33.7031 297.05 34.4C295.92 35.0383 294.648 35.3822 293.35 35.4C292.078 35.428 290.826 35.0802 289.75 34.4C288.637 33.6989 287.71 32.7381 287.05 31.6C286.346 30.243 286.002 28.7281 286.05 27.2C285.994 25.7031 286.339 24.2184 287.05 22.9C287.685 21.7429 288.617 20.7763 289.75 20.1C290.848 19.4727 292.086 19.129 293.35 19.1C294.651 19.0925 295.93 19.4381 297.05 20.1C298.186 20.7732 299.119 21.7406 299.75 22.9C300.467 24.2524 300.812 25.7707 300.75 27.3C300.793 28.7957 300.449 30.277 299.75 31.6Z" fill="#19191E"/>
<path d="M321.6 4H314.6V41H321.6V4Z" fill="#19191E"/>
<path d="M97.5 10C100.261 10 102.5 7.76142 102.5 5C102.5 2.23858 100.261 0 97.5 0C94.7386 0 92.5 2.23858 92.5 5C92.5 7.76142 94.7386 10 97.5 10Z" fill="#00CAB2"/>
<path d="M186.5 41C189.814 41 192.5 38.3137 192.5 35C192.5 31.6863 189.814 29 186.5 29C183.186 29 180.5 31.6863 180.5 35C180.5 38.3137 183.186 41 186.5 41Z" fill="#FF8368"/>
<path d="M230 41C237.456 41 243.5 34.9558 243.5 27.5C243.5 20.0442 237.456 14 230 14C222.544 14 216.5 20.0442 216.5 27.5C216.5 34.9558 222.544 41 230 41Z" fill="#FFB800"/>
</svg>
