<svg width="24" height="26" viewBox="0 0 24 26" fill="none" xmlns="http://www.w3.org/2000/svg">
<path d="M23.4212 20.4902L17.1425 10.918V3.25H17.5711C18.2836 3.25 18.8568 2.70664 18.8568 2.03125V1.21875C18.8568 0.543359 18.2836 0 17.5711 0H6.42813C5.71563 0 5.14241 0.543359 5.14241 1.21875V2.03125C5.14241 2.70664 5.71563 3.25 6.42813 3.25H6.85671V10.918L0.578075 20.4902C-0.991583 22.882 0.819149 26 3.79775 26H20.2015C23.1854 26 24.9908 22.877 23.4212 20.4902V20.4902ZM7.38707 16.25L9.96924 12.3094C10.1675 12.0453 10.28 11.7203 10.28 11.375V3.25H13.7086V11.375C13.7086 11.7254 13.8264 12.0453 14.0193 12.3094L16.6014 16.25H7.38707V16.25Z" fill="white"/>
</svg>
