<svg width="1024" height="521" viewBox="0 0 1024 521" fill="none" xmlns="http://www.w3.org/2000/svg">
<rect width="1024" height="521" fill="#19191E"/>
<path fill-rule="evenodd" clip-rule="evenodd" d="M1024 189.825V517.683C1000.53 516.484 975.25 508.948 950.897 499.584C912.168 484.681 875.913 465.084 856.681 434.356C837.508 403.662 835.325 361.896 845.806 325.795C856.288 289.693 879.459 259.348 908.053 234.567C936.613 209.845 970.596 190.686 1005.81 189.115C1011.85 188.851 1017.93 189.102 1024 189.825Z" fill="#00CAB2"/>
<path fill-rule="evenodd" clip-rule="evenodd" d="M135.433 0C136.614 17.3955 133.442 34.9693 127.619 51.7964C119.886 74.1026 107.48 95.0918 88.9126 106.946C70.3028 118.8 45.5322 121.562 22.716 116.761C14.8362 115.103 7.18954 112.548 0 109.192V0H135.433Z" fill="#FFB800"/>
</svg>
