<svg width="403" height="449" viewBox="0 0 403 449" fill="none" xmlns="http://www.w3.org/2000/svg">
<path d="M317.282 325.073C319.298 335.793 314.206 347.717 304.667 352.135C295.142 356.56 281.157 353.47 270.981 347.003C260.812 340.524 254.454 330.668 252.648 319.861C250.856 309.062 253.638 297.339 261.797 293.086C269.955 288.833 283.484 292.062 294.815 298.444C306.132 304.818 315.257 314.333 317.282 325.073Z" fill="#4A6BAC"/>
<path d="M366.519 97.528C375.151 118.66 369.016 146 359.817 171.886C350.596 197.812 338.254 222.202 318.343 235.572C298.455 248.903 271.037 251.236 247.155 245.074C223.272 238.913 202.985 224.238 186.274 205.859C169.602 187.501 156.507 165.44 154.952 142.191C153.418 118.903 163.385 94.407 179.342 75.5122C195.3 56.6173 217.207 43.3026 240.161 39.4762C263.137 35.6102 287.121 41.2112 310.833 51.4336C334.505 61.6348 357.867 76.436 366.519 97.528Z" fill="#FF8368"/>
<path d="M93.0826 113.223C102.537 113.748 111.454 123.156 119.028 132.537C126.602 141.919 132.822 151.307 134.071 161.035C135.321 170.762 131.566 180.873 127.932 190.57C124.298 200.268 119.443 207.127 112.856 212.54C106.292 217.942 97.9857 221.874 87.302 224.924C76.5956 227.984 64.8444 232.564 54.0878 230.381C43.3085 228.208 33.514 219.248 26.4901 208.246C19.4889 197.233 15.2258 184.164 16.0676 171.784C16.9093 159.405 22.8461 147.691 31.6216 140.756C40.3972 133.821 50.4094 127.489 61.2082 122.219C72.007 116.949 83.6279 112.699 93.0826 113.223Z" fill="#00CAB2"/>
<path d="M152.738 268.827C166.45 271.295 179.026 280.057 188.12 290.878C197.243 301.687 202.912 314.543 208.24 328.603C213.557 342.635 218.544 357.897 216.006 372.108C213.507 386.334 203.494 399.535 190.648 406.935C177.83 414.323 162.207 415.899 146.432 417.89C130.686 419.871 114.8 422.295 101.014 417.703C87.2384 413.138 75.5232 401.541 67.654 387.831C59.7962 374.148 55.757 358.363 57.8415 343.762C59.926 329.161 68.1456 315.773 77.6962 304.34C87.2857 292.922 98.2289 283.516 111.155 276.854C124.093 270.22 138.997 266.371 152.738 268.827Z" fill="#FFB800"/>
</svg>
