<svg width="1107" height="178" viewBox="0 0 1107 178" fill="none" xmlns="http://www.w3.org/2000/svg">
<path d="M26.9164 133.179L26.9134 133.176C12.3584 120.897 5.71316 104.999 3.34386 87.5439L3.34378 87.5433C0.952957 69.96 3.04835 51.9239 17.2469 40.481C24.4827 34.6689 35.0219 30.3829 47.5041 27.1876C59.9474 24.0023 74.0976 21.9551 88.3822 20.4872C117.066 17.5446 145.453 17.0818 167.33 24.6434C189.092 32.1817 204.441 47.6903 210.438 63.5777C216.386 79.3338 213.224 95.8364 204.758 111.768C196.305 127.646 182.794 142.502 162.616 150.891C142.279 159.327 114.985 161.353 89.7045 157.888C64.4275 154.425 41.5412 145.556 26.9164 133.179Z" stroke="#4A6BAC" stroke-width="5"/>
<path d="M27.7286 77.398H32.1206V79H25.6766V66.292H27.7286V77.398ZM38.2634 68.956C39.2234 68.956 40.0874 69.16 40.8554 69.568C41.6234 69.976 42.2234 70.564 42.6554 71.332C43.0874 72.1 43.3034 73 43.3034 74.032C43.3034 75.076 43.0874 75.982 42.6554 76.75C42.2234 77.518 41.6234 78.106 40.8554 78.514C40.0874 78.922 39.2234 79.126 38.2634 79.126C37.3034 79.126 36.4394 78.922 35.6714 78.514C34.9154 78.106 34.3154 77.518 33.8714 76.75C33.4394 75.97 33.2234 75.064 33.2234 74.032C33.2234 73 33.4394 72.1 33.8714 71.332C34.3154 70.564 34.9154 69.976 35.6714 69.568C36.4394 69.16 37.3034 68.956 38.2634 68.956ZM38.2634 70.738C37.7354 70.738 37.2494 70.858 36.8054 71.098C36.3614 71.338 36.0014 71.71 35.7254 72.214C35.4614 72.706 35.3294 73.312 35.3294 74.032C35.3294 74.764 35.4614 75.376 35.7254 75.868C36.0014 76.36 36.3614 76.726 36.8054 76.966C37.2494 77.206 37.7354 77.326 38.2634 77.326C38.7914 77.326 39.2774 77.206 39.7214 76.966C40.1654 76.726 40.5194 76.36 40.7834 75.868C41.0594 75.376 41.1974 74.764 41.1974 74.032C41.1974 73.312 41.0594 72.706 40.7834 72.214C40.5194 71.71 40.1654 71.338 39.7214 71.098C39.2774 70.858 38.7914 70.738 38.2634 70.738ZM49.6862 68.956C50.9702 68.956 52.0322 69.298 52.8722 69.982C53.7122 70.654 54.2342 71.572 54.4382 72.736H52.2602C52.1402 72.112 51.8462 71.626 51.3782 71.278C50.9222 70.918 50.3462 70.738 49.6502 70.738C48.8582 70.738 48.1982 71.02 47.6702 71.584C47.1422 72.136 46.8782 72.952 46.8782 74.032C46.8782 75.112 47.1422 75.934 47.6702 76.498C48.1982 77.062 48.8582 77.344 49.6502 77.344C50.3462 77.344 50.9222 77.164 51.3782 76.804C51.8462 76.444 52.1402 75.952 52.2602 75.328H54.4382C54.2342 76.492 53.7122 77.416 52.8722 78.1C52.0322 78.784 50.9702 79.126 49.6862 79.126C48.7262 79.126 47.8742 78.922 47.1302 78.514C46.3982 78.106 45.8222 77.518 45.4022 76.75C44.9822 75.982 44.7722 75.076 44.7722 74.032C44.7722 73 44.9822 72.1 45.4022 71.332C45.8222 70.564 46.3982 69.976 47.1302 69.568C47.8742 69.16 48.7262 68.956 49.6862 68.956ZM60.3987 68.956C61.2987 68.956 62.0667 69.178 62.7027 69.622C63.3387 70.066 63.7887 70.654 64.0527 71.386V69.082H66.1047V79H64.0527V76.696C63.7887 77.428 63.3387 78.016 62.7027 78.46C62.0667 78.904 61.2987 79.126 60.3987 79.126C59.5347 79.126 58.7607 78.922 58.0767 78.514C57.4047 78.106 56.8767 77.518 56.4927 76.75C56.1087 75.982 55.9167 75.076 55.9167 74.032C55.9167 73 56.1087 72.1 56.4927 71.332C56.8767 70.564 57.4047 69.976 58.0767 69.568C58.7607 69.16 59.5347 68.956 60.3987 68.956ZM61.0287 70.756C60.1167 70.756 59.3847 71.05 58.8327 71.638C58.2927 72.214 58.0227 73.012 58.0227 74.032C58.0227 75.052 58.2927 75.856 58.8327 76.444C59.3847 77.02 60.1167 77.308 61.0287 77.308C61.6047 77.308 62.1207 77.176 62.5767 76.912C63.0327 76.636 63.3927 76.252 63.6567 75.76C63.9207 75.268 64.0527 74.692 64.0527 74.032C64.0527 73.384 63.9207 72.814 63.6567 72.322C63.3927 71.818 63.0327 71.434 62.5767 71.17C62.1207 70.894 61.6047 70.756 61.0287 70.756ZM70.6192 65.68V79H68.5672V65.68H70.6192ZM81.8571 68.956C82.8171 68.956 83.6811 69.16 84.4491 69.568C85.2171 69.976 85.8171 70.564 86.2491 71.332C86.6811 72.1 86.8971 73 86.8971 74.032C86.8971 75.076 86.6811 75.982 86.2491 76.75C85.8171 77.518 85.2171 78.106 84.4491 78.514C83.6811 78.922 82.8171 79.126 81.8571 79.126C80.8971 79.126 80.0331 78.922 79.2651 78.514C78.5091 78.106 77.9091 77.518 77.4651 76.75C77.0331 75.97 76.8171 75.064 76.8171 74.032C76.8171 73 77.0331 72.1 77.4651 71.332C77.9091 70.564 78.5091 69.976 79.2651 69.568C80.0331 69.16 80.8971 68.956 81.8571 68.956ZM81.8571 70.738C81.3291 70.738 80.8431 70.858 80.3991 71.098C79.9551 71.338 79.5951 71.71 79.3191 72.214C79.0551 72.706 78.9231 73.312 78.9231 74.032C78.9231 74.764 79.0551 75.376 79.3191 75.868C79.5951 76.36 79.9551 76.726 80.3991 76.966C80.8431 77.206 81.3291 77.326 81.8571 77.326C82.3851 77.326 82.8711 77.206 83.3151 76.966C83.7591 76.726 84.1131 76.36 84.3771 75.868C84.6531 75.376 84.7911 74.764 84.7911 74.032C84.7911 73.312 84.6531 72.706 84.3771 72.214C84.1131 71.71 83.7591 71.338 83.3151 71.098C82.8711 70.858 82.3851 70.738 81.8571 70.738ZM90.9219 71.026C91.2579 70.378 91.7379 69.868 92.3619 69.496C92.9859 69.112 93.7059 68.92 94.5219 68.92V71.152H93.9099C93.0099 71.152 92.2839 71.374 91.7319 71.818C91.1919 72.25 90.9219 72.97 90.9219 73.978V79H88.8699V69.082H90.9219V71.026ZM100.037 68.956C100.937 68.956 101.705 69.178 102.341 69.622C102.977 70.066 103.427 70.654 103.691 71.386V69.082H105.743V79.108C105.743 80.032 105.551 80.848 105.167 81.556C104.795 82.276 104.255 82.84 103.547 83.248C102.839 83.656 101.999 83.86 101.027 83.86C99.6354 83.86 98.5074 83.53 97.6434 82.87C96.7914 82.21 96.2574 81.316 96.0414 80.188H98.0754C98.2434 80.776 98.5674 81.232 99.0474 81.556C99.5274 81.892 100.139 82.06 100.883 82.06C101.699 82.06 102.371 81.808 102.899 81.304C103.427 80.8 103.691 80.068 103.691 79.108V76.696C103.427 77.428 102.977 78.016 102.341 78.46C101.705 78.904 100.937 79.126 100.037 79.126C99.1734 79.126 98.3994 78.922 97.7154 78.514C97.0434 78.106 96.5154 77.518 96.1314 76.75C95.7474 75.982 95.5554 75.076 95.5554 74.032C95.5554 73 95.7474 72.1 96.1314 71.332C96.5154 70.564 97.0434 69.976 97.7154 69.568C98.3994 69.16 99.1734 68.956 100.037 68.956ZM100.667 70.756C99.7554 70.756 99.0234 71.05 98.4714 71.638C97.9314 72.214 97.6614 73.012 97.6614 74.032C97.6614 75.052 97.9314 75.856 98.4714 76.444C99.0234 77.02 99.7554 77.308 100.667 77.308C101.243 77.308 101.759 77.176 102.215 76.912C102.671 76.636 103.031 76.252 103.295 75.76C103.559 75.268 103.691 74.692 103.691 74.032C103.691 73.384 103.559 72.814 103.295 72.322C103.031 71.818 102.671 71.434 102.215 71.17C101.759 70.894 101.243 70.756 100.667 70.756ZM112.184 68.956C113.084 68.956 113.852 69.178 114.488 69.622C115.124 70.066 115.574 70.654 115.838 71.386V69.082H117.89V79H115.838V76.696C115.574 77.428 115.124 78.016 114.488 78.46C113.852 78.904 113.084 79.126 112.184 79.126C111.32 79.126 110.546 78.922 109.862 78.514C109.19 78.106 108.662 77.518 108.278 76.75C107.894 75.982 107.702 75.076 107.702 74.032C107.702 73 107.894 72.1 108.278 71.332C108.662 70.564 109.19 69.976 109.862 69.568C110.546 69.16 111.32 68.956 112.184 68.956ZM112.814 70.756C111.902 70.756 111.17 71.05 110.618 71.638C110.078 72.214 109.808 73.012 109.808 74.032C109.808 75.052 110.078 75.856 110.618 76.444C111.17 77.02 111.902 77.308 112.814 77.308C113.39 77.308 113.906 77.176 114.362 76.912C114.818 76.636 115.178 76.252 115.442 75.76C115.706 75.268 115.838 74.692 115.838 74.032C115.838 73.384 115.706 72.814 115.442 72.322C115.178 71.818 114.818 71.434 114.362 71.17C113.906 70.894 113.39 70.756 112.814 70.756ZM125.896 68.92C127.048 68.92 127.972 69.292 128.668 70.036C129.364 70.78 129.712 71.842 129.712 73.222V79H127.66V73.438C127.66 72.55 127.432 71.866 126.976 71.386C126.52 70.894 125.896 70.648 125.104 70.648C124.288 70.648 123.634 70.912 123.142 71.44C122.65 71.956 122.404 72.718 122.404 73.726V79H120.352V69.082H122.404V71.26C122.668 70.516 123.112 69.94 123.736 69.532C124.36 69.124 125.08 68.92 125.896 68.92ZM131.824 66.202C131.824 65.854 131.944 65.566 132.184 65.338C132.424 65.11 132.742 64.996 133.138 64.996C133.534 64.996 133.852 65.11 134.092 65.338C134.344 65.566 134.47 65.854 134.47 66.202C134.47 66.55 134.344 66.832 134.092 67.048C133.852 67.264 133.534 67.372 133.138 67.372C132.742 67.372 132.424 67.264 132.184 67.048C131.944 66.832 131.824 66.55 131.824 66.202ZM134.164 69.082V79H132.112V69.082H134.164ZM138.123 77.272H143.217V79H135.855V77.362L140.679 70.81H135.981V69.082H143.037V70.72L138.123 77.272ZM148.887 68.956C149.787 68.956 150.555 69.178 151.191 69.622C151.827 70.066 152.277 70.654 152.541 71.386V69.082H154.593V79H152.541V76.696C152.277 77.428 151.827 78.016 151.191 78.46C150.555 78.904 149.787 79.126 148.887 79.126C148.023 79.126 147.249 78.922 146.565 78.514C145.893 78.106 145.365 77.518 144.981 76.75C144.597 75.982 144.405 75.076 144.405 74.032C144.405 73 144.597 72.1 144.981 71.332C145.365 70.564 145.893 69.976 146.565 69.568C147.249 69.16 148.023 68.956 148.887 68.956ZM149.517 70.756C148.605 70.756 147.873 71.05 147.321 71.638C146.781 72.214 146.511 73.012 146.511 74.032C146.511 75.052 146.781 75.856 147.321 76.444C147.873 77.02 148.605 77.308 149.517 77.308C150.093 77.308 150.609 77.176 151.065 76.912C151.521 76.636 151.881 76.252 152.145 75.76C152.409 75.268 152.541 74.692 152.541 74.032C152.541 73.384 152.409 72.814 152.145 72.322C151.881 71.818 151.521 71.434 151.065 71.17C150.609 70.894 150.093 70.756 149.517 70.756ZM162.041 77.218V79H160.781C159.725 79 158.921 78.748 158.369 78.244C157.829 77.728 157.559 76.876 157.559 75.688V70.828H156.137V69.082H157.559V66.616H159.629V69.082H162.023V70.828H159.629V75.724C159.629 76.288 159.731 76.678 159.935 76.894C160.151 77.11 160.523 77.218 161.051 77.218H162.041ZM163.676 66.202C163.676 65.854 163.796 65.566 164.036 65.338C164.276 65.11 164.594 64.996 164.99 64.996C165.386 64.996 165.704 65.11 165.944 65.338C166.196 65.566 166.322 65.854 166.322 66.202C166.322 66.55 166.196 66.832 165.944 67.048C165.704 67.264 165.386 67.372 164.99 67.372C164.594 67.372 164.276 67.264 164.036 67.048C163.796 66.832 163.676 66.55 163.676 66.202ZM166.016 69.082V79H163.964V69.082H166.016ZM173.035 68.956C173.995 68.956 174.859 69.16 175.627 69.568C176.395 69.976 176.995 70.564 177.427 71.332C177.859 72.1 178.075 73 178.075 74.032C178.075 75.076 177.859 75.982 177.427 76.75C176.995 77.518 176.395 78.106 175.627 78.514C174.859 78.922 173.995 79.126 173.035 79.126C172.075 79.126 171.211 78.922 170.443 78.514C169.687 78.106 169.087 77.518 168.643 76.75C168.211 75.97 167.995 75.064 167.995 74.032C167.995 73 168.211 72.1 168.643 71.332C169.087 70.564 169.687 69.976 170.443 69.568C171.211 69.16 172.075 68.956 173.035 68.956ZM173.035 70.738C172.507 70.738 172.021 70.858 171.577 71.098C171.133 71.338 170.773 71.71 170.497 72.214C170.233 72.706 170.101 73.312 170.101 74.032C170.101 74.764 170.233 75.376 170.497 75.868C170.773 76.36 171.133 76.726 171.577 76.966C172.021 77.206 172.507 77.326 173.035 77.326C173.563 77.326 174.049 77.206 174.493 76.966C174.937 76.726 175.291 76.36 175.555 75.868C175.831 75.376 175.969 74.764 175.969 74.032C175.969 73.312 175.831 72.706 175.555 72.214C175.291 71.71 174.937 71.338 174.493 71.098C174.049 70.858 173.563 70.738 173.035 70.738ZM185.592 68.92C186.744 68.92 187.668 69.292 188.364 70.036C189.06 70.78 189.408 71.842 189.408 73.222V79H187.356V73.438C187.356 72.55 187.128 71.866 186.672 71.386C186.216 70.894 185.592 70.648 184.8 70.648C183.984 70.648 183.33 70.912 182.838 71.44C182.346 71.956 182.1 72.718 182.1 73.726V79H180.048V69.082H182.1V71.26C182.364 70.516 182.808 69.94 183.432 69.532C184.056 69.124 184.776 68.92 185.592 68.92ZM26.5527 95.956C27.7167 95.956 28.6467 96.256 29.3427 96.856C30.0507 97.444 30.4827 98.236 30.6387 99.232H28.6947C28.6107 98.692 28.3767 98.26 27.9927 97.936C27.6207 97.6 27.1227 97.432 26.4987 97.432C25.9827 97.432 25.5807 97.558 25.2927 97.81C25.0167 98.05 24.8787 98.38 24.8787 98.8C24.8787 99.112 24.9807 99.364 25.1847 99.556C25.3887 99.748 25.6407 99.898 25.9407 100.006C26.2527 100.114 26.6907 100.234 27.2547 100.366C27.9987 100.534 28.5987 100.708 29.0547 100.888C29.5227 101.068 29.9187 101.356 30.2427 101.752C30.5787 102.136 30.7467 102.664 30.7467 103.336C30.7467 104.164 30.4287 104.836 29.7927 105.352C29.1687 105.868 28.3227 106.126 27.2547 106.126C26.0187 106.126 25.0167 105.838 24.2487 105.262C23.4927 104.686 23.0367 103.882 22.8807 102.85H24.8787C24.9387 103.39 25.1787 103.828 25.5987 104.164C26.0187 104.5 26.5707 104.668 27.2547 104.668C27.7467 104.668 28.1307 104.542 28.4067 104.29C28.6947 104.026 28.8387 103.696 28.8387 103.3C28.8387 102.952 28.7307 102.676 28.5147 102.472C28.2987 102.268 28.0287 102.112 27.7047 102.004C27.3807 101.884 26.9367 101.764 26.3727 101.644C25.6527 101.476 25.0647 101.308 24.6087 101.14C24.1647 100.972 23.7807 100.702 23.4567 100.33C23.1447 99.946 22.9887 99.43 22.9887 98.782C22.9887 97.942 23.3007 97.264 23.9247 96.748C24.5607 96.22 25.4367 95.956 26.5527 95.956ZM41.9485 96.082V106H39.8785V103.84C39.6265 104.572 39.1885 105.142 38.5645 105.55C37.9405 105.946 37.2145 106.144 36.3865 106.144C35.2345 106.144 34.3105 105.772 33.6145 105.028C32.9185 104.284 32.5705 103.222 32.5705 101.842V96.082H34.6225V101.626C34.6225 102.526 34.8505 103.222 35.3065 103.714C35.7625 104.194 36.3865 104.434 37.1785 104.434C37.9945 104.434 38.6485 104.17 39.1405 103.642C39.6325 103.114 39.8785 102.346 39.8785 101.338V96.082H41.9485ZM50.0941 95.956C50.9581 95.956 51.7261 96.16 52.3981 96.568C53.0821 96.976 53.6161 97.564 54.0001 98.332C54.3841 99.1 54.5761 100 54.5761 101.032C54.5761 102.076 54.3841 102.982 54.0001 103.75C53.6161 104.518 53.0821 105.106 52.3981 105.514C51.7261 105.922 50.9581 106.126 50.0941 106.126C49.1941 106.126 48.4261 105.904 47.7901 105.46C47.1541 105.016 46.7101 104.428 46.4581 103.696V106H44.4061V92.68H46.4581V98.386C46.7101 97.654 47.1541 97.066 47.7901 96.622C48.4261 96.178 49.1941 95.956 50.0941 95.956ZM49.4641 97.756C48.8881 97.756 48.3721 97.894 47.9161 98.17C47.4601 98.434 47.1001 98.818 46.8361 99.322C46.5721 99.814 46.4401 100.384 46.4401 101.032C46.4401 101.692 46.5721 102.268 46.8361 102.76C47.1001 103.252 47.4601 103.636 47.9161 103.912C48.3721 104.176 48.8881 104.308 49.4641 104.308C50.3761 104.308 51.1081 104.02 51.6601 103.444C52.2121 102.856 52.4881 102.052 52.4881 101.032C52.4881 100.024 52.2121 99.226 51.6601 98.638C51.1081 98.05 50.3761 97.756 49.4641 97.756ZM68.9545 95.92C70.1305 95.92 71.0665 96.292 71.7625 97.036C72.4705 97.78 72.8245 98.842 72.8245 100.222V106H70.7725V100.438C70.7725 99.574 70.5565 98.908 70.1245 98.44C69.6925 97.96 69.0985 97.72 68.3425 97.72C67.5385 97.72 66.8965 97.978 66.4165 98.494C65.9485 98.998 65.7145 99.742 65.7145 100.726V106H63.6625V100.438C63.6625 99.574 63.4465 98.908 63.0145 98.44C62.5825 97.96 61.9885 97.72 61.2325 97.72C60.4285 97.72 59.7865 97.978 59.3065 98.494C58.8385 98.998 58.6045 99.742 58.6045 100.726V106H56.5525V96.082H58.6045V98.152C58.8565 97.432 59.2765 96.88 59.8645 96.496C60.4525 96.112 61.1425 95.92 61.9345 95.92C62.7625 95.92 63.4765 96.124 64.0765 96.532C64.6885 96.94 65.1325 97.528 65.4085 98.296C65.6965 97.552 66.1585 96.97 66.7945 96.55C67.4305 96.13 68.1505 95.92 68.9545 95.92ZM74.9325 93.202C74.9325 92.854 75.0525 92.566 75.2925 92.338C75.5325 92.11 75.8505 91.996 76.2465 91.996C76.6425 91.996 76.9605 92.11 77.2005 92.338C77.4525 92.566 77.5785 92.854 77.5785 93.202C77.5785 93.55 77.4525 93.832 77.2005 94.048C76.9605 94.264 76.6425 94.372 76.2465 94.372C75.8505 94.372 75.5325 94.264 75.2925 94.048C75.0525 93.832 74.9325 93.55 74.9325 93.202ZM77.2725 96.082V106H75.2205V96.082H77.2725ZM84.7417 104.218V106H83.4817C82.4257 106 81.6217 105.748 81.0697 105.244C80.5297 104.728 80.2597 103.876 80.2597 102.688V97.828H78.8377V96.082H80.2597V93.616H82.3297V96.082H84.7237V97.828H82.3297V102.724C82.3297 103.288 82.4317 103.678 82.6357 103.894C82.8517 104.11 83.2237 104.218 83.7517 104.218H84.7417ZM89.9219 95.956C91.0859 95.956 92.0159 96.256 92.7119 96.856C93.4199 97.444 93.8519 98.236 94.0079 99.232H92.0639C91.9799 98.692 91.7459 98.26 91.3619 97.936C90.9899 97.6 90.4919 97.432 89.8679 97.432C89.3519 97.432 88.9499 97.558 88.6619 97.81C88.3859 98.05 88.2479 98.38 88.2479 98.8C88.2479 99.112 88.3499 99.364 88.5539 99.556C88.7579 99.748 89.0099 99.898 89.3099 100.006C89.6219 100.114 90.0599 100.234 90.6239 100.366C91.3679 100.534 91.9679 100.708 92.4239 100.888C92.8919 101.068 93.2879 101.356 93.6119 101.752C93.9479 102.136 94.1159 102.664 94.1159 103.336C94.1159 104.164 93.7979 104.836 93.1619 105.352C92.5379 105.868 91.6919 106.126 90.6239 106.126C89.3879 106.126 88.3859 105.838 87.6179 105.262C86.8619 104.686 86.4059 103.882 86.2499 102.85H88.2479C88.3079 103.39 88.5479 103.828 88.9679 104.164C89.3879 104.5 89.9399 104.668 90.6239 104.668C91.1159 104.668 91.4999 104.542 91.7759 104.29C92.0639 104.026 92.2079 103.696 92.2079 103.3C92.2079 102.952 92.0999 102.676 91.8839 102.472C91.6679 102.268 91.3979 102.112 91.0739 102.004C90.7499 101.884 90.3059 101.764 89.7419 101.644C89.0219 101.476 88.4339 101.308 87.9779 101.14C87.5339 100.972 87.1499 100.702 86.8259 100.33C86.5139 99.946 86.3579 99.43 86.3579 98.782C86.3579 97.942 86.6699 97.264 87.2939 96.748C87.9299 96.22 88.8059 95.956 89.9219 95.956ZM104.37 95.956C105.27 95.956 106.038 96.178 106.674 96.622C107.31 97.066 107.76 97.654 108.024 98.386V96.082H110.076V106H108.024V103.696C107.76 104.428 107.31 105.016 106.674 105.46C106.038 105.904 105.27 106.126 104.37 106.126C103.506 106.126 102.732 105.922 102.048 105.514C101.376 105.106 100.848 104.518 100.464 103.75C100.08 102.982 99.8884 102.076 99.8884 101.032C99.8884 100 100.08 99.1 100.464 98.332C100.848 97.564 101.376 96.976 102.048 96.568C102.732 96.16 103.506 95.956 104.37 95.956ZM105 97.756C104.088 97.756 103.356 98.05 102.804 98.638C102.264 99.214 101.994 100.012 101.994 101.032C101.994 102.052 102.264 102.856 102.804 103.444C103.356 104.02 104.088 104.308 105 104.308C105.576 104.308 106.092 104.176 106.548 103.912C107.004 103.636 107.364 103.252 107.628 102.76C107.892 102.268 108.024 101.692 108.024 101.032C108.024 100.384 107.892 99.814 107.628 99.322C107.364 98.818 107.004 98.434 106.548 98.17C106.092 97.894 105.576 97.756 105 97.756ZM122.446 95.956C123.31 95.956 124.078 96.16 124.75 96.568C125.434 96.976 125.968 97.564 126.352 98.332C126.736 99.1 126.928 100 126.928 101.032C126.928 102.076 126.736 102.982 126.352 103.75C125.968 104.518 125.434 105.106 124.75 105.514C124.078 105.922 123.31 106.126 122.446 106.126C121.546 106.126 120.778 105.904 120.142 105.46C119.506 105.016 119.062 104.428 118.81 103.696V110.716H116.758V96.082H118.81V98.386C119.062 97.654 119.506 97.066 120.142 96.622C120.778 96.178 121.546 95.956 122.446 95.956ZM121.816 97.756C121.24 97.756 120.724 97.894 120.268 98.17C119.812 98.434 119.452 98.818 119.188 99.322C118.924 99.814 118.792 100.384 118.792 101.032C118.792 101.692 118.924 102.268 119.188 102.76C119.452 103.252 119.812 103.636 120.268 103.912C120.724 104.176 121.24 104.308 121.816 104.308C122.728 104.308 123.46 104.02 124.012 103.444C124.564 102.856 124.84 102.052 124.84 101.032C124.84 100.024 124.564 99.226 124.012 98.638C123.46 98.05 122.728 97.756 121.816 97.756ZM130.956 98.026C131.292 97.378 131.772 96.868 132.396 96.496C133.02 96.112 133.74 95.92 134.556 95.92V98.152H133.944C133.044 98.152 132.318 98.374 131.766 98.818C131.226 99.25 130.956 99.97 130.956 100.978V106H128.904V96.082H130.956V98.026ZM140.63 95.956C141.59 95.956 142.454 96.16 143.222 96.568C143.99 96.976 144.59 97.564 145.022 98.332C145.454 99.1 145.67 100 145.67 101.032C145.67 102.076 145.454 102.982 145.022 103.75C144.59 104.518 143.99 105.106 143.222 105.514C142.454 105.922 141.59 106.126 140.63 106.126C139.67 106.126 138.806 105.922 138.038 105.514C137.282 105.106 136.682 104.518 136.238 103.75C135.806 102.97 135.59 102.064 135.59 101.032C135.59 100 135.806 99.1 136.238 98.332C136.682 97.564 137.282 96.976 138.038 96.568C138.806 96.16 139.67 95.956 140.63 95.956ZM140.63 97.738C140.102 97.738 139.616 97.858 139.172 98.098C138.728 98.338 138.368 98.71 138.092 99.214C137.828 99.706 137.696 100.312 137.696 101.032C137.696 101.764 137.828 102.376 138.092 102.868C138.368 103.36 138.728 103.726 139.172 103.966C139.616 104.206 140.102 104.326 140.63 104.326C141.158 104.326 141.644 104.206 142.088 103.966C142.532 103.726 142.886 103.36 143.15 102.868C143.426 102.376 143.564 101.764 143.564 101.032C143.564 100.312 143.426 99.706 143.15 99.214C142.886 98.71 142.532 98.338 142.088 98.098C141.644 97.858 141.158 97.738 140.63 97.738ZM153.33 95.956C154.194 95.956 154.962 96.16 155.634 96.568C156.318 96.976 156.852 97.564 157.236 98.332C157.62 99.1 157.812 100 157.812 101.032C157.812 102.076 157.62 102.982 157.236 103.75C156.852 104.518 156.318 105.106 155.634 105.514C154.962 105.922 154.194 106.126 153.33 106.126C152.43 106.126 151.662 105.904 151.026 105.46C150.39 105.016 149.946 104.428 149.694 103.696V106H147.642V92.68H149.694V98.386C149.946 97.654 150.39 97.066 151.026 96.622C151.662 96.178 152.43 95.956 153.33 95.956ZM152.7 97.756C152.124 97.756 151.608 97.894 151.152 98.17C150.696 98.434 150.336 98.818 150.072 99.322C149.808 99.814 149.676 100.384 149.676 101.032C149.676 101.692 149.808 102.268 150.072 102.76C150.336 103.252 150.696 103.636 151.152 103.912C151.608 104.176 152.124 104.308 152.7 104.308C153.612 104.308 154.344 104.02 154.896 103.444C155.448 102.856 155.724 102.052 155.724 101.032C155.724 100.024 155.448 99.226 154.896 98.638C154.344 98.05 153.612 97.756 152.7 97.756ZM161.841 92.68V106H159.789V92.68H161.841ZM173.54 100.564C173.54 100.9 173.516 101.194 173.468 101.446H165.836C165.872 102.466 166.154 103.222 166.682 103.714C167.21 104.206 167.864 104.452 168.644 104.452C169.328 104.452 169.904 104.278 170.372 103.93C170.852 103.582 171.146 103.12 171.254 102.544H173.45C173.318 103.24 173.042 103.858 172.622 104.398C172.202 104.938 171.656 105.364 170.984 105.676C170.312 105.976 169.562 106.126 168.734 106.126C167.774 106.126 166.922 105.922 166.178 105.514C165.446 105.106 164.87 104.518 164.45 103.75C164.03 102.982 163.82 102.076 163.82 101.032C163.82 100 164.03 99.1 164.45 98.332C164.87 97.564 165.446 96.976 166.178 96.568C166.922 96.16 167.774 95.956 168.734 95.956C169.706 95.956 170.552 96.16 171.272 96.568C172.004 96.964 172.562 97.516 172.946 98.224C173.342 98.92 173.54 99.7 173.54 100.564ZM171.47 100.51C171.494 99.862 171.38 99.322 171.128 98.89C170.888 98.446 170.552 98.122 170.12 97.918C169.7 97.702 169.238 97.594 168.734 97.594C167.93 97.594 167.258 97.84 166.718 98.332C166.178 98.824 165.884 99.55 165.836 100.51H171.47ZM187.923 95.92C189.099 95.92 190.035 96.292 190.731 97.036C191.439 97.78 191.793 98.842 191.793 100.222V106H189.741V100.438C189.741 99.574 189.525 98.908 189.093 98.44C188.661 97.96 188.067 97.72 187.311 97.72C186.507 97.72 185.865 97.978 185.385 98.494C184.917 98.998 184.683 99.742 184.683 100.726V106H182.631V100.438C182.631 99.574 182.415 98.908 181.983 98.44C181.551 97.96 180.957 97.72 180.201 97.72C179.397 97.72 178.755 97.978 178.275 98.494C177.807 98.998 177.573 99.742 177.573 100.726V106H175.521V96.082H177.573V98.152C177.825 97.432 178.245 96.88 178.833 96.496C179.421 96.112 180.111 95.92 180.903 95.92C181.731 95.92 182.445 96.124 183.045 96.532C183.657 96.94 184.101 97.528 184.377 98.296C184.665 97.552 185.127 96.97 185.763 96.55C186.399 96.13 187.119 95.92 187.923 95.92Z" fill="white"/>
<path d="M336.266 26.5068L336.268 26.5064C347.497 24.6167 359.825 24.5007 372.642 24.9283C377.892 25.1034 383.275 25.3732 388.687 25.6445C396.338 26.0279 404.048 26.4143 411.528 26.5407C420.852 26.6985 430.311 25.8115 439.396 24.9596C442.902 24.6308 446.353 24.3072 449.719 24.0509C461.972 23.118 473.214 23.0567 483.041 26.4073L483.045 26.4088C503.393 33.3032 516.657 45.7907 519.606 57.9004L519.606 57.9016C521.097 64.0126 520.643 72.1937 518.844 80.7123C517.055 89.1836 513.992 97.7232 510.51 104.445C506.947 111.309 503.898 116.437 499.811 121.059C495.733 125.672 490.526 129.887 482.544 134.763L482.541 134.765C466.896 144.352 438.98 150.083 412.359 151.888L412.359 151.888C385.907 153.685 358.775 151.579 337.564 144.89C327.986 141.87 318.22 141.722 309.616 141.592C308.135 141.57 306.688 141.548 305.283 141.512C295.416 141.26 287.885 140.312 282.81 135.148C280.241 132.514 278.088 128.562 276.299 123.704C274.52 118.874 273.165 113.329 272.094 107.671C270.691 100.253 269.823 92.9787 269.099 86.8993C268.701 83.5648 268.346 80.5897 267.97 78.1474C266.116 65.8194 269.555 52.9458 281.656 42.9409C287.672 37.9804 295.473 34.8136 304.789 32.4144C312.618 30.3981 321.324 28.9674 330.748 27.4187C332.561 27.1208 334.401 26.8185 336.266 26.5068Z" stroke="#00CAB2" stroke-width="5"/>
<path d="M306.654 72.246H301.29L300.318 75H298.122L302.802 62.49H305.16L309.822 75H307.626L306.654 72.246ZM306.078 70.662L303.972 64.722L301.866 70.662H306.078ZM319.542 64.956C320.442 64.956 321.21 65.178 321.846 65.622C322.482 66.066 322.926 66.654 323.178 67.386V61.68H325.248V75H323.178V72.696C322.926 73.428 322.482 74.016 321.846 74.46C321.21 74.904 320.442 75.126 319.542 75.126C318.678 75.126 317.904 74.922 317.22 74.514C316.548 74.106 316.02 73.518 315.636 72.75C315.252 71.982 315.06 71.076 315.06 70.032C315.06 69 315.252 68.1 315.636 67.332C316.02 66.564 316.548 65.976 317.22 65.568C317.904 65.16 318.678 64.956 319.542 64.956ZM320.172 66.756C319.26 66.756 318.528 67.05 317.976 67.638C317.436 68.214 317.166 69.012 317.166 70.032C317.166 71.052 317.436 71.856 317.976 72.444C318.528 73.02 319.26 73.308 320.172 73.308C320.748 73.308 321.264 73.176 321.72 72.912C322.176 72.636 322.536 72.252 322.8 71.76C323.064 71.268 323.196 70.692 323.196 70.032C323.196 69.384 323.064 68.814 322.8 68.322C322.536 67.818 322.176 67.434 321.72 67.17C321.264 66.894 320.748 66.756 320.172 66.756ZM336.927 69.564C336.927 69.9 336.903 70.194 336.855 70.446H329.223C329.259 71.466 329.541 72.222 330.069 72.714C330.597 73.206 331.251 73.452 332.031 73.452C332.715 73.452 333.291 73.278 333.759 72.93C334.239 72.582 334.533 72.12 334.641 71.544H336.837C336.705 72.24 336.429 72.858 336.009 73.398C335.589 73.938 335.043 74.364 334.371 74.676C333.699 74.976 332.949 75.126 332.121 75.126C331.161 75.126 330.309 74.922 329.565 74.514C328.833 74.106 328.257 73.518 327.837 72.75C327.417 71.982 327.207 71.076 327.207 70.032C327.207 69 327.417 68.1 327.837 67.332C328.257 66.564 328.833 65.976 329.565 65.568C330.309 65.16 331.161 64.956 332.121 64.956C333.093 64.956 333.939 65.16 334.659 65.568C335.391 65.964 335.949 66.516 336.333 67.224C336.729 67.92 336.927 68.7 336.927 69.564ZM334.857 69.51C334.881 68.862 334.767 68.322 334.515 67.89C334.275 67.446 333.939 67.122 333.507 66.918C333.087 66.702 332.625 66.594 332.121 66.594C331.317 66.594 330.645 66.84 330.105 67.332C329.565 67.824 329.271 68.55 329.223 69.51H334.857ZM342.166 64.956C343.33 64.956 344.26 65.256 344.956 65.856C345.664 66.444 346.096 67.236 346.252 68.232H344.308C344.224 67.692 343.99 67.26 343.606 66.936C343.234 66.6 342.736 66.432 342.112 66.432C341.596 66.432 341.194 66.558 340.906 66.81C340.63 67.05 340.492 67.38 340.492 67.8C340.492 68.112 340.594 68.364 340.798 68.556C341.002 68.748 341.254 68.898 341.554 69.006C341.866 69.114 342.304 69.234 342.868 69.366C343.612 69.534 344.212 69.708 344.668 69.888C345.136 70.068 345.532 70.356 345.856 70.752C346.192 71.136 346.36 71.664 346.36 72.336C346.36 73.164 346.042 73.836 345.406 74.352C344.782 74.868 343.936 75.126 342.868 75.126C341.632 75.126 340.63 74.838 339.862 74.262C339.106 73.686 338.65 72.882 338.494 71.85H340.492C340.552 72.39 340.792 72.828 341.212 73.164C341.632 73.5 342.184 73.668 342.868 73.668C343.36 73.668 343.744 73.542 344.02 73.29C344.308 73.026 344.452 72.696 344.452 72.3C344.452 71.952 344.344 71.676 344.128 71.472C343.912 71.268 343.642 71.112 343.318 71.004C342.994 70.884 342.55 70.764 341.986 70.644C341.266 70.476 340.678 70.308 340.222 70.14C339.778 69.972 339.394 69.702 339.07 69.33C338.758 68.946 338.602 68.43 338.602 67.782C338.602 66.942 338.914 66.264 339.538 65.748C340.174 65.22 341.05 64.956 342.166 64.956ZM348.13 62.202C348.13 61.854 348.25 61.566 348.49 61.338C348.73 61.11 349.048 60.996 349.444 60.996C349.84 60.996 350.158 61.11 350.398 61.338C350.65 61.566 350.776 61.854 350.776 62.202C350.776 62.55 350.65 62.832 350.398 63.048C350.158 63.264 349.84 63.372 349.444 63.372C349.048 63.372 348.73 63.264 348.49 63.048C348.25 62.832 348.13 62.55 348.13 62.202ZM350.47 65.082V75H348.418V65.082H350.47ZM356.931 64.956C357.831 64.956 358.599 65.178 359.235 65.622C359.871 66.066 360.321 66.654 360.585 67.386V65.082H362.637V75.108C362.637 76.032 362.445 76.848 362.061 77.556C361.689 78.276 361.149 78.84 360.441 79.248C359.733 79.656 358.893 79.86 357.921 79.86C356.529 79.86 355.401 79.53 354.537 78.87C353.685 78.21 353.151 77.316 352.935 76.188H354.969C355.137 76.776 355.461 77.232 355.941 77.556C356.421 77.892 357.033 78.06 357.777 78.06C358.593 78.06 359.265 77.808 359.793 77.304C360.321 76.8 360.585 76.068 360.585 75.108V72.696C360.321 73.428 359.871 74.016 359.235 74.46C358.599 74.904 357.831 75.126 356.931 75.126C356.067 75.126 355.293 74.922 354.609 74.514C353.937 74.106 353.409 73.518 353.025 72.75C352.641 71.982 352.449 71.076 352.449 70.032C352.449 69 352.641 68.1 353.025 67.332C353.409 66.564 353.937 65.976 354.609 65.568C355.293 65.16 356.067 64.956 356.931 64.956ZM357.561 66.756C356.649 66.756 355.917 67.05 355.365 67.638C354.825 68.214 354.555 69.012 354.555 70.032C354.555 71.052 354.825 71.856 355.365 72.444C355.917 73.02 356.649 73.308 357.561 73.308C358.137 73.308 358.653 73.176 359.109 72.912C359.565 72.636 359.925 72.252 360.189 71.76C360.453 71.268 360.585 70.692 360.585 70.032C360.585 69.384 360.453 68.814 360.189 68.322C359.925 67.818 359.565 67.434 359.109 67.17C358.653 66.894 358.137 66.756 357.561 66.756ZM370.643 64.92C371.795 64.92 372.719 65.292 373.415 66.036C374.111 66.78 374.459 67.842 374.459 69.222V75H372.407V69.438C372.407 68.55 372.179 67.866 371.723 67.386C371.267 66.894 370.643 66.648 369.851 66.648C369.035 66.648 368.381 66.912 367.889 67.44C367.397 67.956 367.151 68.718 367.151 69.726V75H365.099V65.082H367.151V67.26C367.415 66.516 367.859 65.94 368.483 65.532C369.107 65.124 369.827 64.92 370.643 64.92ZM386.064 73.218V75H384.804C383.748 75 382.944 74.748 382.392 74.244C381.852 73.728 381.582 72.876 381.582 71.688V66.828H380.16V65.082H381.582V62.616H383.652V65.082H386.046V66.828H383.652V71.724C383.652 72.288 383.754 72.678 383.958 72.894C384.174 73.11 384.546 73.218 385.074 73.218H386.064ZM397.202 69.564C397.202 69.9 397.178 70.194 397.13 70.446H389.498C389.534 71.466 389.816 72.222 390.344 72.714C390.872 73.206 391.526 73.452 392.306 73.452C392.99 73.452 393.566 73.278 394.034 72.93C394.514 72.582 394.808 72.12 394.916 71.544H397.112C396.98 72.24 396.704 72.858 396.284 73.398C395.864 73.938 395.318 74.364 394.646 74.676C393.974 74.976 393.224 75.126 392.396 75.126C391.436 75.126 390.584 74.922 389.84 74.514C389.108 74.106 388.532 73.518 388.112 72.75C387.692 71.982 387.482 71.076 387.482 70.032C387.482 69 387.692 68.1 388.112 67.332C388.532 66.564 389.108 65.976 389.84 65.568C390.584 65.16 391.436 64.956 392.396 64.956C393.368 64.956 394.214 65.16 394.934 65.568C395.666 65.964 396.224 66.516 396.608 67.224C397.004 67.92 397.202 68.7 397.202 69.564ZM395.132 69.51C395.156 68.862 395.042 68.322 394.79 67.89C394.55 67.446 394.214 67.122 393.782 66.918C393.362 66.702 392.9 66.594 392.396 66.594C391.592 66.594 390.92 66.84 390.38 67.332C389.84 67.824 389.546 68.55 389.498 69.51H395.132ZM403.161 64.956C404.061 64.956 404.829 65.178 405.465 65.622C406.101 66.066 406.551 66.654 406.815 67.386V65.082H408.867V75H406.815V72.696C406.551 73.428 406.101 74.016 405.465 74.46C404.829 74.904 404.061 75.126 403.161 75.126C402.297 75.126 401.523 74.922 400.839 74.514C400.167 74.106 399.639 73.518 399.255 72.75C398.871 71.982 398.679 71.076 398.679 70.032C398.679 69 398.871 68.1 399.255 67.332C399.639 66.564 400.167 65.976 400.839 65.568C401.523 65.16 402.297 64.956 403.161 64.956ZM403.791 66.756C402.879 66.756 402.147 67.05 401.595 67.638C401.055 68.214 400.785 69.012 400.785 70.032C400.785 71.052 401.055 71.856 401.595 72.444C402.147 73.02 402.879 73.308 403.791 73.308C404.367 73.308 404.883 73.176 405.339 72.912C405.795 72.636 406.155 72.252 406.419 71.76C406.683 71.268 406.815 70.692 406.815 70.032C406.815 69.384 406.683 68.814 406.419 68.322C406.155 67.818 405.795 67.434 405.339 67.17C404.883 66.894 404.367 66.756 403.791 66.756ZM423.732 64.92C424.908 64.92 425.844 65.292 426.54 66.036C427.248 66.78 427.602 67.842 427.602 69.222V75H425.55V69.438C425.55 68.574 425.334 67.908 424.902 67.44C424.47 66.96 423.876 66.72 423.12 66.72C422.316 66.72 421.674 66.978 421.194 67.494C420.726 67.998 420.492 68.742 420.492 69.726V75H418.44V69.438C418.44 68.574 418.224 67.908 417.792 67.44C417.36 66.96 416.766 66.72 416.01 66.72C415.206 66.72 414.564 66.978 414.084 67.494C413.616 67.998 413.382 68.742 413.382 69.726V75H411.33V65.082H413.382V67.152C413.634 66.432 414.054 65.88 414.642 65.496C415.23 65.112 415.92 64.92 416.712 64.92C417.54 64.92 418.254 65.124 418.854 65.532C419.466 65.94 419.91 66.528 420.186 67.296C420.474 66.552 420.936 65.97 421.572 65.55C422.208 65.13 422.928 64.92 423.732 64.92ZM438.843 63.03C438.039 62.994 437.475 63.126 437.151 63.426C436.827 63.714 436.665 64.212 436.665 64.92V65.082H438.843V66.846H436.665V75H434.595V66.846H433.245V65.082H434.595V64.758C434.595 63.546 434.949 62.64 435.657 62.04C436.365 61.428 437.427 61.158 438.843 61.23V63.03ZM445.028 64.956C445.988 64.956 446.852 65.16 447.62 65.568C448.388 65.976 448.988 66.564 449.42 67.332C449.852 68.1 450.068 69 450.068 70.032C450.068 71.076 449.852 71.982 449.42 72.75C448.988 73.518 448.388 74.106 447.62 74.514C446.852 74.922 445.988 75.126 445.028 75.126C444.068 75.126 443.204 74.922 442.436 74.514C441.68 74.106 441.08 73.518 440.636 72.75C440.204 71.97 439.988 71.064 439.988 70.032C439.988 69 440.204 68.1 440.636 67.332C441.08 66.564 441.68 65.976 442.436 65.568C443.204 65.16 444.068 64.956 445.028 64.956ZM445.028 66.738C444.5 66.738 444.014 66.858 443.57 67.098C443.126 67.338 442.766 67.71 442.49 68.214C442.226 68.706 442.094 69.312 442.094 70.032C442.094 70.764 442.226 71.376 442.49 71.868C442.766 72.36 443.126 72.726 443.57 72.966C444.014 73.206 444.5 73.326 445.028 73.326C445.556 73.326 446.042 73.206 446.486 72.966C446.93 72.726 447.284 72.36 447.548 71.868C447.824 71.376 447.962 70.764 447.962 70.032C447.962 69.312 447.824 68.706 447.548 68.214C447.284 67.71 446.93 67.338 446.486 67.098C446.042 66.858 445.556 66.738 445.028 66.738ZM454.093 67.026C454.429 66.378 454.909 65.868 455.533 65.496C456.157 65.112 456.877 64.92 457.693 64.92V67.152H457.081C456.181 67.152 455.455 67.374 454.903 67.818C454.363 68.25 454.093 68.97 454.093 69.978V75H452.041V65.082H454.093V67.026ZM471.632 64.92C472.808 64.92 473.744 65.292 474.44 66.036C475.148 66.78 475.502 67.842 475.502 69.222V75H473.45V69.438C473.45 68.574 473.234 67.908 472.802 67.44C472.37 66.96 471.776 66.72 471.02 66.72C470.216 66.72 469.574 66.978 469.094 67.494C468.626 67.998 468.392 68.742 468.392 69.726V75H466.34V69.438C466.34 68.574 466.124 67.908 465.692 67.44C465.26 66.96 464.666 66.72 463.91 66.72C463.106 66.72 462.464 66.978 461.984 67.494C461.516 67.998 461.282 68.742 461.282 69.726V75H459.23V65.082H461.282V67.152C461.534 66.432 461.954 65.88 462.542 65.496C463.13 65.112 463.82 64.92 464.612 64.92C465.44 64.92 466.154 65.124 466.754 65.532C467.366 65.94 467.81 66.528 468.086 67.296C468.374 66.552 468.836 65.97 469.472 65.55C470.108 65.13 470.828 64.92 471.632 64.92ZM481.156 64.956C482.32 64.956 483.25 65.256 483.946 65.856C484.654 66.444 485.086 67.236 485.242 68.232H483.298C483.214 67.692 482.98 67.26 482.596 66.936C482.224 66.6 481.726 66.432 481.102 66.432C480.586 66.432 480.184 66.558 479.896 66.81C479.62 67.05 479.482 67.38 479.482 67.8C479.482 68.112 479.584 68.364 479.788 68.556C479.992 68.748 480.244 68.898 480.544 69.006C480.856 69.114 481.294 69.234 481.858 69.366C482.602 69.534 483.202 69.708 483.658 69.888C484.126 70.068 484.522 70.356 484.846 70.752C485.182 71.136 485.35 71.664 485.35 72.336C485.35 73.164 485.032 73.836 484.396 74.352C483.772 74.868 482.926 75.126 481.858 75.126C480.622 75.126 479.62 74.838 478.852 74.262C478.096 73.686 477.64 72.882 477.484 71.85H479.482C479.542 72.39 479.782 72.828 480.202 73.164C480.622 73.5 481.174 73.668 481.858 73.668C482.35 73.668 482.734 73.542 483.01 73.29C483.298 73.026 483.442 72.696 483.442 72.3C483.442 71.952 483.334 71.676 483.118 71.472C482.902 71.268 482.632 71.112 482.308 71.004C481.984 70.884 481.54 70.764 480.976 70.644C480.256 70.476 479.668 70.308 479.212 70.14C478.768 69.972 478.384 69.702 478.06 69.33C477.748 68.946 477.592 68.43 477.592 67.782C477.592 66.942 477.904 66.264 478.528 65.748C479.164 65.22 480.04 64.956 481.156 64.956ZM299.661 91.956C300.561 91.956 301.329 92.178 301.965 92.622C302.601 93.066 303.051 93.654 303.315 94.386V92.082H305.367V102H303.315V99.696C303.051 100.428 302.601 101.016 301.965 101.46C301.329 101.904 300.561 102.126 299.661 102.126C298.797 102.126 298.023 101.922 297.339 101.514C296.667 101.106 296.139 100.518 295.755 99.75C295.371 98.982 295.179 98.076 295.179 97.032C295.179 96 295.371 95.1 295.755 94.332C296.139 93.564 296.667 92.976 297.339 92.568C298.023 92.16 298.797 91.956 299.661 91.956ZM300.291 93.756C299.379 93.756 298.647 94.05 298.095 94.638C297.555 95.214 297.285 96.012 297.285 97.032C297.285 98.052 297.555 98.856 298.095 99.444C298.647 100.02 299.379 100.308 300.291 100.308C300.867 100.308 301.383 100.176 301.839 99.912C302.295 99.636 302.655 99.252 302.919 98.76C303.183 98.268 303.315 97.692 303.315 97.032C303.315 96.384 303.183 95.814 302.919 95.322C302.655 94.818 302.295 94.434 301.839 94.17C301.383 93.894 300.867 93.756 300.291 93.756ZM309.882 94.026C310.218 93.378 310.698 92.868 311.322 92.496C311.946 92.112 312.666 91.92 313.482 91.92V94.152H312.87C311.97 94.152 311.244 94.374 310.692 94.818C310.152 95.25 309.882 95.97 309.882 96.978V102H307.83V92.082H309.882V94.026ZM319.555 91.956C320.515 91.956 321.379 92.16 322.147 92.568C322.915 92.976 323.515 93.564 323.947 94.332C324.379 95.1 324.595 96 324.595 97.032C324.595 98.076 324.379 98.982 323.947 99.75C323.515 100.518 322.915 101.106 322.147 101.514C321.379 101.922 320.515 102.126 319.555 102.126C318.595 102.126 317.731 101.922 316.963 101.514C316.207 101.106 315.607 100.518 315.163 99.75C314.731 98.97 314.515 98.064 314.515 97.032C314.515 96 314.731 95.1 315.163 94.332C315.607 93.564 316.207 92.976 316.963 92.568C317.731 92.16 318.595 91.956 319.555 91.956ZM319.555 93.738C319.027 93.738 318.541 93.858 318.097 94.098C317.653 94.338 317.293 94.71 317.017 95.214C316.753 95.706 316.621 96.312 316.621 97.032C316.621 97.764 316.753 98.376 317.017 98.868C317.293 99.36 317.653 99.726 318.097 99.966C318.541 100.206 319.027 100.326 319.555 100.326C320.083 100.326 320.569 100.206 321.013 99.966C321.457 99.726 321.811 99.36 322.075 98.868C322.351 98.376 322.489 97.764 322.489 97.032C322.489 96.312 322.351 95.706 322.075 95.214C321.811 94.71 321.457 94.338 321.013 94.098C320.569 93.858 320.083 93.738 319.555 93.738ZM335.712 92.082V102H333.642V99.84C333.39 100.572 332.952 101.142 332.328 101.55C331.704 101.946 330.978 102.144 330.15 102.144C328.998 102.144 328.074 101.772 327.378 101.028C326.682 100.284 326.334 99.222 326.334 97.842V92.082H328.386V97.626C328.386 98.526 328.614 99.222 329.07 99.714C329.526 100.194 330.15 100.434 330.942 100.434C331.758 100.434 332.412 100.17 332.904 99.642C333.396 99.114 333.642 98.346 333.642 97.338V92.082H335.712ZM343.714 91.92C344.866 91.92 345.79 92.292 346.486 93.036C347.182 93.78 347.53 94.842 347.53 96.222V102H345.478V96.438C345.478 95.55 345.25 94.866 344.794 94.386C344.338 93.894 343.714 93.648 342.922 93.648C342.106 93.648 341.452 93.912 340.96 94.44C340.468 94.956 340.222 95.718 340.222 96.726V102H338.17V92.082H340.222V94.26C340.486 93.516 340.93 92.94 341.554 92.532C342.178 92.124 342.898 91.92 343.714 91.92ZM353.908 91.956C354.808 91.956 355.576 92.178 356.212 92.622C356.848 93.066 357.292 93.654 357.544 94.386V88.68H359.614V102H357.544V99.696C357.292 100.428 356.848 101.016 356.212 101.46C355.576 101.904 354.808 102.126 353.908 102.126C353.044 102.126 352.27 101.922 351.586 101.514C350.914 101.106 350.386 100.518 350.002 99.75C349.618 98.982 349.426 98.076 349.426 97.032C349.426 96 349.618 95.1 350.002 94.332C350.386 93.564 350.914 92.976 351.586 92.568C352.27 92.16 353.044 91.956 353.908 91.956ZM354.538 93.756C353.626 93.756 352.894 94.05 352.342 94.638C351.802 95.214 351.532 96.012 351.532 97.032C351.532 98.052 351.802 98.856 352.342 99.444C352.894 100.02 353.626 100.308 354.538 100.308C355.114 100.308 355.63 100.176 356.086 99.912C356.542 99.636 356.902 99.252 357.166 98.76C357.43 98.268 357.562 97.692 357.562 97.032C357.562 96.384 357.43 95.814 357.166 95.322C356.902 94.818 356.542 94.434 356.086 94.17C355.63 93.894 355.114 93.756 354.538 93.756ZM371.281 100.218V102H370.021C368.965 102 368.161 101.748 367.609 101.244C367.069 100.728 366.799 99.876 366.799 98.688V93.828H365.377V92.082H366.799V89.616H368.869V92.082H371.263V93.828H368.869V98.724C368.869 99.288 368.971 99.678 369.175 99.894C369.391 100.11 369.763 100.218 370.291 100.218H371.281ZM378.747 91.92C379.899 91.92 380.823 92.292 381.519 93.036C382.215 93.78 382.563 94.842 382.563 96.222V102H380.511V96.438C380.511 95.55 380.283 94.866 379.827 94.386C379.371 93.894 378.747 93.648 377.955 93.648C377.139 93.648 376.485 93.912 375.993 94.44C375.501 94.956 375.255 95.718 375.255 96.726V102H373.203V88.68H375.255V94.26C375.519 93.516 375.963 92.94 376.587 92.532C377.211 92.124 377.931 91.92 378.747 91.92ZM394.179 96.564C394.179 96.9 394.155 97.194 394.107 97.446H386.475C386.511 98.466 386.793 99.222 387.321 99.714C387.849 100.206 388.503 100.452 389.283 100.452C389.967 100.452 390.543 100.278 391.011 99.93C391.491 99.582 391.785 99.12 391.893 98.544H394.089C393.957 99.24 393.681 99.858 393.261 100.398C392.841 100.938 392.295 101.364 391.623 101.676C390.951 101.976 390.201 102.126 389.373 102.126C388.413 102.126 387.561 101.922 386.817 101.514C386.085 101.106 385.509 100.518 385.089 99.75C384.669 98.982 384.459 98.076 384.459 97.032C384.459 96 384.669 95.1 385.089 94.332C385.509 93.564 386.085 92.976 386.817 92.568C387.561 92.16 388.413 91.956 389.373 91.956C390.345 91.956 391.191 92.16 391.911 92.568C392.643 92.964 393.201 93.516 393.585 94.224C393.981 94.92 394.179 95.7 394.179 96.564ZM392.109 96.51C392.133 95.862 392.019 95.322 391.767 94.89C391.527 94.446 391.191 94.122 390.759 93.918C390.339 93.702 389.877 93.594 389.373 93.594C388.569 93.594 387.897 93.84 387.357 94.332C386.817 94.824 386.523 95.55 386.475 96.51H392.109ZM404.789 91.956C406.073 91.956 407.135 92.298 407.975 92.982C408.815 93.654 409.337 94.572 409.541 95.736H407.363C407.243 95.112 406.949 94.626 406.481 94.278C406.025 93.918 405.449 93.738 404.753 93.738C403.961 93.738 403.301 94.02 402.773 94.584C402.245 95.136 401.981 95.952 401.981 97.032C401.981 98.112 402.245 98.934 402.773 99.498C403.301 100.062 403.961 100.344 404.753 100.344C405.449 100.344 406.025 100.164 406.481 99.804C406.949 99.444 407.243 98.952 407.363 98.328H409.541C409.337 99.492 408.815 100.416 407.975 101.1C407.135 101.784 406.073 102.126 404.789 102.126C403.829 102.126 402.977 101.922 402.233 101.514C401.501 101.106 400.925 100.518 400.505 99.75C400.085 98.982 399.875 98.076 399.875 97.032C399.875 96 400.085 95.1 400.505 94.332C400.925 93.564 401.501 92.976 402.233 92.568C402.977 92.16 403.829 91.956 404.789 91.956ZM417.067 91.92C418.219 91.92 419.143 92.292 419.839 93.036C420.535 93.78 420.883 94.842 420.883 96.222V102H418.831V96.438C418.831 95.55 418.603 94.866 418.147 94.386C417.691 93.894 417.067 93.648 416.275 93.648C415.459 93.648 414.805 93.912 414.313 94.44C413.821 94.956 413.575 95.718 413.575 96.726V102H411.523V88.68H413.575V94.26C413.839 93.516 414.283 92.94 414.907 92.532C415.531 92.124 416.251 91.92 417.067 91.92ZM427.261 91.956C428.161 91.956 428.929 92.178 429.565 92.622C430.201 93.066 430.651 93.654 430.915 94.386V92.082H432.967V102H430.915V99.696C430.651 100.428 430.201 101.016 429.565 101.46C428.929 101.904 428.161 102.126 427.261 102.126C426.397 102.126 425.623 101.922 424.939 101.514C424.267 101.106 423.739 100.518 423.355 99.75C422.971 98.982 422.779 98.076 422.779 97.032C422.779 96 422.971 95.1 423.355 94.332C423.739 93.564 424.267 92.976 424.939 92.568C425.623 92.16 426.397 91.956 427.261 91.956ZM427.891 93.756C426.979 93.756 426.247 94.05 425.695 94.638C425.155 95.214 424.885 96.012 424.885 97.032C424.885 98.052 425.155 98.856 425.695 99.444C426.247 100.02 426.979 100.308 427.891 100.308C428.467 100.308 428.983 100.176 429.439 99.912C429.895 99.636 430.255 99.252 430.519 98.76C430.783 98.268 430.915 97.692 430.915 97.032C430.915 96.384 430.783 95.814 430.519 95.322C430.255 94.818 429.895 94.434 429.439 94.17C428.983 93.894 428.467 93.756 427.891 93.756ZM437.482 88.68V102H435.43V88.68H437.482ZM442.017 88.68V102H439.965V88.68H442.017ZM453.716 96.564C453.716 96.9 453.692 97.194 453.644 97.446H446.012C446.048 98.466 446.33 99.222 446.858 99.714C447.386 100.206 448.04 100.452 448.82 100.452C449.504 100.452 450.08 100.278 450.548 99.93C451.028 99.582 451.322 99.12 451.43 98.544H453.626C453.494 99.24 453.218 99.858 452.798 100.398C452.378 100.938 451.832 101.364 451.16 101.676C450.488 101.976 449.738 102.126 448.91 102.126C447.95 102.126 447.098 101.922 446.354 101.514C445.622 101.106 445.046 100.518 444.626 99.75C444.206 98.982 443.996 98.076 443.996 97.032C443.996 96 444.206 95.1 444.626 94.332C445.046 93.564 445.622 92.976 446.354 92.568C447.098 92.16 447.95 91.956 448.91 91.956C449.882 91.956 450.728 92.16 451.448 92.568C452.18 92.964 452.738 93.516 453.122 94.224C453.518 94.92 453.716 95.7 453.716 96.564ZM451.646 96.51C451.67 95.862 451.556 95.322 451.304 94.89C451.064 94.446 450.728 94.122 450.296 93.918C449.876 93.702 449.414 93.594 448.91 93.594C448.106 93.594 447.434 93.84 446.894 94.332C446.354 94.824 446.06 95.55 446.012 96.51H451.646ZM461.241 91.92C462.393 91.92 463.317 92.292 464.013 93.036C464.709 93.78 465.057 94.842 465.057 96.222V102H463.005V96.438C463.005 95.55 462.777 94.866 462.321 94.386C461.865 93.894 461.241 93.648 460.449 93.648C459.633 93.648 458.979 93.912 458.487 94.44C457.995 94.956 457.749 95.718 457.749 96.726V102H455.697V92.082H457.749V94.26C458.013 93.516 458.457 92.94 459.081 92.532C459.705 92.124 460.425 91.92 461.241 91.92ZM471.435 91.956C472.335 91.956 473.103 92.178 473.739 92.622C474.375 93.066 474.825 93.654 475.089 94.386V92.082H477.141V102.108C477.141 103.032 476.949 103.848 476.565 104.556C476.193 105.276 475.653 105.84 474.945 106.248C474.237 106.656 473.397 106.86 472.425 106.86C471.033 106.86 469.905 106.53 469.041 105.87C468.189 105.21 467.655 104.316 467.439 103.188H469.473C469.641 103.776 469.965 104.232 470.445 104.556C470.925 104.892 471.537 105.06 472.281 105.06C473.097 105.06 473.769 104.808 474.297 104.304C474.825 103.8 475.089 103.068 475.089 102.108V99.696C474.825 100.428 474.375 101.016 473.739 101.46C473.103 101.904 472.335 102.126 471.435 102.126C470.571 102.126 469.797 101.922 469.113 101.514C468.441 101.106 467.913 100.518 467.529 99.75C467.145 98.982 466.953 98.076 466.953 97.032C466.953 96 467.145 95.1 467.529 94.332C467.913 93.564 468.441 92.976 469.113 92.568C469.797 92.16 470.571 91.956 471.435 91.956ZM472.065 93.756C471.153 93.756 470.421 94.05 469.869 94.638C469.329 95.214 469.059 96.012 469.059 97.032C469.059 98.052 469.329 98.856 469.869 99.444C470.421 100.02 471.153 100.308 472.065 100.308C472.641 100.308 473.157 100.176 473.613 99.912C474.069 99.636 474.429 99.252 474.693 98.76C474.957 98.268 475.089 97.692 475.089 97.032C475.089 96.384 474.957 95.814 474.693 95.322C474.429 94.818 474.069 94.434 473.613 94.17C473.157 93.894 472.641 93.756 472.065 93.756ZM488.819 96.564C488.819 96.9 488.795 97.194 488.747 97.446H481.115C481.151 98.466 481.433 99.222 481.961 99.714C482.489 100.206 483.143 100.452 483.923 100.452C484.607 100.452 485.183 100.278 485.651 99.93C486.131 99.582 486.425 99.12 486.533 98.544H488.729C488.597 99.24 488.321 99.858 487.901 100.398C487.481 100.938 486.935 101.364 486.263 101.676C485.591 101.976 484.841 102.126 484.013 102.126C483.053 102.126 482.201 101.922 481.457 101.514C480.725 101.106 480.149 100.518 479.729 99.75C479.309 98.982 479.099 98.076 479.099 97.032C479.099 96 479.309 95.1 479.729 94.332C480.149 93.564 480.725 92.976 481.457 92.568C482.201 92.16 483.053 91.956 484.013 91.956C484.985 91.956 485.831 92.16 486.551 92.568C487.283 92.964 487.841 93.516 488.225 94.224C488.621 94.92 488.819 95.7 488.819 96.564ZM486.749 96.51C486.773 95.862 486.659 95.322 486.407 94.89C486.167 94.446 485.831 94.122 485.399 93.918C484.979 93.702 484.517 93.594 484.013 93.594C483.209 93.594 482.537 93.84 481.997 94.332C481.457 94.824 481.163 95.55 481.115 96.51H486.749Z" fill="white"/>
<path d="M795.024 54.381L795.026 54.3836C801.046 63.8168 803.125 75.0268 801.737 89.2325L801.737 89.2336C801.501 91.6571 801.327 94.0818 801.154 96.4956C800.243 109.178 799.354 121.56 789.667 131.893L789.665 131.895C783.872 138.091 774.778 143.655 763.535 148.387C752.329 153.103 739.162 156.921 725.396 159.716C697.837 165.279 668.14 166.72 643.621 161.963C618.974 157.181 599.947 146.252 592.515 133.821C584.687 120.726 578.963 106.268 575.95 91.153C572.906 75.88 572.713 60.5944 580.047 49.5343C583.558 44.2392 591.367 39.3573 601.89 34.8892C612.284 30.476 624.82 26.667 637.212 23.255C662.017 16.4254 685.524 11.4331 706.042 12.7606C726.513 14.0851 744.275 21.7671 761.701 29.3788C778.83 36.8611 788.982 44.8885 795.024 54.381Z" stroke="#FF8368" stroke-width="5"/>
<path d="M608.494 72.0664V73.7224H604.948V84.7744H602.878V73.7224H599.35V72.0664H608.494ZM615.569 74.6944C616.721 74.6944 617.645 75.0664 618.341 75.8104C619.037 76.5544 619.385 77.6164 619.385 78.9964V84.7744H617.333V79.2124C617.333 78.3244 617.105 77.6404 616.649 77.1604C616.193 76.6684 615.569 76.4224 614.777 76.4224C613.961 76.4224 613.307 76.6864 612.815 77.2144C612.323 77.7304 612.077 78.4924 612.077 79.5004V84.7744H610.025V71.4544H612.077V77.0344C612.341 76.2904 612.785 75.7144 613.409 75.3064C614.033 74.8984 614.753 74.6944 615.569 74.6944ZM631 79.3384C631 79.6744 630.976 79.9684 630.928 80.2204H623.296C623.332 81.2404 623.614 81.9964 624.142 82.4884C624.67 82.9804 625.324 83.2264 626.104 83.2264C626.788 83.2264 627.364 83.0524 627.832 82.7044C628.312 82.3564 628.606 81.8944 628.714 81.3184H630.91C630.778 82.0144 630.502 82.6324 630.082 83.1724C629.662 83.7124 629.116 84.1384 628.444 84.4504C627.772 84.7504 627.022 84.9004 626.194 84.9004C625.234 84.9004 624.382 84.6964 623.638 84.2884C622.906 83.8804 622.33 83.2924 621.91 82.5244C621.49 81.7564 621.28 80.8504 621.28 79.8064C621.28 78.7744 621.49 77.8744 621.91 77.1064C622.33 76.3384 622.906 75.7504 623.638 75.3424C624.382 74.9344 625.234 74.7304 626.194 74.7304C627.166 74.7304 628.012 74.9344 628.732 75.3424C629.464 75.7384 630.022 76.2904 630.406 76.9984C630.802 77.6944 631 78.4744 631 79.3384ZM628.93 79.2844C628.954 78.6364 628.84 78.0964 628.588 77.6644C628.348 77.2204 628.012 76.8964 627.58 76.6924C627.16 76.4764 626.698 76.3684 626.194 76.3684C625.39 76.3684 624.718 76.6144 624.178 77.1064C623.638 77.5984 623.344 78.3244 623.296 79.2844H628.93ZM641.178 74.7304C642.078 74.7304 642.846 74.9524 643.482 75.3964C644.118 75.8404 644.562 76.4284 644.814 77.1604V71.4544H646.884V84.7744H644.814V82.4704C644.562 83.2024 644.118 83.7904 643.482 84.2344C642.846 84.6784 642.078 84.9004 641.178 84.9004C640.314 84.9004 639.54 84.6964 638.856 84.2884C638.184 83.8804 637.656 83.2924 637.272 82.5244C636.888 81.7564 636.696 80.8504 636.696 79.8064C636.696 78.7744 636.888 77.8744 637.272 77.1064C637.656 76.3384 638.184 75.7504 638.856 75.3424C639.54 74.9344 640.314 74.7304 641.178 74.7304ZM641.808 76.5304C640.896 76.5304 640.164 76.8244 639.612 77.4124C639.072 77.9884 638.802 78.7864 638.802 79.8064C638.802 80.8264 639.072 81.6304 639.612 82.2184C640.164 82.7944 640.896 83.0824 641.808 83.0824C642.384 83.0824 642.9 82.9504 643.356 82.6864C643.812 82.4104 644.172 82.0264 644.436 81.5344C644.7 81.0424 644.832 80.4664 644.832 79.8064C644.832 79.1584 644.7 78.5884 644.436 78.0964C644.172 77.5924 643.812 77.2084 643.356 76.9444C642.9 76.6684 642.384 76.5304 641.808 76.5304ZM658.563 79.3384C658.563 79.6744 658.539 79.9684 658.491 80.2204H650.859C650.895 81.2404 651.177 81.9964 651.705 82.4884C652.233 82.9804 652.887 83.2264 653.667 83.2264C654.351 83.2264 654.927 83.0524 655.395 82.7044C655.875 82.3564 656.169 81.8944 656.277 81.3184H658.473C658.341 82.0144 658.065 82.6324 657.645 83.1724C657.225 83.7124 656.679 84.1384 656.007 84.4504C655.335 84.7504 654.585 84.9004 653.757 84.9004C652.797 84.9004 651.945 84.6964 651.201 84.2884C650.469 83.8804 649.893 83.2924 649.473 82.5244C649.053 81.7564 648.843 80.8504 648.843 79.8064C648.843 78.7744 649.053 77.8744 649.473 77.1064C649.893 76.3384 650.469 75.7504 651.201 75.3424C651.945 74.9344 652.797 74.7304 653.757 74.7304C654.729 74.7304 655.575 74.9344 656.295 75.3424C657.027 75.7384 657.585 76.2904 657.969 76.9984C658.365 77.6944 658.563 78.4744 658.563 79.3384ZM656.493 79.2844C656.517 78.6364 656.403 78.0964 656.151 77.6644C655.911 77.2204 655.575 76.8964 655.143 76.6924C654.723 76.4764 654.261 76.3684 653.757 76.3684C652.953 76.3684 652.281 76.6144 651.741 77.1064C651.201 77.5984 650.907 78.3244 650.859 79.2844H656.493ZM663.802 74.7304C664.966 74.7304 665.896 75.0304 666.592 75.6304C667.3 76.2184 667.732 77.0104 667.888 78.0064H665.944C665.86 77.4664 665.626 77.0344 665.242 76.7104C664.87 76.3744 664.372 76.2064 663.748 76.2064C663.232 76.2064 662.83 76.3324 662.542 76.5844C662.266 76.8244 662.128 77.1544 662.128 77.5744C662.128 77.8864 662.23 78.1384 662.434 78.3304C662.638 78.5224 662.89 78.6724 663.19 78.7804C663.502 78.8884 663.94 79.0084 664.504 79.1404C665.248 79.3084 665.848 79.4824 666.304 79.6624C666.772 79.8424 667.168 80.1304 667.492 80.5264C667.828 80.9104 667.996 81.4384 667.996 82.1104C667.996 82.9384 667.678 83.6104 667.042 84.1264C666.418 84.6424 665.572 84.9004 664.504 84.9004C663.268 84.9004 662.266 84.6124 661.498 84.0364C660.742 83.4604 660.286 82.6564 660.13 81.6244H662.128C662.188 82.1644 662.428 82.6024 662.848 82.9384C663.268 83.2744 663.82 83.4424 664.504 83.4424C664.996 83.4424 665.38 83.3164 665.656 83.0644C665.944 82.8004 666.088 82.4704 666.088 82.0744C666.088 81.7264 665.98 81.4504 665.764 81.2464C665.548 81.0424 665.278 80.8864 664.954 80.7784C664.63 80.6584 664.186 80.5384 663.622 80.4184C662.902 80.2504 662.314 80.0824 661.858 79.9144C661.414 79.7464 661.03 79.4764 660.706 79.1044C660.394 78.7204 660.238 78.2044 660.238 77.5564C660.238 76.7164 660.55 76.0384 661.174 75.5224C661.81 74.9944 662.686 74.7304 663.802 74.7304ZM669.766 71.9764C669.766 71.6284 669.886 71.3404 670.126 71.1124C670.366 70.8844 670.684 70.7704 671.08 70.7704C671.476 70.7704 671.794 70.8844 672.034 71.1124C672.286 71.3404 672.412 71.6284 672.412 71.9764C672.412 72.3244 672.286 72.6064 672.034 72.8224C671.794 73.0384 671.476 73.1464 671.08 73.1464C670.684 73.1464 670.366 73.0384 670.126 72.8224C669.886 72.6064 669.766 72.3244 669.766 71.9764ZM672.106 74.8564V84.7744H670.054V74.8564H672.106ZM678.567 74.7304C679.467 74.7304 680.235 74.9524 680.871 75.3964C681.507 75.8404 681.957 76.4284 682.221 77.1604V74.8564H684.273V84.8824C684.273 85.8064 684.081 86.6224 683.697 87.3304C683.325 88.0504 682.785 88.6144 682.077 89.0224C681.369 89.4304 680.529 89.6344 679.557 89.6344C678.165 89.6344 677.037 89.3044 676.173 88.6444C675.321 87.9844 674.787 87.0904 674.571 85.9624H676.605C676.773 86.5504 677.097 87.0064 677.577 87.3304C678.057 87.6664 678.669 87.8344 679.413 87.8344C680.229 87.8344 680.901 87.5824 681.429 87.0784C681.957 86.5744 682.221 85.8424 682.221 84.8824V82.4704C681.957 83.2024 681.507 83.7904 680.871 84.2344C680.235 84.6784 679.467 84.9004 678.567 84.9004C677.703 84.9004 676.929 84.6964 676.245 84.2884C675.573 83.8804 675.045 83.2924 674.661 82.5244C674.277 81.7564 674.085 80.8504 674.085 79.8064C674.085 78.7744 674.277 77.8744 674.661 77.1064C675.045 76.3384 675.573 75.7504 676.245 75.3424C676.929 74.9344 677.703 74.7304 678.567 74.7304ZM679.197 76.5304C678.285 76.5304 677.553 76.8244 677.001 77.4124C676.461 77.9884 676.191 78.7864 676.191 79.8064C676.191 80.8264 676.461 81.6304 677.001 82.2184C677.553 82.7944 678.285 83.0824 679.197 83.0824C679.773 83.0824 680.289 82.9504 680.745 82.6864C681.201 82.4104 681.561 82.0264 681.825 81.5344C682.089 81.0424 682.221 80.4664 682.221 79.8064C682.221 79.1584 682.089 78.5884 681.825 78.0964C681.561 77.5924 681.201 77.2084 680.745 76.9444C680.289 76.6684 679.773 76.5304 679.197 76.5304ZM692.28 74.6944C693.432 74.6944 694.356 75.0664 695.052 75.8104C695.748 76.5544 696.096 77.6164 696.096 78.9964V84.7744H694.044V79.2124C694.044 78.3244 693.816 77.6404 693.36 77.1604C692.904 76.6684 692.28 76.4224 691.488 76.4224C690.672 76.4224 690.018 76.6864 689.526 77.2144C689.034 77.7304 688.788 78.4924 688.788 79.5004V84.7744H686.736V74.8564H688.788V77.0344C689.052 76.2904 689.496 75.7144 690.12 75.3064C690.744 74.8984 691.464 74.6944 692.28 74.6944ZM704.507 77.3944V79.1224H697.091V77.3944H704.507ZM712.587 82.9924V84.7744H711.327C710.271 84.7744 709.467 84.5224 708.915 84.0184C708.375 83.5024 708.105 82.6504 708.105 81.4624V76.6024H706.683V74.8564H708.105V72.3904H710.175V74.8564H712.569V76.6024H710.175V81.4984C710.175 82.0624 710.277 82.4524 710.481 82.6684C710.697 82.8844 711.069 82.9924 711.597 82.9924H712.587ZM720.053 74.6944C721.205 74.6944 722.129 75.0664 722.825 75.8104C723.521 76.5544 723.869 77.6164 723.869 78.9964V84.7744H721.817V79.2124C721.817 78.3244 721.589 77.6404 721.133 77.1604C720.677 76.6684 720.053 76.4224 719.261 76.4224C718.445 76.4224 717.791 76.6864 717.299 77.2144C716.807 77.7304 716.561 78.4924 716.561 79.5004V84.7744H714.509V71.4544H716.561V77.0344C716.825 76.2904 717.269 75.7144 717.893 75.3064C718.517 74.8984 719.237 74.6944 720.053 74.6944ZM725.981 71.9764C725.981 71.6284 726.101 71.3404 726.341 71.1124C726.581 70.8844 726.899 70.7704 727.295 70.7704C727.691 70.7704 728.009 70.8844 728.249 71.1124C728.501 71.3404 728.627 71.6284 728.627 71.9764C728.627 72.3244 728.501 72.6064 728.249 72.8224C728.009 73.0384 727.691 73.1464 727.295 73.1464C726.899 73.1464 726.581 73.0384 726.341 72.8224C726.101 72.6064 725.981 72.3244 725.981 71.9764ZM728.321 74.8564V84.7744H726.269V74.8564H728.321ZM736.348 74.6944C737.5 74.6944 738.424 75.0664 739.12 75.8104C739.816 76.5544 740.164 77.6164 740.164 78.9964V84.7744H738.112V79.2124C738.112 78.3244 737.884 77.6404 737.428 77.1604C736.972 76.6684 736.348 76.4224 735.556 76.4224C734.74 76.4224 734.086 76.6864 733.594 77.2144C733.102 77.7304 732.856 78.4924 732.856 79.5004V84.7744H730.804V74.8564H732.856V77.0344C733.12 76.2904 733.564 75.7144 734.188 75.3064C734.812 74.8984 735.532 74.6944 736.348 74.6944ZM748.18 84.7744L744.616 80.3644V84.7744H742.564V71.4544H744.616V79.0864L748.144 74.8564H750.61L746.29 79.7884L750.718 84.7744H748.18ZM751.768 71.9764C751.768 71.6284 751.888 71.3404 752.128 71.1124C752.368 70.8844 752.686 70.7704 753.082 70.7704C753.478 70.7704 753.796 70.8844 754.036 71.1124C754.288 71.3404 754.414 71.6284 754.414 71.9764C754.414 72.3244 754.288 72.6064 754.036 72.8224C753.796 73.0384 753.478 73.1464 753.082 73.1464C752.686 73.1464 752.368 73.0384 752.128 72.8224C751.888 72.6064 751.768 72.3244 751.768 71.9764ZM754.108 74.8564V84.7744H752.056V74.8564H754.108ZM762.135 74.6944C763.287 74.6944 764.211 75.0664 764.907 75.8104C765.603 76.5544 765.951 77.6164 765.951 78.9964V84.7744H763.899V79.2124C763.899 78.3244 763.671 77.6404 763.215 77.1604C762.759 76.6684 762.135 76.4224 761.343 76.4224C760.527 76.4224 759.873 76.6864 759.381 77.2144C758.889 77.7304 758.643 78.4924 758.643 79.5004V84.7744H756.591V74.8564H758.643V77.0344C758.907 76.2904 759.351 75.7144 759.975 75.3064C760.599 74.8984 761.319 74.6944 762.135 74.6944ZM772.329 74.7304C773.229 74.7304 773.997 74.9524 774.633 75.3964C775.269 75.8404 775.719 76.4284 775.983 77.1604V74.8564H778.035V84.8824C778.035 85.8064 777.843 86.6224 777.459 87.3304C777.087 88.0504 776.547 88.6144 775.839 89.0224C775.131 89.4304 774.291 89.6344 773.319 89.6344C771.927 89.6344 770.799 89.3044 769.935 88.6444C769.083 87.9844 768.549 87.0904 768.333 85.9624H770.367C770.535 86.5504 770.859 87.0064 771.339 87.3304C771.819 87.6664 772.431 87.8344 773.175 87.8344C773.991 87.8344 774.663 87.5824 775.191 87.0784C775.719 86.5744 775.983 85.8424 775.983 84.8824V82.4704C775.719 83.2024 775.269 83.7904 774.633 84.2344C773.997 84.6784 773.229 84.9004 772.329 84.9004C771.465 84.9004 770.691 84.6964 770.007 84.2884C769.335 83.8804 768.807 83.2924 768.423 82.5244C768.039 81.7564 767.847 80.8504 767.847 79.8064C767.847 78.7744 768.039 77.8744 768.423 77.1064C768.807 76.3384 769.335 75.7504 770.007 75.3424C770.691 74.9344 771.465 74.7304 772.329 74.7304ZM772.959 76.5304C772.047 76.5304 771.315 76.8244 770.763 77.4124C770.223 77.9884 769.953 78.7864 769.953 79.8064C769.953 80.8264 770.223 81.6304 770.763 82.2184C771.315 82.7944 772.047 83.0824 772.959 83.0824C773.535 83.0824 774.051 82.9504 774.507 82.6864C774.963 82.4104 775.323 82.0264 775.587 81.5344C775.851 81.0424 775.983 80.4664 775.983 79.8064C775.983 79.1584 775.851 78.5884 775.587 78.0964C775.323 77.5924 774.963 77.2084 774.507 76.9444C774.051 76.6684 773.535 76.5304 772.959 76.5304ZM606.229 101.73C607.093 101.73 607.861 101.934 608.533 102.342C609.217 102.75 609.751 103.338 610.135 104.106C610.519 104.874 610.711 105.774 610.711 106.806C610.711 107.85 610.519 108.756 610.135 109.524C609.751 110.292 609.217 110.88 608.533 111.288C607.861 111.696 607.093 111.9 606.229 111.9C605.329 111.9 604.561 111.678 603.925 111.234C603.289 110.79 602.845 110.202 602.593 109.47V116.49H600.541V101.856H602.593V104.16C602.845 103.428 603.289 102.84 603.925 102.396C604.561 101.952 605.329 101.73 606.229 101.73ZM605.599 103.53C605.023 103.53 604.507 103.668 604.051 103.944C603.595 104.208 603.235 104.592 602.971 105.096C602.707 105.588 602.575 106.158 602.575 106.806C602.575 107.466 602.707 108.042 602.971 108.534C603.235 109.026 603.595 109.41 604.051 109.686C604.507 109.95 605.023 110.082 605.599 110.082C606.511 110.082 607.243 109.794 607.795 109.218C608.347 108.63 608.623 107.826 608.623 106.806C608.623 105.798 608.347 105 607.795 104.412C607.243 103.824 606.511 103.53 605.599 103.53ZM614.74 103.8C615.076 103.152 615.556 102.642 616.18 102.27C616.804 101.886 617.524 101.694 618.34 101.694V103.926H617.728C616.828 103.926 616.102 104.148 615.55 104.592C615.01 105.024 614.74 105.744 614.74 106.752V111.774H612.688V101.856H614.74V103.8ZM624.413 101.73C625.373 101.73 626.237 101.934 627.005 102.342C627.773 102.75 628.373 103.338 628.805 104.106C629.237 104.874 629.453 105.774 629.453 106.806C629.453 107.85 629.237 108.756 628.805 109.524C628.373 110.292 627.773 110.88 627.005 111.288C626.237 111.696 625.373 111.9 624.413 111.9C623.453 111.9 622.589 111.696 621.821 111.288C621.065 110.88 620.465 110.292 620.021 109.524C619.589 108.744 619.373 107.838 619.373 106.806C619.373 105.774 619.589 104.874 620.021 104.106C620.465 103.338 621.065 102.75 621.821 102.342C622.589 101.934 623.453 101.73 624.413 101.73ZM624.413 103.512C623.885 103.512 623.399 103.632 622.955 103.872C622.511 104.112 622.151 104.484 621.875 104.988C621.611 105.48 621.479 106.086 621.479 106.806C621.479 107.538 621.611 108.15 621.875 108.642C622.151 109.134 622.511 109.5 622.955 109.74C623.399 109.98 623.885 110.1 624.413 110.1C624.941 110.1 625.427 109.98 625.871 109.74C626.315 109.5 626.669 109.134 626.933 108.642C627.209 108.15 627.347 107.538 627.347 106.806C627.347 106.086 627.209 105.48 626.933 104.988C626.669 104.484 626.315 104.112 625.871 103.872C625.427 103.632 624.941 103.512 624.413 103.512ZM635.836 101.73C637.12 101.73 638.182 102.072 639.022 102.756C639.862 103.428 640.384 104.346 640.588 105.51H638.41C638.29 104.886 637.996 104.4 637.528 104.052C637.072 103.692 636.496 103.512 635.8 103.512C635.008 103.512 634.348 103.794 633.82 104.358C633.292 104.91 633.028 105.726 633.028 106.806C633.028 107.886 633.292 108.708 633.82 109.272C634.348 109.836 635.008 110.118 635.8 110.118C636.496 110.118 637.072 109.938 637.528 109.578C637.996 109.218 638.29 108.726 638.41 108.102H640.588C640.384 109.266 639.862 110.19 639.022 110.874C638.182 111.558 637.12 111.9 635.836 111.9C634.876 111.9 634.024 111.696 633.28 111.288C632.548 110.88 631.972 110.292 631.552 109.524C631.132 108.756 630.922 107.85 630.922 106.806C630.922 105.774 631.132 104.874 631.552 104.106C631.972 103.338 632.548 102.75 633.28 102.342C634.024 101.934 634.876 101.73 635.836 101.73ZM651.787 106.338C651.787 106.674 651.763 106.968 651.715 107.22H644.083C644.119 108.24 644.401 108.996 644.929 109.488C645.457 109.98 646.111 110.226 646.891 110.226C647.575 110.226 648.151 110.052 648.619 109.704C649.099 109.356 649.393 108.894 649.501 108.318H651.697C651.565 109.014 651.289 109.632 650.869 110.172C650.449 110.712 649.903 111.138 649.231 111.45C648.559 111.75 647.809 111.9 646.981 111.9C646.021 111.9 645.169 111.696 644.425 111.288C643.693 110.88 643.117 110.292 642.697 109.524C642.277 108.756 642.067 107.85 642.067 106.806C642.067 105.774 642.277 104.874 642.697 104.106C643.117 103.338 643.693 102.75 644.425 102.342C645.169 101.934 646.021 101.73 646.981 101.73C647.953 101.73 648.799 101.934 649.519 102.342C650.251 102.738 650.809 103.29 651.193 103.998C651.589 104.694 651.787 105.474 651.787 106.338ZM649.717 106.284C649.741 105.636 649.627 105.096 649.375 104.664C649.135 104.22 648.799 103.896 648.367 103.692C647.947 103.476 647.485 103.368 646.981 103.368C646.177 103.368 645.505 103.614 644.965 104.106C644.425 104.598 644.131 105.324 644.083 106.284H649.717ZM657.026 101.73C658.19 101.73 659.12 102.03 659.816 102.63C660.524 103.218 660.956 104.01 661.112 105.006H659.168C659.084 104.466 658.85 104.034 658.466 103.71C658.094 103.374 657.596 103.206 656.972 103.206C656.456 103.206 656.054 103.332 655.766 103.584C655.49 103.824 655.352 104.154 655.352 104.574C655.352 104.886 655.454 105.138 655.658 105.33C655.862 105.522 656.114 105.672 656.414 105.78C656.726 105.888 657.164 106.008 657.728 106.14C658.472 106.308 659.072 106.482 659.528 106.662C659.996 106.842 660.392 107.13 660.716 107.526C661.052 107.91 661.22 108.438 661.22 109.11C661.22 109.938 660.902 110.61 660.266 111.126C659.642 111.642 658.796 111.9 657.728 111.9C656.492 111.9 655.49 111.612 654.722 111.036C653.966 110.46 653.51 109.656 653.354 108.624H655.352C655.412 109.164 655.652 109.602 656.072 109.938C656.492 110.274 657.044 110.442 657.728 110.442C658.22 110.442 658.604 110.316 658.88 110.064C659.168 109.8 659.312 109.47 659.312 109.074C659.312 108.726 659.204 108.45 658.988 108.246C658.772 108.042 658.502 107.886 658.178 107.778C657.854 107.658 657.41 107.538 656.846 107.418C656.126 107.25 655.538 107.082 655.082 106.914C654.638 106.746 654.254 106.476 653.93 106.104C653.618 105.72 653.462 105.204 653.462 104.556C653.462 103.716 653.774 103.038 654.398 102.522C655.034 101.994 655.91 101.73 657.026 101.73ZM666.536 101.73C667.7 101.73 668.63 102.03 669.326 102.63C670.034 103.218 670.466 104.01 670.622 105.006H668.678C668.594 104.466 668.36 104.034 667.976 103.71C667.604 103.374 667.106 103.206 666.482 103.206C665.966 103.206 665.564 103.332 665.276 103.584C665 103.824 664.862 104.154 664.862 104.574C664.862 104.886 664.964 105.138 665.168 105.33C665.372 105.522 665.624 105.672 665.924 105.78C666.236 105.888 666.674 106.008 667.238 106.14C667.982 106.308 668.582 106.482 669.038 106.662C669.506 106.842 669.902 107.13 670.226 107.526C670.562 107.91 670.73 108.438 670.73 109.11C670.73 109.938 670.412 110.61 669.776 111.126C669.152 111.642 668.306 111.9 667.238 111.9C666.002 111.9 665 111.612 664.232 111.036C663.476 110.46 663.02 109.656 662.864 108.624H664.862C664.922 109.164 665.162 109.602 665.582 109.938C666.002 110.274 666.554 110.442 667.238 110.442C667.73 110.442 668.114 110.316 668.39 110.064C668.678 109.8 668.822 109.47 668.822 109.074C668.822 108.726 668.714 108.45 668.498 108.246C668.282 108.042 668.012 107.886 667.688 107.778C667.364 107.658 666.92 107.538 666.356 107.418C665.636 107.25 665.048 107.082 664.592 106.914C664.148 106.746 663.764 106.476 663.44 106.104C663.128 105.72 662.972 105.204 662.972 104.556C662.972 103.716 663.284 103.038 663.908 102.522C664.544 101.994 665.42 101.73 666.536 101.73ZM676.718 98.9764C676.718 98.6284 676.838 98.3404 677.078 98.1124C677.318 97.8844 677.636 97.7704 678.032 97.7704C678.428 97.7704 678.746 97.8844 678.986 98.1124C679.238 98.3404 679.364 98.6284 679.364 98.9764C679.364 99.3244 679.238 99.6064 678.986 99.8224C678.746 100.038 678.428 100.146 678.032 100.146C677.636 100.146 677.318 100.038 677.078 99.8224C676.838 99.6064 676.718 99.3244 676.718 98.9764ZM679.058 101.856V111.774H677.006V101.856H679.058ZM684.799 101.73C685.963 101.73 686.893 102.03 687.589 102.63C688.297 103.218 688.729 104.01 688.885 105.006H686.941C686.857 104.466 686.623 104.034 686.239 103.71C685.867 103.374 685.369 103.206 684.745 103.206C684.229 103.206 683.827 103.332 683.539 103.584C683.263 103.824 683.125 104.154 683.125 104.574C683.125 104.886 683.227 105.138 683.431 105.33C683.635 105.522 683.887 105.672 684.187 105.78C684.499 105.888 684.937 106.008 685.501 106.14C686.245 106.308 686.845 106.482 687.301 106.662C687.769 106.842 688.165 107.13 688.489 107.526C688.825 107.91 688.993 108.438 688.993 109.11C688.993 109.938 688.675 110.61 688.039 111.126C687.415 111.642 686.569 111.9 685.501 111.9C684.265 111.9 683.263 111.612 682.495 111.036C681.739 110.46 681.283 109.656 681.127 108.624H683.125C683.185 109.164 683.425 109.602 683.845 109.938C684.265 110.274 684.817 110.442 685.501 110.442C685.993 110.442 686.377 110.316 686.653 110.064C686.941 109.8 687.085 109.47 687.085 109.074C687.085 108.726 686.977 108.45 686.761 108.246C686.545 108.042 686.275 107.886 685.951 107.778C685.627 107.658 685.183 107.538 684.619 107.418C683.899 107.25 683.311 107.082 682.855 106.914C682.411 106.746 682.027 106.476 681.703 106.104C681.391 105.72 681.235 105.204 681.235 104.556C681.235 103.716 681.547 103.038 682.171 102.522C682.807 101.994 683.683 101.73 684.799 101.73ZM704.486 106.338C704.486 106.674 704.462 106.968 704.414 107.22H696.782C696.818 108.24 697.1 108.996 697.628 109.488C698.156 109.98 698.81 110.226 699.59 110.226C700.274 110.226 700.85 110.052 701.318 109.704C701.798 109.356 702.092 108.894 702.2 108.318H704.396C704.264 109.014 703.988 109.632 703.568 110.172C703.148 110.712 702.602 111.138 701.93 111.45C701.258 111.75 700.508 111.9 699.68 111.9C698.72 111.9 697.868 111.696 697.124 111.288C696.392 110.88 695.816 110.292 695.396 109.524C694.976 108.756 694.766 107.85 694.766 106.806C694.766 105.774 694.976 104.874 695.396 104.106C695.816 103.338 696.392 102.75 697.124 102.342C697.868 101.934 698.72 101.73 699.68 101.73C700.652 101.73 701.498 101.934 702.218 102.342C702.95 102.738 703.508 103.29 703.892 103.998C704.288 104.694 704.486 105.474 704.486 106.338ZM702.416 106.284C702.44 105.636 702.326 105.096 702.074 104.664C701.834 104.22 701.498 103.896 701.066 103.692C700.646 103.476 700.184 103.368 699.68 103.368C698.876 103.368 698.204 103.614 697.664 104.106C697.124 104.598 696.83 105.324 696.782 106.284H702.416ZM712.335 111.774L709.905 108.264L707.781 111.774H705.495L708.771 106.626L705.459 101.856H707.781L710.157 105.276L712.263 101.856H714.531L711.255 106.86L714.657 111.774H712.335ZM725.298 106.338C725.298 106.674 725.274 106.968 725.226 107.22H717.594C717.63 108.24 717.912 108.996 718.44 109.488C718.968 109.98 719.622 110.226 720.402 110.226C721.086 110.226 721.662 110.052 722.13 109.704C722.61 109.356 722.904 108.894 723.012 108.318H725.208C725.076 109.014 724.8 109.632 724.38 110.172C723.96 110.712 723.414 111.138 722.742 111.45C722.07 111.75 721.32 111.9 720.492 111.9C719.532 111.9 718.68 111.696 717.936 111.288C717.204 110.88 716.628 110.292 716.208 109.524C715.788 108.756 715.578 107.85 715.578 106.806C715.578 105.774 715.788 104.874 716.208 104.106C716.628 103.338 717.204 102.75 717.936 102.342C718.68 101.934 719.532 101.73 720.492 101.73C721.464 101.73 722.31 101.934 723.03 102.342C723.762 102.738 724.32 103.29 724.704 103.998C725.1 104.694 725.298 105.474 725.298 106.338ZM723.228 106.284C723.252 105.636 723.138 105.096 722.886 104.664C722.646 104.22 722.31 103.896 721.878 103.692C721.458 103.476 720.996 103.368 720.492 103.368C719.688 103.368 719.016 103.614 718.476 104.106C717.936 104.598 717.642 105.324 717.594 106.284H723.228ZM731.69 101.73C732.974 101.73 734.036 102.072 734.876 102.756C735.716 103.428 736.238 104.346 736.442 105.51H734.264C734.144 104.886 733.85 104.4 733.382 104.052C732.926 103.692 732.35 103.512 731.654 103.512C730.862 103.512 730.202 103.794 729.674 104.358C729.146 104.91 728.882 105.726 728.882 106.806C728.882 107.886 729.146 108.708 729.674 109.272C730.202 109.836 730.862 110.118 731.654 110.118C732.35 110.118 732.926 109.938 733.382 109.578C733.85 109.218 734.144 108.726 734.264 108.102H736.442C736.238 109.266 735.716 110.19 734.876 110.874C734.036 111.558 732.974 111.9 731.69 111.9C730.73 111.9 729.878 111.696 729.134 111.288C728.402 110.88 727.826 110.292 727.406 109.524C726.986 108.756 726.776 107.85 726.776 106.806C726.776 105.774 726.986 104.874 727.406 104.106C727.826 103.338 728.402 102.75 729.134 102.342C729.878 101.934 730.73 101.73 731.69 101.73ZM747.568 101.856V111.774H745.498V109.614C745.246 110.346 744.808 110.916 744.184 111.324C743.56 111.72 742.834 111.918 742.006 111.918C740.854 111.918 739.93 111.546 739.234 110.802C738.538 110.058 738.19 108.996 738.19 107.616V101.856H740.242V107.4C740.242 108.3 740.47 108.996 740.926 109.488C741.382 109.968 742.006 110.208 742.798 110.208C743.614 110.208 744.268 109.944 744.76 109.416C745.252 108.888 745.498 108.12 745.498 107.112V101.856H747.568ZM755.012 109.992V111.774H753.752C752.696 111.774 751.892 111.522 751.34 111.018C750.8 110.502 750.53 109.65 750.53 108.462V103.602H749.108V101.856H750.53V99.3904H752.6V101.856H754.994V103.602H752.6V108.498C752.6 109.062 752.702 109.452 752.906 109.668C753.122 109.884 753.494 109.992 754.022 109.992H755.012ZM766.15 106.338C766.15 106.674 766.126 106.968 766.078 107.22H758.446C758.482 108.24 758.764 108.996 759.292 109.488C759.82 109.98 760.474 110.226 761.254 110.226C761.938 110.226 762.514 110.052 762.982 109.704C763.462 109.356 763.756 108.894 763.864 108.318H766.06C765.928 109.014 765.652 109.632 765.232 110.172C764.812 110.712 764.266 111.138 763.594 111.45C762.922 111.75 762.172 111.9 761.344 111.9C760.384 111.9 759.532 111.696 758.788 111.288C758.056 110.88 757.48 110.292 757.06 109.524C756.64 108.756 756.43 107.85 756.43 106.806C756.43 105.774 756.64 104.874 757.06 104.106C757.48 103.338 758.056 102.75 758.788 102.342C759.532 101.934 760.384 101.73 761.344 101.73C762.316 101.73 763.162 101.934 763.882 102.342C764.614 102.738 765.172 103.29 765.556 103.998C765.952 104.694 766.15 105.474 766.15 106.338ZM764.08 106.284C764.104 105.636 763.99 105.096 763.738 104.664C763.498 104.22 763.162 103.896 762.73 103.692C762.31 103.476 761.848 103.368 761.344 103.368C760.54 103.368 759.868 103.614 759.328 104.106C758.788 104.598 758.494 105.324 758.446 106.284H764.08ZM772.109 101.73C773.009 101.73 773.777 101.952 774.413 102.396C775.049 102.84 775.493 103.428 775.745 104.16V98.4544H777.815V111.774H775.745V109.47C775.493 110.202 775.049 110.79 774.413 111.234C773.777 111.678 773.009 111.9 772.109 111.9C771.245 111.9 770.471 111.696 769.787 111.288C769.115 110.88 768.587 110.292 768.203 109.524C767.819 108.756 767.627 107.85 767.627 106.806C767.627 105.774 767.819 104.874 768.203 104.106C768.587 103.338 769.115 102.75 769.787 102.342C770.471 101.934 771.245 101.73 772.109 101.73ZM772.739 103.53C771.827 103.53 771.095 103.824 770.543 104.412C770.003 104.988 769.733 105.786 769.733 106.806C769.733 107.826 770.003 108.63 770.543 109.218C771.095 109.794 771.827 110.082 772.739 110.082C773.315 110.082 773.831 109.95 774.287 109.686C774.743 109.41 775.103 109.026 775.367 108.534C775.631 108.042 775.763 107.466 775.763 106.806C775.763 106.158 775.631 105.588 775.367 105.096C775.103 104.592 774.743 104.208 774.287 103.944C773.831 103.668 773.315 103.53 772.739 103.53Z" fill="white"/>
<path d="M863.103 76.7062C867.086 54.1877 886.689 33.9731 924.672 26.4231C943.664 22.6525 967.177 22.0947 990.327 24.5566C1013.49 27.0194 1036.09 32.484 1053.31 40.63L1053.31 40.6307C1087.8 56.9184 1100.27 83.6234 1094.09 103.654C1090.95 113.722 1083 122.62 1070.79 129.951C1058.58 137.28 1042.27 142.93 1022.8 146.54C983.73 153.756 932.866 152.564 901.615 138.814C870.669 125.198 859.102 99.3268 863.103 76.7062ZM863.103 76.7062L860.641 76.2707L863.103 76.7062Z" stroke="#FFB800" stroke-width="5"/>
<path d="M929.37 69.292V70.948H923.916V74.89H928.416V76.474H923.916V82H921.864V69.292H929.37ZM930.91 69.202C930.91 68.854 931.03 68.566 931.27 68.338C931.51 68.11 931.828 67.996 932.224 67.996C932.62 67.996 932.938 68.11 933.178 68.338C933.43 68.566 933.556 68.854 933.556 69.202C933.556 69.55 933.43 69.832 933.178 70.048C932.938 70.264 932.62 70.372 932.224 70.372C931.828 70.372 931.51 70.264 931.27 70.048C931.03 69.832 930.91 69.55 930.91 69.202ZM933.25 72.082V82H931.198V72.082H933.25ZM941.277 71.92C942.429 71.92 943.353 72.292 944.049 73.036C944.745 73.78 945.093 74.842 945.093 76.222V82H943.041V76.438C943.041 75.55 942.813 74.866 942.357 74.386C941.901 73.894 941.277 73.648 940.485 73.648C939.669 73.648 939.015 73.912 938.523 74.44C938.031 74.956 937.785 75.718 937.785 76.726V82H935.733V72.082H937.785V74.26C938.049 73.516 938.493 72.94 939.117 72.532C939.741 72.124 940.461 71.92 941.277 71.92ZM951.47 71.956C952.37 71.956 953.138 72.178 953.774 72.622C954.41 73.066 954.86 73.654 955.124 74.386V72.082H957.176V82H955.124V79.696C954.86 80.428 954.41 81.016 953.774 81.46C953.138 81.904 952.37 82.126 951.47 82.126C950.606 82.126 949.832 81.922 949.148 81.514C948.476 81.106 947.948 80.518 947.564 79.75C947.18 78.982 946.988 78.076 946.988 77.032C946.988 76 947.18 75.1 947.564 74.332C947.948 73.564 948.476 72.976 949.148 72.568C949.832 72.16 950.606 71.956 951.47 71.956ZM952.1 73.756C951.188 73.756 950.456 74.05 949.904 74.638C949.364 75.214 949.094 76.012 949.094 77.032C949.094 78.052 949.364 78.856 949.904 79.444C950.456 80.02 951.188 80.308 952.1 80.308C952.676 80.308 953.192 80.176 953.648 79.912C954.104 79.636 954.464 79.252 954.728 78.76C954.992 78.268 955.124 77.692 955.124 77.032C955.124 76.384 954.992 75.814 954.728 75.322C954.464 74.818 954.104 74.434 953.648 74.17C953.192 73.894 952.676 73.756 952.1 73.756ZM961.691 68.68V82H959.639V68.68H961.691ZM972.371 71.956C973.271 71.956 974.039 72.178 974.675 72.622C975.311 73.066 975.755 73.654 976.007 74.386V68.68H978.077V82H976.007V79.696C975.755 80.428 975.311 81.016 974.675 81.46C974.039 81.904 973.271 82.126 972.371 82.126C971.507 82.126 970.733 81.922 970.049 81.514C969.377 81.106 968.849 80.518 968.465 79.75C968.081 78.982 967.889 78.076 967.889 77.032C967.889 76 968.081 75.1 968.465 74.332C968.849 73.564 969.377 72.976 970.049 72.568C970.733 72.16 971.507 71.956 972.371 71.956ZM973.001 73.756C972.089 73.756 971.357 74.05 970.805 74.638C970.265 75.214 969.995 76.012 969.995 77.032C969.995 78.052 970.265 78.856 970.805 79.444C971.357 80.02 972.089 80.308 973.001 80.308C973.577 80.308 974.093 80.176 974.549 79.912C975.005 79.636 975.365 79.252 975.629 78.76C975.893 78.268 976.025 77.692 976.025 77.032C976.025 76.384 975.893 75.814 975.629 75.322C975.365 74.818 975.005 74.434 974.549 74.17C974.093 73.894 973.577 73.756 973.001 73.756ZM989.755 76.564C989.755 76.9 989.731 77.194 989.683 77.446H982.051C982.087 78.466 982.369 79.222 982.897 79.714C983.425 80.206 984.079 80.452 984.859 80.452C985.543 80.452 986.119 80.278 986.587 79.93C987.067 79.582 987.361 79.12 987.469 78.544H989.665C989.533 79.24 989.257 79.858 988.837 80.398C988.417 80.938 987.871 81.364 987.199 81.676C986.527 81.976 985.777 82.126 984.949 82.126C983.989 82.126 983.137 81.922 982.393 81.514C981.661 81.106 981.085 80.518 980.665 79.75C980.245 78.982 980.035 78.076 980.035 77.032C980.035 76 980.245 75.1 980.665 74.332C981.085 73.564 981.661 72.976 982.393 72.568C983.137 72.16 983.989 71.956 984.949 71.956C985.921 71.956 986.767 72.16 987.487 72.568C988.219 72.964 988.777 73.516 989.161 74.224C989.557 74.92 989.755 75.7 989.755 76.564ZM987.685 76.51C987.709 75.862 987.595 75.322 987.343 74.89C987.103 74.446 986.767 74.122 986.335 73.918C985.915 73.702 985.453 73.594 984.949 73.594C984.145 73.594 983.473 73.84 982.933 74.332C982.393 74.824 982.099 75.55 982.051 76.51H987.685ZM994.995 71.956C996.159 71.956 997.089 72.256 997.785 72.856C998.493 73.444 998.925 74.236 999.081 75.232H997.137C997.053 74.692 996.819 74.26 996.435 73.936C996.063 73.6 995.565 73.432 994.941 73.432C994.425 73.432 994.023 73.558 993.735 73.81C993.459 74.05 993.321 74.38 993.321 74.8C993.321 75.112 993.423 75.364 993.627 75.556C993.831 75.748 994.083 75.898 994.383 76.006C994.695 76.114 995.133 76.234 995.697 76.366C996.441 76.534 997.041 76.708 997.497 76.888C997.965 77.068 998.361 77.356 998.685 77.752C999.021 78.136 999.189 78.664 999.189 79.336C999.189 80.164 998.871 80.836 998.235 81.352C997.611 81.868 996.765 82.126 995.697 82.126C994.461 82.126 993.459 81.838 992.691 81.262C991.935 80.686 991.479 79.882 991.323 78.85H993.321C993.381 79.39 993.621 79.828 994.041 80.164C994.461 80.5 995.013 80.668 995.697 80.668C996.189 80.668 996.573 80.542 996.849 80.29C997.137 80.026 997.281 79.696 997.281 79.3C997.281 78.952 997.173 78.676 996.957 78.472C996.741 78.268 996.471 78.112 996.147 78.004C995.823 77.884 995.379 77.764 994.815 77.644C994.095 77.476 993.507 77.308 993.051 77.14C992.607 76.972 992.223 76.702 991.899 76.33C991.587 75.946 991.431 75.43 991.431 74.782C991.431 73.942 991.743 73.264 992.367 72.748C993.003 72.22 993.879 71.956 994.995 71.956ZM1000.96 69.202C1000.96 68.854 1001.08 68.566 1001.32 68.338C1001.56 68.11 1001.88 67.996 1002.27 67.996C1002.67 67.996 1002.99 68.11 1003.23 68.338C1003.48 68.566 1003.6 68.854 1003.6 69.202C1003.6 69.55 1003.48 69.832 1003.23 70.048C1002.99 70.264 1002.67 70.372 1002.27 70.372C1001.88 70.372 1001.56 70.264 1001.32 70.048C1001.08 69.832 1000.96 69.55 1000.96 69.202ZM1003.3 72.082V82H1001.25V72.082H1003.3ZM1009.76 71.956C1010.66 71.956 1011.43 72.178 1012.06 72.622C1012.7 73.066 1013.15 73.654 1013.41 74.386V72.082H1015.47V82.108C1015.47 83.032 1015.27 83.848 1014.89 84.556C1014.52 85.276 1013.98 85.84 1013.27 86.248C1012.56 86.656 1011.72 86.86 1010.75 86.86C1009.36 86.86 1008.23 86.53 1007.37 85.87C1006.51 85.21 1005.98 84.316 1005.76 83.188H1007.8C1007.97 83.776 1008.29 84.232 1008.77 84.556C1009.25 84.892 1009.86 85.06 1010.61 85.06C1011.42 85.06 1012.09 84.808 1012.62 84.304C1013.15 83.8 1013.41 83.068 1013.41 82.108V79.696C1013.15 80.428 1012.7 81.016 1012.06 81.46C1011.43 81.904 1010.66 82.126 1009.76 82.126C1008.9 82.126 1008.12 81.922 1007.44 81.514C1006.77 81.106 1006.24 80.518 1005.85 79.75C1005.47 78.982 1005.28 78.076 1005.28 77.032C1005.28 76 1005.47 75.1 1005.85 74.332C1006.24 73.564 1006.77 72.976 1007.44 72.568C1008.12 72.16 1008.9 71.956 1009.76 71.956ZM1010.39 73.756C1009.48 73.756 1008.75 74.05 1008.19 74.638C1007.65 75.214 1007.38 76.012 1007.38 77.032C1007.38 78.052 1007.65 78.856 1008.19 79.444C1008.75 80.02 1009.48 80.308 1010.39 80.308C1010.97 80.308 1011.48 80.176 1011.94 79.912C1012.39 79.636 1012.75 79.252 1013.02 78.76C1013.28 78.268 1013.41 77.692 1013.41 77.032C1013.41 76.384 1013.28 75.814 1013.02 75.322C1012.75 74.818 1012.39 74.434 1011.94 74.17C1011.48 73.894 1010.97 73.756 1010.39 73.756ZM1023.47 71.92C1024.62 71.92 1025.55 72.292 1026.24 73.036C1026.94 73.78 1027.29 74.842 1027.29 76.222V82H1025.24V76.438C1025.24 75.55 1025.01 74.866 1024.55 74.386C1024.1 73.894 1023.47 73.648 1022.68 73.648C1021.86 73.648 1021.21 73.912 1020.72 74.44C1020.23 74.956 1019.98 75.718 1019.98 76.726V82H1017.93V72.082H1019.98V74.26C1020.24 73.516 1020.69 72.94 1021.31 72.532C1021.94 72.124 1022.66 71.92 1023.47 71.92ZM893.872 98.956C894.736 98.956 895.504 99.16 896.176 99.568C896.86 99.976 897.394 100.564 897.778 101.332C898.162 102.1 898.354 103 898.354 104.032C898.354 105.076 898.162 105.982 897.778 106.75C897.394 107.518 896.86 108.106 896.176 108.514C895.504 108.922 894.736 109.126 893.872 109.126C892.972 109.126 892.204 108.904 891.568 108.46C890.932 108.016 890.488 107.428 890.236 106.696V113.716H888.184V99.082H890.236V101.386C890.488 100.654 890.932 100.066 891.568 99.622C892.204 99.178 892.972 98.956 893.872 98.956ZM893.242 100.756C892.666 100.756 892.15 100.894 891.694 101.17C891.238 101.434 890.878 101.818 890.614 102.322C890.35 102.814 890.218 103.384 890.218 104.032C890.218 104.692 890.35 105.268 890.614 105.76C890.878 106.252 891.238 106.636 891.694 106.912C892.15 107.176 892.666 107.308 893.242 107.308C894.154 107.308 894.886 107.02 895.438 106.444C895.99 105.856 896.266 105.052 896.266 104.032C896.266 103.024 895.99 102.226 895.438 101.638C894.886 101.05 894.154 100.756 893.242 100.756ZM902.382 101.026C902.718 100.378 903.198 99.868 903.822 99.496C904.446 99.112 905.166 98.92 905.982 98.92V101.152H905.37C904.47 101.152 903.744 101.374 903.192 101.818C902.652 102.25 902.382 102.97 902.382 103.978V109H900.33V99.082H902.382V101.026ZM912.056 98.956C913.016 98.956 913.88 99.16 914.648 99.568C915.416 99.976 916.016 100.564 916.448 101.332C916.88 102.1 917.096 103 917.096 104.032C917.096 105.076 916.88 105.982 916.448 106.75C916.016 107.518 915.416 108.106 914.648 108.514C913.88 108.922 913.016 109.126 912.056 109.126C911.096 109.126 910.232 108.922 909.464 108.514C908.708 108.106 908.108 107.518 907.664 106.75C907.232 105.97 907.016 105.064 907.016 104.032C907.016 103 907.232 102.1 907.664 101.332C908.108 100.564 908.708 99.976 909.464 99.568C910.232 99.16 911.096 98.956 912.056 98.956ZM912.056 100.738C911.528 100.738 911.042 100.858 910.598 101.098C910.154 101.338 909.794 101.71 909.518 102.214C909.254 102.706 909.122 103.312 909.122 104.032C909.122 104.764 909.254 105.376 909.518 105.868C909.794 106.36 910.154 106.726 910.598 106.966C911.042 107.206 911.528 107.326 912.056 107.326C912.584 107.326 913.07 107.206 913.514 106.966C913.958 106.726 914.312 106.36 914.576 105.868C914.852 105.376 914.99 104.764 914.99 104.032C914.99 103.312 914.852 102.706 914.576 102.214C914.312 101.71 913.958 101.338 913.514 101.098C913.07 100.858 912.584 100.738 912.056 100.738ZM924.757 98.956C925.621 98.956 926.389 99.16 927.061 99.568C927.745 99.976 928.279 100.564 928.663 101.332C929.047 102.1 929.239 103 929.239 104.032C929.239 105.076 929.047 105.982 928.663 106.75C928.279 107.518 927.745 108.106 927.061 108.514C926.389 108.922 925.621 109.126 924.757 109.126C923.857 109.126 923.089 108.904 922.453 108.46C921.817 108.016 921.373 107.428 921.121 106.696V113.716H919.069V99.082H921.121V101.386C921.373 100.654 921.817 100.066 922.453 99.622C923.089 99.178 923.857 98.956 924.757 98.956ZM924.127 100.756C923.551 100.756 923.035 100.894 922.579 101.17C922.123 101.434 921.763 101.818 921.499 102.322C921.235 102.814 921.103 103.384 921.103 104.032C921.103 104.692 921.235 105.268 921.499 105.76C921.763 106.252 922.123 106.636 922.579 106.912C923.035 107.176 923.551 107.308 924.127 107.308C925.039 107.308 925.771 107.02 926.323 106.444C926.875 105.856 927.151 105.052 927.151 104.032C927.151 103.024 926.875 102.226 926.323 101.638C925.771 101.05 925.039 100.756 924.127 100.756ZM935.751 98.956C936.711 98.956 937.575 99.16 938.343 99.568C939.111 99.976 939.711 100.564 940.143 101.332C940.575 102.1 940.791 103 940.791 104.032C940.791 105.076 940.575 105.982 940.143 106.75C939.711 107.518 939.111 108.106 938.343 108.514C937.575 108.922 936.711 109.126 935.751 109.126C934.791 109.126 933.927 108.922 933.159 108.514C932.403 108.106 931.803 107.518 931.359 106.75C930.927 105.97 930.711 105.064 930.711 104.032C930.711 103 930.927 102.1 931.359 101.332C931.803 100.564 932.403 99.976 933.159 99.568C933.927 99.16 934.791 98.956 935.751 98.956ZM935.751 100.738C935.223 100.738 934.737 100.858 934.293 101.098C933.849 101.338 933.489 101.71 933.213 102.214C932.949 102.706 932.817 103.312 932.817 104.032C932.817 104.764 932.949 105.376 933.213 105.868C933.489 106.36 933.849 106.726 934.293 106.966C934.737 107.206 935.223 107.326 935.751 107.326C936.279 107.326 936.765 107.206 937.209 106.966C937.653 106.726 938.007 106.36 938.271 105.868C938.547 105.376 938.685 104.764 938.685 104.032C938.685 103.312 938.547 102.706 938.271 102.214C938.007 101.71 937.653 101.338 937.209 101.098C936.765 100.858 936.279 100.738 935.751 100.738ZM946.022 98.956C947.186 98.956 948.116 99.256 948.812 99.856C949.52 100.444 949.952 101.236 950.108 102.232H948.164C948.08 101.692 947.846 101.26 947.462 100.936C947.09 100.6 946.592 100.432 945.968 100.432C945.452 100.432 945.05 100.558 944.762 100.81C944.486 101.05 944.348 101.38 944.348 101.8C944.348 102.112 944.45 102.364 944.654 102.556C944.858 102.748 945.11 102.898 945.41 103.006C945.722 103.114 946.16 103.234 946.724 103.366C947.468 103.534 948.068 103.708 948.524 103.888C948.992 104.068 949.388 104.356 949.712 104.752C950.048 105.136 950.216 105.664 950.216 106.336C950.216 107.164 949.898 107.836 949.262 108.352C948.638 108.868 947.792 109.126 946.724 109.126C945.488 109.126 944.486 108.838 943.718 108.262C942.962 107.686 942.506 106.882 942.35 105.85H944.348C944.408 106.39 944.648 106.828 945.068 107.164C945.488 107.5 946.04 107.668 946.724 107.668C947.216 107.668 947.6 107.542 947.876 107.29C948.164 107.026 948.308 106.696 948.308 106.3C948.308 105.952 948.2 105.676 947.984 105.472C947.768 105.268 947.498 105.112 947.174 105.004C946.85 104.884 946.406 104.764 945.842 104.644C945.122 104.476 944.534 104.308 944.078 104.14C943.634 103.972 943.25 103.702 942.926 103.33C942.614 102.946 942.458 102.43 942.458 101.782C942.458 100.942 942.77 100.264 943.394 99.748C944.03 99.22 944.906 98.956 946.022 98.956ZM956.252 98.956C957.152 98.956 957.92 99.178 958.556 99.622C959.192 100.066 959.642 100.654 959.906 101.386V99.082H961.958V109H959.906V106.696C959.642 107.428 959.192 108.016 958.556 108.46C957.92 108.904 957.152 109.126 956.252 109.126C955.388 109.126 954.614 108.922 953.93 108.514C953.258 108.106 952.73 107.518 952.346 106.75C951.962 105.982 951.77 105.076 951.77 104.032C951.77 103 951.962 102.1 952.346 101.332C952.73 100.564 953.258 99.976 953.93 99.568C954.614 99.16 955.388 98.956 956.252 98.956ZM956.882 100.756C955.97 100.756 955.238 101.05 954.686 101.638C954.146 102.214 953.876 103.012 953.876 104.032C953.876 105.052 954.146 105.856 954.686 106.444C955.238 107.02 955.97 107.308 956.882 107.308C957.458 107.308 957.974 107.176 958.43 106.912C958.886 106.636 959.246 106.252 959.51 105.76C959.774 105.268 959.906 104.692 959.906 104.032C959.906 103.384 959.774 102.814 959.51 102.322C959.246 101.818 958.886 101.434 958.43 101.17C957.974 100.894 957.458 100.756 956.882 100.756ZM966.472 95.68V109H964.42V95.68H966.472ZM972.886 96.202C972.886 95.854 973.006 95.566 973.246 95.338C973.486 95.11 973.804 94.996 974.2 94.996C974.596 94.996 974.914 95.11 975.154 95.338C975.406 95.566 975.532 95.854 975.532 96.202C975.532 96.55 975.406 96.832 975.154 97.048C974.914 97.264 974.596 97.372 974.2 97.372C973.804 97.372 973.486 97.264 973.246 97.048C973.006 96.832 972.886 96.55 972.886 96.202ZM975.226 99.082V109H973.174V99.082H975.226ZM980.967 98.956C982.131 98.956 983.061 99.256 983.757 99.856C984.465 100.444 984.897 101.236 985.053 102.232H983.109C983.025 101.692 982.791 101.26 982.407 100.936C982.035 100.6 981.537 100.432 980.913 100.432C980.397 100.432 979.995 100.558 979.707 100.81C979.431 101.05 979.293 101.38 979.293 101.8C979.293 102.112 979.395 102.364 979.599 102.556C979.803 102.748 980.055 102.898 980.355 103.006C980.667 103.114 981.105 103.234 981.669 103.366C982.413 103.534 983.013 103.708 983.469 103.888C983.937 104.068 984.333 104.356 984.657 104.752C984.993 105.136 985.161 105.664 985.161 106.336C985.161 107.164 984.843 107.836 984.207 108.352C983.583 108.868 982.737 109.126 981.669 109.126C980.433 109.126 979.431 108.838 978.663 108.262C977.907 107.686 977.451 106.882 977.295 105.85H979.293C979.353 106.39 979.593 106.828 980.013 107.164C980.433 107.5 980.985 107.668 981.669 107.668C982.161 107.668 982.545 107.542 982.821 107.29C983.109 107.026 983.253 106.696 983.253 106.3C983.253 105.952 983.145 105.676 982.929 105.472C982.713 105.268 982.443 105.112 982.119 105.004C981.795 104.884 981.351 104.764 980.787 104.644C980.067 104.476 979.479 104.308 979.023 104.14C978.579 103.972 978.195 103.702 977.871 103.33C977.559 102.946 977.403 102.43 977.403 101.782C977.403 100.942 977.715 100.264 978.339 99.748C978.975 99.22 979.851 98.956 980.967 98.956ZM995.848 98.956C997.132 98.956 998.194 99.298 999.034 99.982C999.874 100.654 1000.4 101.572 1000.6 102.736H998.422C998.302 102.112 998.008 101.626 997.54 101.278C997.084 100.918 996.508 100.738 995.812 100.738C995.02 100.738 994.36 101.02 993.832 101.584C993.304 102.136 993.04 102.952 993.04 104.032C993.04 105.112 993.304 105.934 993.832 106.498C994.36 107.062 995.02 107.344 995.812 107.344C996.508 107.344 997.084 107.164 997.54 106.804C998.008 106.444 998.302 105.952 998.422 105.328H1000.6C1000.4 106.492 999.874 107.416 999.034 108.1C998.194 108.784 997.132 109.126 995.848 109.126C994.888 109.126 994.036 108.922 993.292 108.514C992.56 108.106 991.984 107.518 991.564 106.75C991.144 105.982 990.934 105.076 990.934 104.032C990.934 103 991.144 102.1 991.564 101.332C991.984 100.564 992.56 99.976 993.292 99.568C994.036 99.16 994.888 98.956 995.848 98.956ZM1004.63 101.026C1004.97 100.378 1005.45 99.868 1006.07 99.496C1006.7 99.112 1007.42 98.92 1008.23 98.92V101.152H1007.62C1006.72 101.152 1006 101.374 1005.44 101.818C1004.9 102.25 1004.63 102.97 1004.63 103.978V109H1002.58V99.082H1004.63V101.026ZM1018.99 103.564C1018.99 103.9 1018.96 104.194 1018.92 104.446H1011.28C1011.32 105.466 1011.6 106.222 1012.13 106.714C1012.66 107.206 1013.31 107.452 1014.09 107.452C1014.78 107.452 1015.35 107.278 1015.82 106.93C1016.3 106.582 1016.59 106.12 1016.7 105.544H1018.9C1018.77 106.24 1018.49 106.858 1018.07 107.398C1017.65 107.938 1017.1 108.364 1016.43 108.676C1015.76 108.976 1015.01 109.126 1014.18 109.126C1013.22 109.126 1012.37 108.922 1011.63 108.514C1010.89 108.106 1010.32 107.518 1009.9 106.75C1009.48 105.982 1009.27 105.076 1009.27 104.032C1009.27 103 1009.48 102.1 1009.9 101.332C1010.32 100.564 1010.89 99.976 1011.63 99.568C1012.37 99.16 1013.22 98.956 1014.18 98.956C1015.15 98.956 1016 99.16 1016.72 99.568C1017.45 99.964 1018.01 100.516 1018.39 101.224C1018.79 101.92 1018.99 102.7 1018.99 103.564ZM1016.92 103.51C1016.94 102.862 1016.83 102.322 1016.58 101.89C1016.34 101.446 1016 101.122 1015.57 100.918C1015.15 100.702 1014.69 100.594 1014.18 100.594C1013.38 100.594 1012.71 100.84 1012.17 101.332C1011.63 101.824 1011.33 102.55 1011.28 103.51H1016.92ZM1024.95 98.956C1025.85 98.956 1026.62 99.178 1027.25 99.622C1027.89 100.066 1028.34 100.654 1028.6 101.386V99.082H1030.65V109H1028.6V106.696C1028.34 107.428 1027.89 108.016 1027.25 108.46C1026.62 108.904 1025.85 109.126 1024.95 109.126C1024.08 109.126 1023.31 108.922 1022.63 108.514C1021.95 108.106 1021.43 107.518 1021.04 106.75C1020.66 105.982 1020.47 105.076 1020.47 104.032C1020.47 103 1020.66 102.1 1021.04 101.332C1021.43 100.564 1021.95 99.976 1022.63 99.568C1023.31 99.16 1024.08 98.956 1024.95 98.956ZM1025.58 100.756C1024.67 100.756 1023.93 101.05 1023.38 101.638C1022.84 102.214 1022.57 103.012 1022.57 104.032C1022.57 105.052 1022.84 105.856 1023.38 106.444C1023.93 107.02 1024.67 107.308 1025.58 107.308C1026.15 107.308 1026.67 107.176 1027.13 106.912C1027.58 106.636 1027.94 106.252 1028.21 105.76C1028.47 105.268 1028.6 104.692 1028.6 104.032C1028.6 103.384 1028.47 102.814 1028.21 102.322C1027.94 101.818 1027.58 101.434 1027.13 101.17C1026.67 100.894 1026.15 100.756 1025.58 100.756ZM1038.1 107.218V109H1036.84C1035.79 109 1034.98 108.748 1034.43 108.244C1033.89 107.728 1033.62 106.876 1033.62 105.688V100.828H1032.2V99.082H1033.62V96.616H1035.69V99.082H1038.08V100.828H1035.69V105.724C1035.69 106.288 1035.79 106.678 1036 106.894C1036.21 107.11 1036.58 107.218 1037.11 107.218H1038.1ZM1049.24 103.564C1049.24 103.9 1049.22 104.194 1049.17 104.446H1041.54C1041.57 105.466 1041.85 106.222 1042.38 106.714C1042.91 107.206 1043.56 107.452 1044.34 107.452C1045.03 107.452 1045.6 107.278 1046.07 106.93C1046.55 106.582 1046.85 106.12 1046.95 105.544H1049.15C1049.02 106.24 1048.74 106.858 1048.32 107.398C1047.9 107.938 1047.36 108.364 1046.68 108.676C1046.01 108.976 1045.26 109.126 1044.43 109.126C1043.47 109.126 1042.62 108.922 1041.88 108.514C1041.15 108.106 1040.57 107.518 1040.15 106.75C1039.73 105.982 1039.52 105.076 1039.52 104.032C1039.52 103 1039.73 102.1 1040.15 101.332C1040.57 100.564 1041.15 99.976 1041.88 99.568C1042.62 99.16 1043.47 98.956 1044.43 98.956C1045.41 98.956 1046.25 99.16 1046.97 99.568C1047.7 99.964 1048.26 100.516 1048.65 101.224C1049.04 101.92 1049.24 102.7 1049.24 103.564ZM1047.17 103.51C1047.19 102.862 1047.08 102.322 1046.83 101.89C1046.59 101.446 1046.25 101.122 1045.82 100.918C1045.4 100.702 1044.94 100.594 1044.43 100.594C1043.63 100.594 1042.96 100.84 1042.42 101.332C1041.88 101.824 1041.58 102.55 1041.54 103.51H1047.17ZM1055.2 98.956C1056.1 98.956 1056.87 99.178 1057.5 99.622C1058.14 100.066 1058.58 100.654 1058.84 101.386V95.68H1060.91V109H1058.84V106.696C1058.58 107.428 1058.14 108.016 1057.5 108.46C1056.87 108.904 1056.1 109.126 1055.2 109.126C1054.34 109.126 1053.56 108.922 1052.88 108.514C1052.21 108.106 1051.68 107.518 1051.29 106.75C1050.91 105.982 1050.72 105.076 1050.72 104.032C1050.72 103 1050.91 102.1 1051.29 101.332C1051.68 100.564 1052.21 99.976 1052.88 99.568C1053.56 99.16 1054.34 98.956 1055.2 98.956ZM1055.83 100.756C1054.92 100.756 1054.19 101.05 1053.63 101.638C1053.09 102.214 1052.82 103.012 1052.82 104.032C1052.82 105.052 1053.09 105.856 1053.63 106.444C1054.19 107.02 1054.92 107.308 1055.83 107.308C1056.41 107.308 1056.92 107.176 1057.38 106.912C1057.83 106.636 1058.19 106.252 1058.46 105.76C1058.72 105.268 1058.85 104.692 1058.85 104.032C1058.85 103.384 1058.72 102.814 1058.46 102.322C1058.19 101.818 1057.83 101.434 1057.38 101.17C1056.92 100.894 1056.41 100.756 1055.83 100.756Z" fill="white"/>
<path d="M247.061 89.0607C247.646 88.4749 247.646 87.5251 247.061 86.9393L237.515 77.3934C236.929 76.8076 235.979 76.8076 235.393 77.3934C234.808 77.9792 234.808 78.9289 235.393 79.5147L243.879 88L235.393 96.4853C234.808 97.0711 234.808 98.0208 235.393 98.6066C235.979 99.1924 236.929 99.1924 237.515 98.6066L247.061 89.0607ZM226 89.5H246V86.5H226V89.5Z" fill="white"/>
<path d="M557.277 89.0607C557.863 88.4749 557.863 87.5251 557.277 86.9393L547.731 77.3934C547.145 76.8076 546.195 76.8076 545.61 77.3934C545.024 77.9792 545.024 78.9289 545.61 79.5147L554.095 88L545.61 96.4853C545.024 97.0711 545.024 98.0208 545.61 98.6066C546.195 99.1924 547.145 99.1924 547.731 98.6066L557.277 89.0607ZM536.216 89.5H556.216V86.5H536.216V89.5Z" fill="white"/>
<path d="M843.18 89.0607C843.766 88.4749 843.766 87.5251 843.18 86.9393L833.634 77.3934C833.048 76.8076 832.098 76.8076 831.513 77.3934C830.927 77.9792 830.927 78.9289 831.513 79.5147L839.998 88L831.513 96.4853C830.927 97.0711 830.927 98.0208 831.513 98.6066C832.098 99.1924 833.048 99.1924 833.634 98.6066L843.18 89.0607ZM822.119 89.5H842.119V86.5H822.119V89.5Z" fill="white"/>
</svg>
