<svg width="887" height="134" viewBox="0 0 887 134" fill="none" xmlns="http://www.w3.org/2000/svg">
<path d="M23.2375 107.452L23.2346 107.449C10.899 96.2362 5.23791 81.6884 3.21859 65.6597L3.21852 65.6592C1.17842 49.4935 2.99059 32.9946 14.993 22.5714C21.0963 17.2888 30.0047 13.3784 40.603 10.4553C51.1661 7.54194 63.1896 5.66662 75.346 4.32071C99.7699 1.62106 123.845 1.21092 142.364 8.10716C160.767 14.9755 173.795 29.1269 178.895 43.6835C183.957 58.13 181.263 73.2666 174.062 87.8678C166.868 102.428 155.395 115.993 138.321 123.641C121.102 131.337 97.9564 133.196 76.491 130.027C55.0344 126.859 35.6281 118.75 23.2375 107.452Z" stroke="#4A6BAC" stroke-width="5"/>
<path d="M58.5148 56.34C58.5148 57.0067 58.3548 57.6267 58.0348 58.2C57.7148 58.7733 57.2281 59.24 56.5748 59.6C55.9214 59.96 55.1148 60.14 54.1548 60.14C53.2214 60.14 52.3881 59.9733 51.6548 59.64C50.9348 59.2933 50.3548 58.8267 49.9148 58.24C49.4881 57.64 49.2414 56.96 49.1748 56.2H51.1148C51.1548 56.6 51.2881 56.9933 51.5148 57.38C51.7548 57.7533 52.0881 58.0667 52.5148 58.32C52.9548 58.56 53.4814 58.68 54.0948 58.68C54.8948 58.68 55.5081 58.4667 55.9348 58.04C56.3614 57.6133 56.5748 57.0667 56.5748 56.4C56.5748 55.8267 56.4214 55.36 56.1148 55C55.8214 54.64 55.4548 54.36 55.0148 54.16C54.5748 53.9467 53.9748 53.72 53.2148 53.48C52.3214 53.1867 51.6014 52.9133 51.0548 52.66C50.5214 52.3933 50.0614 52 49.6748 51.48C49.3014 50.96 49.1148 50.2733 49.1148 49.42C49.1148 48.6867 49.2881 48.04 49.6348 47.48C49.9948 46.92 50.5014 46.4867 51.1548 46.18C51.8214 45.8733 52.6014 45.72 53.4948 45.72C54.8814 45.72 55.9814 46.06 56.7948 46.74C57.6081 47.4067 58.0814 48.26 58.2148 49.3H56.2548C56.1481 48.74 55.8614 48.2467 55.3948 47.82C54.9281 47.3933 54.2948 47.18 53.4948 47.18C52.7614 47.18 52.1748 47.3733 51.7348 47.76C51.2948 48.1333 51.0748 48.6667 51.0748 49.36C51.0748 49.9067 51.2148 50.3533 51.4948 50.7C51.7881 51.0333 52.1481 51.3 52.5748 51.5C53.0014 51.6867 53.5881 51.9 54.3348 52.14C55.2414 52.4333 55.9681 52.7133 56.5148 52.98C57.0748 53.2467 57.5481 53.6533 57.9348 54.2C58.3214 54.7333 58.5148 55.4467 58.5148 56.34ZM70.722 49.02V60H68.902V57.42C68.622 58.3133 68.122 59 67.402 59.48C66.6953 59.9467 65.8686 60.18 64.922 60.18C63.6553 60.18 62.6286 59.7733 61.842 58.96C61.0553 58.1333 60.662 56.9533 60.662 55.42V49.02H62.482V55.24C62.482 56.3333 62.762 57.18 63.322 57.78C63.882 58.3667 64.642 58.66 65.602 58.66C66.602 58.66 67.402 58.34 68.002 57.7C68.602 57.0467 68.902 56.1 68.902 54.86V49.02H70.722ZM79.6977 48.88C80.6711 48.88 81.5377 49.1067 82.2977 49.56C83.0577 50.0133 83.6511 50.6667 84.0777 51.52C84.5177 52.3733 84.7377 53.3733 84.7377 54.52C84.7377 55.6667 84.5177 56.6667 84.0777 57.52C83.6511 58.36 83.0577 59.0067 82.2977 59.46C81.5377 59.9133 80.6711 60.14 79.6977 60.14C78.6311 60.14 77.7244 59.8733 76.9777 59.34C76.2444 58.7933 75.7377 58.08 75.4577 57.2V60H73.6377V45.2H75.4577V51.82C75.7377 50.94 76.2444 50.2333 76.9777 49.7C77.7244 49.1533 78.6311 48.88 79.6977 48.88ZM79.1777 50.5C78.4711 50.5 77.8311 50.6667 77.2577 51C76.6844 51.32 76.2377 51.7867 75.9177 52.4C75.5977 53.0133 75.4377 53.72 75.4377 54.52C75.4377 55.32 75.5977 56.0267 75.9177 56.64C76.2377 57.24 76.6844 57.7067 77.2577 58.04C77.8311 58.3733 78.4711 58.54 79.1777 58.54C80.3111 58.54 81.2111 58.1867 81.8777 57.48C82.5577 56.76 82.8977 55.7733 82.8977 54.52C82.8977 53.2667 82.5577 52.2867 81.8777 51.58C81.2111 50.86 80.3111 50.5 79.1777 50.5ZM100.614 48.84C101.894 48.84 102.921 49.2533 103.694 50.08C104.481 50.8933 104.874 52.0733 104.874 53.62V60H103.054V53.78C103.054 52.7 102.788 51.8733 102.254 51.3C101.734 50.7267 101.014 50.44 100.094 50.44C99.1343 50.44 98.361 50.76 97.7743 51.4C97.201 52.0267 96.9143 52.9533 96.9143 54.18V60H95.0943V53.78C95.0943 52.7 94.8276 51.8733 94.2943 51.3C93.761 50.7267 93.041 50.44 92.1343 50.44C91.161 50.44 90.381 50.76 89.7943 51.4C89.221 52.0267 88.9343 52.9533 88.9343 54.18V60H87.1143V49.02H88.9343V51.52C89.201 50.6533 89.6743 49.9933 90.3543 49.54C91.0476 49.0733 91.841 48.84 92.7343 48.84C93.6676 48.84 94.4743 49.08 95.1543 49.56C95.8476 50.0267 96.341 50.72 96.6343 51.64C96.941 50.7467 97.4543 50.06 98.1743 49.58C98.8943 49.0867 99.7076 48.84 100.614 48.84ZM107.38 45.8C107.38 45.4667 107.494 45.2 107.72 45C107.947 44.7867 108.247 44.68 108.62 44.68C108.994 44.68 109.294 44.7867 109.52 45C109.747 45.2 109.86 45.4667 109.86 45.8C109.86 46.1333 109.747 46.4067 109.52 46.62C109.294 46.82 108.994 46.92 108.62 46.92C108.247 46.92 107.947 46.82 107.72 46.62C107.494 46.4067 107.38 46.1333 107.38 45.8ZM109.52 49.02V60H107.7V49.02H109.52ZM117.686 58.4V60H116.326C115.206 60 114.366 59.7333 113.806 59.2C113.26 58.6667 112.986 57.7733 112.986 56.52V50.6H111.346V49.02H112.986V46.28H114.826V49.02H117.666V50.6H114.826V56.56C114.826 57.2667 114.953 57.7533 115.206 58.02C115.473 58.2733 115.926 58.4 116.566 58.4H117.686ZM129.349 48.88C130.415 48.88 131.315 49.1467 132.049 49.68C132.795 50.2133 133.315 50.9267 133.609 51.82V49.02H135.429V60H133.609V57.2C133.315 58.0933 132.795 58.8067 132.049 59.34C131.315 59.8733 130.415 60.14 129.349 60.14C128.375 60.14 127.509 59.9133 126.749 59.46C125.989 59.0067 125.389 58.36 124.949 57.52C124.522 56.6667 124.309 55.6667 124.309 54.52C124.309 53.3733 124.522 52.3733 124.949 51.52C125.389 50.6667 125.989 50.0133 126.749 49.56C127.509 49.1067 128.375 48.88 129.349 48.88ZM129.869 50.5C128.749 50.5 127.849 50.86 127.169 51.58C126.502 52.2867 126.169 53.2667 126.169 54.52C126.169 55.7733 126.502 56.76 127.169 57.48C127.849 58.1867 128.749 58.54 129.869 58.54C130.589 58.54 131.229 58.3733 131.789 58.04C132.362 57.7067 132.809 57.24 133.129 56.64C133.449 56.0267 133.609 55.32 133.609 54.52C133.609 53.72 133.449 53.0133 133.129 52.4C132.809 51.7867 132.362 51.32 131.789 51C131.229 50.6667 130.589 50.5 129.869 50.5ZM52.362 84.32V90H50.542V75.9H55.022C56.6354 75.9 57.842 76.28 58.642 77.04C59.442 77.7867 59.842 78.8133 59.842 80.12C59.842 81.44 59.4287 82.4733 58.602 83.22C57.7754 83.9533 56.582 84.32 55.022 84.32H52.362ZM54.862 82.8C55.9687 82.8 56.762 82.5667 57.242 82.1C57.7354 81.6333 57.982 80.9733 57.982 80.12C57.982 79.24 57.7354 78.5733 57.242 78.12C56.762 77.6533 55.9687 77.42 54.862 77.42H52.362V82.8H54.862ZM63.7878 81.24C64.1478 80.48 64.6745 79.8933 65.3678 79.48C66.0611 79.0533 66.8878 78.84 67.8478 78.84V80.82H67.2878C66.2611 80.82 65.4211 81.0867 64.7678 81.62C64.1145 82.14 63.7878 83.0067 63.7878 84.22V90H61.9678V79.02H63.7878V81.24ZM74.6236 78.88C75.6769 78.88 76.6169 79.1067 77.4436 79.56C78.2836 80.0133 78.9369 80.6667 79.4036 81.52C79.8836 82.3733 80.1236 83.3733 80.1236 84.52C80.1236 85.6667 79.8836 86.6667 79.4036 87.52C78.9369 88.36 78.2836 89.0067 77.4436 89.46C76.6169 89.9133 75.6769 90.14 74.6236 90.14C73.5703 90.14 72.6236 89.9133 71.7836 89.46C70.9569 89.0067 70.3036 88.36 69.8236 87.52C69.3436 86.6667 69.1036 85.6667 69.1036 84.52C69.1036 83.3733 69.3436 82.3733 69.8236 81.52C70.3036 80.6667 70.9569 80.0133 71.7836 79.56C72.6236 79.1067 73.5703 78.88 74.6236 78.88ZM74.6236 80.48C73.9703 80.48 73.3636 80.6267 72.8036 80.92C72.2569 81.2133 71.8103 81.6667 71.4636 82.28C71.1303 82.88 70.9636 83.6267 70.9636 84.52C70.9636 85.4 71.1303 86.1467 71.4636 86.76C71.8103 87.36 72.2569 87.8067 72.8036 88.1C73.3636 88.3933 73.9703 88.54 74.6236 88.54C75.2769 88.54 75.8769 88.3933 76.4236 88.1C76.9836 87.8067 77.4303 87.36 77.7636 86.76C78.1103 86.1467 78.2836 85.4 78.2836 84.52C78.2836 83.6267 78.1103 82.88 77.7636 82.28C77.4303 81.6667 76.9836 81.2133 76.4236 80.92C75.8769 80.6267 75.2769 80.48 74.6236 80.48ZM88.5552 78.88C89.5285 78.88 90.3952 79.1067 91.1552 79.56C91.9152 80.0133 92.5085 80.6667 92.9352 81.52C93.3752 82.3733 93.5952 83.3733 93.5952 84.52C93.5952 85.6667 93.3752 86.6667 92.9352 87.52C92.5085 88.36 91.9152 89.0067 91.1552 89.46C90.3952 89.9133 89.5285 90.14 88.5552 90.14C87.4885 90.14 86.5818 89.8733 85.8352 89.34C85.1018 88.7933 84.5952 88.08 84.3152 87.2V95.2H82.4952V79.02H84.3152V81.82C84.5952 80.94 85.1018 80.2333 85.8352 79.7C86.5818 79.1533 87.4885 78.88 88.5552 78.88ZM88.0352 80.5C87.3285 80.5 86.6885 80.6667 86.1152 81C85.5418 81.32 85.0952 81.7867 84.7752 82.4C84.4552 83.0133 84.2952 83.72 84.2952 84.52C84.2952 85.32 84.4552 86.0267 84.7752 86.64C85.0952 87.24 85.5418 87.7067 86.1152 88.04C86.6885 88.3733 87.3285 88.54 88.0352 88.54C89.1685 88.54 90.0685 88.1867 90.7352 87.48C91.4152 86.76 91.7552 85.7733 91.7552 84.52C91.7552 83.2667 91.4152 82.2867 90.7352 81.58C90.0685 80.86 89.1685 80.5 88.0352 80.5ZM100.952 78.88C102.005 78.88 102.945 79.1067 103.772 79.56C104.612 80.0133 105.265 80.6667 105.732 81.52C106.212 82.3733 106.452 83.3733 106.452 84.52C106.452 85.6667 106.212 86.6667 105.732 87.52C105.265 88.36 104.612 89.0067 103.772 89.46C102.945 89.9133 102.005 90.14 100.952 90.14C99.8984 90.14 98.9517 89.9133 98.1117 89.46C97.2851 89.0067 96.6317 88.36 96.1517 87.52C95.6717 86.6667 95.4317 85.6667 95.4317 84.52C95.4317 83.3733 95.6717 82.3733 96.1517 81.52C96.6317 80.6667 97.2851 80.0133 98.1117 79.56C98.9517 79.1067 99.8984 78.88 100.952 78.88ZM100.952 80.48C100.298 80.48 99.6917 80.6267 99.1317 80.92C98.5851 81.2133 98.1384 81.6667 97.7917 82.28C97.4584 82.88 97.2917 83.6267 97.2917 84.52C97.2917 85.4 97.4584 86.1467 97.7917 86.76C98.1384 87.36 98.5851 87.8067 99.1317 88.1C99.6917 88.3933 100.298 88.54 100.952 88.54C101.605 88.54 102.205 88.3933 102.752 88.1C103.312 87.8067 103.758 87.36 104.092 86.76C104.438 86.1467 104.612 85.4 104.612 84.52C104.612 83.6267 104.438 82.88 104.092 82.28C103.758 81.6667 103.312 81.2133 102.752 80.92C102.205 80.6267 101.605 80.48 100.952 80.48ZM112.263 78.88C113.503 78.88 114.497 79.2067 115.243 79.86C116.003 80.5 116.463 81.3667 116.623 82.46H114.883C114.803 81.8067 114.53 81.2733 114.063 80.86C113.61 80.4333 112.997 80.22 112.223 80.22C111.57 80.22 111.057 80.38 110.683 80.7C110.323 81.0067 110.143 81.4267 110.143 81.96C110.143 82.36 110.263 82.6867 110.503 82.94C110.757 83.18 111.063 83.3667 111.423 83.5C111.797 83.62 112.303 83.7533 112.943 83.9C113.757 84.0867 114.41 84.28 114.903 84.48C115.41 84.6667 115.837 84.9733 116.183 85.4C116.543 85.8267 116.723 86.4 116.723 87.12C116.723 88.0133 116.383 88.74 115.703 89.3C115.037 89.86 114.143 90.14 113.023 90.14C111.717 90.14 110.65 89.8267 109.823 89.2C108.997 88.5733 108.51 87.7 108.363 86.58H110.123C110.19 87.2467 110.477 87.7867 110.983 88.2C111.503 88.6133 112.183 88.82 113.023 88.82C113.65 88.82 114.137 88.66 114.483 88.34C114.843 88.02 115.023 87.6 115.023 87.08C115.023 86.6533 114.897 86.3133 114.643 86.06C114.39 85.8067 114.077 85.6133 113.703 85.48C113.33 85.3467 112.817 85.2067 112.163 85.06C111.35 84.8733 110.697 84.6867 110.203 84.5C109.723 84.3133 109.31 84.02 108.963 83.62C108.63 83.2067 108.463 82.6533 108.463 81.96C108.463 81.04 108.803 80.3 109.483 79.74C110.163 79.1667 111.09 78.88 112.263 78.88ZM123.655 78.88C124.722 78.88 125.622 79.1467 126.355 79.68C127.102 80.2133 127.622 80.9267 127.915 81.82V79.02H129.735V90H127.915V87.2C127.622 88.0933 127.102 88.8067 126.355 89.34C125.622 89.8733 124.722 90.14 123.655 90.14C122.682 90.14 121.815 89.9133 121.055 89.46C120.295 89.0067 119.695 88.36 119.255 87.52C118.829 86.6667 118.615 85.6667 118.615 84.52C118.615 83.3733 118.829 82.3733 119.255 81.52C119.695 80.6667 120.295 80.0133 121.055 79.56C121.815 79.1067 122.682 78.88 123.655 78.88ZM124.175 80.5C123.055 80.5 122.155 80.86 121.475 81.58C120.809 82.2867 120.475 83.2667 120.475 84.52C120.475 85.7733 120.809 86.76 121.475 87.48C122.155 88.1867 123.055 88.54 124.175 88.54C124.895 88.54 125.535 88.3733 126.095 88.04C126.669 87.7067 127.115 87.24 127.435 86.64C127.755 86.0267 127.915 85.32 127.915 84.52C127.915 83.72 127.755 83.0133 127.435 82.4C127.115 81.7867 126.669 81.32 126.095 81C125.535 80.6667 124.895 80.5 124.175 80.5ZM134.452 75.2V90H132.632V75.2H134.452Z" fill="white" fill-opacity="0.95"/>
<path d="M288.096 9.94778L288.099 9.94705C304.367 6.50081 321.383 6.246 339.823 6.63816C358.317 7.03226 377.503 8.08025 391.915 14.2658L391.92 14.268C406.315 20.4076 415.857 31.5864 417.998 42.6575L417.999 42.6584C419.064 48.1552 418.346 53.8292 416.652 59.7915C415.156 65.0608 412.951 70.3874 410.66 75.9235C410.345 76.6849 410.028 77.4502 409.711 78.2199C409.421 78.9241 409.133 79.6263 408.846 80.326C403.939 92.285 399.325 103.528 388.859 111.576L388.856 111.579C377.73 120.161 359.607 125.32 340.539 126.948L340.539 126.948C321.568 128.57 302.165 126.662 287.044 120.66C271.994 114.686 261.016 104.572 252.733 93.9588C244.487 83.3215 239.23 72.4721 237.841 61.1496C236.486 49.8075 239.039 38.099 247.672 29.1146C256.44 20.015 271.744 13.3875 288.096 9.94778Z" stroke="#00CAB2" stroke-width="5"/>
<path d="M285.018 44.76C286.738 44.76 288.158 45.1867 289.278 46.04C290.398 46.88 291.172 48.0333 291.598 49.5H289.678C289.318 48.5667 288.738 47.8267 287.938 47.28C287.138 46.72 286.158 46.44 284.998 46.44C284.078 46.44 283.252 46.6667 282.518 47.12C281.798 47.56 281.225 48.2 280.798 49.04C280.385 49.8667 280.178 50.84 280.178 51.96C280.178 53.0667 280.385 54.0333 280.798 54.86C281.225 55.6867 281.798 56.3267 282.518 56.78C283.252 57.22 284.078 57.44 284.998 57.44C286.158 57.44 287.138 57.1667 287.938 56.62C288.738 56.06 289.318 55.3133 289.678 54.38H291.598C291.172 55.8467 290.398 57.0067 289.278 57.86C288.158 58.7 286.738 59.12 285.018 59.12C283.698 59.12 282.532 58.82 281.518 58.22C280.505 57.6067 279.712 56.76 279.138 55.68C278.578 54.5867 278.298 53.3467 278.298 51.96C278.298 50.56 278.578 49.3133 279.138 48.22C279.712 47.1267 280.505 46.28 281.518 45.68C282.532 45.0667 283.698 44.76 285.018 44.76ZM299.812 47.84C301.092 47.84 302.126 48.2533 302.912 49.08C303.699 49.8933 304.092 51.0733 304.092 52.62V59H302.272V52.78C302.272 51.6867 301.992 50.8467 301.432 50.26C300.872 49.6733 300.112 49.38 299.152 49.38C298.152 49.38 297.352 49.7067 296.752 50.36C296.152 51 295.852 51.94 295.852 53.18V59H294.032V44.2H295.852V50.62C296.132 49.7267 296.626 49.04 297.332 48.56C298.052 48.08 298.879 47.84 299.812 47.84ZM311.384 47.88C312.45 47.88 313.35 48.1467 314.084 48.68C314.83 49.2133 315.35 49.9267 315.644 50.82V48.02H317.464V59H315.644V56.2C315.35 57.0933 314.83 57.8067 314.084 58.34C313.35 58.8733 312.45 59.14 311.384 59.14C310.41 59.14 309.544 58.9133 308.784 58.46C308.024 58.0067 307.424 57.36 306.984 56.52C306.557 55.6667 306.344 54.6667 306.344 53.52C306.344 52.3733 306.557 51.3733 306.984 50.52C307.424 49.6667 308.024 49.0133 308.784 48.56C309.544 48.1067 310.41 47.88 311.384 47.88ZM311.904 49.5C310.784 49.5 309.884 49.86 309.204 50.58C308.537 51.2867 308.204 52.2667 308.204 53.52C308.204 54.7733 308.537 55.76 309.204 56.48C309.884 57.1867 310.784 57.54 311.904 57.54C312.624 57.54 313.264 57.3733 313.824 57.04C314.397 56.7067 314.844 56.24 315.164 55.64C315.484 55.0267 315.644 54.32 315.644 53.52C315.644 52.72 315.484 52.0133 315.164 51.4C314.844 50.7867 314.397 50.32 313.824 50C313.264 49.6667 312.624 49.5 311.904 49.5ZM322.18 44.2V59H320.36V44.2H322.18ZM326.926 44.2V59H325.106V44.2H326.926ZM339.953 52.9C339.953 53.2867 339.926 53.62 339.873 53.9H331.093C331.133 55.1533 331.486 56.0933 332.153 56.72C332.833 57.3467 333.659 57.66 334.633 57.66C335.513 57.66 336.246 57.44 336.833 57C337.433 56.5467 337.799 55.9467 337.933 55.2H339.873C339.739 55.96 339.439 56.64 338.973 57.24C338.519 57.84 337.926 58.3067 337.193 58.64C336.459 58.9733 335.633 59.14 334.713 59.14C333.659 59.14 332.726 58.9133 331.913 58.46C331.099 58.0067 330.459 57.36 329.993 56.52C329.539 55.6667 329.313 54.6667 329.313 53.52C329.313 52.3733 329.539 51.3733 329.993 50.52C330.459 49.6667 331.099 49.0133 331.913 48.56C332.726 48.1067 333.659 47.88 334.713 47.88C335.779 47.88 336.706 48.1067 337.493 48.56C338.293 49.0133 338.899 49.62 339.313 50.38C339.739 51.14 339.953 51.98 339.953 52.9ZM338.113 53.02C338.153 52.2067 338.019 51.5267 337.713 50.98C337.406 50.4333 336.986 50.0267 336.453 49.76C335.919 49.4933 335.339 49.36 334.713 49.36C333.713 49.36 332.873 49.6733 332.193 50.3C331.513 50.9133 331.146 51.82 331.093 53.02H338.113ZM348.113 47.84C349.393 47.84 350.426 48.2533 351.213 49.08C352 49.8933 352.393 51.0733 352.393 52.62V59H350.573V52.78C350.573 51.6867 350.293 50.8467 349.733 50.26C349.173 49.6733 348.413 49.38 347.453 49.38C346.453 49.38 345.653 49.7067 345.053 50.36C344.453 51 344.153 51.94 344.153 53.18V59H342.333V48.02H344.153V50.62C344.433 49.7267 344.926 49.04 345.633 48.56C346.353 48.08 347.18 47.84 348.113 47.84ZM359.685 47.88C360.751 47.88 361.651 48.1467 362.385 48.68C363.131 49.2133 363.651 49.9267 363.945 50.82V48.02H365.765V59.18C365.765 60.1933 365.551 61.0933 365.125 61.88C364.698 62.6667 364.098 63.28 363.325 63.72C362.551 64.16 361.651 64.38 360.625 64.38C359.145 64.38 357.938 64.02 357.005 63.3C356.071 62.5933 355.478 61.6333 355.225 60.42H357.025C357.238 61.1533 357.638 61.7267 358.225 62.14C358.825 62.5667 359.591 62.78 360.525 62.78C361.511 62.78 362.325 62.46 362.965 61.82C363.618 61.1933 363.945 60.3133 363.945 59.18V56.2C363.651 57.0933 363.131 57.8067 362.385 58.34C361.651 58.8733 360.751 59.14 359.685 59.14C358.711 59.14 357.845 58.9133 357.085 58.46C356.325 58.0067 355.725 57.36 355.285 56.52C354.858 55.6667 354.645 54.6667 354.645 53.52C354.645 52.3733 354.858 51.3733 355.285 50.52C355.725 49.6667 356.325 49.0133 357.085 48.56C357.845 48.1067 358.711 47.88 359.685 47.88ZM360.205 49.5C359.085 49.5 358.185 49.86 357.505 50.58C356.838 51.2867 356.505 52.2667 356.505 53.52C356.505 54.7733 356.838 55.76 357.505 56.48C358.185 57.1867 359.085 57.54 360.205 57.54C360.925 57.54 361.565 57.3733 362.125 57.04C362.698 56.7067 363.145 56.24 363.465 55.64C363.785 55.0267 363.945 54.32 363.945 53.52C363.945 52.72 363.785 52.0133 363.465 51.4C363.145 50.7867 362.698 50.32 362.125 50C361.565 49.6667 360.925 49.5 360.205 49.5ZM378.761 52.9C378.761 53.2867 378.735 53.62 378.681 53.9H369.901C369.941 55.1533 370.295 56.0933 370.961 56.72C371.641 57.3467 372.468 57.66 373.441 57.66C374.321 57.66 375.055 57.44 375.641 57C376.241 56.5467 376.608 55.9467 376.741 55.2H378.681C378.548 55.96 378.248 56.64 377.781 57.24C377.328 57.84 376.735 58.3067 376.001 58.64C375.268 58.9733 374.441 59.14 373.521 59.14C372.468 59.14 371.535 58.9133 370.721 58.46C369.908 58.0067 369.268 57.36 368.801 56.52C368.348 55.6667 368.121 54.6667 368.121 53.52C368.121 52.3733 368.348 51.3733 368.801 50.52C369.268 49.6667 369.908 49.0133 370.721 48.56C371.535 48.1067 372.468 47.88 373.521 47.88C374.588 47.88 375.515 48.1067 376.301 48.56C377.101 49.0133 377.708 49.62 378.121 50.38C378.548 51.14 378.761 51.98 378.761 52.9ZM376.921 53.02C376.961 52.2067 376.828 51.5267 376.521 50.98C376.215 50.4333 375.795 50.0267 375.261 49.76C374.728 49.4933 374.148 49.36 373.521 49.36C372.521 49.36 371.681 49.6733 371.001 50.3C370.321 50.9133 369.955 51.82 369.901 53.02H376.921ZM289.49 85.74H283.29L282.11 89H280.15L285.37 75.16H287.43L292.63 89H290.67L289.49 85.74ZM288.97 84.32L286.39 77.2L283.81 84.32H288.97ZM299.332 77.88C300.732 77.88 301.892 78.2533 302.812 79C303.732 79.7467 304.298 80.7467 304.512 82H302.592C302.458 81.2133 302.092 80.6 301.492 80.16C300.905 79.7067 300.172 79.48 299.292 79.48C298.652 79.48 298.065 79.6267 297.532 79.92C297.012 80.2133 296.592 80.6667 296.272 81.28C295.952 81.88 295.792 82.6267 295.792 83.52C295.792 84.4133 295.952 85.1667 296.272 85.78C296.592 86.38 297.012 86.8267 297.532 87.12C298.065 87.4133 298.652 87.56 299.292 87.56C300.172 87.56 300.905 87.3333 301.492 86.88C302.092 86.4267 302.458 85.8067 302.592 85.02H304.512C304.298 86.2867 303.732 87.2933 302.812 88.04C301.892 88.7733 300.732 89.14 299.332 89.14C298.278 89.14 297.345 88.9133 296.532 88.46C295.718 88.0067 295.078 87.36 294.612 86.52C294.158 85.6667 293.932 84.6667 293.932 83.52C293.932 82.3733 294.158 81.3733 294.612 80.52C295.078 79.6667 295.718 79.0133 296.532 78.56C297.345 78.1067 298.278 77.88 299.332 77.88ZM311.754 77.88C313.154 77.88 314.314 78.2533 315.234 79C316.154 79.7467 316.72 80.7467 316.934 82H315.014C314.88 81.2133 314.514 80.6 313.914 80.16C313.327 79.7067 312.594 79.48 311.714 79.48C311.074 79.48 310.487 79.6267 309.954 79.92C309.434 80.2133 309.014 80.6667 308.694 81.28C308.374 81.88 308.214 82.6267 308.214 83.52C308.214 84.4133 308.374 85.1667 308.694 85.78C309.014 86.38 309.434 86.8267 309.954 87.12C310.487 87.4133 311.074 87.56 311.714 87.56C312.594 87.56 313.327 87.3333 313.914 86.88C314.514 86.4267 314.88 85.8067 315.014 85.02H316.934C316.72 86.2867 316.154 87.2933 315.234 88.04C314.314 88.7733 313.154 89.14 311.754 89.14C310.7 89.14 309.767 88.9133 308.954 88.46C308.14 88.0067 307.5 87.36 307.034 86.52C306.58 85.6667 306.354 84.6667 306.354 83.52C306.354 82.3733 306.58 81.3733 307.034 80.52C307.5 79.6667 308.14 79.0133 308.954 78.56C309.767 78.1067 310.7 77.88 311.754 77.88ZM329.415 82.9C329.415 83.2867 329.389 83.62 329.335 83.9H320.555C320.595 85.1533 320.949 86.0933 321.615 86.72C322.295 87.3467 323.122 87.66 324.095 87.66C324.975 87.66 325.709 87.44 326.295 87C326.895 86.5467 327.262 85.9467 327.395 85.2H329.335C329.202 85.96 328.902 86.64 328.435 87.24C327.982 87.84 327.389 88.3067 326.655 88.64C325.922 88.9733 325.095 89.14 324.175 89.14C323.122 89.14 322.189 88.9133 321.375 88.46C320.562 88.0067 319.922 87.36 319.455 86.52C319.002 85.6667 318.775 84.6667 318.775 83.52C318.775 82.3733 319.002 81.3733 319.455 80.52C319.922 79.6667 320.562 79.0133 321.375 78.56C322.189 78.1067 323.122 77.88 324.175 77.88C325.242 77.88 326.169 78.1067 326.955 78.56C327.755 79.0133 328.362 79.62 328.775 80.38C329.202 81.14 329.415 81.98 329.415 82.9ZM327.575 83.02C327.615 82.2067 327.482 81.5267 327.175 80.98C326.869 80.4333 326.449 80.0267 325.915 79.76C325.382 79.4933 324.802 79.36 324.175 79.36C323.175 79.36 322.335 79.6733 321.655 80.3C320.975 80.9133 320.609 81.82 320.555 83.02H327.575ZM337.856 77.88C338.829 77.88 339.696 78.1067 340.456 78.56C341.216 79.0133 341.809 79.6667 342.236 80.52C342.676 81.3733 342.896 82.3733 342.896 83.52C342.896 84.6667 342.676 85.6667 342.236 86.52C341.809 87.36 341.216 88.0067 340.456 88.46C339.696 88.9133 338.829 89.14 337.856 89.14C336.789 89.14 335.883 88.8733 335.136 88.34C334.403 87.7933 333.896 87.08 333.616 86.2V94.2H331.796V78.02H333.616V80.82C333.896 79.94 334.403 79.2333 335.136 78.7C335.883 78.1533 336.789 77.88 337.856 77.88ZM337.336 79.5C336.629 79.5 335.989 79.6667 335.416 80C334.843 80.32 334.396 80.7867 334.076 81.4C333.756 82.0133 333.596 82.72 333.596 83.52C333.596 84.32 333.756 85.0267 334.076 85.64C334.396 86.24 334.843 86.7067 335.416 87.04C335.989 87.3733 336.629 87.54 337.336 87.54C338.469 87.54 339.369 87.1867 340.036 86.48C340.716 85.76 341.056 84.7733 341.056 83.52C341.056 82.2667 340.716 81.2867 340.036 80.58C339.369 79.86 338.469 79.5 337.336 79.5ZM350.513 87.4V89H349.153C348.033 89 347.193 88.7333 346.633 88.2C346.086 87.6667 345.813 86.7733 345.813 85.52V79.6H344.173V78.02H345.813V75.28H347.653V78.02H350.493V79.6H347.653V85.56C347.653 86.2667 347.779 86.7533 348.033 87.02C348.299 87.2733 348.753 87.4 349.393 87.4H350.513ZM362.833 82.9C362.833 83.2867 362.807 83.62 362.753 83.9H353.973C354.013 85.1533 354.367 86.0933 355.033 86.72C355.713 87.3467 356.54 87.66 357.513 87.66C358.393 87.66 359.127 87.44 359.713 87C360.313 86.5467 360.68 85.9467 360.813 85.2H362.753C362.62 85.96 362.32 86.64 361.853 87.24C361.4 87.84 360.807 88.3067 360.073 88.64C359.34 88.9733 358.513 89.14 357.593 89.14C356.54 89.14 355.607 88.9133 354.793 88.46C353.98 88.0067 353.34 87.36 352.873 86.52C352.42 85.6667 352.193 84.6667 352.193 83.52C352.193 82.3733 352.42 81.3733 352.873 80.52C353.34 79.6667 353.98 79.0133 354.793 78.56C355.607 78.1067 356.54 77.88 357.593 77.88C358.66 77.88 359.587 78.1067 360.373 78.56C361.173 79.0133 361.78 79.62 362.193 80.38C362.62 81.14 362.833 81.98 362.833 82.9ZM360.993 83.02C361.033 82.2067 360.9 81.5267 360.593 80.98C360.287 80.4333 359.867 80.0267 359.333 79.76C358.8 79.4933 358.22 79.36 357.593 79.36C356.593 79.36 355.753 79.6733 355.073 80.3C354.393 80.9133 354.027 81.82 353.973 83.02H360.993ZM369.714 77.88C370.781 77.88 371.681 78.1467 372.414 78.68C373.161 79.2133 373.681 79.9267 373.974 80.82V74.2H375.794V89H373.974V86.2C373.681 87.0933 373.161 87.8067 372.414 88.34C371.681 88.8733 370.781 89.14 369.714 89.14C368.741 89.14 367.874 88.9133 367.114 88.46C366.354 88.0067 365.754 87.36 365.314 86.52C364.887 85.6667 364.674 84.6667 364.674 83.52C364.674 82.3733 364.887 81.3733 365.314 80.52C365.754 79.6667 366.354 79.0133 367.114 78.56C367.874 78.1067 368.741 77.88 369.714 77.88ZM370.234 79.5C369.114 79.5 368.214 79.86 367.534 80.58C366.867 81.2867 366.534 82.2667 366.534 83.52C366.534 84.7733 366.867 85.76 367.534 86.48C368.214 87.1867 369.114 87.54 370.234 87.54C370.954 87.54 371.594 87.3733 372.154 87.04C372.727 86.7067 373.174 86.24 373.494 85.64C373.814 85.0267 373.974 84.32 373.974 83.52C373.974 82.72 373.814 82.0133 373.494 81.4C373.174 80.7867 372.727 80.32 372.154 80C371.594 79.6667 370.954 79.5 370.234 79.5Z" fill="white" fill-opacity="0.95"/>
<path d="M668.314 48.876L668.315 48.8788C672.714 56.3461 673.596 64.8581 671.193 75.4809L671.193 75.4821C670.771 77.3527 670.406 79.2169 670.044 81.0635C668.159 90.6849 666.368 99.8277 657.101 106.891L657.098 106.893C651.492 111.177 643.006 114.762 632.656 117.557C622.351 120.341 610.387 122.292 597.979 123.416C573.142 125.642 546.765 124.552 525.497 119.099C514.876 116.375 505.547 112.571 498.193 108.172C490.804 103.752 485.582 98.837 482.924 93.9786C477.159 83.4452 473.369 72.0467 472.007 60.3658C470.629 48.5372 471.774 37.1123 479.001 29.3953C480.69 27.5929 483.337 25.8638 486.883 24.2389C490.405 22.6253 494.666 21.1802 499.445 19.8749C509.008 17.2634 520.412 15.2724 531.656 13.5747C554.161 10.1771 575.37 8.08879 593.401 10.6215C611.381 13.1472 626.417 20.338 641.163 27.4493C655.675 34.4481 663.868 41.3075 668.314 48.876Z" stroke="#FF8368" stroke-width="5"/>
<path d="M511.528 51.4024V52.8824H505.368V57.7624H510.588V59.1824H505.368V65.5024H503.548V51.4024H511.528ZM518.665 54.3824C519.718 54.3824 520.658 54.6091 521.485 55.0624C522.325 55.5158 522.978 56.1691 523.445 57.0224C523.925 57.8758 524.165 58.8758 524.165 60.0224C524.165 61.1691 523.925 62.1691 523.445 63.0224C522.978 63.8624 522.325 64.5091 521.485 64.9624C520.658 65.4158 519.718 65.6424 518.665 65.6424C517.611 65.6424 516.665 65.4158 515.825 64.9624C514.998 64.5091 514.345 63.8624 513.865 63.0224C513.385 62.1691 513.145 61.1691 513.145 60.0224C513.145 58.8758 513.385 57.8758 513.865 57.0224C514.345 56.1691 514.998 55.5158 515.825 55.0624C516.665 54.6091 517.611 54.3824 518.665 54.3824ZM518.665 55.9824C518.011 55.9824 517.405 56.1291 516.845 56.4224C516.298 56.7158 515.851 57.1691 515.505 57.7824C515.171 58.3824 515.005 59.1291 515.005 60.0224C515.005 60.9024 515.171 61.6491 515.505 62.2624C515.851 62.8624 516.298 63.3091 516.845 63.6024C517.405 63.8958 518.011 64.0424 518.665 64.0424C519.318 64.0424 519.918 63.8958 520.465 63.6024C521.025 63.3091 521.471 62.8624 521.805 62.2624C522.151 61.6491 522.325 60.9024 522.325 60.0224C522.325 59.1291 522.151 58.3824 521.805 57.7824C521.471 57.1691 521.025 56.7158 520.465 56.4224C519.918 56.1291 519.318 55.9824 518.665 55.9824ZM536.296 54.5224V65.5024H534.476V62.9224C534.196 63.8158 533.696 64.5024 532.976 64.9824C532.27 65.4491 531.443 65.6824 530.496 65.6824C529.23 65.6824 528.203 65.2758 527.416 64.4624C526.63 63.6358 526.236 62.4558 526.236 60.9224V54.5224H528.056V60.7424C528.056 61.8358 528.336 62.6824 528.896 63.2824C529.456 63.8691 530.216 64.1624 531.176 64.1624C532.176 64.1624 532.976 63.8424 533.576 63.2024C534.176 62.5491 534.476 61.6024 534.476 60.3624V54.5224H536.296ZM541.032 56.7424C541.392 55.9824 541.919 55.3958 542.612 54.9824C543.305 54.5558 544.132 54.3424 545.092 54.3424V56.3224H544.532C543.505 56.3224 542.665 56.5891 542.012 57.1224C541.359 57.6424 541.032 58.5091 541.032 59.7224V65.5024H539.212V54.5224H541.032V56.7424ZM566.909 54.5224L563.749 65.5024H561.789L558.769 56.5624L555.729 65.5024H553.749L550.629 54.5224H552.469L554.809 63.7624L557.849 54.5224H559.749L562.809 63.7424L565.169 54.5224H566.909ZM578.706 59.4024C578.706 59.7891 578.68 60.1224 578.626 60.4024H569.846C569.886 61.6558 570.24 62.5958 570.906 63.2224C571.586 63.8491 572.413 64.1624 573.386 64.1624C574.266 64.1624 575 63.9424 575.586 63.5024C576.186 63.0491 576.553 62.4491 576.686 61.7024H578.626C578.493 62.4624 578.193 63.1424 577.726 63.7424C577.273 64.3424 576.68 64.8091 575.946 65.1424C575.213 65.4758 574.386 65.6424 573.466 65.6424C572.413 65.6424 571.48 65.4158 570.666 64.9624C569.853 64.5091 569.213 63.8624 568.746 63.0224C568.293 62.1691 568.066 61.1691 568.066 60.0224C568.066 58.8758 568.293 57.8758 568.746 57.0224C569.213 56.1691 569.853 55.5158 570.666 55.0624C571.48 54.6091 572.413 54.3824 573.466 54.3824C574.533 54.3824 575.46 54.6091 576.246 55.0624C577.046 55.5158 577.653 56.1224 578.066 56.8824C578.493 57.6424 578.706 58.4824 578.706 59.4024ZM576.866 59.5224C576.906 58.7091 576.773 58.0291 576.466 57.4824C576.16 56.9358 575.74 56.5291 575.206 56.2624C574.673 55.9958 574.093 55.8624 573.466 55.8624C572.466 55.8624 571.626 56.1758 570.946 56.8024C570.266 57.4158 569.9 58.3224 569.846 59.5224H576.866ZM591.187 59.4024C591.187 59.7891 591.16 60.1224 591.107 60.4024H582.327C582.367 61.6558 582.72 62.5958 583.387 63.2224C584.067 63.8491 584.894 64.1624 585.867 64.1624C586.747 64.1624 587.48 63.9424 588.067 63.5024C588.667 63.0491 589.034 62.4491 589.167 61.7024H591.107C590.974 62.4624 590.674 63.1424 590.207 63.7424C589.754 64.3424 589.16 64.8091 588.427 65.1424C587.694 65.4758 586.867 65.6424 585.947 65.6424C584.894 65.6424 583.96 65.4158 583.147 64.9624C582.334 64.5091 581.694 63.8624 581.227 63.0224C580.774 62.1691 580.547 61.1691 580.547 60.0224C580.547 58.8758 580.774 57.8758 581.227 57.0224C581.694 56.1691 582.334 55.5158 583.147 55.0624C583.96 54.6091 584.894 54.3824 585.947 54.3824C587.014 54.3824 587.94 54.6091 588.727 55.0624C589.527 55.5158 590.134 56.1224 590.547 56.8824C590.974 57.6424 591.187 58.4824 591.187 59.4024ZM589.347 59.5224C589.387 58.7091 589.254 58.0291 588.947 57.4824C588.64 56.9358 588.22 56.5291 587.687 56.2624C587.154 55.9958 586.574 55.8624 585.947 55.8624C584.947 55.8624 584.107 56.1758 583.427 56.8024C582.747 57.4158 582.38 58.3224 582.327 59.5224H589.347ZM599.587 65.5024L595.387 60.5624V65.5024H593.567V50.7024H595.387V59.3024L599.527 54.5224H601.747L596.827 59.9824L601.867 65.5024H599.587ZM606.91 54.3824C608.15 54.3824 609.143 54.7091 609.89 55.3624C610.65 56.0024 611.11 56.8691 611.27 57.9624H609.53C609.45 57.3091 609.176 56.7758 608.71 56.3624C608.256 55.9358 607.643 55.7224 606.87 55.7224C606.216 55.7224 605.703 55.8824 605.33 56.2024C604.97 56.5091 604.79 56.9291 604.79 57.4624C604.79 57.8624 604.91 58.1891 605.15 58.4424C605.403 58.6824 605.71 58.8691 606.07 59.0024C606.443 59.1224 606.95 59.2558 607.59 59.4024C608.403 59.5891 609.056 59.7824 609.55 59.9824C610.056 60.1691 610.483 60.4758 610.83 60.9024C611.19 61.3291 611.37 61.9024 611.37 62.6224C611.37 63.5158 611.03 64.2424 610.35 64.8024C609.683 65.3624 608.79 65.6424 607.67 65.6424C606.363 65.6424 605.296 65.3291 604.47 64.7024C603.643 64.0758 603.156 63.2024 603.01 62.0824H604.77C604.836 62.7491 605.123 63.2891 605.63 63.7024C606.15 64.1158 606.83 64.3224 607.67 64.3224C608.296 64.3224 608.783 64.1624 609.13 63.8424C609.49 63.5224 609.67 63.1024 609.67 62.5824C609.67 62.1558 609.543 61.8158 609.29 61.5624C609.036 61.3091 608.723 61.1158 608.35 60.9824C607.976 60.8491 607.463 60.7091 606.81 60.5624C605.996 60.3758 605.343 60.1891 604.85 60.0024C604.37 59.8158 603.956 59.5224 603.61 59.1224C603.276 58.7091 603.11 58.1558 603.11 57.4624C603.11 56.5424 603.45 55.8024 604.13 55.2424C604.81 54.6691 605.736 54.3824 606.91 54.3824ZM623.723 54.3824C624.777 54.3824 625.717 54.6091 626.543 55.0624C627.383 55.5158 628.037 56.1691 628.503 57.0224C628.983 57.8758 629.223 58.8758 629.223 60.0224C629.223 61.1691 628.983 62.1691 628.503 63.0224C628.037 63.8624 627.383 64.5091 626.543 64.9624C625.717 65.4158 624.777 65.6424 623.723 65.6424C622.67 65.6424 621.723 65.4158 620.883 64.9624C620.057 64.5091 619.403 63.8624 618.923 63.0224C618.443 62.1691 618.203 61.1691 618.203 60.0224C618.203 58.8758 618.443 57.8758 618.923 57.0224C619.403 56.1691 620.057 55.5158 620.883 55.0624C621.723 54.6091 622.67 54.3824 623.723 54.3824ZM623.723 55.9824C623.07 55.9824 622.463 56.1291 621.903 56.4224C621.357 56.7158 620.91 57.1691 620.563 57.7824C620.23 58.3824 620.063 59.1291 620.063 60.0224C620.063 60.9024 620.23 61.6491 620.563 62.2624C620.91 62.8624 621.357 63.3091 621.903 63.6024C622.463 63.8958 623.07 64.0424 623.723 64.0424C624.377 64.0424 624.977 63.8958 625.523 63.6024C626.083 63.3091 626.53 62.8624 626.863 62.2624C627.21 61.6491 627.383 60.9024 627.383 60.0224C627.383 59.1291 627.21 58.3824 626.863 57.7824C626.53 57.1691 626.083 56.7158 625.523 56.4224C624.977 56.1291 624.377 55.9824 623.723 55.9824ZM636.455 51.9224C635.481 51.9091 634.801 52.0758 634.415 52.4224C634.041 52.7691 633.855 53.3691 633.855 54.2224V54.5224H636.455V56.1224H633.855V65.5024H632.035V56.1224H630.455V54.5224H632.035V54.0824C632.035 51.4558 633.508 50.2024 636.455 50.3224V51.9224ZM511.504 84.3824C512.904 84.3824 514.064 84.7558 514.984 85.5024C515.904 86.2491 516.47 87.2491 516.684 88.5024H514.764C514.63 87.7158 514.264 87.1024 513.664 86.6624C513.077 86.2091 512.344 85.9824 511.464 85.9824C510.824 85.9824 510.237 86.1291 509.704 86.4224C509.184 86.7158 508.764 87.1691 508.444 87.7824C508.124 88.3824 507.964 89.1291 507.964 90.0224C507.964 90.9158 508.124 91.6691 508.444 92.2824C508.764 92.8824 509.184 93.3291 509.704 93.6224C510.237 93.9158 510.824 94.0624 511.464 94.0624C512.344 94.0624 513.077 93.8358 513.664 93.3824C514.264 92.9291 514.63 92.3091 514.764 91.5224H516.684C516.47 92.7891 515.904 93.7958 514.984 94.5424C514.064 95.2758 512.904 95.6424 511.504 95.6424C510.45 95.6424 509.517 95.4158 508.704 94.9624C507.89 94.5091 507.25 93.8624 506.784 93.0224C506.33 92.1691 506.104 91.1691 506.104 90.0224C506.104 88.8758 506.33 87.8758 506.784 87.0224C507.25 86.1691 507.89 85.5158 508.704 85.0624C509.517 84.6091 510.45 84.3824 511.504 84.3824ZM524.045 84.3824C525.099 84.3824 526.039 84.6091 526.865 85.0624C527.705 85.5158 528.359 86.1691 528.825 87.0224C529.305 87.8758 529.545 88.8758 529.545 90.0224C529.545 91.1691 529.305 92.1691 528.825 93.0224C528.359 93.8624 527.705 94.5091 526.865 94.9624C526.039 95.4158 525.099 95.6424 524.045 95.6424C522.992 95.6424 522.045 95.4158 521.205 94.9624C520.379 94.5091 519.725 93.8624 519.245 93.0224C518.765 92.1691 518.525 91.1691 518.525 90.0224C518.525 88.8758 518.765 87.8758 519.245 87.0224C519.725 86.1691 520.379 85.5158 521.205 85.0624C522.045 84.6091 522.992 84.3824 524.045 84.3824ZM524.045 85.9824C523.392 85.9824 522.785 86.1291 522.225 86.4224C521.679 86.7158 521.232 87.1691 520.885 87.7824C520.552 88.3824 520.385 89.1291 520.385 90.0224C520.385 90.9024 520.552 91.6491 520.885 92.2624C521.232 92.8624 521.679 93.3091 522.225 93.6024C522.785 93.8958 523.392 94.0424 524.045 94.0424C524.699 94.0424 525.299 93.8958 525.845 93.6024C526.405 93.3091 526.852 92.8624 527.185 92.2624C527.532 91.6491 527.705 90.9024 527.705 90.0224C527.705 89.1291 527.532 88.3824 527.185 87.7824C526.852 87.1691 526.405 86.7158 525.845 86.4224C525.299 86.1291 524.699 85.9824 524.045 85.9824ZM533.737 80.7024V95.5024H531.917V80.7024H533.737ZM538.483 80.7024V95.5024H536.663V80.7024H538.483ZM545.909 84.3824C546.976 84.3824 547.876 84.6491 548.609 85.1824C549.356 85.7158 549.876 86.4291 550.169 87.3224V84.5224H551.989V95.5024H550.169V92.7024C549.876 93.5958 549.356 94.3091 548.609 94.8424C547.876 95.3758 546.976 95.6424 545.909 95.6424C544.936 95.6424 544.069 95.4158 543.309 94.9624C542.549 94.5091 541.949 93.8624 541.509 93.0224C541.083 92.1691 540.869 91.1691 540.869 90.0224C540.869 88.8758 541.083 87.8758 541.509 87.0224C541.949 86.1691 542.549 85.5158 543.309 85.0624C544.069 84.6091 544.936 84.3824 545.909 84.3824ZM546.429 86.0024C545.309 86.0024 544.409 86.3624 543.729 87.0824C543.063 87.7891 542.729 88.7691 542.729 90.0224C542.729 91.2758 543.063 92.2624 543.729 92.9824C544.409 93.6891 545.309 94.0424 546.429 94.0424C547.149 94.0424 547.789 93.8758 548.349 93.5424C548.923 93.2091 549.369 92.7424 549.689 92.1424C550.009 91.5291 550.169 90.8224 550.169 90.0224C550.169 89.2224 550.009 88.5158 549.689 87.9024C549.369 87.2891 548.923 86.8224 548.349 86.5024C547.789 86.1691 547.149 86.0024 546.429 86.0024ZM560.946 84.3824C561.919 84.3824 562.786 84.6091 563.546 85.0624C564.306 85.5158 564.899 86.1691 565.326 87.0224C565.766 87.8758 565.986 88.8758 565.986 90.0224C565.986 91.1691 565.766 92.1691 565.326 93.0224C564.899 93.8624 564.306 94.5091 563.546 94.9624C562.786 95.4158 561.919 95.6424 560.946 95.6424C559.879 95.6424 558.972 95.3758 558.226 94.8424C557.492 94.2958 556.986 93.5824 556.706 92.7024V95.5024H554.886V80.7024H556.706V87.3224C556.986 86.4424 557.492 85.7358 558.226 85.2024C558.972 84.6558 559.879 84.3824 560.946 84.3824ZM560.426 86.0024C559.719 86.0024 559.079 86.1691 558.506 86.5024C557.932 86.8224 557.486 87.2891 557.166 87.9024C556.846 88.5158 556.686 89.2224 556.686 90.0224C556.686 90.8224 556.846 91.5291 557.166 92.1424C557.486 92.7424 557.932 93.2091 558.506 93.5424C559.079 93.8758 559.719 94.0424 560.426 94.0424C561.559 94.0424 562.459 93.6891 563.126 92.9824C563.806 92.2624 564.146 91.2758 564.146 90.0224C564.146 88.7691 563.806 87.7891 563.126 87.0824C562.459 86.3624 561.559 86.0024 560.426 86.0024ZM573.342 84.3824C574.396 84.3824 575.336 84.6091 576.162 85.0624C577.002 85.5158 577.656 86.1691 578.122 87.0224C578.602 87.8758 578.842 88.8758 578.842 90.0224C578.842 91.1691 578.602 92.1691 578.122 93.0224C577.656 93.8624 577.002 94.5091 576.162 94.9624C575.336 95.4158 574.396 95.6424 573.342 95.6424C572.289 95.6424 571.342 95.4158 570.502 94.9624C569.676 94.5091 569.022 93.8624 568.542 93.0224C568.062 92.1691 567.822 91.1691 567.822 90.0224C567.822 88.8758 568.062 87.8758 568.542 87.0224C569.022 86.1691 569.676 85.5158 570.502 85.0624C571.342 84.6091 572.289 84.3824 573.342 84.3824ZM573.342 85.9824C572.689 85.9824 572.082 86.1291 571.522 86.4224C570.976 86.7158 570.529 87.1691 570.182 87.7824C569.849 88.3824 569.682 89.1291 569.682 90.0224C569.682 90.9024 569.849 91.6491 570.182 92.2624C570.529 92.8624 570.976 93.3091 571.522 93.6024C572.082 93.8958 572.689 94.0424 573.342 94.0424C573.996 94.0424 574.596 93.8958 575.142 93.6024C575.702 93.3091 576.149 92.8624 576.482 92.2624C576.829 91.6491 577.002 90.9024 577.002 90.0224C577.002 89.1291 576.829 88.3824 576.482 87.7824C576.149 87.1691 575.702 86.7158 575.142 86.4224C574.596 86.1291 573.996 85.9824 573.342 85.9824ZM583.034 86.7424C583.394 85.9824 583.921 85.3958 584.614 84.9824C585.307 84.5558 586.134 84.3424 587.094 84.3424V86.3224H586.534C585.507 86.3224 584.667 86.5891 584.014 87.1224C583.361 87.6424 583.034 88.5091 583.034 89.7224V95.5024H581.214V84.5224H583.034V86.7424ZM593.39 84.3824C594.456 84.3824 595.356 84.6491 596.09 85.1824C596.836 85.7158 597.356 86.4291 597.65 87.3224V84.5224H599.47V95.5024H597.65V92.7024C597.356 93.5958 596.836 94.3091 596.09 94.8424C595.356 95.3758 594.456 95.6424 593.39 95.6424C592.416 95.6424 591.55 95.4158 590.79 94.9624C590.03 94.5091 589.43 93.8624 588.99 93.0224C588.563 92.1691 588.35 91.1691 588.35 90.0224C588.35 88.8758 588.563 87.8758 588.99 87.0224C589.43 86.1691 590.03 85.5158 590.79 85.0624C591.55 84.6091 592.416 84.3824 593.39 84.3824ZM593.91 86.0024C592.79 86.0024 591.89 86.3624 591.21 87.0824C590.543 87.7891 590.21 88.7691 590.21 90.0224C590.21 91.2758 590.543 92.2624 591.21 92.9824C591.89 93.6891 592.79 94.0424 593.91 94.0424C594.63 94.0424 595.27 93.8758 595.83 93.5424C596.403 93.2091 596.85 92.7424 597.17 92.1424C597.49 91.5291 597.65 90.8224 597.65 90.0224C597.65 89.2224 597.49 88.5158 597.17 87.9024C596.85 87.2891 596.403 86.8224 595.83 86.5024C595.27 86.1691 594.63 86.0024 593.91 86.0024ZM607.606 93.9024V95.5024H606.246C605.126 95.5024 604.286 95.2358 603.726 94.7024C603.18 94.1691 602.906 93.2758 602.906 92.0224V86.1024H601.266V84.5224H602.906V81.7824H604.746V84.5224H607.586V86.1024H604.746V92.0624C604.746 92.7691 604.873 93.2558 605.126 93.5224C605.393 93.7758 605.846 93.9024 606.486 93.9024H607.606ZM609.507 81.3024C609.507 80.9691 609.621 80.7024 609.847 80.5024C610.074 80.2891 610.374 80.1824 610.747 80.1824C611.121 80.1824 611.421 80.2891 611.647 80.5024C611.874 80.7024 611.987 80.9691 611.987 81.3024C611.987 81.6358 611.874 81.9091 611.647 82.1224C611.421 82.3224 611.121 82.4224 610.747 82.4224C610.374 82.4224 610.074 82.3224 609.847 82.1224C609.621 81.9091 609.507 81.6358 609.507 81.3024ZM611.647 84.5224V95.5024H609.827V84.5224H611.647ZM619.553 84.3824C620.607 84.3824 621.547 84.6091 622.373 85.0624C623.213 85.5158 623.867 86.1691 624.333 87.0224C624.813 87.8758 625.053 88.8758 625.053 90.0224C625.053 91.1691 624.813 92.1691 624.333 93.0224C623.867 93.8624 623.213 94.5091 622.373 94.9624C621.547 95.4158 620.607 95.6424 619.553 95.6424C618.5 95.6424 617.553 95.4158 616.713 94.9624C615.887 94.5091 615.233 93.8624 614.753 93.0224C614.273 92.1691 614.033 91.1691 614.033 90.0224C614.033 88.8758 614.273 87.8758 614.753 87.0224C615.233 86.1691 615.887 85.5158 616.713 85.0624C617.553 84.6091 618.5 84.3824 619.553 84.3824ZM619.553 85.9824C618.9 85.9824 618.293 86.1291 617.733 86.4224C617.187 86.7158 616.74 87.1691 616.393 87.7824C616.06 88.3824 615.893 89.1291 615.893 90.0224C615.893 90.9024 616.06 91.6491 616.393 92.2624C616.74 92.8624 617.187 93.3091 617.733 93.6024C618.293 93.8958 618.9 94.0424 619.553 94.0424C620.207 94.0424 620.807 93.8958 621.353 93.6024C621.913 93.3091 622.36 92.8624 622.693 92.2624C623.04 91.6491 623.213 90.9024 623.213 90.0224C623.213 89.1291 623.04 88.3824 622.693 87.7824C622.36 87.1691 621.913 86.7158 621.353 86.4224C620.807 86.1291 620.207 85.9824 619.553 85.9824ZM633.205 84.3424C634.485 84.3424 635.518 84.7558 636.305 85.5824C637.092 86.3958 637.485 87.5758 637.485 89.1224V95.5024H635.665V89.2824C635.665 88.1891 635.385 87.3491 634.825 86.7624C634.265 86.1758 633.505 85.8824 632.545 85.8824C631.545 85.8824 630.745 86.2091 630.145 86.8624C629.545 87.5024 629.245 88.4424 629.245 89.6824V95.5024H627.425V84.5224H629.245V87.1224C629.525 86.2291 630.018 85.5424 630.725 85.0624C631.445 84.5824 632.272 84.3424 633.205 84.3424Z" fill="white" fill-opacity="0.95"/>
<path d="M721.527 70.3117C722.164 51.3549 733.913 32.7557 759.418 22.4265C772.22 17.2455 788.496 14.1663 804.831 13.5964C821.174 13.0263 837.37 14.9753 850.041 19.6845L850.043 19.6853C875.311 29.0526 886.595 49.356 884.178 66.5433C881.717 83.7516 865.336 99.1395 838.796 109.44C825.605 114.547 810.106 118.301 795.004 119.792C779.87 121.287 765.33 120.491 753.967 116.667C731.48 109.099 720.886 89.4227 721.527 70.3117ZM721.527 70.3117L719.029 70.2277L721.527 70.3117Z" stroke="#FFB800" stroke-width="5"/>
<path d="M765.426 54.32V60H763.606V45.9H768.086C769.7 45.9 770.906 46.28 771.706 47.04C772.506 47.7867 772.906 48.8133 772.906 50.12C772.906 51.44 772.493 52.4733 771.666 53.22C770.84 53.9533 769.646 54.32 768.086 54.32H765.426ZM767.926 52.8C769.033 52.8 769.826 52.5667 770.306 52.1C770.8 51.6333 771.046 50.9733 771.046 50.12C771.046 49.24 770.8 48.5733 770.306 48.12C769.826 47.6533 769.033 47.42 767.926 47.42H765.426V52.8H767.926ZM776.852 51.24C777.212 50.48 777.739 49.8933 778.432 49.48C779.126 49.0533 779.952 48.84 780.912 48.84V50.82H780.352C779.326 50.82 778.486 51.0867 777.832 51.62C777.179 52.14 776.852 53.0067 776.852 54.22V60H775.032V49.02H776.852V51.24ZM792.808 53.9C792.808 54.2867 792.781 54.62 792.728 54.9H783.948C783.988 56.1533 784.341 57.0933 785.008 57.72C785.688 58.3467 786.515 58.66 787.488 58.66C788.368 58.66 789.101 58.44 789.688 58C790.288 57.5467 790.655 56.9467 790.788 56.2H792.728C792.595 56.96 792.295 57.64 791.828 58.24C791.375 58.84 790.781 59.3067 790.048 59.64C789.315 59.9733 788.488 60.14 787.568 60.14C786.515 60.14 785.581 59.9133 784.768 59.46C783.955 59.0067 783.315 58.36 782.848 57.52C782.395 56.6667 782.168 55.6667 782.168 54.52C782.168 53.3733 782.395 52.3733 782.848 51.52C783.315 50.6667 783.955 50.0133 784.768 49.56C785.581 49.1067 786.515 48.88 787.568 48.88C788.635 48.88 789.561 49.1067 790.348 49.56C791.148 50.0133 791.755 50.62 792.168 51.38C792.595 52.14 792.808 52.98 792.808 53.9ZM790.968 54.02C791.008 53.2067 790.875 52.5267 790.568 51.98C790.261 51.4333 789.841 51.0267 789.308 50.76C788.775 50.4933 788.195 50.36 787.568 50.36C786.568 50.36 785.728 50.6733 785.048 51.3C784.368 51.9133 784.001 52.82 783.948 54.02H790.968ZM798.629 48.88C799.869 48.88 800.862 49.2067 801.609 49.86C802.369 50.5 802.829 51.3667 802.989 52.46H801.249C801.169 51.8067 800.895 51.2733 800.429 50.86C799.975 50.4333 799.362 50.22 798.589 50.22C797.935 50.22 797.422 50.38 797.049 50.7C796.689 51.0067 796.509 51.4267 796.509 51.96C796.509 52.36 796.629 52.6867 796.869 52.94C797.122 53.18 797.429 53.3667 797.789 53.5C798.162 53.62 798.669 53.7533 799.309 53.9C800.122 54.0867 800.775 54.28 801.269 54.48C801.775 54.6667 802.202 54.9733 802.549 55.4C802.909 55.8267 803.089 56.4 803.089 57.12C803.089 58.0133 802.749 58.74 802.069 59.3C801.402 59.86 800.509 60.14 799.389 60.14C798.082 60.14 797.015 59.8267 796.189 59.2C795.362 58.5733 794.875 57.7 794.729 56.58H796.489C796.555 57.2467 796.842 57.7867 797.349 58.2C797.869 58.6133 798.549 58.82 799.389 58.82C800.015 58.82 800.502 58.66 800.849 58.34C801.209 58.02 801.389 57.6 801.389 57.08C801.389 56.6533 801.262 56.3133 801.009 56.06C800.755 55.8067 800.442 55.6133 800.069 55.48C799.695 55.3467 799.182 55.2067 798.529 55.06C797.715 54.8733 797.062 54.6867 796.569 54.5C796.089 54.3133 795.675 54.02 795.329 53.62C794.995 53.2067 794.829 52.6533 794.829 51.96C794.829 51.04 795.169 50.3 795.849 49.74C796.529 49.1667 797.455 48.88 798.629 48.88ZM815.621 53.9C815.621 54.2867 815.594 54.62 815.541 54.9H806.761C806.801 56.1533 807.154 57.0933 807.821 57.72C808.501 58.3467 809.327 58.66 810.301 58.66C811.181 58.66 811.914 58.44 812.501 58C813.101 57.5467 813.467 56.9467 813.601 56.2H815.541C815.407 56.96 815.107 57.64 814.641 58.24C814.187 58.84 813.594 59.3067 812.861 59.64C812.127 59.9733 811.301 60.14 810.381 60.14C809.327 60.14 808.394 59.9133 807.581 59.46C806.767 59.0067 806.127 58.36 805.661 57.52C805.207 56.6667 804.981 55.6667 804.981 54.52C804.981 53.3733 805.207 52.3733 805.661 51.52C806.127 50.6667 806.767 50.0133 807.581 49.56C808.394 49.1067 809.327 48.88 810.381 48.88C811.447 48.88 812.374 49.1067 813.161 49.56C813.961 50.0133 814.567 50.62 814.981 51.38C815.407 52.14 815.621 52.98 815.621 53.9ZM813.781 54.02C813.821 53.2067 813.687 52.5267 813.381 51.98C813.074 51.4333 812.654 51.0267 812.121 50.76C811.587 50.4933 811.007 50.36 810.381 50.36C809.381 50.36 808.541 50.6733 807.861 51.3C807.181 51.9133 806.814 52.82 806.761 54.02H813.781ZM823.781 48.84C825.061 48.84 826.094 49.2533 826.881 50.08C827.668 50.8933 828.061 52.0733 828.061 53.62V60H826.241V53.78C826.241 52.6867 825.961 51.8467 825.401 51.26C824.841 50.6733 824.081 50.38 823.121 50.38C822.121 50.38 821.321 50.7067 820.721 51.36C820.121 52 819.821 52.94 819.821 54.18V60H818.001V49.02H819.821V51.62C820.101 50.7267 820.594 50.04 821.301 49.56C822.021 49.08 822.848 48.84 823.781 48.84ZM836.093 58.4V60H834.733C833.613 60 832.773 59.7333 832.213 59.2C831.666 58.6667 831.393 57.7733 831.393 56.52V50.6H829.753V49.02H831.393V46.28H833.233V49.02H836.073V50.6H833.233V56.56C833.233 57.2667 833.359 57.7533 833.613 58.02C833.879 58.2733 834.333 58.4 834.973 58.4H836.093ZM763.802 75.76C765.522 75.76 766.942 76.1867 768.062 77.04C769.182 77.88 769.955 79.0333 770.382 80.5H768.462C768.102 79.5667 767.522 78.8267 766.722 78.28C765.922 77.72 764.942 77.44 763.782 77.44C762.862 77.44 762.035 77.6667 761.302 78.12C760.582 78.56 760.008 79.2 759.582 80.04C759.168 80.8667 758.962 81.84 758.962 82.96C758.962 84.0667 759.168 85.0333 759.582 85.86C760.008 86.6867 760.582 87.3267 761.302 87.78C762.035 88.22 762.862 88.44 763.782 88.44C764.942 88.44 765.922 88.1667 766.722 87.62C767.522 87.06 768.102 86.3133 768.462 85.38H770.382C769.955 86.8467 769.182 88.0067 768.062 88.86C766.942 89.7 765.522 90.12 763.802 90.12C762.482 90.12 761.315 89.82 760.302 89.22C759.288 88.6067 758.495 87.76 757.922 86.68C757.362 85.5867 757.082 84.3467 757.082 82.96C757.082 81.56 757.362 80.3133 757.922 79.22C758.495 78.1267 759.288 77.28 760.302 76.68C761.315 76.0667 762.482 75.76 763.802 75.76ZM777.795 78.88C778.849 78.88 779.789 79.1067 780.615 79.56C781.455 80.0133 782.109 80.6667 782.575 81.52C783.055 82.3733 783.295 83.3733 783.295 84.52C783.295 85.6667 783.055 86.6667 782.575 87.52C782.109 88.36 781.455 89.0067 780.615 89.46C779.789 89.9133 778.849 90.14 777.795 90.14C776.742 90.14 775.795 89.9133 774.955 89.46C774.129 89.0067 773.475 88.36 772.995 87.52C772.515 86.6667 772.275 85.6667 772.275 84.52C772.275 83.3733 772.515 82.3733 772.995 81.52C773.475 80.6667 774.129 80.0133 774.955 79.56C775.795 79.1067 776.742 78.88 777.795 78.88ZM777.795 80.48C777.142 80.48 776.535 80.6267 775.975 80.92C775.429 81.2133 774.982 81.6667 774.635 82.28C774.302 82.88 774.135 83.6267 774.135 84.52C774.135 85.4 774.302 86.1467 774.635 86.76C774.982 87.36 775.429 87.8067 775.975 88.1C776.535 88.3933 777.142 88.54 777.795 88.54C778.449 88.54 779.049 88.3933 779.595 88.1C780.155 87.8067 780.602 87.36 780.935 86.76C781.282 86.1467 781.455 85.4 781.455 84.52C781.455 83.6267 781.282 82.88 780.935 82.28C780.602 81.6667 780.155 81.2133 779.595 80.92C779.049 80.6267 778.449 80.48 777.795 80.48ZM791.447 78.84C792.727 78.84 793.76 79.2533 794.547 80.08C795.334 80.8933 795.727 82.0733 795.727 83.62V90H793.907V83.78C793.907 82.6867 793.627 81.8467 793.067 81.26C792.507 80.6733 791.747 80.38 790.787 80.38C789.787 80.38 788.987 80.7067 788.387 81.36C787.787 82 787.487 82.94 787.487 84.18V90H785.667V79.02H787.487V81.62C787.767 80.7267 788.26 80.04 788.967 79.56C789.687 79.08 790.514 78.84 791.447 78.84ZM803.379 78.88C804.779 78.88 805.939 79.2533 806.859 80C807.779 80.7467 808.345 81.7467 808.559 83H806.639C806.505 82.2133 806.139 81.6 805.539 81.16C804.952 80.7067 804.219 80.48 803.339 80.48C802.699 80.48 802.112 80.6267 801.579 80.92C801.059 81.2133 800.639 81.6667 800.319 82.28C799.999 82.88 799.839 83.6267 799.839 84.52C799.839 85.4133 799.999 86.1667 800.319 86.78C800.639 87.38 801.059 87.8267 801.579 88.12C802.112 88.4133 802.699 88.56 803.339 88.56C804.219 88.56 804.952 88.3333 805.539 87.88C806.139 87.4267 806.505 86.8067 806.639 86.02H808.559C808.345 87.2867 807.779 88.2933 806.859 89.04C805.939 89.7733 804.779 90.14 803.379 90.14C802.325 90.14 801.392 89.9133 800.579 89.46C799.765 89.0067 799.125 88.36 798.659 87.52C798.205 86.6667 797.979 85.6667 797.979 84.52C797.979 83.3733 798.205 82.3733 798.659 81.52C799.125 80.6667 799.765 80.0133 800.579 79.56C801.392 79.1067 802.325 78.88 803.379 78.88ZM821.04 83.9C821.04 84.2867 821.014 84.62 820.96 84.9H812.18C812.22 86.1533 812.574 87.0933 813.24 87.72C813.92 88.3467 814.747 88.66 815.72 88.66C816.6 88.66 817.334 88.44 817.92 88C818.52 87.5467 818.887 86.9467 819.02 86.2H820.96C820.827 86.96 820.527 87.64 820.06 88.24C819.607 88.84 819.014 89.3067 818.28 89.64C817.547 89.9733 816.72 90.14 815.8 90.14C814.747 90.14 813.814 89.9133 813 89.46C812.187 89.0067 811.547 88.36 811.08 87.52C810.627 86.6667 810.4 85.6667 810.4 84.52C810.4 83.3733 810.627 82.3733 811.08 81.52C811.547 80.6667 812.187 80.0133 813 79.56C813.814 79.1067 814.747 78.88 815.8 78.88C816.867 78.88 817.794 79.1067 818.58 79.56C819.38 80.0133 819.987 80.62 820.4 81.38C820.827 82.14 821.04 82.98 821.04 83.9ZM819.2 84.02C819.24 83.2067 819.107 82.5267 818.8 81.98C818.494 81.4333 818.074 81.0267 817.54 80.76C817.007 80.4933 816.427 80.36 815.8 80.36C814.8 80.36 813.96 80.6733 813.28 81.3C812.6 81.9133 812.234 82.82 812.18 84.02H819.2ZM829.481 78.88C830.454 78.88 831.321 79.1067 832.081 79.56C832.841 80.0133 833.434 80.6667 833.861 81.52C834.301 82.3733 834.521 83.3733 834.521 84.52C834.521 85.6667 834.301 86.6667 833.861 87.52C833.434 88.36 832.841 89.0067 832.081 89.46C831.321 89.9133 830.454 90.14 829.481 90.14C828.414 90.14 827.508 89.8733 826.761 89.34C826.028 88.7933 825.521 88.08 825.241 87.2V95.2H823.421V79.02H825.241V81.82C825.521 80.94 826.028 80.2333 826.761 79.7C827.508 79.1533 828.414 78.88 829.481 78.88ZM828.961 80.5C828.254 80.5 827.614 80.6667 827.041 81C826.468 81.32 826.021 81.7867 825.701 82.4C825.381 83.0133 825.221 83.72 825.221 84.52C825.221 85.32 825.381 86.0267 825.701 86.64C826.021 87.24 826.468 87.7067 827.041 88.04C827.614 88.3733 828.254 88.54 828.961 88.54C830.094 88.54 830.994 88.1867 831.661 87.48C832.341 86.76 832.681 85.7733 832.681 84.52C832.681 83.2667 832.341 82.2867 831.661 81.58C830.994 80.86 830.094 80.5 828.961 80.5ZM842.138 88.4V90H840.778C839.658 90 838.818 89.7333 838.258 89.2C837.711 88.6667 837.438 87.7733 837.438 86.52V80.6H835.798V79.02H837.438V76.28H839.278V79.02H842.118V80.6H839.278V86.56C839.278 87.2667 839.404 87.7533 839.658 88.02C839.924 88.2733 840.378 88.4 841.018 88.4H842.138Z" fill="white" fill-opacity="0.95"/>
<path d="M220.061 68.0607C220.646 67.4749 220.646 66.5251 220.061 65.9393L210.515 56.3934C209.929 55.8076 208.979 55.8076 208.393 56.3934C207.808 56.9792 207.808 57.9289 208.393 58.5147L216.879 67L208.393 75.4853C207.808 76.0711 207.808 77.0208 208.393 77.6066C208.979 78.1924 209.929 78.1924 210.515 77.6066L220.061 68.0607ZM199 68.5H219V65.5H199V68.5Z" fill="white"/>
<path d="M453.061 68.0607C453.646 67.4749 453.646 66.5251 453.061 65.9393L443.515 56.3934C442.929 55.8076 441.979 55.8076 441.393 56.3934C440.808 56.9792 440.808 57.9289 441.393 58.5147L449.879 67L441.393 75.4853C440.808 76.0711 440.808 77.0208 441.393 77.6066C441.979 78.1924 442.929 78.1924 443.515 77.6066L453.061 68.0607ZM432 68.5H452V65.5H432V68.5Z" fill="white"/>
<path d="M704.061 68.0607C704.646 67.4749 704.646 66.5251 704.061 65.9393L694.515 56.3934C693.929 55.8076 692.979 55.8076 692.393 56.3934C691.808 56.9792 691.808 57.9289 692.393 58.5147L700.879 67L692.393 75.4853C691.808 76.0711 691.808 77.0208 692.393 77.6066C692.979 78.1924 693.929 78.1924 694.515 77.6066L704.061 68.0607ZM683 68.5H703V65.5H683V68.5Z" fill="white"/>
</svg>
