<svg width="206" height="693" viewBox="0 0 206 693" fill="none" xmlns="http://www.w3.org/2000/svg">
<path d="M34.2375 107.452L34.2346 107.449C21.899 96.2362 16.2379 81.6884 14.2186 65.6597L14.2185 65.6592C12.1784 49.4935 13.9906 32.9946 25.993 22.5714C32.0963 17.2888 41.0047 13.3784 51.603 10.4553C62.1661 7.54194 74.1896 5.66662 86.346 4.32071C110.77 1.62106 134.845 1.21092 153.364 8.10716C171.767 14.9755 184.795 29.1269 189.895 43.6835C194.957 58.13 192.263 73.2666 185.062 87.8678C177.868 102.428 166.395 115.993 149.321 123.641C132.102 131.337 108.956 133.196 87.491 130.027C66.0344 126.859 46.6281 118.75 34.2375 107.452Z" stroke="#4A6BAC" stroke-width="5"/>
<path d="M69.5148 56.34C69.5148 57.0067 69.3548 57.6267 69.0348 58.2C68.7148 58.7733 68.2281 59.24 67.5748 59.6C66.9214 59.96 66.1148 60.14 65.1548 60.14C64.2214 60.14 63.3881 59.9733 62.6548 59.64C61.9348 59.2933 61.3548 58.8267 60.9148 58.24C60.4881 57.64 60.2414 56.96 60.1748 56.2H62.1148C62.1548 56.6 62.2881 56.9933 62.5148 57.38C62.7548 57.7533 63.0881 58.0667 63.5148 58.32C63.9548 58.56 64.4814 58.68 65.0948 58.68C65.8948 58.68 66.5081 58.4667 66.9348 58.04C67.3614 57.6133 67.5748 57.0667 67.5748 56.4C67.5748 55.8267 67.4214 55.36 67.1148 55C66.8214 54.64 66.4548 54.36 66.0148 54.16C65.5748 53.9467 64.9748 53.72 64.2148 53.48C63.3214 53.1867 62.6014 52.9133 62.0548 52.66C61.5214 52.3933 61.0614 52 60.6748 51.48C60.3014 50.96 60.1148 50.2733 60.1148 49.42C60.1148 48.6867 60.2881 48.04 60.6348 47.48C60.9948 46.92 61.5014 46.4867 62.1548 46.18C62.8214 45.8733 63.6014 45.72 64.4948 45.72C65.8814 45.72 66.9814 46.06 67.7948 46.74C68.6081 47.4067 69.0814 48.26 69.2148 49.3H67.2548C67.1481 48.74 66.8614 48.2467 66.3948 47.82C65.9281 47.3933 65.2948 47.18 64.4948 47.18C63.7614 47.18 63.1748 47.3733 62.7348 47.76C62.2948 48.1333 62.0748 48.6667 62.0748 49.36C62.0748 49.9067 62.2148 50.3533 62.4948 50.7C62.7881 51.0333 63.1481 51.3 63.5748 51.5C64.0014 51.6867 64.5881 51.9 65.3348 52.14C66.2414 52.4333 66.9681 52.7133 67.5148 52.98C68.0748 53.2467 68.5481 53.6533 68.9348 54.2C69.3214 54.7333 69.5148 55.4467 69.5148 56.34ZM81.722 49.02V60H79.902V57.42C79.622 58.3133 79.122 59 78.402 59.48C77.6953 59.9467 76.8686 60.18 75.922 60.18C74.6553 60.18 73.6286 59.7733 72.842 58.96C72.0553 58.1333 71.662 56.9533 71.662 55.42V49.02H73.482V55.24C73.482 56.3333 73.762 57.18 74.322 57.78C74.882 58.3667 75.642 58.66 76.602 58.66C77.602 58.66 78.402 58.34 79.002 57.7C79.602 57.0467 79.902 56.1 79.902 54.86V49.02H81.722ZM90.6977 48.88C91.6711 48.88 92.5377 49.1067 93.2977 49.56C94.0577 50.0133 94.6511 50.6667 95.0777 51.52C95.5177 52.3733 95.7377 53.3733 95.7377 54.52C95.7377 55.6667 95.5177 56.6667 95.0777 57.52C94.6511 58.36 94.0577 59.0067 93.2977 59.46C92.5377 59.9133 91.6711 60.14 90.6977 60.14C89.6311 60.14 88.7244 59.8733 87.9777 59.34C87.2444 58.7933 86.7377 58.08 86.4577 57.2V60H84.6377V45.2H86.4577V51.82C86.7377 50.94 87.2444 50.2333 87.9777 49.7C88.7244 49.1533 89.6311 48.88 90.6977 48.88ZM90.1777 50.5C89.4711 50.5 88.8311 50.6667 88.2577 51C87.6844 51.32 87.2377 51.7867 86.9177 52.4C86.5977 53.0133 86.4377 53.72 86.4377 54.52C86.4377 55.32 86.5977 56.0267 86.9177 56.64C87.2377 57.24 87.6844 57.7067 88.2577 58.04C88.8311 58.3733 89.4711 58.54 90.1777 58.54C91.3111 58.54 92.2111 58.1867 92.8777 57.48C93.5577 56.76 93.8977 55.7733 93.8977 54.52C93.8977 53.2667 93.5577 52.2867 92.8777 51.58C92.2111 50.86 91.3111 50.5 90.1777 50.5ZM111.614 48.84C112.894 48.84 113.921 49.2533 114.694 50.08C115.481 50.8933 115.874 52.0733 115.874 53.62V60H114.054V53.78C114.054 52.7 113.788 51.8733 113.254 51.3C112.734 50.7267 112.014 50.44 111.094 50.44C110.134 50.44 109.361 50.76 108.774 51.4C108.201 52.0267 107.914 52.9533 107.914 54.18V60H106.094V53.78C106.094 52.7 105.828 51.8733 105.294 51.3C104.761 50.7267 104.041 50.44 103.134 50.44C102.161 50.44 101.381 50.76 100.794 51.4C100.221 52.0267 99.9343 52.9533 99.9343 54.18V60H98.1143V49.02H99.9343V51.52C100.201 50.6533 100.674 49.9933 101.354 49.54C102.048 49.0733 102.841 48.84 103.734 48.84C104.668 48.84 105.474 49.08 106.154 49.56C106.848 50.0267 107.341 50.72 107.634 51.64C107.941 50.7467 108.454 50.06 109.174 49.58C109.894 49.0867 110.708 48.84 111.614 48.84ZM118.38 45.8C118.38 45.4667 118.494 45.2 118.72 45C118.947 44.7867 119.247 44.68 119.62 44.68C119.994 44.68 120.294 44.7867 120.52 45C120.747 45.2 120.86 45.4667 120.86 45.8C120.86 46.1333 120.747 46.4067 120.52 46.62C120.294 46.82 119.994 46.92 119.62 46.92C119.247 46.92 118.947 46.82 118.72 46.62C118.494 46.4067 118.38 46.1333 118.38 45.8ZM120.52 49.02V60H118.7V49.02H120.52ZM128.686 58.4V60H127.326C126.206 60 125.366 59.7333 124.806 59.2C124.26 58.6667 123.986 57.7733 123.986 56.52V50.6H122.346V49.02H123.986V46.28H125.826V49.02H128.666V50.6H125.826V56.56C125.826 57.2667 125.953 57.7533 126.206 58.02C126.473 58.2733 126.926 58.4 127.566 58.4H128.686ZM140.349 48.88C141.415 48.88 142.315 49.1467 143.049 49.68C143.795 50.2133 144.315 50.9267 144.609 51.82V49.02H146.429V60H144.609V57.2C144.315 58.0933 143.795 58.8067 143.049 59.34C142.315 59.8733 141.415 60.14 140.349 60.14C139.375 60.14 138.509 59.9133 137.749 59.46C136.989 59.0067 136.389 58.36 135.949 57.52C135.522 56.6667 135.309 55.6667 135.309 54.52C135.309 53.3733 135.522 52.3733 135.949 51.52C136.389 50.6667 136.989 50.0133 137.749 49.56C138.509 49.1067 139.375 48.88 140.349 48.88ZM140.869 50.5C139.749 50.5 138.849 50.86 138.169 51.58C137.502 52.2867 137.169 53.2667 137.169 54.52C137.169 55.7733 137.502 56.76 138.169 57.48C138.849 58.1867 139.749 58.54 140.869 58.54C141.589 58.54 142.229 58.3733 142.789 58.04C143.362 57.7067 143.809 57.24 144.129 56.64C144.449 56.0267 144.609 55.32 144.609 54.52C144.609 53.72 144.449 53.0133 144.129 52.4C143.809 51.7867 143.362 51.32 142.789 51C142.229 50.6667 141.589 50.5 140.869 50.5ZM63.362 84.32V90H61.542V75.9H66.022C67.6354 75.9 68.842 76.28 69.642 77.04C70.442 77.7867 70.842 78.8133 70.842 80.12C70.842 81.44 70.4287 82.4733 69.602 83.22C68.7754 83.9533 67.582 84.32 66.022 84.32H63.362ZM65.862 82.8C66.9687 82.8 67.762 82.5667 68.242 82.1C68.7354 81.6333 68.982 80.9733 68.982 80.12C68.982 79.24 68.7354 78.5733 68.242 78.12C67.762 77.6533 66.9687 77.42 65.862 77.42H63.362V82.8H65.862ZM74.7878 81.24C75.1478 80.48 75.6745 79.8933 76.3678 79.48C77.0611 79.0533 77.8878 78.84 78.8478 78.84V80.82H78.2878C77.2611 80.82 76.4211 81.0867 75.7678 81.62C75.1145 82.14 74.7878 83.0067 74.7878 84.22V90H72.9678V79.02H74.7878V81.24ZM85.6236 78.88C86.6769 78.88 87.6169 79.1067 88.4436 79.56C89.2836 80.0133 89.9369 80.6667 90.4036 81.52C90.8836 82.3733 91.1236 83.3733 91.1236 84.52C91.1236 85.6667 90.8836 86.6667 90.4036 87.52C89.9369 88.36 89.2836 89.0067 88.4436 89.46C87.6169 89.9133 86.6769 90.14 85.6236 90.14C84.5703 90.14 83.6236 89.9133 82.7836 89.46C81.9569 89.0067 81.3036 88.36 80.8236 87.52C80.3436 86.6667 80.1036 85.6667 80.1036 84.52C80.1036 83.3733 80.3436 82.3733 80.8236 81.52C81.3036 80.6667 81.9569 80.0133 82.7836 79.56C83.6236 79.1067 84.5703 78.88 85.6236 78.88ZM85.6236 80.48C84.9703 80.48 84.3636 80.6267 83.8036 80.92C83.2569 81.2133 82.8103 81.6667 82.4636 82.28C82.1303 82.88 81.9636 83.6267 81.9636 84.52C81.9636 85.4 82.1303 86.1467 82.4636 86.76C82.8103 87.36 83.2569 87.8067 83.8036 88.1C84.3636 88.3933 84.9703 88.54 85.6236 88.54C86.2769 88.54 86.8769 88.3933 87.4236 88.1C87.9836 87.8067 88.4303 87.36 88.7636 86.76C89.1103 86.1467 89.2836 85.4 89.2836 84.52C89.2836 83.6267 89.1103 82.88 88.7636 82.28C88.4303 81.6667 87.9836 81.2133 87.4236 80.92C86.8769 80.6267 86.2769 80.48 85.6236 80.48ZM99.5552 78.88C100.528 78.88 101.395 79.1067 102.155 79.56C102.915 80.0133 103.508 80.6667 103.935 81.52C104.375 82.3733 104.595 83.3733 104.595 84.52C104.595 85.6667 104.375 86.6667 103.935 87.52C103.508 88.36 102.915 89.0067 102.155 89.46C101.395 89.9133 100.528 90.14 99.5552 90.14C98.4885 90.14 97.5818 89.8733 96.8352 89.34C96.1018 88.7933 95.5952 88.08 95.3152 87.2V95.2H93.4952V79.02H95.3152V81.82C95.5952 80.94 96.1018 80.2333 96.8352 79.7C97.5818 79.1533 98.4885 78.88 99.5552 78.88ZM99.0352 80.5C98.3285 80.5 97.6885 80.6667 97.1152 81C96.5418 81.32 96.0952 81.7867 95.7752 82.4C95.4552 83.0133 95.2952 83.72 95.2952 84.52C95.2952 85.32 95.4552 86.0267 95.7752 86.64C96.0952 87.24 96.5418 87.7067 97.1152 88.04C97.6885 88.3733 98.3285 88.54 99.0352 88.54C100.168 88.54 101.068 88.1867 101.735 87.48C102.415 86.76 102.755 85.7733 102.755 84.52C102.755 83.2667 102.415 82.2867 101.735 81.58C101.068 80.86 100.168 80.5 99.0352 80.5ZM111.952 78.88C113.005 78.88 113.945 79.1067 114.772 79.56C115.612 80.0133 116.265 80.6667 116.732 81.52C117.212 82.3733 117.452 83.3733 117.452 84.52C117.452 85.6667 117.212 86.6667 116.732 87.52C116.265 88.36 115.612 89.0067 114.772 89.46C113.945 89.9133 113.005 90.14 111.952 90.14C110.898 90.14 109.952 89.9133 109.112 89.46C108.285 89.0067 107.632 88.36 107.152 87.52C106.672 86.6667 106.432 85.6667 106.432 84.52C106.432 83.3733 106.672 82.3733 107.152 81.52C107.632 80.6667 108.285 80.0133 109.112 79.56C109.952 79.1067 110.898 78.88 111.952 78.88ZM111.952 80.48C111.298 80.48 110.692 80.6267 110.132 80.92C109.585 81.2133 109.138 81.6667 108.792 82.28C108.458 82.88 108.292 83.6267 108.292 84.52C108.292 85.4 108.458 86.1467 108.792 86.76C109.138 87.36 109.585 87.8067 110.132 88.1C110.692 88.3933 111.298 88.54 111.952 88.54C112.605 88.54 113.205 88.3933 113.752 88.1C114.312 87.8067 114.758 87.36 115.092 86.76C115.438 86.1467 115.612 85.4 115.612 84.52C115.612 83.6267 115.438 82.88 115.092 82.28C114.758 81.6667 114.312 81.2133 113.752 80.92C113.205 80.6267 112.605 80.48 111.952 80.48ZM123.263 78.88C124.503 78.88 125.497 79.2067 126.243 79.86C127.003 80.5 127.463 81.3667 127.623 82.46H125.883C125.803 81.8067 125.53 81.2733 125.063 80.86C124.61 80.4333 123.997 80.22 123.223 80.22C122.57 80.22 122.057 80.38 121.683 80.7C121.323 81.0067 121.143 81.4267 121.143 81.96C121.143 82.36 121.263 82.6867 121.503 82.94C121.757 83.18 122.063 83.3667 122.423 83.5C122.797 83.62 123.303 83.7533 123.943 83.9C124.757 84.0867 125.41 84.28 125.903 84.48C126.41 84.6667 126.837 84.9733 127.183 85.4C127.543 85.8267 127.723 86.4 127.723 87.12C127.723 88.0133 127.383 88.74 126.703 89.3C126.037 89.86 125.143 90.14 124.023 90.14C122.717 90.14 121.65 89.8267 120.823 89.2C119.997 88.5733 119.51 87.7 119.363 86.58H121.123C121.19 87.2467 121.477 87.7867 121.983 88.2C122.503 88.6133 123.183 88.82 124.023 88.82C124.65 88.82 125.137 88.66 125.483 88.34C125.843 88.02 126.023 87.6 126.023 87.08C126.023 86.6533 125.897 86.3133 125.643 86.06C125.39 85.8067 125.077 85.6133 124.703 85.48C124.33 85.3467 123.817 85.2067 123.163 85.06C122.35 84.8733 121.697 84.6867 121.203 84.5C120.723 84.3133 120.31 84.02 119.963 83.62C119.63 83.2067 119.463 82.6533 119.463 81.96C119.463 81.04 119.803 80.3 120.483 79.74C121.163 79.1667 122.09 78.88 123.263 78.88ZM134.655 78.88C135.722 78.88 136.622 79.1467 137.355 79.68C138.102 80.2133 138.622 80.9267 138.915 81.82V79.02H140.735V90H138.915V87.2C138.622 88.0933 138.102 88.8067 137.355 89.34C136.622 89.8733 135.722 90.14 134.655 90.14C133.682 90.14 132.815 89.9133 132.055 89.46C131.295 89.0067 130.695 88.36 130.255 87.52C129.829 86.6667 129.615 85.6667 129.615 84.52C129.615 83.3733 129.829 82.3733 130.255 81.52C130.695 80.6667 131.295 80.0133 132.055 79.56C132.815 79.1067 133.682 78.88 134.655 78.88ZM135.175 80.5C134.055 80.5 133.155 80.86 132.475 81.58C131.809 82.2867 131.475 83.2667 131.475 84.52C131.475 85.7733 131.809 86.76 132.475 87.48C133.155 88.1867 134.055 88.54 135.175 88.54C135.895 88.54 136.535 88.3733 137.095 88.04C137.669 87.7067 138.115 87.24 138.435 86.64C138.755 86.0267 138.915 85.32 138.915 84.52C138.915 83.72 138.755 83.0133 138.435 82.4C138.115 81.7867 137.669 81.32 137.095 81C136.535 80.6667 135.895 80.5 135.175 80.5ZM145.452 75.2V90H143.632V75.2H145.452Z" fill="white" fill-opacity="0.95"/>
<path d="M63.0958 206.948L63.0993 206.947C79.3669 203.501 96.383 203.246 114.823 203.638C133.317 204.032 152.503 205.08 166.915 211.266L166.92 211.268C181.315 217.408 190.857 228.586 192.998 239.657L192.999 239.658C194.064 245.155 193.346 250.829 191.652 256.791C190.156 262.061 187.951 267.387 185.66 272.924C185.345 273.685 185.028 274.45 184.711 275.22C184.421 275.924 184.133 276.626 183.846 277.326C178.939 289.285 174.325 300.528 163.859 308.576L163.856 308.579C152.73 317.161 134.607 322.32 115.539 323.948L115.539 323.948C96.5676 325.57 77.1647 323.662 62.0438 317.66C46.9938 311.686 36.016 301.572 27.733 290.959C19.4865 280.321 14.2305 269.472 12.8412 258.15C11.4861 246.808 14.0385 235.099 22.672 226.115C31.4401 217.015 46.7445 210.388 63.0958 206.948Z" stroke="#00CAB2" stroke-width="5"/>
<path d="M60.0184 241.76C61.7384 241.76 63.1584 242.187 64.2784 243.04C65.3984 243.88 66.1717 245.033 66.5984 246.5H64.6784C64.3184 245.567 63.7384 244.827 62.9384 244.28C62.1384 243.72 61.1584 243.44 59.9984 243.44C59.0784 243.44 58.2517 243.667 57.5184 244.12C56.7984 244.56 56.225 245.2 55.7984 246.04C55.385 246.867 55.1784 247.84 55.1784 248.96C55.1784 250.067 55.385 251.033 55.7984 251.86C56.225 252.687 56.7984 253.327 57.5184 253.78C58.2517 254.22 59.0784 254.44 59.9984 254.44C61.1584 254.44 62.1384 254.167 62.9384 253.62C63.7384 253.06 64.3184 252.313 64.6784 251.38H66.5984C66.1717 252.847 65.3984 254.007 64.2784 254.86C63.1584 255.7 61.7384 256.12 60.0184 256.12C58.6984 256.12 57.5317 255.82 56.5184 255.22C55.505 254.607 54.7117 253.76 54.1384 252.68C53.5784 251.587 53.2984 250.347 53.2984 248.96C53.2984 247.56 53.5784 246.313 54.1384 245.22C54.7117 244.127 55.505 243.28 56.5184 242.68C57.5317 242.067 58.6984 241.76 60.0184 241.76ZM74.8123 244.84C76.0923 244.84 77.1256 245.253 77.9123 246.08C78.6989 246.893 79.0923 248.073 79.0923 249.62V256H77.2723V249.78C77.2723 248.687 76.9923 247.847 76.4323 247.26C75.8723 246.673 75.1123 246.38 74.1523 246.38C73.1523 246.38 72.3523 246.707 71.7523 247.36C71.1523 248 70.8523 248.94 70.8523 250.18V256H69.0323V241.2H70.8523V247.62C71.1323 246.727 71.6256 246.04 72.3323 245.56C73.0523 245.08 73.8789 244.84 74.8123 244.84ZM86.3838 244.88C87.4505 244.88 88.3505 245.147 89.0838 245.68C89.8305 246.213 90.3505 246.927 90.6438 247.82V245.02H92.4638V256H90.6438V253.2C90.3505 254.093 89.8305 254.807 89.0838 255.34C88.3505 255.873 87.4505 256.14 86.3838 256.14C85.4105 256.14 84.5438 255.913 83.7838 255.46C83.0238 255.007 82.4238 254.36 81.9838 253.52C81.5572 252.667 81.3438 251.667 81.3438 250.52C81.3438 249.373 81.5572 248.373 81.9838 247.52C82.4238 246.667 83.0238 246.013 83.7838 245.56C84.5438 245.107 85.4105 244.88 86.3838 244.88ZM86.9038 246.5C85.7838 246.5 84.8838 246.86 84.2038 247.58C83.5372 248.287 83.2038 249.267 83.2038 250.52C83.2038 251.773 83.5372 252.76 84.2038 253.48C84.8838 254.187 85.7838 254.54 86.9038 254.54C87.6238 254.54 88.2638 254.373 88.8238 254.04C89.3972 253.707 89.8438 253.24 90.1638 252.64C90.4838 252.027 90.6438 251.32 90.6438 250.52C90.6438 249.72 90.4838 249.013 90.1638 248.4C89.8438 247.787 89.3972 247.32 88.8238 247C88.2638 246.667 87.6238 246.5 86.9038 246.5ZM97.1804 241.2V256H95.3604V241.2H97.1804ZM101.926 241.2V256H100.106V241.2H101.926ZM114.953 249.9C114.953 250.287 114.926 250.62 114.873 250.9H106.093C106.133 252.153 106.486 253.093 107.153 253.72C107.833 254.347 108.659 254.66 109.633 254.66C110.513 254.66 111.246 254.44 111.833 254C112.433 253.547 112.799 252.947 112.933 252.2H114.873C114.739 252.96 114.439 253.64 113.973 254.24C113.519 254.84 112.926 255.307 112.193 255.64C111.459 255.973 110.633 256.14 109.713 256.14C108.659 256.14 107.726 255.913 106.913 255.46C106.099 255.007 105.459 254.36 104.993 253.52C104.539 252.667 104.313 251.667 104.313 250.52C104.313 249.373 104.539 248.373 104.993 247.52C105.459 246.667 106.099 246.013 106.913 245.56C107.726 245.107 108.659 244.88 109.713 244.88C110.779 244.88 111.706 245.107 112.493 245.56C113.293 246.013 113.899 246.62 114.313 247.38C114.739 248.14 114.953 248.98 114.953 249.9ZM113.113 250.02C113.153 249.207 113.019 248.527 112.713 247.98C112.406 247.433 111.986 247.027 111.453 246.76C110.919 246.493 110.339 246.36 109.713 246.36C108.713 246.36 107.873 246.673 107.193 247.3C106.513 247.913 106.146 248.82 106.093 250.02H113.113ZM123.113 244.84C124.393 244.84 125.426 245.253 126.213 246.08C127 246.893 127.393 248.073 127.393 249.62V256H125.573V249.78C125.573 248.687 125.293 247.847 124.733 247.26C124.173 246.673 123.413 246.38 122.453 246.38C121.453 246.38 120.653 246.707 120.053 247.36C119.453 248 119.153 248.94 119.153 250.18V256H117.333V245.02H119.153V247.62C119.433 246.727 119.926 246.04 120.633 245.56C121.353 245.08 122.18 244.84 123.113 244.84ZM134.685 244.88C135.751 244.88 136.651 245.147 137.385 245.68C138.131 246.213 138.651 246.927 138.945 247.82V245.02H140.765V256.18C140.765 257.193 140.551 258.093 140.125 258.88C139.698 259.667 139.098 260.28 138.325 260.72C137.551 261.16 136.651 261.38 135.625 261.38C134.145 261.38 132.938 261.02 132.005 260.3C131.071 259.593 130.478 258.633 130.225 257.42H132.025C132.238 258.153 132.638 258.727 133.225 259.14C133.825 259.567 134.591 259.78 135.525 259.78C136.511 259.78 137.325 259.46 137.965 258.82C138.618 258.193 138.945 257.313 138.945 256.18V253.2C138.651 254.093 138.131 254.807 137.385 255.34C136.651 255.873 135.751 256.14 134.685 256.14C133.711 256.14 132.845 255.913 132.085 255.46C131.325 255.007 130.725 254.36 130.285 253.52C129.858 252.667 129.645 251.667 129.645 250.52C129.645 249.373 129.858 248.373 130.285 247.52C130.725 246.667 131.325 246.013 132.085 245.56C132.845 245.107 133.711 244.88 134.685 244.88ZM135.205 246.5C134.085 246.5 133.185 246.86 132.505 247.58C131.838 248.287 131.505 249.267 131.505 250.52C131.505 251.773 131.838 252.76 132.505 253.48C133.185 254.187 134.085 254.54 135.205 254.54C135.925 254.54 136.565 254.373 137.125 254.04C137.698 253.707 138.145 253.24 138.465 252.64C138.785 252.027 138.945 251.32 138.945 250.52C138.945 249.72 138.785 249.013 138.465 248.4C138.145 247.787 137.698 247.32 137.125 247C136.565 246.667 135.925 246.5 135.205 246.5ZM153.761 249.9C153.761 250.287 153.735 250.62 153.681 250.9H144.901C144.941 252.153 145.295 253.093 145.961 253.72C146.641 254.347 147.468 254.66 148.441 254.66C149.321 254.66 150.055 254.44 150.641 254C151.241 253.547 151.608 252.947 151.741 252.2H153.681C153.548 252.96 153.248 253.64 152.781 254.24C152.328 254.84 151.735 255.307 151.001 255.64C150.268 255.973 149.441 256.14 148.521 256.14C147.468 256.14 146.535 255.913 145.721 255.46C144.908 255.007 144.268 254.36 143.801 253.52C143.348 252.667 143.121 251.667 143.121 250.52C143.121 249.373 143.348 248.373 143.801 247.52C144.268 246.667 144.908 246.013 145.721 245.56C146.535 245.107 147.468 244.88 148.521 244.88C149.588 244.88 150.515 245.107 151.301 245.56C152.101 246.013 152.708 246.62 153.121 247.38C153.548 248.14 153.761 248.98 153.761 249.9ZM151.921 250.02C151.961 249.207 151.828 248.527 151.521 247.98C151.215 247.433 150.795 247.027 150.261 246.76C149.728 246.493 149.148 246.36 148.521 246.36C147.521 246.36 146.681 246.673 146.001 247.3C145.321 247.913 144.955 248.82 144.901 250.02H151.921ZM64.4895 282.74H58.2895L57.1095 286H55.1495L60.3695 272.16H62.4295L67.6295 286H65.6695L64.4895 282.74ZM63.9695 281.32L61.3895 274.2L58.8095 281.32H63.9695ZM74.3317 274.88C75.7317 274.88 76.8917 275.253 77.8117 276C78.7317 276.747 79.2984 277.747 79.5117 279H77.5917C77.4584 278.213 77.0917 277.6 76.4917 277.16C75.9051 276.707 75.1717 276.48 74.2917 276.48C73.6517 276.48 73.0651 276.627 72.5317 276.92C72.0117 277.213 71.5917 277.667 71.2717 278.28C70.9517 278.88 70.7917 279.627 70.7917 280.52C70.7917 281.413 70.9517 282.167 71.2717 282.78C71.5917 283.38 72.0117 283.827 72.5317 284.12C73.0651 284.413 73.6517 284.56 74.2917 284.56C75.1717 284.56 75.9051 284.333 76.4917 283.88C77.0917 283.427 77.4584 282.807 77.5917 282.02H79.5117C79.2984 283.287 78.7317 284.293 77.8117 285.04C76.8917 285.773 75.7317 286.14 74.3317 286.14C73.2784 286.14 72.3451 285.913 71.5317 285.46C70.7184 285.007 70.0784 284.36 69.6117 283.52C69.1584 282.667 68.9317 281.667 68.9317 280.52C68.9317 279.373 69.1584 278.373 69.6117 277.52C70.0784 276.667 70.7184 276.013 71.5317 275.56C72.3451 275.107 73.2784 274.88 74.3317 274.88ZM86.7536 274.88C88.1536 274.88 89.3136 275.253 90.2336 276C91.1536 276.747 91.7203 277.747 91.9336 279H90.0136C89.8803 278.213 89.5136 277.6 88.9136 277.16C88.3269 276.707 87.5936 276.48 86.7136 276.48C86.0736 276.48 85.4869 276.627 84.9536 276.92C84.4336 277.213 84.0136 277.667 83.6936 278.28C83.3736 278.88 83.2136 279.627 83.2136 280.52C83.2136 281.413 83.3736 282.167 83.6936 282.78C84.0136 283.38 84.4336 283.827 84.9536 284.12C85.4869 284.413 86.0736 284.56 86.7136 284.56C87.5936 284.56 88.3269 284.333 88.9136 283.88C89.5136 283.427 89.8803 282.807 90.0136 282.02H91.9336C91.7203 283.287 91.1536 284.293 90.2336 285.04C89.3136 285.773 88.1536 286.14 86.7536 286.14C85.7003 286.14 84.7669 285.913 83.9536 285.46C83.1403 285.007 82.5003 284.36 82.0336 283.52C81.5803 282.667 81.3536 281.667 81.3536 280.52C81.3536 279.373 81.5803 278.373 82.0336 277.52C82.5003 276.667 83.1403 276.013 83.9536 275.56C84.7669 275.107 85.7003 274.88 86.7536 274.88ZM104.415 279.9C104.415 280.287 104.389 280.62 104.335 280.9H95.5555C95.5955 282.153 95.9488 283.093 96.6155 283.72C97.2955 284.347 98.1221 284.66 99.0955 284.66C99.9755 284.66 100.709 284.44 101.295 284C101.895 283.547 102.262 282.947 102.395 282.2H104.335C104.202 282.96 103.902 283.64 103.435 284.24C102.982 284.84 102.389 285.307 101.655 285.64C100.922 285.973 100.095 286.14 99.1755 286.14C98.1221 286.14 97.1888 285.913 96.3755 285.46C95.5621 285.007 94.9221 284.36 94.4555 283.52C94.0021 282.667 93.7755 281.667 93.7755 280.52C93.7755 279.373 94.0021 278.373 94.4555 277.52C94.9221 276.667 95.5621 276.013 96.3755 275.56C97.1888 275.107 98.1221 274.88 99.1755 274.88C100.242 274.88 101.169 275.107 101.955 275.56C102.755 276.013 103.362 276.62 103.775 277.38C104.202 278.14 104.415 278.98 104.415 279.9ZM102.575 280.02C102.615 279.207 102.482 278.527 102.175 277.98C101.869 277.433 101.449 277.027 100.915 276.76C100.382 276.493 99.8021 276.36 99.1755 276.36C98.1755 276.36 97.3355 276.673 96.6555 277.3C95.9755 277.913 95.6088 278.82 95.5555 280.02H102.575ZM112.856 274.88C113.829 274.88 114.696 275.107 115.456 275.56C116.216 276.013 116.809 276.667 117.236 277.52C117.676 278.373 117.896 279.373 117.896 280.52C117.896 281.667 117.676 282.667 117.236 283.52C116.809 284.36 116.216 285.007 115.456 285.46C114.696 285.913 113.829 286.14 112.856 286.14C111.789 286.14 110.883 285.873 110.136 285.34C109.403 284.793 108.896 284.08 108.616 283.2V291.2H106.796V275.02H108.616V277.82C108.896 276.94 109.403 276.233 110.136 275.7C110.883 275.153 111.789 274.88 112.856 274.88ZM112.336 276.5C111.629 276.5 110.989 276.667 110.416 277C109.843 277.32 109.396 277.787 109.076 278.4C108.756 279.013 108.596 279.72 108.596 280.52C108.596 281.32 108.756 282.027 109.076 282.64C109.396 283.24 109.843 283.707 110.416 284.04C110.989 284.373 111.629 284.54 112.336 284.54C113.469 284.54 114.369 284.187 115.036 283.48C115.716 282.76 116.056 281.773 116.056 280.52C116.056 279.267 115.716 278.287 115.036 277.58C114.369 276.86 113.469 276.5 112.336 276.5ZM125.513 284.4V286H124.153C123.033 286 122.193 285.733 121.633 285.2C121.086 284.667 120.813 283.773 120.813 282.52V276.6H119.173V275.02H120.813V272.28H122.653V275.02H125.493V276.6H122.653V282.56C122.653 283.267 122.779 283.753 123.033 284.02C123.299 284.273 123.753 284.4 124.393 284.4H125.513ZM137.833 279.9C137.833 280.287 137.807 280.62 137.753 280.9H128.973C129.013 282.153 129.367 283.093 130.033 283.72C130.713 284.347 131.54 284.66 132.513 284.66C133.393 284.66 134.127 284.44 134.713 284C135.313 283.547 135.68 282.947 135.813 282.2H137.753C137.62 282.96 137.32 283.64 136.853 284.24C136.4 284.84 135.807 285.307 135.073 285.64C134.34 285.973 133.513 286.14 132.593 286.14C131.54 286.14 130.607 285.913 129.793 285.46C128.98 285.007 128.34 284.36 127.873 283.52C127.42 282.667 127.193 281.667 127.193 280.52C127.193 279.373 127.42 278.373 127.873 277.52C128.34 276.667 128.98 276.013 129.793 275.56C130.607 275.107 131.54 274.88 132.593 274.88C133.66 274.88 134.587 275.107 135.373 275.56C136.173 276.013 136.78 276.62 137.193 277.38C137.62 278.14 137.833 278.98 137.833 279.9ZM135.993 280.02C136.033 279.207 135.9 278.527 135.593 277.98C135.287 277.433 134.867 277.027 134.333 276.76C133.8 276.493 133.22 276.36 132.593 276.36C131.593 276.36 130.753 276.673 130.073 277.3C129.393 277.913 129.027 278.82 128.973 280.02H135.993ZM144.714 274.88C145.781 274.88 146.681 275.147 147.414 275.68C148.161 276.213 148.681 276.927 148.974 277.82V271.2H150.794V286H148.974V283.2C148.681 284.093 148.161 284.807 147.414 285.34C146.681 285.873 145.781 286.14 144.714 286.14C143.741 286.14 142.874 285.913 142.114 285.46C141.354 285.007 140.754 284.36 140.314 283.52C139.887 282.667 139.674 281.667 139.674 280.52C139.674 279.373 139.887 278.373 140.314 277.52C140.754 276.667 141.354 276.013 142.114 275.56C142.874 275.107 143.741 274.88 144.714 274.88ZM145.234 276.5C144.114 276.5 143.214 276.86 142.534 277.58C141.867 278.287 141.534 279.267 141.534 280.52C141.534 281.773 141.867 282.76 142.534 283.48C143.214 284.187 144.114 284.54 145.234 284.54C145.954 284.54 146.594 284.373 147.154 284.04C147.727 283.707 148.174 283.24 148.494 282.64C148.814 282.027 148.974 281.32 148.974 280.52C148.974 279.72 148.814 279.013 148.494 278.4C148.174 277.787 147.727 277.32 147.154 277C146.594 276.667 145.954 276.5 145.234 276.5Z" fill="white" fill-opacity="0.95"/>
<path d="M199.314 435.876L199.315 435.879C203.714 443.346 204.596 451.858 202.193 462.481L202.193 462.482C201.771 464.353 201.406 466.217 201.044 468.064C199.159 477.685 197.368 486.828 188.101 493.891L188.098 493.893C182.492 498.177 174.006 501.762 163.656 504.557C153.351 507.341 141.387 509.292 128.979 510.416C104.142 512.642 77.7652 511.552 56.4975 506.099C45.8758 503.375 36.5471 499.571 29.1931 495.172C21.8035 490.752 16.5822 485.837 13.9235 480.979C8.15937 470.445 4.36853 459.047 3.00716 447.366C1.62858 435.537 2.77372 424.112 10.0014 416.395C11.6895 414.593 14.3368 412.864 17.8834 411.239C21.405 409.625 25.6662 408.18 30.4454 406.875C40.0075 404.263 51.412 402.272 62.6564 400.575C85.161 397.177 106.37 395.089 124.401 397.621C142.381 400.147 157.417 407.338 172.163 414.449C186.675 421.448 194.868 428.307 199.314 435.876Z" stroke="#FF8368" stroke-width="5"/>
<path d="M42.5279 438.402V439.882H36.3679V444.762H41.5879V446.182H36.3679V452.502H34.5479V438.402H42.5279ZM49.6646 441.382C50.7179 441.382 51.6579 441.609 52.4846 442.062C53.3246 442.516 53.9779 443.169 54.4446 444.022C54.9246 444.876 55.1646 445.876 55.1646 447.022C55.1646 448.169 54.9246 449.169 54.4446 450.022C53.9779 450.862 53.3246 451.509 52.4846 451.962C51.6579 452.416 50.7179 452.642 49.6646 452.642C48.6113 452.642 47.6646 452.416 46.8246 451.962C45.9979 451.509 45.3446 450.862 44.8646 450.022C44.3846 449.169 44.1446 448.169 44.1446 447.022C44.1446 445.876 44.3846 444.876 44.8646 444.022C45.3446 443.169 45.9979 442.516 46.8246 442.062C47.6646 441.609 48.6113 441.382 49.6646 441.382ZM49.6646 442.982C49.0113 442.982 48.4046 443.129 47.8446 443.422C47.2979 443.716 46.8513 444.169 46.5046 444.782C46.1713 445.382 46.0046 446.129 46.0046 447.022C46.0046 447.902 46.1713 448.649 46.5046 449.262C46.8513 449.862 47.2979 450.309 47.8446 450.602C48.4046 450.896 49.0113 451.042 49.6646 451.042C50.3179 451.042 50.9179 450.896 51.4646 450.602C52.0246 450.309 52.4713 449.862 52.8046 449.262C53.1513 448.649 53.3246 447.902 53.3246 447.022C53.3246 446.129 53.1513 445.382 52.8046 444.782C52.4713 444.169 52.0246 443.716 51.4646 443.422C50.9179 443.129 50.3179 442.982 49.6646 442.982ZM67.2962 441.522V452.502H65.4762V449.922C65.1962 450.816 64.6962 451.502 63.9762 451.982C63.2695 452.449 62.4428 452.682 61.4962 452.682C60.2295 452.682 59.2028 452.276 58.4162 451.462C57.6295 450.636 57.2362 449.456 57.2362 447.922V441.522H59.0562V447.742C59.0562 448.836 59.3362 449.682 59.8962 450.282C60.4562 450.869 61.2162 451.162 62.1762 451.162C63.1762 451.162 63.9762 450.842 64.5762 450.202C65.1762 449.549 65.4762 448.602 65.4762 447.362V441.522H67.2962ZM72.032 443.742C72.392 442.982 72.9186 442.396 73.612 441.982C74.3053 441.556 75.132 441.342 76.092 441.342V443.322H75.532C74.5053 443.322 73.6653 443.589 73.012 444.122C72.3586 444.642 72.032 445.509 72.032 446.722V452.502H70.212V441.522H72.032V443.742ZM97.9091 441.522L94.7491 452.502H92.7891L89.7691 443.562L86.7291 452.502H84.7491L81.6291 441.522H83.4691L85.8091 450.762L88.8491 441.522H90.7491L93.8091 450.742L96.1691 441.522H97.9091ZM109.706 446.402C109.706 446.789 109.68 447.122 109.626 447.402H100.846C100.886 448.656 101.24 449.596 101.906 450.222C102.586 450.849 103.413 451.162 104.386 451.162C105.266 451.162 106 450.942 106.586 450.502C107.186 450.049 107.553 449.449 107.686 448.702H109.626C109.493 449.462 109.193 450.142 108.726 450.742C108.273 451.342 107.68 451.809 106.946 452.142C106.213 452.476 105.386 452.642 104.466 452.642C103.413 452.642 102.48 452.416 101.666 451.962C100.853 451.509 100.213 450.862 99.7465 450.022C99.2932 449.169 99.0665 448.169 99.0665 447.022C99.0665 445.876 99.2932 444.876 99.7465 444.022C100.213 443.169 100.853 442.516 101.666 442.062C102.48 441.609 103.413 441.382 104.466 441.382C105.533 441.382 106.46 441.609 107.246 442.062C108.046 442.516 108.653 443.122 109.066 443.882C109.493 444.642 109.706 445.482 109.706 446.402ZM107.866 446.522C107.906 445.709 107.773 445.029 107.466 444.482C107.16 443.936 106.74 443.529 106.206 443.262C105.673 442.996 105.093 442.862 104.466 442.862C103.466 442.862 102.626 443.176 101.946 443.802C101.266 444.416 100.9 445.322 100.846 446.522H107.866ZM122.187 446.402C122.187 446.789 122.16 447.122 122.107 447.402H113.327C113.367 448.656 113.72 449.596 114.387 450.222C115.067 450.849 115.894 451.162 116.867 451.162C117.747 451.162 118.48 450.942 119.067 450.502C119.667 450.049 120.034 449.449 120.167 448.702H122.107C121.974 449.462 121.674 450.142 121.207 450.742C120.754 451.342 120.16 451.809 119.427 452.142C118.694 452.476 117.867 452.642 116.947 452.642C115.894 452.642 114.96 452.416 114.147 451.962C113.334 451.509 112.694 450.862 112.227 450.022C111.774 449.169 111.547 448.169 111.547 447.022C111.547 445.876 111.774 444.876 112.227 444.022C112.694 443.169 113.334 442.516 114.147 442.062C114.96 441.609 115.894 441.382 116.947 441.382C118.014 441.382 118.94 441.609 119.727 442.062C120.527 442.516 121.134 443.122 121.547 443.882C121.974 444.642 122.187 445.482 122.187 446.402ZM120.347 446.522C120.387 445.709 120.254 445.029 119.947 444.482C119.64 443.936 119.22 443.529 118.687 443.262C118.154 442.996 117.574 442.862 116.947 442.862C115.947 442.862 115.107 443.176 114.427 443.802C113.747 444.416 113.38 445.322 113.327 446.522H120.347ZM130.587 452.502L126.387 447.562V452.502H124.567V437.702H126.387V446.302L130.527 441.522H132.747L127.827 446.982L132.867 452.502H130.587ZM137.91 441.382C139.15 441.382 140.143 441.709 140.89 442.362C141.65 443.002 142.11 443.869 142.27 444.962H140.53C140.45 444.309 140.176 443.776 139.71 443.362C139.256 442.936 138.643 442.722 137.87 442.722C137.216 442.722 136.703 442.882 136.33 443.202C135.97 443.509 135.79 443.929 135.79 444.462C135.79 444.862 135.91 445.189 136.15 445.442C136.403 445.682 136.71 445.869 137.07 446.002C137.443 446.122 137.95 446.256 138.59 446.402C139.403 446.589 140.056 446.782 140.55 446.982C141.056 447.169 141.483 447.476 141.83 447.902C142.19 448.329 142.37 448.902 142.37 449.622C142.37 450.516 142.03 451.242 141.35 451.802C140.683 452.362 139.79 452.642 138.67 452.642C137.363 452.642 136.296 452.329 135.47 451.702C134.643 451.076 134.156 450.202 134.01 449.082H135.77C135.836 449.749 136.123 450.289 136.63 450.702C137.15 451.116 137.83 451.322 138.67 451.322C139.296 451.322 139.783 451.162 140.13 450.842C140.49 450.522 140.67 450.102 140.67 449.582C140.67 449.156 140.543 448.816 140.29 448.562C140.036 448.309 139.723 448.116 139.35 447.982C138.976 447.849 138.463 447.709 137.81 447.562C136.996 447.376 136.343 447.189 135.85 447.002C135.37 446.816 134.956 446.522 134.61 446.122C134.276 445.709 134.11 445.156 134.11 444.462C134.11 443.542 134.45 442.802 135.13 442.242C135.81 441.669 136.736 441.382 137.91 441.382ZM154.723 441.382C155.777 441.382 156.717 441.609 157.543 442.062C158.383 442.516 159.037 443.169 159.503 444.022C159.983 444.876 160.223 445.876 160.223 447.022C160.223 448.169 159.983 449.169 159.503 450.022C159.037 450.862 158.383 451.509 157.543 451.962C156.717 452.416 155.777 452.642 154.723 452.642C153.67 452.642 152.723 452.416 151.883 451.962C151.057 451.509 150.403 450.862 149.923 450.022C149.443 449.169 149.203 448.169 149.203 447.022C149.203 445.876 149.443 444.876 149.923 444.022C150.403 443.169 151.057 442.516 151.883 442.062C152.723 441.609 153.67 441.382 154.723 441.382ZM154.723 442.982C154.07 442.982 153.463 443.129 152.903 443.422C152.357 443.716 151.91 444.169 151.563 444.782C151.23 445.382 151.063 446.129 151.063 447.022C151.063 447.902 151.23 448.649 151.563 449.262C151.91 449.862 152.357 450.309 152.903 450.602C153.463 450.896 154.07 451.042 154.723 451.042C155.377 451.042 155.977 450.896 156.523 450.602C157.083 450.309 157.53 449.862 157.863 449.262C158.21 448.649 158.383 447.902 158.383 447.022C158.383 446.129 158.21 445.382 157.863 444.782C157.53 444.169 157.083 443.716 156.523 443.422C155.977 443.129 155.377 442.982 154.723 442.982ZM167.455 438.922C166.481 438.909 165.801 439.076 165.415 439.422C165.041 439.769 164.855 440.369 164.855 441.222V441.522H167.455V443.122H164.855V452.502H163.035V443.122H161.455V441.522H163.035V441.082C163.035 438.456 164.508 437.202 167.455 437.322V438.922ZM42.5036 471.382C43.9036 471.382 45.0636 471.756 45.9836 472.502C46.9036 473.249 47.4703 474.249 47.6836 475.502H45.7636C45.6303 474.716 45.2636 474.102 44.6636 473.662C44.0769 473.209 43.3436 472.982 42.4636 472.982C41.8236 472.982 41.2369 473.129 40.7036 473.422C40.1836 473.716 39.7636 474.169 39.4436 474.782C39.1236 475.382 38.9636 476.129 38.9636 477.022C38.9636 477.916 39.1236 478.669 39.4436 479.282C39.7636 479.882 40.1836 480.329 40.7036 480.622C41.2369 480.916 41.8236 481.062 42.4636 481.062C43.3436 481.062 44.0769 480.836 44.6636 480.382C45.2636 479.929 45.6303 479.309 45.7636 478.522H47.6836C47.4703 479.789 46.9036 480.796 45.9836 481.542C45.0636 482.276 43.9036 482.642 42.5036 482.642C41.4503 482.642 40.5169 482.416 39.7036 481.962C38.8903 481.509 38.2503 480.862 37.7836 480.022C37.3303 479.169 37.1036 478.169 37.1036 477.022C37.1036 475.876 37.3303 474.876 37.7836 474.022C38.2503 473.169 38.8903 472.516 39.7036 472.062C40.5169 471.609 41.4503 471.382 42.5036 471.382ZM55.0455 471.382C56.0988 471.382 57.0388 471.609 57.8655 472.062C58.7055 472.516 59.3588 473.169 59.8255 474.022C60.3055 474.876 60.5455 475.876 60.5455 477.022C60.5455 478.169 60.3055 479.169 59.8255 480.022C59.3588 480.862 58.7055 481.509 57.8655 481.962C57.0388 482.416 56.0988 482.642 55.0455 482.642C53.9921 482.642 53.0455 482.416 52.2055 481.962C51.3788 481.509 50.7255 480.862 50.2455 480.022C49.7655 479.169 49.5255 478.169 49.5255 477.022C49.5255 475.876 49.7655 474.876 50.2455 474.022C50.7255 473.169 51.3788 472.516 52.2055 472.062C53.0455 471.609 53.9921 471.382 55.0455 471.382ZM55.0455 472.982C54.3921 472.982 53.7855 473.129 53.2255 473.422C52.6788 473.716 52.2321 474.169 51.8855 474.782C51.5521 475.382 51.3855 476.129 51.3855 477.022C51.3855 477.902 51.5521 478.649 51.8855 479.262C52.2321 479.862 52.6788 480.309 53.2255 480.602C53.7855 480.896 54.3921 481.042 55.0455 481.042C55.6988 481.042 56.2988 480.896 56.8455 480.602C57.4055 480.309 57.8521 479.862 58.1855 479.262C58.5321 478.649 58.7055 477.902 58.7055 477.022C58.7055 476.129 58.5321 475.382 58.1855 474.782C57.8521 474.169 57.4055 473.716 56.8455 473.422C56.2988 473.129 55.6988 472.982 55.0455 472.982ZM64.737 467.702V482.502H62.917V467.702H64.737ZM69.4831 467.702V482.502H67.6631V467.702H69.4831ZM76.9092 471.382C77.9759 471.382 78.8759 471.649 79.6092 472.182C80.3559 472.716 80.8759 473.429 81.1692 474.322V471.522H82.9892V482.502H81.1692V479.702C80.8759 480.596 80.3559 481.309 79.6092 481.842C78.8759 482.376 77.9759 482.642 76.9092 482.642C75.9359 482.642 75.0692 482.416 74.3092 481.962C73.5492 481.509 72.9492 480.862 72.5092 480.022C72.0826 479.169 71.8692 478.169 71.8692 477.022C71.8692 475.876 72.0826 474.876 72.5092 474.022C72.9492 473.169 73.5492 472.516 74.3092 472.062C75.0692 471.609 75.9359 471.382 76.9092 471.382ZM77.4292 473.002C76.3092 473.002 75.4092 473.362 74.7292 474.082C74.0626 474.789 73.7292 475.769 73.7292 477.022C73.7292 478.276 74.0626 479.262 74.7292 479.982C75.4092 480.689 76.3092 481.042 77.4292 481.042C78.1492 481.042 78.7892 480.876 79.3492 480.542C79.9226 480.209 80.3692 479.742 80.6892 479.142C81.0092 478.529 81.1692 477.822 81.1692 477.022C81.1692 476.222 81.0092 475.516 80.6892 474.902C80.3692 474.289 79.9226 473.822 79.3492 473.502C78.7892 473.169 78.1492 473.002 77.4292 473.002ZM91.9458 471.382C92.9191 471.382 93.7858 471.609 94.5458 472.062C95.3058 472.516 95.8991 473.169 96.3258 474.022C96.7658 474.876 96.9858 475.876 96.9858 477.022C96.9858 478.169 96.7658 479.169 96.3258 480.022C95.8991 480.862 95.3058 481.509 94.5458 481.962C93.7858 482.416 92.9191 482.642 91.9458 482.642C90.8791 482.642 89.9724 482.376 89.2258 481.842C88.4924 481.296 87.9858 480.582 87.7058 479.702V482.502H85.8858V467.702H87.7058V474.322C87.9858 473.442 88.4924 472.736 89.2258 472.202C89.9724 471.656 90.8791 471.382 91.9458 471.382ZM91.4258 473.002C90.7191 473.002 90.0791 473.169 89.5058 473.502C88.9324 473.822 88.4858 474.289 88.1658 474.902C87.8458 475.516 87.6858 476.222 87.6858 477.022C87.6858 477.822 87.8458 478.529 88.1658 479.142C88.4858 479.742 88.9324 480.209 89.5058 480.542C90.0791 480.876 90.7191 481.042 91.4258 481.042C92.5591 481.042 93.4591 480.689 94.1258 479.982C94.8058 479.262 95.1458 478.276 95.1458 477.022C95.1458 475.769 94.8058 474.789 94.1258 474.082C93.4591 473.362 92.5591 473.002 91.4258 473.002ZM104.342 471.382C105.396 471.382 106.336 471.609 107.162 472.062C108.002 472.516 108.656 473.169 109.122 474.022C109.602 474.876 109.842 475.876 109.842 477.022C109.842 478.169 109.602 479.169 109.122 480.022C108.656 480.862 108.002 481.509 107.162 481.962C106.336 482.416 105.396 482.642 104.342 482.642C103.289 482.642 102.342 482.416 101.502 481.962C100.676 481.509 100.022 480.862 99.5423 480.022C99.0623 479.169 98.8223 478.169 98.8223 477.022C98.8223 475.876 99.0623 474.876 99.5423 474.022C100.022 473.169 100.676 472.516 101.502 472.062C102.342 471.609 103.289 471.382 104.342 471.382ZM104.342 472.982C103.689 472.982 103.082 473.129 102.522 473.422C101.976 473.716 101.529 474.169 101.182 474.782C100.849 475.382 100.682 476.129 100.682 477.022C100.682 477.902 100.849 478.649 101.182 479.262C101.529 479.862 101.976 480.309 102.522 480.602C103.082 480.896 103.689 481.042 104.342 481.042C104.996 481.042 105.596 480.896 106.142 480.602C106.702 480.309 107.149 479.862 107.482 479.262C107.829 478.649 108.002 477.902 108.002 477.022C108.002 476.129 107.829 475.382 107.482 474.782C107.149 474.169 106.702 473.716 106.142 473.422C105.596 473.129 104.996 472.982 104.342 472.982ZM114.034 473.742C114.394 472.982 114.921 472.396 115.614 471.982C116.307 471.556 117.134 471.342 118.094 471.342V473.322H117.534C116.507 473.322 115.667 473.589 115.014 474.122C114.361 474.642 114.034 475.509 114.034 476.722V482.502H112.214V471.522H114.034V473.742ZM124.39 471.382C125.456 471.382 126.356 471.649 127.09 472.182C127.836 472.716 128.356 473.429 128.65 474.322V471.522H130.47V482.502H128.65V479.702C128.356 480.596 127.836 481.309 127.09 481.842C126.356 482.376 125.456 482.642 124.39 482.642C123.416 482.642 122.55 482.416 121.79 481.962C121.03 481.509 120.43 480.862 119.99 480.022C119.563 479.169 119.35 478.169 119.35 477.022C119.35 475.876 119.563 474.876 119.99 474.022C120.43 473.169 121.03 472.516 121.79 472.062C122.55 471.609 123.416 471.382 124.39 471.382ZM124.91 473.002C123.79 473.002 122.89 473.362 122.21 474.082C121.543 474.789 121.21 475.769 121.21 477.022C121.21 478.276 121.543 479.262 122.21 479.982C122.89 480.689 123.79 481.042 124.91 481.042C125.63 481.042 126.27 480.876 126.83 480.542C127.403 480.209 127.85 479.742 128.17 479.142C128.49 478.529 128.65 477.822 128.65 477.022C128.65 476.222 128.49 475.516 128.17 474.902C127.85 474.289 127.403 473.822 126.83 473.502C126.27 473.169 125.63 473.002 124.91 473.002ZM138.606 480.902V482.502H137.246C136.126 482.502 135.286 482.236 134.726 481.702C134.18 481.169 133.906 480.276 133.906 479.022V473.102H132.266V471.522H133.906V468.782H135.746V471.522H138.586V473.102H135.746V479.062C135.746 479.769 135.873 480.256 136.126 480.522C136.393 480.776 136.846 480.902 137.486 480.902H138.606ZM140.507 468.302C140.507 467.969 140.621 467.702 140.847 467.502C141.074 467.289 141.374 467.182 141.747 467.182C142.121 467.182 142.421 467.289 142.647 467.502C142.874 467.702 142.987 467.969 142.987 468.302C142.987 468.636 142.874 468.909 142.647 469.122C142.421 469.322 142.121 469.422 141.747 469.422C141.374 469.422 141.074 469.322 140.847 469.122C140.621 468.909 140.507 468.636 140.507 468.302ZM142.647 471.522V482.502H140.827V471.522H142.647ZM150.553 471.382C151.607 471.382 152.547 471.609 153.373 472.062C154.213 472.516 154.867 473.169 155.333 474.022C155.813 474.876 156.053 475.876 156.053 477.022C156.053 478.169 155.813 479.169 155.333 480.022C154.867 480.862 154.213 481.509 153.373 481.962C152.547 482.416 151.607 482.642 150.553 482.642C149.5 482.642 148.553 482.416 147.713 481.962C146.887 481.509 146.233 480.862 145.753 480.022C145.273 479.169 145.033 478.169 145.033 477.022C145.033 475.876 145.273 474.876 145.753 474.022C146.233 473.169 146.887 472.516 147.713 472.062C148.553 471.609 149.5 471.382 150.553 471.382ZM150.553 472.982C149.9 472.982 149.293 473.129 148.733 473.422C148.187 473.716 147.74 474.169 147.393 474.782C147.06 475.382 146.893 476.129 146.893 477.022C146.893 477.902 147.06 478.649 147.393 479.262C147.74 479.862 148.187 480.309 148.733 480.602C149.293 480.896 149.9 481.042 150.553 481.042C151.207 481.042 151.807 480.896 152.353 480.602C152.913 480.309 153.36 479.862 153.693 479.262C154.04 478.649 154.213 477.902 154.213 477.022C154.213 476.129 154.04 475.382 153.693 474.782C153.36 474.169 152.913 473.716 152.353 473.422C151.807 473.129 151.207 472.982 150.553 472.982ZM164.205 471.342C165.485 471.342 166.518 471.756 167.305 472.582C168.092 473.396 168.485 474.576 168.485 476.122V482.502H166.665V476.282C166.665 475.189 166.385 474.349 165.825 473.762C165.265 473.176 164.505 472.882 163.545 472.882C162.545 472.882 161.745 473.209 161.145 473.862C160.545 474.502 160.245 475.442 160.245 476.682V482.502H158.425V471.522H160.245V474.122C160.525 473.229 161.018 472.542 161.725 472.062C162.445 471.582 163.272 471.342 164.205 471.342Z" fill="white" fill-opacity="0.95"/>
<path d="M21.5274 640.312C22.1644 621.355 33.9132 602.756 59.4178 592.426C72.2199 587.246 88.4956 584.166 104.831 583.596C121.174 583.026 137.37 584.975 150.041 589.685L150.043 589.685C175.311 599.053 186.595 619.356 184.178 636.543C181.717 653.752 165.336 669.139 138.796 679.44C125.605 684.547 110.106 688.301 95.0037 689.792C79.8705 691.287 65.3298 690.491 53.9666 686.667C31.4799 679.099 20.8859 659.423 21.5274 640.312ZM21.5274 640.312L19.0288 640.228L21.5274 640.312Z" stroke="#FFB800" stroke-width="5"/>
<path d="M65.4265 624.32V630H63.6065V615.9H68.0865C69.6998 615.9 70.9065 616.28 71.7065 617.04C72.5065 617.787 72.9065 618.813 72.9065 620.12C72.9065 621.44 72.4932 622.473 71.6665 623.22C70.8398 623.953 69.6465 624.32 68.0865 624.32H65.4265ZM67.9265 622.8C69.0332 622.8 69.8265 622.567 70.3065 622.1C70.7998 621.633 71.0465 620.973 71.0465 620.12C71.0465 619.24 70.7998 618.573 70.3065 618.12C69.8265 617.653 69.0332 617.42 67.9265 617.42H65.4265V622.8H67.9265ZM76.8523 621.24C77.2123 620.48 77.7389 619.893 78.4323 619.48C79.1256 619.053 79.9523 618.84 80.9123 618.84V620.82H80.3523C79.3256 620.82 78.4856 621.087 77.8323 621.62C77.1789 622.14 76.8523 623.007 76.8523 624.22V630H75.0323V619.02H76.8523V621.24ZM92.808 623.9C92.808 624.287 92.7814 624.62 92.728 624.9H83.948C83.988 626.153 84.3414 627.093 85.008 627.72C85.688 628.347 86.5147 628.66 87.488 628.66C88.368 628.66 89.1014 628.44 89.688 628C90.288 627.547 90.6547 626.947 90.788 626.2H92.728C92.5947 626.96 92.2947 627.64 91.828 628.24C91.3747 628.84 90.7814 629.307 90.048 629.64C89.3147 629.973 88.488 630.14 87.568 630.14C86.5147 630.14 85.5814 629.913 84.768 629.46C83.9547 629.007 83.3147 628.36 82.848 627.52C82.3947 626.667 82.168 625.667 82.168 624.52C82.168 623.373 82.3947 622.373 82.848 621.52C83.3147 620.667 83.9547 620.013 84.768 619.56C85.5814 619.107 86.5147 618.88 87.568 618.88C88.6347 618.88 89.5614 619.107 90.348 619.56C91.148 620.013 91.7547 620.62 92.168 621.38C92.5947 622.14 92.808 622.98 92.808 623.9ZM90.968 624.02C91.008 623.207 90.8747 622.527 90.568 621.98C90.2614 621.433 89.8414 621.027 89.308 620.76C88.7747 620.493 88.1947 620.36 87.568 620.36C86.568 620.36 85.728 620.673 85.048 621.3C84.368 621.913 84.0014 622.82 83.948 624.02H90.968ZM98.6285 618.88C99.8685 618.88 100.862 619.207 101.609 619.86C102.369 620.5 102.829 621.367 102.989 622.46H101.249C101.169 621.807 100.895 621.273 100.429 620.86C99.9752 620.433 99.3618 620.22 98.5885 620.22C97.9352 620.22 97.4218 620.38 97.0485 620.7C96.6885 621.007 96.5085 621.427 96.5085 621.96C96.5085 622.36 96.6285 622.687 96.8685 622.94C97.1218 623.18 97.4285 623.367 97.7885 623.5C98.1618 623.62 98.6685 623.753 99.3085 623.9C100.122 624.087 100.775 624.28 101.269 624.48C101.775 624.667 102.202 624.973 102.549 625.4C102.909 625.827 103.089 626.4 103.089 627.12C103.089 628.013 102.749 628.74 102.069 629.3C101.402 629.86 100.509 630.14 99.3885 630.14C98.0818 630.14 97.0152 629.827 96.1885 629.2C95.3618 628.573 94.8752 627.7 94.7285 626.58H96.4885C96.5552 627.247 96.8418 627.787 97.3485 628.2C97.8685 628.613 98.5485 628.82 99.3885 628.82C100.015 628.82 100.502 628.66 100.849 628.34C101.209 628.02 101.389 627.6 101.389 627.08C101.389 626.653 101.262 626.313 101.009 626.06C100.755 625.807 100.442 625.613 100.069 625.48C99.6952 625.347 99.1818 625.207 98.5285 625.06C97.7152 624.873 97.0618 624.687 96.5685 624.5C96.0885 624.313 95.6752 624.02 95.3285 623.62C94.9952 623.207 94.8285 622.653 94.8285 621.96C94.8285 621.04 95.1685 620.3 95.8485 619.74C96.5285 619.167 97.4552 618.88 98.6285 618.88ZM115.621 623.9C115.621 624.287 115.594 624.62 115.541 624.9H106.761C106.801 626.153 107.154 627.093 107.821 627.72C108.501 628.347 109.327 628.66 110.301 628.66C111.181 628.66 111.914 628.44 112.501 628C113.101 627.547 113.467 626.947 113.601 626.2H115.541C115.407 626.96 115.107 627.64 114.641 628.24C114.187 628.84 113.594 629.307 112.861 629.64C112.127 629.973 111.301 630.14 110.381 630.14C109.327 630.14 108.394 629.913 107.581 629.46C106.767 629.007 106.127 628.36 105.661 627.52C105.207 626.667 104.981 625.667 104.981 624.52C104.981 623.373 105.207 622.373 105.661 621.52C106.127 620.667 106.767 620.013 107.581 619.56C108.394 619.107 109.327 618.88 110.381 618.88C111.447 618.88 112.374 619.107 113.161 619.56C113.961 620.013 114.567 620.62 114.981 621.38C115.407 622.14 115.621 622.98 115.621 623.9ZM113.781 624.02C113.821 623.207 113.687 622.527 113.381 621.98C113.074 621.433 112.654 621.027 112.121 620.76C111.587 620.493 111.007 620.36 110.381 620.36C109.381 620.36 108.541 620.673 107.861 621.3C107.181 621.913 106.814 622.82 106.761 624.02H113.781ZM123.781 618.84C125.061 618.84 126.094 619.253 126.881 620.08C127.668 620.893 128.061 622.073 128.061 623.62V630H126.241V623.78C126.241 622.687 125.961 621.847 125.401 621.26C124.841 620.673 124.081 620.38 123.121 620.38C122.121 620.38 121.321 620.707 120.721 621.36C120.121 622 119.821 622.94 119.821 624.18V630H118.001V619.02H119.821V621.62C120.101 620.727 120.594 620.04 121.301 619.56C122.021 619.08 122.848 618.84 123.781 618.84ZM136.093 628.4V630H134.733C133.613 630 132.773 629.733 132.213 629.2C131.666 628.667 131.393 627.773 131.393 626.52V620.6H129.753V619.02H131.393V616.28H133.233V619.02H136.073V620.6H133.233V626.56C133.233 627.267 133.359 627.753 133.613 628.02C133.879 628.273 134.333 628.4 134.973 628.4H136.093ZM63.8016 645.76C65.5216 645.76 66.9416 646.187 68.0616 647.04C69.1816 647.88 69.9549 649.033 70.3816 650.5H68.4616C68.1016 649.567 67.5216 648.827 66.7216 648.28C65.9216 647.72 64.9416 647.44 63.7816 647.44C62.8616 647.44 62.0349 647.667 61.3016 648.12C60.5816 648.56 60.0082 649.2 59.5816 650.04C59.1682 650.867 58.9616 651.84 58.9616 652.96C58.9616 654.067 59.1682 655.033 59.5816 655.86C60.0082 656.687 60.5816 657.327 61.3016 657.78C62.0349 658.22 62.8616 658.44 63.7816 658.44C64.9416 658.44 65.9216 658.167 66.7216 657.62C67.5216 657.06 68.1016 656.313 68.4616 655.38H70.3816C69.9549 656.847 69.1816 658.007 68.0616 658.86C66.9416 659.7 65.5216 660.12 63.8016 660.12C62.4816 660.12 61.3149 659.82 60.3016 659.22C59.2882 658.607 58.4949 657.76 57.9216 656.68C57.3616 655.587 57.0816 654.347 57.0816 652.96C57.0816 651.56 57.3616 650.313 57.9216 649.22C58.4949 648.127 59.2882 647.28 60.3016 646.68C61.3149 646.067 62.4816 645.76 63.8016 645.76ZM77.7955 648.88C78.8488 648.88 79.7888 649.107 80.6155 649.56C81.4555 650.013 82.1088 650.667 82.5755 651.52C83.0555 652.373 83.2955 653.373 83.2955 654.52C83.2955 655.667 83.0555 656.667 82.5755 657.52C82.1088 658.36 81.4555 659.007 80.6155 659.46C79.7888 659.913 78.8488 660.14 77.7955 660.14C76.7421 660.14 75.7955 659.913 74.9555 659.46C74.1288 659.007 73.4755 658.36 72.9955 657.52C72.5155 656.667 72.2755 655.667 72.2755 654.52C72.2755 653.373 72.5155 652.373 72.9955 651.52C73.4755 650.667 74.1288 650.013 74.9555 649.56C75.7955 649.107 76.7421 648.88 77.7955 648.88ZM77.7955 650.48C77.1421 650.48 76.5355 650.627 75.9755 650.92C75.4288 651.213 74.9821 651.667 74.6355 652.28C74.3021 652.88 74.1355 653.627 74.1355 654.52C74.1355 655.4 74.3021 656.147 74.6355 656.76C74.9821 657.36 75.4288 657.807 75.9755 658.1C76.5355 658.393 77.1421 658.54 77.7955 658.54C78.4488 658.54 79.0488 658.393 79.5955 658.1C80.1555 657.807 80.6021 657.36 80.9355 656.76C81.2821 656.147 81.4555 655.4 81.4555 654.52C81.4555 653.627 81.2821 652.88 80.9355 652.28C80.6021 651.667 80.1555 651.213 79.5955 650.92C79.0488 650.627 78.4488 650.48 77.7955 650.48ZM91.447 648.84C92.727 648.84 93.7604 649.253 94.547 650.08C95.3337 650.893 95.727 652.073 95.727 653.62V660H93.907V653.78C93.907 652.687 93.627 651.847 93.067 651.26C92.507 650.673 91.747 650.38 90.787 650.38C89.787 650.38 88.987 650.707 88.387 651.36C87.787 652 87.487 652.94 87.487 654.18V660H85.667V649.02H87.487V651.62C87.767 650.727 88.2604 650.04 88.967 649.56C89.687 649.08 90.5137 648.84 91.447 648.84ZM103.379 648.88C104.779 648.88 105.939 649.253 106.859 650C107.779 650.747 108.345 651.747 108.559 653H106.639C106.505 652.213 106.139 651.6 105.539 651.16C104.952 650.707 104.219 650.48 103.339 650.48C102.699 650.48 102.112 650.627 101.579 650.92C101.059 651.213 100.639 651.667 100.319 652.28C99.9986 652.88 99.8386 653.627 99.8386 654.52C99.8386 655.413 99.9986 656.167 100.319 656.78C100.639 657.38 101.059 657.827 101.579 658.12C102.112 658.413 102.699 658.56 103.339 658.56C104.219 658.56 104.952 658.333 105.539 657.88C106.139 657.427 106.505 656.807 106.639 656.02H108.559C108.345 657.287 107.779 658.293 106.859 659.04C105.939 659.773 104.779 660.14 103.379 660.14C102.325 660.14 101.392 659.913 100.579 659.46C99.7653 659.007 99.1253 658.36 98.6586 657.52C98.2053 656.667 97.9786 655.667 97.9786 654.52C97.9786 653.373 98.2053 652.373 98.6586 651.52C99.1253 650.667 99.7653 650.013 100.579 649.56C101.392 649.107 102.325 648.88 103.379 648.88ZM121.04 653.9C121.04 654.287 121.014 654.62 120.96 654.9H112.18C112.22 656.153 112.574 657.093 113.24 657.72C113.92 658.347 114.747 658.66 115.72 658.66C116.6 658.66 117.334 658.44 117.92 658C118.52 657.547 118.887 656.947 119.02 656.2H120.96C120.827 656.96 120.527 657.64 120.06 658.24C119.607 658.84 119.014 659.307 118.28 659.64C117.547 659.973 116.72 660.14 115.8 660.14C114.747 660.14 113.814 659.913 113 659.46C112.187 659.007 111.547 658.36 111.08 657.52C110.627 656.667 110.4 655.667 110.4 654.52C110.4 653.373 110.627 652.373 111.08 651.52C111.547 650.667 112.187 650.013 113 649.56C113.814 649.107 114.747 648.88 115.8 648.88C116.867 648.88 117.794 649.107 118.58 649.56C119.38 650.013 119.987 650.62 120.4 651.38C120.827 652.14 121.04 652.98 121.04 653.9ZM119.2 654.02C119.24 653.207 119.107 652.527 118.8 651.98C118.494 651.433 118.074 651.027 117.54 650.76C117.007 650.493 116.427 650.36 115.8 650.36C114.8 650.36 113.96 650.673 113.28 651.3C112.6 651.913 112.234 652.82 112.18 654.02H119.2ZM129.481 648.88C130.454 648.88 131.321 649.107 132.081 649.56C132.841 650.013 133.434 650.667 133.861 651.52C134.301 652.373 134.521 653.373 134.521 654.52C134.521 655.667 134.301 656.667 133.861 657.52C133.434 658.36 132.841 659.007 132.081 659.46C131.321 659.913 130.454 660.14 129.481 660.14C128.414 660.14 127.508 659.873 126.761 659.34C126.028 658.793 125.521 658.08 125.241 657.2V665.2H123.421V649.02H125.241V651.82C125.521 650.94 126.028 650.233 126.761 649.7C127.508 649.153 128.414 648.88 129.481 648.88ZM128.961 650.5C128.254 650.5 127.614 650.667 127.041 651C126.468 651.32 126.021 651.787 125.701 652.4C125.381 653.013 125.221 653.72 125.221 654.52C125.221 655.32 125.381 656.027 125.701 656.64C126.021 657.24 126.468 657.707 127.041 658.04C127.614 658.373 128.254 658.54 128.961 658.54C130.094 658.54 130.994 658.187 131.661 657.48C132.341 656.76 132.681 655.773 132.681 654.52C132.681 653.267 132.341 652.287 131.661 651.58C130.994 650.86 130.094 650.5 128.961 650.5ZM142.138 658.4V660H140.778C139.658 660 138.818 659.733 138.258 659.2C137.711 658.667 137.438 657.773 137.438 656.52V650.6H135.798V649.02H137.438V646.28H139.278V649.02H142.118V650.6H139.278V656.56C139.278 657.267 139.404 657.753 139.658 658.02C139.924 658.273 140.378 658.4 141.018 658.4H142.138Z" fill="white" fill-opacity="0.95"/>
<path d="M101.939 179.061C102.525 179.646 103.475 179.646 104.061 179.061L113.607 169.515C114.192 168.929 114.192 167.979 113.607 167.393C113.021 166.808 112.071 166.808 111.485 167.393L103 175.879L94.5147 167.393C93.9289 166.808 92.9792 166.808 92.3934 167.393C91.8076 167.979 91.8076 168.929 92.3934 169.515L101.939 179.061ZM101.5 158V178H104.5V158H101.5Z" fill="white"/>
<path d="M101.939 369.061C102.525 369.646 103.475 369.646 104.061 369.061L113.607 359.515C114.192 358.929 114.192 357.979 113.607 357.393C113.021 356.808 112.071 356.808 111.485 357.393L103 365.879L94.5147 357.393C93.9289 356.808 92.9792 356.808 92.3934 357.393C91.8076 357.979 91.8076 358.929 92.3934 359.515L101.939 369.061ZM101.5 348V368H104.5V348H101.5Z" fill="white"/>
<path d="M101.939 559.061C102.525 559.646 103.475 559.646 104.061 559.061L113.607 549.515C114.192 548.929 114.192 547.979 113.607 547.393C113.021 546.808 112.071 546.808 111.485 547.393L103 555.879L94.5147 547.393C93.9289 546.808 92.9792 546.808 92.3934 547.393C91.8076 547.979 91.8076 548.929 92.3934 549.515L101.939 559.061ZM101.5 538V558H104.5V538H101.5Z" fill="white"/>
</svg>
