<svg width="197" height="484" viewBox="0 0 197 484" fill="none" xmlns="http://www.w3.org/2000/svg">
<path fill-rule="evenodd" clip-rule="evenodd" d="M0 431.583V254.669C12.7028 249.534 25.7841 246.182 39.3875 245.061C58.3833 243.533 78.3584 246.392 93.7508 256.341C109.104 266.289 119.914 283.326 125.476 301.108C131.077 318.89 131.468 337.416 130.842 357.234C130.215 377.013 128.57 398.124 118.348 414.143C108.164 430.201 89.4034 441.207 70.1333 443.714C52.068 446.069 33.5879 440.923 14.758 435.68C13.5432 435.342 12.3269 435.003 11.1092 434.666C9.91832 434.336 8.72606 434.007 7.53378 433.679C5.01841 432.985 2.50291 432.292 0 431.583Z" fill="#FFB800"/>
<path fill-rule="evenodd" clip-rule="evenodd" d="M190.99 101.04C187.862 90.8402 183.601 80.1642 175.735 76.5376C167.87 72.9109 156.47 72.4373 145.408 73.0719C134.347 73.7066 123.579 75.4722 113.651 78.1469C103.723 80.8216 94.5205 88.3469 89.4205 98.1389C84.3205 107.931 83.3232 120.012 85.3858 131.346C87.4712 142.679 92.6392 153.287 101.049 158.704C108.118 163.271 117.491 164.165 126.371 165.012C128.025 165.17 129.662 165.326 131.263 165.504C141.441 166.638 149.906 166.248 157.408 164.072C164.934 161.896 171.497 157.956 178.025 151.292C184.553 144.628 191.33 137.67 193.71 129.328C196.09 120.987 194.118 111.24 190.99 101.04Z" fill="#00CAB2"/>
</svg>
