<svg id="Layer_1" data-name="Layer 1" xmlns="http://www.w3.org/2000/svg" viewBox="0 0 324 57"><defs><style>.cls-1{fill:#19191e;}.cls-2{fill:#00cab2;}.cls-3{fill:#ff8368;}.cls-4{fill:#ffb800;}</style></defs><title>Artboard 4</title><path class="cls-1" d="M29.55,15.18A15.6,15.6,0,0,0,23.05,9a21.28,21.28,0,0,0-9.6-2.2H1.25v34.9h12.2a19.31,19.31,0,0,0,9.6-2.2,15,15,0,0,0,6.5-6,18.15,18.15,0,0,0,2.3-9.2A17.81,17.81,0,0,0,29.55,15.18Zm-7.9,17.7c-2,2-4.8,3-8.5,3h-5v-23h5c3.7,0,6.5,1,8.5,3.1a11.76,11.76,0,0,1,3,8.5Q24.65,29.88,21.65,32.88Z"/><path class="cls-1" d="M62.75,27.38a13.61,13.61,0,0,0-1.8-7.1,12.56,12.56,0,0,0-4.8-4.9,14.81,14.81,0,0,0-7-1.7,14.16,14.16,0,0,0-7.2,1.8,12.47,12.47,0,0,0-4.9,5,15.6,15.6,0,0,0-1.8,7.6,15.5,15.5,0,0,0,1.8,7.5,12.05,12.05,0,0,0,5,5,14.19,14.19,0,0,0,7.2,1.8,13.81,13.81,0,0,0,8.3-2.5,12.27,12.27,0,0,0,4.6-6.6h-7.5a5.83,5.83,0,0,1-5.5,3.4,6.42,6.42,0,0,1-4.5-1.7,7.12,7.12,0,0,1-2.1-4.7h20.2Zm-20.4-2a7.09,7.09,0,0,1,2.1-4.3,6.3,6.3,0,0,1,4.4-1.6,6.74,6.74,0,0,1,4.6,1.7,5.71,5.71,0,0,1,2,4.3H42.35Z"/><path class="cls-1" d="M78.45,42.28a14.73,14.73,0,0,1-6.1-1.2,12,12,0,0,1-4.3-3.3,9,9,0,0,1-1.7-4.7h7.1a3.75,3.75,0,0,0,1.5,2.7,5.54,5.54,0,0,0,3.5,1,5.46,5.46,0,0,0,3.1-.8,2.33,2.33,0,0,0,1.2-2.1,2.14,2.14,0,0,0-1.4-2,19.07,19.07,0,0,0-4.3-1.5,41.36,41.36,0,0,1-5.1-1.5,8.18,8.18,0,0,1-3.4-2.5,6.83,6.83,0,0,1-1.4-4.4,7.24,7.24,0,0,1,1.3-4.2,8.88,8.88,0,0,1,3.8-3,15.18,15.18,0,0,1,5.8-1.1,11.74,11.74,0,0,1,7.9,2.5,8.42,8.42,0,0,1,3.2,6.6h-6.7a3.6,3.6,0,0,0-1.4-2.6,4.73,4.73,0,0,0-3.2-1,5.43,5.43,0,0,0-3,.7,2.23,2.23,0,0,0-1,2,2.5,2.5,0,0,0,1.4,2.2,20.69,20.69,0,0,0,4.3,1.5,47.22,47.22,0,0,1,5,1.5,8.16,8.16,0,0,1,3.3,2.5,6.33,6.33,0,0,1,1.5,4.4,7.24,7.24,0,0,1-1.3,4.3,8.19,8.19,0,0,1-3.8,3A16.39,16.39,0,0,1,78.45,42.28Z"/><rect class="cls-1" x="95.15" y="14.08" width="7" height="27.7"/><path class="cls-1" d="M129.05,14.08v4a10.57,10.57,0,0,0-3.7-3.2,12.53,12.53,0,0,0-16.5,5.6,16.7,16.7,0,0,0-1.7,7.5,15.13,15.13,0,0,0,1.7,7.5,12.72,12.72,0,0,0,4.6,5.1,11.87,11.87,0,0,0,6.4,1.8,10.68,10.68,0,0,0,5.4-1.3,12,12,0,0,0,3.8-3.2v4.3c0,2.5-.6,4.3-1.9,5.5a7,7,0,0,1-5,1.8,9.31,9.31,0,0,1-4.5-1.1,4.6,4.6,0,0,1-2.3-3h-7a10.26,10.26,0,0,0,4.2,7.5,16.28,16.28,0,0,0,9.7,2.8,14.85,14.85,0,0,0,7.5-1.8,12,12,0,0,0,4.7-4.8,15,15,0,0,0,1.5-6.8V14.38h-6.9Zm-1,18.3a8,8,0,0,1-2.7,2.8,7.74,7.74,0,0,1-3.7,1,6.47,6.47,0,0,1-3.6-1,8.13,8.13,0,0,1-2.7-2.8,8.94,8.94,0,0,1-1-4.4,8.39,8.39,0,0,1,1-4.3,7.41,7.41,0,0,1,2.7-2.8,7.61,7.61,0,0,1,3.6-1,7.19,7.19,0,0,1,3.7,1,7.33,7.33,0,0,1,2.7,2.8,8.65,8.65,0,0,1,1,4.4A8.67,8.67,0,0,1,128.05,32.38Z"/><path class="cls-1" d="M158.25,13.68a10.56,10.56,0,0,1,8,3.1,12.16,12.16,0,0,1,3.1,8.7v16.2h-7V26.38a6.86,6.86,0,0,0-1.7-5,5.84,5.84,0,0,0-4.5-1.8,6,6,0,0,0-4.6,1.8,7,7,0,0,0-1.7,5v15.3h-7V14h7v3.5a9.31,9.31,0,0,1,3.6-2.8A13.17,13.17,0,0,1,158.25,13.68Z"/><rect class="cls-1" x="205.15" y="4.78" width="7" height="37"/><path class="cls-1" d="M250.05,28a14.88,14.88,0,0,1,1.8-7.5,12.88,12.88,0,0,1,4.8-5,14,14,0,0,1,7.1-1.8,13.67,13.67,0,0,1,8.5,2.6,12.41,12.41,0,0,1,4.6,7.2h-7.6a5.73,5.73,0,0,0-2-2.8,5.65,5.65,0,0,0-3.5-1,5.81,5.81,0,0,0-4.8,2.2c-1.2,1.4-1.8,3.5-1.8,6.2a9.24,9.24,0,0,0,1.8,6.1,6.07,6.07,0,0,0,4.8,2.2,5.26,5.26,0,0,0,5.5-3.8h7.6a12.5,12.5,0,0,1-4.6,7.1,13.23,13.23,0,0,1-8.5,2.7,13.83,13.83,0,0,1-7.1-1.8,12.11,12.11,0,0,1-4.8-5A16.15,16.15,0,0,1,250.05,28Z"/><path class="cls-1" d="M302,14.08v4a11,11,0,0,0-3.8-3.2,11.35,11.35,0,0,0-5.4-1.2,12,12,0,0,0-11,6.8,16.7,16.7,0,0,0-1.7,7.5,16.23,16.23,0,0,0,1.7,7.5,13.11,13.11,0,0,0,4.5,5.1,12.68,12.68,0,0,0,11.9.6A13.15,13.15,0,0,0,302,38v4h7V14.28h-7Zm-1,18.3a8,8,0,0,1-2.7,2.8,7.74,7.74,0,0,1-3.7,1,6.47,6.47,0,0,1-3.6-1,8.13,8.13,0,0,1-2.7-2.8,8.94,8.94,0,0,1-1-4.4,8.39,8.39,0,0,1,1-4.3,7.41,7.41,0,0,1,2.7-2.8,7.61,7.61,0,0,1,3.6-1,7.19,7.19,0,0,1,3.7,1,7.33,7.33,0,0,1,2.7,2.8,8.65,8.65,0,0,1,1,4.4A8.67,8.67,0,0,1,301,32.38Z"/><rect class="cls-1" x="315.85" y="4.78" width="7" height="37"/><circle class="cls-2" cx="98.75" cy="5.78" r="5"/><circle class="cls-3" cx="187.75" cy="35.78" r="6"/><circle class="cls-4" cx="231.25" cy="28.28" r="13.5"/></svg>