<?xml version="1.0" encoding="utf-8"?>
<!-- Generator: Adobe Illustrator 23.1.1, SVG Export Plug-In . SVG Version: 6.00 Build 0)  -->
<svg version="1.1" id="Layer_1" xmlns="http://www.w3.org/2000/svg" xmlns:xlink="http://www.w3.org/1999/xlink" x="0px" y="0px"
	 viewBox="0 0 332 75" style="enable-background:new 0 0 332 75;" xml:space="preserve">
<style type="text/css">
	.st0{fill:#FFFFFF;}
	.st1{fill:#00CAB2;}
	.st2{fill:#FF8368;}
	.st3{fill:#FFB800;}
</style>
<g id="white">
	<path class="st0" d="M31.8,28.4c-1.5-2.7-3.7-4.7-6.5-6.2c-2.8-1.4-6-2.2-9.6-2.2H3.5v35h12.2c3.7,0,6.9-0.7,9.6-2.2
		c2.8-1.4,5-3.4,6.5-6s2.3-5.7,2.3-9.2S33.3,31,31.8,28.4z M23.9,46c-2,2-4.8,3-8.5,3h-5V26h5c3.7,0,6.5,1,8.5,3.1c2,2,3,4.9,3,8.5
		S25.9,44,23.9,46z"/>
	<path class="st0" d="M65,40.5c0-2.7-0.6-5.1-1.8-7.1c-1.1-2.1-2.8-3.7-4.8-4.9c-2.1-1.1-4.4-1.7-7-1.7c-2.7,0-5.2,0.6-7.2,1.8
		c-2.1,1.2-3.7,2.8-4.9,5s-1.8,4.7-1.8,7.6c0,2.8,0.6,5.3,1.8,7.5s2.8,3.8,5,5c2.1,1.2,4.5,1.8,7.2,1.8c3.3,0,6.1-0.9,8.3-2.5
		c2.3-1.7,3.8-3.9,4.6-6.6h-7.5c-1.1,2.2-3,3.4-5.5,3.4c-1.8,0-3.3-0.6-4.5-1.7c-1.2-1.1-1.9-2.7-2.1-4.7H65
		C65,42.5,65,41.5,65,40.5z M44.6,38.5c0.3-1.9,1-3.3,2.1-4.3c1.2-1.1,2.7-1.6,4.4-1.6c1.8,0,3.4,0.6,4.6,1.7c1.3,1.1,1.9,2.5,2,4.3
		H44.6V38.5z"/>
	<path class="st0" d="M80.7,55.5c-2.3,0-4.3-0.4-6.1-1.2c-1.8-0.8-3.2-2-4.3-3.3c-1-1.4-1.6-3-1.7-4.7h7.1c0.1,1.1,0.6,2,1.5,2.7
		s2.1,1,3.5,1c1.3,0,2.4-0.3,3.1-0.8c0.8-0.5,1.2-1.2,1.2-2.1c0-0.9-0.5-1.6-1.4-2c-0.9-0.5-2.3-1-4.3-1.5c-2.1-0.5-3.8-1-5.1-1.5
		c-1.3-0.5-2.4-1.3-3.4-2.5c-0.9-1.1-1.4-2.6-1.4-4.4c0-1.5,0.4-2.9,1.3-4.2s2.2-2.3,3.8-3c1.7-0.7,3.6-1.1,5.8-1.1
		c3.3,0,5.9,0.8,7.9,2.5c2,1.6,3.1,3.9,3.2,6.6h-6.7c-0.1-1.1-0.6-2-1.4-2.6c-0.8-0.7-1.9-1-3.2-1c-1.3,0-2.2,0.2-3,0.7
		c-0.7,0.5-1,1.1-1,2s0.5,1.7,1.4,2.2s2.4,1,4.3,1.5c2,0.5,3.7,1,5,1.5s2.4,1.4,3.3,2.5c1,1.1,1.5,2.6,1.5,4.4c0,1.6-0.4,3-1.3,4.3
		s-2.1,2.3-3.8,3C84.9,55.1,82.9,55.5,80.7,55.5z"/>
	<rect x="97.4" y="27.3" class="st0" width="7" height="27.7"/>
	<path class="st0" d="M131.3,27.3v4c-0.9-1.3-2.1-2.3-3.7-3.2c-1.6-0.8-3.4-1.2-5.5-1.2c-2.4,0-4.5,0.6-6.5,1.8
		c-1.9,1.2-3.4,2.8-4.5,5s-1.7,4.7-1.7,7.5s0.5,5.4,1.7,7.5c1.1,2.2,2.7,3.9,4.6,5.1c1.9,1.2,4.1,1.8,6.4,1.8c2,0,3.8-0.4,5.4-1.3
		c1.6-0.9,2.9-2,3.8-3.2v4.3c0,2.5-0.6,4.3-1.9,5.5c-1.3,1.2-2.9,1.8-5,1.8c-1.7,0-3.2-0.4-4.5-1.1c-1.2-0.7-2-1.7-2.3-3h-7
		c0.3,3.2,1.8,5.7,4.2,7.5c2.5,1.8,5.8,2.8,9.7,2.8c2.9,0,5.4-0.6,7.5-1.8c2.1-1.2,3.6-2.8,4.7-4.8c1-2,1.5-4.3,1.5-6.8V27.3H131.3z
		 M130.3,45.5c-0.7,1.2-1.6,2.1-2.7,2.8c-1.1,0.6-2.4,1-3.7,1c-1.3,0-2.5-0.3-3.6-1s-2-1.6-2.7-2.8c-0.7-1.3-1-2.7-1-4.4
		s0.3-3.1,1-4.3s1.6-2.2,2.7-2.8s2.3-1,3.6-1s2.5,0.3,3.7,1c1.1,0.6,2,1.6,2.7,2.8s1,2.7,1,4.4C131.3,42.8,131,44.3,130.3,45.5z"/>
	<path class="st0" d="M160.5,26.9c3.3,0,6,1.1,8,3.1c2,2.1,3.1,5,3.1,8.7V55h-7V39.7c0-2.2-0.6-3.9-1.7-5c-1.1-1.2-2.6-1.8-4.5-1.8
		s-3.5,0.6-4.6,1.8s-1.7,2.8-1.7,5V55h-7V27.3h7v3.5c0.9-1.2,2.1-2.1,3.6-2.8C157.2,27.2,158.8,26.9,160.5,26.9z"/>
	<rect x="207.4" y="18" class="st0" width="7" height="37"/>
	<path class="st0" d="M255.3,41.2c0-2.9,0.6-5.4,1.8-7.5c1.2-2.2,2.8-3.8,4.8-5c2.1-1.2,4.4-1.8,7.1-1.8c3.4,0,6.3,0.9,8.5,2.6
		c2.3,1.7,3.8,4.1,4.6,7.2h-7.6c-0.4-1.2-1.1-2.1-2-2.8s-2.1-1-3.5-1c-2,0-3.6,0.7-4.8,2.2c-1.2,1.4-1.8,3.5-1.8,6.2
		c0,2.6,0.6,4.7,1.8,6.1c1.2,1.4,2.8,2.2,4.8,2.2c2.8,0,4.7-1.3,5.5-3.8h7.6c-0.8,3-2.3,5.4-4.6,7.1c-2.3,1.8-5.1,2.7-8.5,2.7
		c-2.7,0-5-0.6-7.1-1.8s-3.7-2.9-4.8-5C255.9,46.5,255.3,44,255.3,41.2z"/>
	<path class="st0" d="M307.2,27.3v4c-0.9-1.3-2.2-2.3-3.8-3.2c-1.5-0.8-3.3-1.2-5.4-1.2c-2.4,0-4.5,0.6-6.5,1.8
		c-1.9,1.2-3.4,2.8-4.5,5s-1.7,4.7-1.7,7.5s0.6,5.4,1.7,7.5c1.1,2.2,2.7,3.9,4.5,5.1c1.9,1.2,4.1,1.8,6.4,1.8c2.1,0,3.9-0.4,5.5-1.2
		c1.6-0.9,2.8-2,3.8-3.2v4h7V27.3H307.2z M306.2,45.5c-0.7,1.2-1.6,2.1-2.7,2.8c-1.1,0.6-2.4,1-3.7,1c-1.3,0-2.5-0.3-3.6-1
		s-2-1.6-2.7-2.8c-0.7-1.3-1-2.7-1-4.4s0.3-3.1,1-4.3s1.6-2.2,2.7-2.8s2.3-1,3.6-1s2.5,0.3,3.7,1c1.1,0.6,2,1.6,2.7,2.8s1,2.7,1,4.4
		C307.2,42.8,306.9,44.3,306.2,45.5z"/>
	<rect x="321.1" y="18" class="st0" width="7" height="37"/>
	<circle class="st1" cx="101" cy="19" r="5"/>
	<circle class="st2" cx="190" cy="49" r="6"/>
	<circle class="st3" cx="233.5" cy="41.5" r="13.5"/>
</g>
</svg>
