<svg width="332" height="75" viewBox="0 0 332 75" fill="none" xmlns="http://www.w3.org/2000/svg">
<path d="M15.65 20.1C19.3167 20.1 22.5333 20.8167 25.3 22.25C28.1 23.6833 30.25 25.7333 31.75 28.4C33.2833 31.0333 34.05 34.1 34.05 37.6C34.05 41.1 33.2833 44.1667 31.75 46.8C30.25 49.4 28.1 51.4167 25.3 52.85C22.5333 54.2833 19.3167 55 15.65 55H3.45V20.1H15.65ZM15.4 49.05C19.0667 49.05 21.9 48.05 23.9 46.05C25.9 44.05 26.9 41.2333 26.9 37.6C26.9 33.9667 25.9 31.1333 23.9 29.1C21.9 27.0333 19.0667 26 15.4 26H10.45V49.05H15.4ZM65.0398 40.55C65.0398 41.55 64.9732 42.45 64.8398 43.25H44.5898C44.7565 45.25 45.4565 46.8167 46.6898 47.95C47.9232 49.0833 49.4398 49.65 51.2398 49.65C53.8398 49.65 55.6898 48.5333 56.7898 46.3H64.3398C63.5398 48.9667 62.0065 51.1667 59.7398 52.9C57.4732 54.6 54.6898 55.45 51.3898 55.45C48.7232 55.45 46.3232 54.8667 44.1898 53.7C42.0898 52.5 40.4398 50.8167 39.2398 48.65C38.0732 46.4833 37.4898 43.9833 37.4898 41.15C37.4898 38.2833 38.0732 35.7667 39.2398 33.6C40.4065 31.4333 42.0398 29.7667 44.1398 28.6C46.2398 27.4333 48.6565 26.85 51.3898 26.85C54.0232 26.85 56.3732 27.4167 58.4398 28.55C60.5398 29.6833 62.1565 31.3 63.2898 33.4C64.4565 35.4667 65.0398 37.85 65.0398 40.55ZM57.7898 38.55C57.7565 36.75 57.1065 35.3167 55.8398 34.25C54.5732 33.15 53.0232 32.6 51.1898 32.6C49.4565 32.6 47.9898 33.1333 46.7898 34.2C45.6232 35.2333 44.9065 36.6833 44.6398 38.55H57.7898ZM80.7492 55.45C78.4826 55.45 76.4492 55.05 74.6492 54.25C72.8492 53.4167 71.4159 52.3 70.3492 50.9C69.3159 49.5 68.7492 47.95 68.6492 46.25H75.6992C75.8326 47.3167 76.3492 48.2 77.2492 48.9C78.1826 49.6 79.3326 49.95 80.6992 49.95C82.0326 49.95 83.0659 49.6833 83.7992 49.15C84.5659 48.6167 84.9492 47.9333 84.9492 47.1C84.9492 46.2 84.4826 45.5333 83.5492 45.1C82.6492 44.6333 81.1992 44.1333 79.1992 43.6C77.1326 43.1 75.4326 42.5833 74.0992 42.05C72.7992 41.5167 71.6659 40.7 70.6992 39.6C69.7659 38.5 69.2992 37.0167 69.2992 35.15C69.2992 33.6167 69.7326 32.2167 70.5992 30.95C71.4992 29.6833 72.7659 28.6833 74.3992 27.95C76.0659 27.2167 78.0159 26.85 80.2492 26.85C83.5492 26.85 86.1826 27.6833 88.1492 29.35C90.1159 30.9833 91.1992 33.2 91.3992 36H84.6992C84.5992 34.9 84.1326 34.0333 83.2992 33.4C82.4992 32.7333 81.4159 32.4 80.0492 32.4C78.7826 32.4 77.7992 32.6333 77.0992 33.1C76.4326 33.5667 76.0992 34.2167 76.0992 35.05C76.0992 35.9833 76.5659 36.7 77.4992 37.2C78.4326 37.6667 79.8826 38.15 81.8492 38.65C83.8492 39.15 85.4992 39.6667 86.7992 40.2C88.0992 40.7333 89.2159 41.5667 90.1492 42.7C91.1159 43.8 91.6159 45.2667 91.6492 47.1C91.6492 48.7 91.1992 50.1333 90.2992 51.4C89.4326 52.6667 88.1659 53.6667 86.4992 54.4C84.8659 55.1 82.9492 55.45 80.7492 55.45ZM100.945 24C99.712 24 98.6786 23.6167 97.8453 22.85C97.0453 22.05 96.6453 21.0667 96.6453 19.9C96.6453 18.7333 97.0453 17.7667 97.8453 17C98.6786 16.2 99.712 15.8 100.945 15.8C102.179 15.8 103.195 16.2 103.995 17C104.829 17.7667 105.245 18.7333 105.245 19.9C105.245 21.0667 104.829 22.05 103.995 22.85C103.195 23.6167 102.179 24 100.945 24ZM104.395 27.3V55H97.3953V27.3H104.395ZM122.161 26.85C124.228 26.85 126.045 27.2667 127.611 28.1C129.178 28.9 130.411 29.95 131.311 31.25V27.3H138.361V55.2C138.361 57.7667 137.845 60.05 136.811 62.05C135.778 64.0833 134.228 65.6833 132.161 66.85C130.095 68.05 127.595 68.65 124.661 68.65C120.728 68.65 117.495 67.7333 114.961 65.9C112.461 64.0667 111.045 61.5667 110.711 58.4H117.661C118.028 59.6667 118.811 60.6667 120.011 61.4C121.245 62.1667 122.728 62.55 124.461 62.55C126.495 62.55 128.145 61.9333 129.411 60.7C130.678 59.5 131.311 57.6667 131.311 55.2V50.9C130.411 52.2 129.161 53.2833 127.561 54.15C125.995 55.0167 124.195 55.45 122.161 55.45C119.828 55.45 117.695 54.85 115.761 53.65C113.828 52.45 112.295 50.7667 111.161 48.6C110.061 46.4 109.511 43.8833 109.511 41.05C109.511 38.25 110.061 35.7667 111.161 33.6C112.295 31.4333 113.811 29.7667 115.711 28.6C117.645 27.4333 119.795 26.85 122.161 26.85ZM131.311 41.15C131.311 39.45 130.978 38 130.311 36.8C129.645 35.5667 128.745 34.6333 127.611 34C126.478 33.3333 125.261 33 123.961 33C122.661 33 121.461 33.3167 120.361 33.95C119.261 34.5833 118.361 35.5167 117.661 36.75C116.995 37.95 116.661 39.3833 116.661 41.05C116.661 42.7167 116.995 44.1833 117.661 45.45C118.361 46.6833 119.261 47.6333 120.361 48.3C121.495 48.9667 122.695 49.3 123.961 49.3C125.261 49.3 126.478 48.9833 127.611 48.35C128.745 47.6833 129.645 46.75 130.311 45.55C130.978 44.3167 131.311 42.85 131.311 41.15ZM160.548 26.9C163.848 26.9 166.515 27.95 168.548 30.05C170.581 32.1167 171.598 35.0167 171.598 38.75V55H164.598V39.7C164.598 37.5 164.048 35.8167 162.948 34.65C161.848 33.45 160.348 32.85 158.448 32.85C156.515 32.85 154.981 33.45 153.848 34.65C152.748 35.8167 152.198 37.5 152.198 39.7V55H145.198V27.3H152.198V30.75C153.131 29.55 154.315 28.6167 155.748 27.95C157.215 27.25 158.815 26.9 160.548 26.9Z" fill="white"/>
<path d="M214.45 18V55H207.45V18H214.45ZM255.308 41.15C255.308 38.2833 255.892 35.7833 257.058 33.65C258.225 31.4833 259.842 29.8167 261.908 28.65C263.975 27.45 266.342 26.85 269.008 26.85C272.442 26.85 275.275 27.7167 277.508 29.45C279.775 31.15 281.292 33.55 282.058 36.65H274.508C274.108 35.45 273.425 34.5167 272.458 33.85C271.525 33.15 270.358 32.8 268.958 32.8C266.958 32.8 265.375 33.5333 264.208 35C263.042 36.4333 262.458 38.4833 262.458 41.15C262.458 43.7833 263.042 45.8333 264.208 47.3C265.375 48.7333 266.958 49.45 268.958 49.45C271.792 49.45 273.642 48.1833 274.508 45.65H282.058C281.292 48.65 279.775 51.0333 277.508 52.8C275.242 54.5667 272.408 55.45 269.008 55.45C266.342 55.45 263.975 54.8667 261.908 53.7C259.842 52.5 258.225 50.8333 257.058 48.7C255.892 46.5333 255.308 44.0167 255.308 41.15ZM285.386 41.05C285.386 38.25 285.936 35.7667 287.036 33.6C288.17 31.4333 289.686 29.7667 291.586 28.6C293.52 27.4333 295.67 26.85 298.036 26.85C300.103 26.85 301.903 27.2667 303.436 28.1C305.003 28.9333 306.253 29.9833 307.186 31.25V27.3H314.236V55H307.186V50.95C306.286 52.25 305.036 53.3333 303.436 54.2C301.87 55.0333 300.053 55.45 297.986 55.45C295.653 55.45 293.52 54.85 291.586 53.65C289.686 52.45 288.17 50.7667 287.036 48.6C285.936 46.4 285.386 43.8833 285.386 41.05ZM307.186 41.15C307.186 39.45 306.853 38 306.186 36.8C305.52 35.5667 304.62 34.6333 303.486 34C302.353 33.3333 301.136 33 299.836 33C298.536 33 297.336 33.3167 296.236 33.95C295.136 34.5833 294.236 35.5167 293.536 36.75C292.87 37.95 292.536 39.3833 292.536 41.05C292.536 42.7167 292.87 44.1833 293.536 45.45C294.236 46.6833 295.136 47.6333 296.236 48.3C297.37 48.9667 298.57 49.3 299.836 49.3C301.136 49.3 302.353 48.9833 303.486 48.35C304.62 47.6833 305.52 46.75 306.186 45.55C306.853 44.3167 307.186 42.85 307.186 41.15ZM328.073 18V55H321.073V18H328.073Z" fill="white"/>
<circle cx="101" cy="19" r="5" fill="#00CAB2"/>
<circle cx="190" cy="49" r="6" fill="#FF8368"/>
<circle cx="233.5" cy="41.5" r="13.5" fill="#FFB800"/>
</svg>
