<svg width="317" height="54" viewBox="0 0 317 54" fill="none" xmlns="http://www.w3.org/2000/svg">
<path d="M207.148 3V40H200.148V3H207.148Z" fill="white"/>
<path d="M244.148 26.2C244.148 23.3333 244.731 20.8333 245.898 18.7C247.065 16.5333 248.681 14.8667 250.748 13.7C252.815 12.5 255.181 11.9 257.848 11.9C261.281 11.9 264.115 12.7667 266.348 14.5C268.615 16.2 270.131 18.6 270.898 21.7H263.348C262.948 20.5 262.265 19.5667 261.298 18.9C260.365 18.2 259.198 17.85 257.798 17.85C255.798 17.85 254.215 18.5833 253.048 20.05C251.881 21.4833 251.298 23.5333 251.298 26.2C251.298 28.8333 251.881 30.8833 253.048 32.35C254.215 33.7833 255.798 34.5 257.798 34.5C260.631 34.5 262.481 33.2333 263.348 30.7H270.898C270.131 33.7 268.615 36.0833 266.348 37.85C264.081 39.6167 261.248 40.5 257.848 40.5C255.181 40.5 252.815 39.9167 250.748 38.75C248.681 37.55 247.065 35.8833 245.898 33.75C244.731 31.5833 244.148 29.0667 244.148 26.2Z" fill="white"/>
<path d="M274.226 26.1C274.226 23.3 274.776 20.8167 275.876 18.65C277.01 16.4833 278.526 14.8167 280.426 13.65C282.36 12.4833 284.51 11.9 286.876 11.9C288.943 11.9 290.743 12.3167 292.276 13.15C293.843 13.9833 295.093 15.0333 296.026 16.3V12.35H303.076V40.05H296.026V36C295.126 37.3 293.876 38.3833 292.276 39.25C290.71 40.0833 288.893 40.5 286.826 40.5C284.493 40.5 282.36 39.9 280.426 38.7C278.526 37.5 277.01 35.8167 275.876 33.65C274.776 31.45 274.226 28.9333 274.226 26.1ZM296.026 26.2C296.026 24.5 295.693 23.05 295.026 21.85C294.36 20.6167 293.46 19.6833 292.326 19.05C291.193 18.3833 289.976 18.05 288.676 18.05C287.376 18.05 286.176 18.3667 285.076 19C283.976 19.6333 283.076 20.5667 282.376 21.8C281.71 23 281.376 24.4333 281.376 26.1C281.376 27.7667 281.71 29.2333 282.376 30.5C283.076 31.7333 283.976 32.6833 285.076 33.35C286.21 34.0167 287.41 34.35 288.676 34.35C289.976 34.35 291.193 34.0333 292.326 33.4C293.46 32.7333 294.36 31.8 295.026 30.6C295.693 29.3667 296.026 27.9 296.026 26.2Z" fill="white"/>
<path d="M316.913 3.05V40.05H309.913V3.05H316.913Z" fill="white"/>
<path d="M239.148 26.5C239.148 33.9558 233.104 40 225.648 40C218.192 40 212.148 33.9558 212.148 26.5C212.148 19.0442 218.192 13 225.648 13C233.104 13 239.148 19.0442 239.148 26.5Z" fill="#FFB800"/>
<path d="M190.148 34C190.148 37.3137 187.462 40 184.148 40C180.834 40 178.148 37.3137 178.148 34C178.148 30.6863 180.834 28 184.148 28C187.462 28 190.148 30.6863 190.148 34Z" fill="#FF8368"/>
<path d="M12.2 5.09998C15.8667 5.09998 19.0833 5.81664 21.85 7.24997C24.65 8.68331 26.8 10.7333 28.3 13.4C29.8333 16.0333 30.6 19.1 30.6 22.6C30.6 26.1 29.8333 29.1666 28.3 31.8C26.8 34.4 24.65 36.4166 21.85 37.85C19.0833 39.2833 15.8667 40 12.2 40H0V5.09998H12.2ZM11.95 34.05C15.6167 34.05 18.45 33.05 20.45 31.05C22.45 29.05 23.45 26.2333 23.45 22.6C23.45 18.9666 22.45 16.1333 20.45 14.1C18.45 12.0333 15.6167 11 11.95 11H7V34.05H11.95Z" fill="white"/>
<path d="M61.5898 25.55C61.5898 26.55 61.5232 27.45 61.3898 28.25H41.1398C41.3065 30.25 42.0065 31.8166 43.2398 32.95C44.4732 34.0833 45.9898 34.65 47.7898 34.65C50.3898 34.65 52.2398 33.5333 53.3398 31.3H60.8898C60.0898 33.9666 58.5565 36.1666 56.2898 37.9C54.0232 39.6 51.2398 40.45 47.9398 40.45C45.2732 40.45 42.8732 39.8666 40.7398 38.7C38.6398 37.5 36.9898 35.8166 35.7898 33.65C34.6232 31.4833 34.0398 28.9833 34.0398 26.15C34.0398 23.2833 34.6232 20.7666 35.7898 18.6C36.9565 16.4333 38.5898 14.7666 40.6898 13.6C42.7898 12.4333 45.2065 11.85 47.9398 11.85C50.5732 11.85 52.9232 12.4166 54.9898 13.55C57.0898 14.6833 58.7065 16.3 59.8398 18.4C61.0065 20.4666 61.5898 22.85 61.5898 25.55ZM54.3398 23.55C54.3065 21.75 53.6565 20.3166 52.3898 19.25C51.1232 18.15 49.5732 17.6 47.7398 17.6C46.0065 17.6 44.5398 18.1333 43.3398 19.2C42.1732 20.2333 41.4565 21.6833 41.1898 23.55H54.3398Z" fill="white"/>
<path d="M77.2992 40.45C75.0325 40.45 72.9992 40.05 71.1992 39.25C69.3992 38.4166 67.9659 37.3 66.8992 35.9C65.8659 34.5 65.2992 32.95 65.1992 31.25H72.2492C72.3826 32.3166 72.8992 33.2 73.7992 33.9C74.7326 34.6 75.8826 34.95 77.2492 34.95C78.5826 34.95 79.6159 34.6833 80.3492 34.15C81.1159 33.6166 81.4992 32.9333 81.4992 32.1C81.4992 31.2 81.0326 30.5333 80.0992 30.1C79.1992 29.6333 77.7492 29.1333 75.7492 28.6C73.6826 28.1 71.9826 27.5833 70.6492 27.05C69.3492 26.5166 68.2159 25.7 67.2492 24.6C66.3159 23.5 65.8492 22.0166 65.8492 20.15C65.8492 18.6166 66.2825 17.2166 67.1492 15.95C68.0492 14.6833 69.3159 13.6833 70.9492 12.95C72.6159 12.2166 74.5659 11.85 76.7992 11.85C80.0992 11.85 82.7326 12.6833 84.6992 14.35C86.6659 15.9833 87.7492 18.2 87.9492 21H81.2492C81.1492 19.9 80.6826 19.0333 79.8492 18.4C79.0492 17.7333 77.9659 17.4 76.5992 17.4C75.3326 17.4 74.3492 17.6333 73.6492 18.1C72.9826 18.5666 72.6492 19.2166 72.6492 20.05C72.6492 20.9833 73.1159 21.7 74.0492 22.2C74.9826 22.6666 76.4325 23.15 78.3992 23.65C80.3992 24.15 82.0492 24.6666 83.3492 25.2C84.6492 25.7333 85.7659 26.5666 86.6992 27.7C87.6659 28.8 88.1659 30.2666 88.1992 32.1C88.1992 33.7 87.7492 35.1333 86.8492 36.4C85.9826 37.6666 84.7159 38.6666 83.0492 39.4C81.4159 40.1 79.4992 40.45 77.2992 40.45Z" fill="white"/>
<path d="M100.945 12.3V40H93.9453V12.3H100.945Z" fill="white"/>
<path d="M118.711 11.85C120.778 11.85 122.595 12.2666 124.161 13.1C125.728 13.9 126.961 14.95 127.861 16.25V12.3H134.911V40.2C134.911 42.7666 134.395 45.05 133.361 47.05C132.328 49.0833 130.778 50.6833 128.711 51.85C126.645 53.05 124.145 53.65 121.211 53.65C117.278 53.65 114.045 52.7333 111.511 50.9C109.011 49.0666 107.595 46.5666 107.261 43.4H114.211C114.578 44.6666 115.361 45.6666 116.561 46.4C117.795 47.1666 119.278 47.55 121.011 47.55C123.045 47.55 124.695 46.9333 125.961 45.7C127.228 44.5 127.861 42.6666 127.861 40.2V35.9C126.961 37.2 125.711 38.2833 124.111 39.15C122.545 40.0166 120.745 40.45 118.711 40.45C116.378 40.45 114.245 39.85 112.311 38.65C110.378 37.45 108.845 35.7666 107.711 33.6C106.611 31.4 106.061 28.8833 106.061 26.05C106.061 23.25 106.611 20.7666 107.711 18.6C108.845 16.4333 110.361 14.7666 112.261 13.6C114.195 12.4333 116.345 11.85 118.711 11.85ZM127.861 26.15C127.861 24.45 127.528 23 126.861 21.8C126.195 20.5666 125.295 19.6333 124.161 19C123.028 18.3333 121.811 18 120.511 18C119.211 18 118.011 18.3166 116.911 18.95C115.811 19.5833 114.911 20.5166 114.211 21.75C113.545 22.95 113.211 24.3833 113.211 26.05C113.211 27.7166 113.545 29.1833 114.211 30.45C114.911 31.6833 115.811 32.6333 116.911 33.3C118.045 33.9666 119.245 34.3 120.511 34.3C121.811 34.3 123.028 33.9833 124.161 33.35C125.295 32.6833 126.195 31.75 126.861 30.55C127.528 29.3166 127.861 27.85 127.861 26.15Z" fill="white"/>
<path d="M157.098 11.9C160.398 11.9 163.065 12.95 165.098 15.05C167.131 17.1166 168.148 20.0166 168.148 23.75V40H161.148V24.7C161.148 22.5 160.598 20.8166 159.498 19.65C158.398 18.45 156.898 17.85 154.998 17.85C153.065 17.85 151.531 18.45 150.398 19.65C149.298 20.8166 148.748 22.5 148.748 24.7V40H141.748V12.3H148.748V15.75C149.681 14.55 150.865 13.6166 152.298 12.95C153.765 12.25 155.365 11.9 157.098 11.9Z" fill="white"/>
<circle cx="97.55" cy="5" r="5" fill="#00CAB2"/>
</svg>
