<svg id="Layer_1" data-name="Layer 1" xmlns="http://www.w3.org/2000/svg" viewBox="0 0 323.6 56.91"><defs><style>.cls-1{fill:#fff;}.cls-2{fill:#00cab2;}.cls-3{fill:#ff8368;}.cls-4{fill:#ffb800;}</style></defs><title>Artboard 5</title><path class="cls-1" d="M29.3,15.4a15.54,15.54,0,0,0-6.5-6.2A21.15,21.15,0,0,0,13.2,7H1V41.9H13.2a19.52,19.52,0,0,0,9.6-2.2,15.13,15.13,0,0,0,6.5-6,18.15,18.15,0,0,0,2.3-9.2A17.79,17.79,0,0,0,29.3,15.4ZM21.4,33.1c-2,2-4.8,3-8.5,3h-5v-23h5c3.7,0,6.5,1,8.5,3.1a11.76,11.76,0,0,1,3,8.5Q24.4,30.1,21.4,33.1Z"/><path class="cls-1" d="M62.5,27.6a13.59,13.59,0,0,0-1.8-7.1,12.56,12.56,0,0,0-4.8-4.9,14.84,14.84,0,0,0-7-1.7,13.94,13.94,0,0,0-7.2,1.8,12.41,12.41,0,0,0-4.9,5A15.47,15.47,0,0,0,35,28.3a15.33,15.33,0,0,0,1.8,7.5,12.05,12.05,0,0,0,5,5A14.16,14.16,0,0,0,49,42.6a13.83,13.83,0,0,0,8.3-2.5,12.3,12.3,0,0,0,4.6-6.6H54.4a5.83,5.83,0,0,1-5.5,3.4,6.41,6.41,0,0,1-4.5-1.7,7.14,7.14,0,0,1-2.1-4.7H62.5Zm-20.4-2a7,7,0,0,1,2.1-4.3,6.3,6.3,0,0,1,4.4-1.6,6.66,6.66,0,0,1,4.6,1.7,5.68,5.68,0,0,1,2,4.3H42.1Z"/><path class="cls-1" d="M78.2,42.5a14.7,14.7,0,0,1-6.1-1.2A12,12,0,0,1,67.8,38a9,9,0,0,1-1.7-4.7h7.1A3.74,3.74,0,0,0,74.7,36a5.52,5.52,0,0,0,3.5,1,5.46,5.46,0,0,0,3.1-.8,2.33,2.33,0,0,0,1.2-2.1,2.14,2.14,0,0,0-1.4-2,18.75,18.75,0,0,0-4.3-1.5,41.36,41.36,0,0,1-5.1-1.5,8.12,8.12,0,0,1-3.4-2.5,6.85,6.85,0,0,1-1.4-4.4A7.17,7.17,0,0,1,68.2,18,8.81,8.81,0,0,1,72,15a15,15,0,0,1,5.8-1.1,11.69,11.69,0,0,1,7.9,2.5A8.42,8.42,0,0,1,88.9,23H82.2a3.56,3.56,0,0,0-1.4-2.6,4.74,4.74,0,0,0-3.2-1,5.33,5.33,0,0,0-3,.7,2.22,2.22,0,0,0-1,2A2.5,2.5,0,0,0,75,24.3a20.49,20.49,0,0,0,4.3,1.5,44.15,44.15,0,0,1,5,1.5,8,8,0,0,1,3.3,2.5,6.36,6.36,0,0,1,1.5,4.4,7.26,7.26,0,0,1-1.3,4.3,8.25,8.25,0,0,1-3.8,3A16.85,16.85,0,0,1,78.2,42.5Z"/><rect class="cls-1" x="94.9" y="14.3" width="7" height="27.7"/><path class="cls-1" d="M128.8,14.3v4a10.56,10.56,0,0,0-3.7-3.2,12.53,12.53,0,0,0-16.5,5.6,16.51,16.51,0,0,0-1.7,7.5,15.16,15.16,0,0,0,1.7,7.5,12.64,12.64,0,0,0,4.6,5.1,11.87,11.87,0,0,0,6.4,1.8,10.73,10.73,0,0,0,5.4-1.3,12.07,12.07,0,0,0,3.8-3.2v4.3c0,2.5-.6,4.3-1.9,5.5a7,7,0,0,1-5,1.8,9.28,9.28,0,0,1-4.5-1.1,4.62,4.62,0,0,1-2.3-3h-7a10.24,10.24,0,0,0,4.2,7.5,16.4,16.4,0,0,0,9.7,2.8,14.88,14.88,0,0,0,7.5-1.8,12.06,12.06,0,0,0,4.7-4.8,15.11,15.11,0,0,0,1.5-6.8V14.6h-6.9Zm-1,18.3a8,8,0,0,1-2.7,2.8,7.85,7.85,0,0,1-3.7,1,6.55,6.55,0,0,1-3.6-1,8,8,0,0,1-2.7-2.8,9,9,0,0,1-1-4.4,8.27,8.27,0,0,1,1-4.3,7.26,7.26,0,0,1,2.7-2.8,7.47,7.47,0,0,1,3.6-1,7.09,7.09,0,0,1,3.7,1,7.26,7.26,0,0,1,2.7,2.8,8.63,8.63,0,0,1,1,4.4A8.81,8.81,0,0,1,127.8,32.6Z"/><path class="cls-1" d="M158,13.9a10.53,10.53,0,0,1,8,3.1,12.16,12.16,0,0,1,3.1,8.7V41.9h-7V26.6a6.87,6.87,0,0,0-1.7-5,5.79,5.79,0,0,0-4.5-1.8,6,6,0,0,0-4.6,1.8,7,7,0,0,0-1.7,5V41.9h-7V14.2h7v3.5a9.24,9.24,0,0,1,3.6-2.8A12.77,12.77,0,0,1,158,13.9Z"/><rect class="cls-1" x="204.9" y="5" width="7" height="37"/><path class="cls-1" d="M249.8,28.2a14.88,14.88,0,0,1,1.8-7.5,12.88,12.88,0,0,1,4.8-5,13.88,13.88,0,0,1,7.1-1.8,13.63,13.63,0,0,1,8.5,2.6,12.38,12.38,0,0,1,4.6,7.2H269a5.86,5.86,0,0,0-2-2.8,5.52,5.52,0,0,0-3.5-1,5.8,5.8,0,0,0-4.8,2.2c-1.2,1.4-1.8,3.5-1.8,6.2a9.27,9.27,0,0,0,1.8,6.1,6.12,6.12,0,0,0,4.8,2.2,5.26,5.26,0,0,0,5.5-3.8h7.6a12.5,12.5,0,0,1-4.6,7.1,13.28,13.28,0,0,1-8.5,2.7,13.88,13.88,0,0,1-7.1-1.8,12.17,12.17,0,0,1-4.8-5A16.09,16.09,0,0,1,249.8,28.2Z"/><path class="cls-1" d="M301.7,14.3v4a11.07,11.07,0,0,0-3.8-3.2,11.35,11.35,0,0,0-5.4-1.2,12,12,0,0,0-11,6.8,16.51,16.51,0,0,0-1.7,7.5,16.26,16.26,0,0,0,1.7,7.5,13.25,13.25,0,0,0,4.5,5.1,11.87,11.87,0,0,0,6.4,1.8,12,12,0,0,0,5.5-1.2,13.58,13.58,0,0,0,3.8-3.2v4h7V14.5h-7Zm-1,18.3a8,8,0,0,1-2.7,2.8,7.85,7.85,0,0,1-3.7,1,6.55,6.55,0,0,1-3.6-1,8,8,0,0,1-2.7-2.8,9,9,0,0,1-1-4.4,8.27,8.27,0,0,1,1-4.3,7.26,7.26,0,0,1,2.7-2.8,7.47,7.47,0,0,1,3.6-1,7.09,7.09,0,0,1,3.7,1,7.26,7.26,0,0,1,2.7,2.8,8.63,8.63,0,0,1,1,4.4A8.81,8.81,0,0,1,300.7,32.6Z"/><rect class="cls-1" x="315.6" y="5" width="7" height="37"/><circle class="cls-2" cx="98.5" cy="6" r="5"/><circle class="cls-3" cx="187.5" cy="36" r="6"/><circle class="cls-4" cx="231" cy="28.5" r="13.5"/></svg>