<svg width="370" height="73" viewBox="0 0 370 73" fill="none" xmlns="http://www.w3.org/2000/svg">
<path d="M180.947 55.184C182.471 55.184 183.731 55.556 184.727 56.3C185.723 57.032 186.425 58.046 186.833 59.342H185.501C185.165 58.43 184.607 57.704 183.827 57.164C183.047 56.624 182.081 56.354 180.929 56.354C180.053 56.354 179.255 56.57 178.535 57.002C177.827 57.434 177.269 58.052 176.861 58.856C176.453 59.66 176.249 60.596 176.249 61.664C176.249 62.732 176.453 63.668 176.861 64.472C177.269 65.264 177.827 65.876 178.535 66.308C179.255 66.74 180.053 66.956 180.929 66.956C182.081 66.956 183.047 66.686 183.827 66.146C184.607 65.606 185.165 64.88 185.501 63.968H186.833C186.425 65.264 185.723 66.284 184.727 67.028C183.731 67.76 182.471 68.126 180.947 68.126C179.783 68.126 178.745 67.85 177.833 67.298C176.921 66.746 176.213 65.984 175.709 65.012C175.205 64.028 174.953 62.912 174.953 61.664C174.953 60.404 175.205 59.282 175.709 58.298C176.213 57.314 176.921 56.552 177.833 56.012C178.745 55.46 179.783 55.184 180.947 55.184Z" fill="white"/>
<path d="M194.117 58.046C195.053 58.046 195.887 58.25 196.619 58.658C197.363 59.054 197.945 59.636 198.365 60.404C198.785 61.16 198.995 62.054 198.995 63.086C198.995 64.118 198.785 65.012 198.365 65.768C197.945 66.524 197.363 67.106 196.619 67.514C195.887 67.922 195.053 68.126 194.117 68.126C193.181 68.126 192.341 67.922 191.597 67.514C190.853 67.106 190.265 66.524 189.833 65.768C189.413 65 189.203 64.106 189.203 63.086C189.203 62.054 189.413 61.16 189.833 60.404C190.265 59.636 190.853 59.054 191.597 58.658C192.341 58.25 193.181 58.046 194.117 58.046ZM194.117 59.144C193.469 59.144 192.869 59.288 192.317 59.576C191.765 59.864 191.321 60.308 190.985 60.908C190.649 61.496 190.481 62.222 190.481 63.086C190.481 63.95 190.649 64.676 190.985 65.264C191.321 65.852 191.765 66.29 192.317 66.578C192.869 66.866 193.469 67.01 194.117 67.01C194.753 67.01 195.341 66.866 195.881 66.578C196.433 66.29 196.877 65.852 197.213 65.264C197.549 64.676 197.717 63.95 197.717 63.086C197.717 62.222 197.549 61.496 197.213 60.908C196.877 60.308 196.433 59.864 195.881 59.576C195.341 59.288 194.753 59.144 194.117 59.144Z" fill="white"/>
<path d="M206.709 57.992C207.849 57.992 208.773 58.358 209.481 59.09C210.201 59.81 210.561 60.872 210.561 62.276V68H209.319V62.366C209.319 61.298 209.049 60.482 208.509 59.918C207.969 59.342 207.231 59.054 206.295 59.054C205.311 59.054 204.525 59.372 203.937 60.008C203.361 60.632 203.073 61.556 203.073 62.78V68H201.795V58.172H203.073V60.584C203.325 59.744 203.781 59.102 204.441 58.658C205.101 58.214 205.857 57.992 206.709 57.992Z" fill="white"/>
<path d="M218.675 57.992C219.815 57.992 220.739 58.358 221.447 59.09C222.167 59.81 222.527 60.872 222.527 62.276V68H221.285V62.366C221.285 61.298 221.015 60.482 220.475 59.918C219.935 59.342 219.197 59.054 218.261 59.054C217.277 59.054 216.491 59.372 215.903 60.008C215.327 60.632 215.039 61.556 215.039 62.78V68H213.761V58.172H215.039V60.584C215.291 59.744 215.747 59.102 216.407 58.658C217.067 58.214 217.823 57.992 218.675 57.992Z" fill="white"/>
<path d="M230.01 67.082C230.898 67.082 231.642 66.86 232.242 66.416C232.842 65.972 233.202 65.372 233.322 64.616H234.654C234.474 65.66 233.976 66.506 233.16 67.154C232.344 67.802 231.312 68.126 230.064 68.126C229.128 68.126 228.294 67.928 227.562 67.532C226.842 67.124 226.278 66.542 225.87 65.786C225.462 65.018 225.258 64.118 225.258 63.086C225.258 62.054 225.462 61.16 225.87 60.404C226.278 59.636 226.842 59.054 227.562 58.658C228.294 58.25 229.128 58.046 230.064 58.046C231.024 58.046 231.852 58.25 232.548 58.658C233.256 59.054 233.79 59.588 234.15 60.26C234.522 60.932 234.708 61.664 234.708 62.456C234.708 62.792 234.684 63.098 234.636 63.374H226.5C226.512 64.202 226.68 64.898 227.004 65.462C227.34 66.014 227.772 66.422 228.3 66.686C228.828 66.95 229.398 67.082 230.01 67.082ZM230.064 59.072C229.428 59.072 228.846 59.204 228.318 59.468C227.79 59.732 227.358 60.14 227.022 60.692C226.698 61.232 226.524 61.91 226.5 62.726H233.448C233.496 61.922 233.364 61.244 233.052 60.692C232.74 60.14 232.32 59.732 231.792 59.468C231.264 59.204 230.688 59.072 230.064 59.072Z" fill="white"/>
<path d="M241.854 58.046C243.102 58.046 244.134 58.376 244.95 59.036C245.778 59.696 246.282 60.572 246.462 61.664H245.148C245.016 60.884 244.65 60.272 244.05 59.828C243.45 59.372 242.712 59.144 241.836 59.144C241.2 59.144 240.612 59.288 240.072 59.576C239.544 59.864 239.118 60.308 238.794 60.908C238.482 61.496 238.326 62.222 238.326 63.086C238.326 63.95 238.482 64.682 238.794 65.282C239.118 65.87 239.544 66.308 240.072 66.596C240.612 66.884 241.2 67.028 241.836 67.028C242.712 67.028 243.45 66.806 244.05 66.362C244.65 65.906 245.016 65.288 245.148 64.508H246.462C246.282 65.6 245.778 66.476 244.95 67.136C244.134 67.796 243.102 68.126 241.854 68.126C240.918 68.126 240.084 67.928 239.352 67.532C238.632 67.124 238.068 66.542 237.66 65.786C237.252 65.018 237.048 64.118 237.048 63.086C237.048 62.054 237.252 61.16 237.66 60.404C238.068 59.636 238.632 59.054 239.352 58.658C240.084 58.25 240.918 58.046 241.854 58.046Z" fill="white"/>
<path d="M253.735 66.884V68H252.565C251.617 68 250.909 67.778 250.441 67.334C249.973 66.878 249.739 66.116 249.739 65.048V59.27H248.245V58.172H249.739V55.688H251.017V58.172H253.717V59.27H251.017V65.066C251.017 65.762 251.143 66.242 251.395 66.506C251.647 66.758 252.091 66.884 252.727 66.884H253.735Z" fill="white"/>
<path d="M256.062 55.256C256.062 54.992 256.146 54.782 256.314 54.626C256.494 54.47 256.722 54.392 256.998 54.392C257.274 54.392 257.496 54.47 257.664 54.626C257.832 54.782 257.916 54.992 257.916 55.256C257.916 55.508 257.832 55.712 257.664 55.868C257.496 56.024 257.274 56.102 256.998 56.102C256.722 56.102 256.494 56.024 256.314 55.868C256.146 55.712 256.062 55.508 256.062 55.256ZM257.628 58.172V68H256.35V58.172H257.628Z" fill="white"/>
<path d="M265.812 57.992C266.952 57.992 267.876 58.358 268.584 59.09C269.304 59.81 269.664 60.872 269.664 62.276V68H268.422V62.366C268.422 61.298 268.152 60.482 267.612 59.918C267.072 59.342 266.334 59.054 265.398 59.054C264.414 59.054 263.628 59.372 263.04 60.008C262.464 60.632 262.176 61.556 262.176 62.78V68H260.898V58.172H262.176V60.584C262.428 59.744 262.884 59.102 263.544 58.658C264.204 58.214 264.96 57.992 265.812 57.992Z" fill="white"/>
<path d="M277.004 58.046C278 58.046 278.846 58.304 279.542 58.82C280.25 59.336 280.736 60.02 281 60.872V58.172H282.242V68.234C282.242 69.146 282.05 69.944 281.666 70.628C281.282 71.324 280.748 71.858 280.064 72.23C279.38 72.614 278.6 72.806 277.724 72.806C276.44 72.806 275.384 72.494 274.556 71.87C273.74 71.258 273.206 70.424 272.954 69.368H274.214C274.43 70.088 274.826 70.658 275.402 71.078C275.99 71.498 276.74 71.708 277.652 71.708C278.276 71.708 278.84 71.57 279.344 71.294C279.86 71.03 280.262 70.634 280.55 70.106C280.85 69.578 281 68.954 281 68.234V65.3C280.736 66.152 280.25 66.836 279.542 67.352C278.846 67.868 278 68.126 277.004 68.126C276.116 68.126 275.318 67.922 274.61 67.514C273.914 67.106 273.368 66.524 272.972 65.768C272.588 65 272.396 64.106 272.396 63.086C272.396 62.054 272.588 61.16 272.972 60.404C273.368 59.636 273.914 59.054 274.61 58.658C275.306 58.25 276.104 58.046 277.004 58.046ZM277.328 59.162C276.224 59.162 275.336 59.516 274.664 60.224C274.004 60.92 273.674 61.874 273.674 63.086C273.674 64.298 274.004 65.258 274.664 65.966C275.336 66.662 276.224 67.01 277.328 67.01C278.024 67.01 278.648 66.848 279.2 66.524C279.764 66.2 280.202 65.744 280.514 65.156C280.838 64.556 281 63.866 281 63.086C281 62.306 280.838 61.622 280.514 61.034C280.202 60.434 279.764 59.972 279.2 59.648C278.648 59.324 278.024 59.162 277.328 59.162Z" fill="white"/>
<path d="M295.195 66.884V68H294.025C293.077 68 292.369 67.778 291.901 67.334C291.433 66.878 291.199 66.116 291.199 65.048V59.27H289.705V58.172H291.199V55.688H292.477V58.172H295.177V59.27H292.477V65.066C292.477 65.762 292.603 66.242 292.855 66.506C293.107 66.758 293.551 66.884 294.187 66.884H295.195Z" fill="white"/>
<path d="M302.724 57.992C303.864 57.992 304.788 58.358 305.496 59.09C306.216 59.81 306.576 60.872 306.576 62.276V68H305.334V62.366C305.334 61.298 305.064 60.482 304.524 59.918C303.984 59.342 303.246 59.054 302.31 59.054C301.326 59.054 300.54 59.372 299.952 60.008C299.376 60.632 299.088 61.556 299.088 62.78V68H297.81V54.68H299.088V60.584C299.34 59.744 299.796 59.102 300.456 58.658C301.116 58.214 301.872 57.992 302.724 57.992Z" fill="white"/>
<path d="M314.06 67.082C314.948 67.082 315.692 66.86 316.292 66.416C316.892 65.972 317.252 65.372 317.372 64.616H318.704C318.524 65.66 318.026 66.506 317.21 67.154C316.394 67.802 315.362 68.126 314.114 68.126C313.178 68.126 312.344 67.928 311.612 67.532C310.892 67.124 310.328 66.542 309.92 65.786C309.512 65.018 309.308 64.118 309.308 63.086C309.308 62.054 309.512 61.16 309.92 60.404C310.328 59.636 310.892 59.054 311.612 58.658C312.344 58.25 313.178 58.046 314.114 58.046C315.074 58.046 315.902 58.25 316.598 58.658C317.306 59.054 317.84 59.588 318.2 60.26C318.572 60.932 318.758 61.664 318.758 62.456C318.758 62.792 318.734 63.098 318.686 63.374H310.55C310.562 64.202 310.73 64.898 311.054 65.462C311.39 66.014 311.822 66.422 312.35 66.686C312.878 66.95 313.448 67.082 314.06 67.082ZM314.114 59.072C313.478 59.072 312.896 59.204 312.368 59.468C311.84 59.732 311.408 60.14 311.072 60.692C310.748 61.232 310.574 61.91 310.55 62.726H317.498C317.546 61.922 317.414 61.244 317.102 60.692C316.79 60.14 316.37 59.732 315.842 59.468C315.314 59.204 314.738 59.072 314.114 59.072Z" fill="white"/>
<path d="M330.922 58.046C331.918 58.046 332.764 58.304 333.46 58.82C334.168 59.336 334.648 60.02 334.9 60.872V54.68H336.16V68H334.9V65.3C334.648 66.152 334.168 66.836 333.46 67.352C332.764 67.868 331.918 68.126 330.922 68.126C330.034 68.126 329.236 67.922 328.528 67.514C327.832 67.106 327.286 66.524 326.89 65.768C326.506 65 326.314 64.106 326.314 63.086C326.314 62.054 326.506 61.16 326.89 60.404C327.286 59.636 327.832 59.054 328.528 58.658C329.224 58.25 330.022 58.046 330.922 58.046ZM331.246 59.162C330.142 59.162 329.254 59.516 328.582 60.224C327.922 60.92 327.592 61.874 327.592 63.086C327.592 64.298 327.922 65.258 328.582 65.966C329.254 66.662 330.142 67.01 331.246 67.01C331.942 67.01 332.566 66.848 333.118 66.524C333.682 66.2 334.12 65.744 334.432 65.156C334.756 64.556 334.918 63.866 334.918 63.086C334.918 62.306 334.756 61.622 334.432 61.034C334.12 60.434 333.682 59.972 333.118 59.648C332.566 59.324 331.942 59.162 331.246 59.162Z" fill="white"/>
<path d="M343.879 58.046C344.815 58.046 345.649 58.25 346.381 58.658C347.125 59.054 347.707 59.636 348.127 60.404C348.547 61.16 348.757 62.054 348.757 63.086C348.757 64.118 348.547 65.012 348.127 65.768C347.707 66.524 347.125 67.106 346.381 67.514C345.649 67.922 344.815 68.126 343.879 68.126C342.943 68.126 342.103 67.922 341.359 67.514C340.615 67.106 340.027 66.524 339.595 65.768C339.175 65 338.965 64.106 338.965 63.086C338.965 62.054 339.175 61.16 339.595 60.404C340.027 59.636 340.615 59.054 341.359 58.658C342.103 58.25 342.943 58.046 343.879 58.046ZM343.879 59.144C343.231 59.144 342.631 59.288 342.079 59.576C341.527 59.864 341.083 60.308 340.747 60.908C340.411 61.496 340.243 62.222 340.243 63.086C340.243 63.95 340.411 64.676 340.747 65.264C341.083 65.852 341.527 66.29 342.079 66.578C342.631 66.866 343.231 67.01 343.879 67.01C344.515 67.01 345.103 66.866 345.643 66.578C346.195 66.29 346.639 65.852 346.975 65.264C347.311 64.676 347.479 63.95 347.479 63.086C347.479 62.222 347.311 61.496 346.975 60.908C346.639 60.308 346.195 59.864 345.643 59.576C345.103 59.288 344.515 59.144 343.879 59.144Z" fill="white"/>
<path d="M356.021 66.884V68H354.851C353.903 68 353.195 67.778 352.727 67.334C352.259 66.878 352.025 66.116 352.025 65.048V59.27H350.531V58.172H352.025V55.688H353.303V58.172H356.003V59.27H353.303V65.066C353.303 65.762 353.429 66.242 353.681 66.506C353.933 66.758 354.377 66.884 355.013 66.884H356.021Z" fill="white"/>
<path d="M361.606 58.046C362.674 58.046 363.532 58.328 364.18 58.892C364.828 59.456 365.224 60.218 365.368 61.178H364.162C364.09 60.542 363.826 60.02 363.37 59.612C362.926 59.192 362.326 58.982 361.57 58.982C360.922 58.982 360.412 59.144 360.04 59.468C359.68 59.78 359.5 60.2 359.5 60.728C359.5 61.124 359.614 61.442 359.842 61.682C360.082 61.922 360.376 62.108 360.724 62.24C361.072 62.36 361.54 62.486 362.128 62.618C362.848 62.786 363.424 62.96 363.856 63.14C364.3 63.308 364.678 63.578 364.99 63.95C365.302 64.322 365.458 64.826 365.458 65.462C365.458 66.242 365.164 66.884 364.576 67.388C364 67.88 363.232 68.126 362.272 68.126C361.144 68.126 360.22 67.85 359.5 67.298C358.78 66.734 358.354 65.966 358.222 64.994H359.446C359.518 65.642 359.8 66.17 360.292 66.578C360.784 66.986 361.45 67.19 362.29 67.19C362.914 67.19 363.4 67.028 363.748 66.704C364.096 66.38 364.27 65.96 364.27 65.444C364.27 65.024 364.15 64.688 363.91 64.436C363.67 64.184 363.37 63.998 363.01 63.878C362.662 63.746 362.182 63.608 361.57 63.464C360.862 63.296 360.292 63.128 359.86 62.96C359.44 62.792 359.08 62.534 358.78 62.186C358.48 61.826 358.33 61.34 358.33 60.728C358.33 59.924 358.624 59.276 359.212 58.784C359.8 58.292 360.598 58.046 361.606 58.046Z" fill="white"/>
<path d="M369.145 66.38V68H367.471V66.38H369.145Z" fill="white"/>
<path d="M241.848 3.52283V46.9711H233.676V3.52283H241.848Z" fill="white"/>
<path d="M285.046 30.7661C285.046 27.3998 285.727 24.4641 287.09 21.959C288.452 19.4147 290.339 17.4576 292.752 16.0876C295.165 14.6785 297.928 13.9739 301.041 13.9739C305.05 13.9739 308.358 14.9916 310.965 17.027C313.612 19.0233 315.382 21.8416 316.277 25.4818H307.463C306.996 24.0727 306.198 22.9767 305.069 22.1938C303.98 21.3719 302.617 20.9609 300.983 20.9609C298.648 20.9609 296.799 21.822 295.437 23.5443C294.075 25.2274 293.394 27.6347 293.394 30.7661C293.394 33.8583 294.075 36.2656 295.437 37.9879C296.799 39.671 298.648 40.5126 300.983 40.5126C304.291 40.5126 306.451 39.0252 307.463 36.0503H316.277C315.382 39.5732 313.612 42.3719 310.965 44.4464C308.319 46.521 305.011 47.5583 301.041 47.5583C297.928 47.5583 295.165 46.8733 292.752 45.5033C290.339 44.0941 288.452 42.137 287.09 39.6319C285.727 37.0876 285.046 34.1323 285.046 30.7661Z" fill="white"/>
<path d="M320.163 30.6487C320.163 27.3607 320.805 24.4445 322.089 21.9003C323.413 19.356 325.183 17.3989 327.402 16.0289C329.659 14.6589 332.169 13.9739 334.932 13.9739C337.345 13.9739 339.446 14.4632 341.237 15.4417C343.066 16.4203 344.525 17.6533 345.615 19.1407V14.5023H353.846V47.0298H345.615V42.274C344.564 43.8006 343.105 45.0727 341.237 46.0904C339.407 47.069 337.286 47.5583 334.874 47.5583C332.149 47.5583 329.659 46.8537 327.402 45.4446C325.183 44.0354 323.413 42.0587 322.089 39.5145C320.805 36.931 320.163 33.9758 320.163 30.6487ZM345.615 30.7661C345.615 28.7698 345.226 27.0671 344.447 25.658C343.669 24.2097 342.618 23.1137 341.295 22.37C339.972 21.5871 338.551 21.1957 337.034 21.1957C335.516 21.1957 334.115 21.5676 332.83 22.3113C331.546 23.055 330.495 24.151 329.678 25.5993C328.9 27.0084 328.511 28.6915 328.511 30.6487C328.511 32.6058 328.9 34.3281 329.678 35.8155C330.495 37.2638 331.546 38.3793 332.83 39.1622C334.154 39.945 335.555 40.3364 337.034 40.3364C338.551 40.3364 339.972 39.9646 341.295 39.2209C342.618 38.438 343.669 37.342 344.447 35.9329C345.226 34.4846 345.615 32.7624 345.615 30.7661Z" fill="white"/>
<path d="M370 3.58154V47.0298H361.828V3.58154H370Z" fill="white"/>
<path d="M279.208 31.1184C279.208 39.8736 272.152 46.9711 263.447 46.9711C254.742 46.9711 247.686 39.8736 247.686 31.1184C247.686 22.3631 254.742 15.2656 263.447 15.2656C272.152 15.2656 279.208 22.3631 279.208 31.1184Z" fill="#FFB800"/>
<path d="M222 39.9254C222 43.8166 218.864 46.9711 214.995 46.9711C211.127 46.9711 207.99 43.8166 207.99 39.9254C207.99 36.0342 211.127 32.8798 214.995 32.8798C218.864 32.8798 222 36.0342 222 39.9254Z" fill="#FF8368"/>
<path d="M14.2437 5.98877C18.5245 5.98877 22.28 6.83034 25.5102 8.51347C28.7792 10.1966 31.2894 12.6039 33.0406 15.7353C34.8308 18.8275 35.7259 22.4287 35.7259 26.5386C35.7259 30.6486 34.8308 34.2497 33.0406 37.342C31.2894 40.3951 28.7792 42.7633 25.5102 44.4464C22.28 46.1295 18.5245 46.9711 14.2437 46.9711H0V5.98877H14.2437ZM13.9518 39.9841C18.2327 39.9841 21.5406 38.8098 23.8756 36.4613C26.2107 34.1127 27.3782 30.8052 27.3782 26.5386C27.3782 22.2721 26.2107 18.945 23.8756 16.5573C21.5406 14.1304 18.2327 12.917 13.9518 12.917H8.17259V39.9841H13.9518Z" fill="white"/>
<path d="M71.907 30.0028C71.907 31.177 71.8291 32.2339 71.6735 33.1733H48.0313C48.2259 35.5219 49.0432 37.3616 50.4831 38.6924C51.923 40.0233 53.6938 40.6887 55.7953 40.6887C58.8308 40.6887 60.9907 39.3774 62.275 36.7549H71.0897C70.1557 39.8863 68.3655 42.4697 65.7191 44.5051C63.0728 46.5014 59.8232 47.4995 55.9704 47.4995C52.857 47.4995 50.055 46.8145 47.5643 45.4445C45.1125 44.0354 43.1861 42.0587 41.7851 39.5144C40.423 36.9701 39.742 34.0345 39.742 30.7073C39.742 27.3411 40.423 24.3858 41.7851 21.8415C43.1472 19.2973 45.0542 17.3401 47.5059 15.9701C49.9577 14.6001 52.7792 13.9151 55.9704 13.9151C59.0449 13.9151 61.7885 14.5806 64.2014 15.9114C66.6532 17.2423 68.5406 19.1407 69.8638 21.6067C71.2259 24.0335 71.907 26.8322 71.907 30.0028ZM63.4425 27.6542C63.4036 25.5405 62.6447 23.8574 61.1658 22.6048C59.687 21.3131 57.8773 20.6672 55.7369 20.6672C53.7132 20.6672 52.0009 21.2935 50.5998 22.5461C49.2377 23.7595 48.401 25.4622 48.0897 27.6542H63.4425Z" fill="white"/>
<path d="M90.2479 47.4995C87.6015 47.4995 85.2276 47.0298 83.126 46.0904C81.0245 45.1118 79.3511 43.8005 78.1057 42.1565C76.8993 40.5126 76.2377 38.6924 76.121 36.6961H84.3519C84.5076 37.9487 85.1108 38.986 86.1616 39.808C87.2512 40.63 88.5939 41.041 90.1895 41.041C91.7462 41.041 92.9526 40.7278 93.8088 40.1016C94.7039 39.4753 95.1514 38.6728 95.1514 37.6943C95.1514 36.6374 94.6066 35.8546 93.5169 35.3457C92.4661 34.7977 90.7732 34.2106 88.4382 33.5843C86.0254 32.9972 84.0406 32.3905 82.4839 31.7642C80.9661 31.1379 79.643 30.1789 78.5144 28.8872C77.4247 27.5955 76.8798 25.8536 76.8798 23.6617C76.8798 21.8611 77.3858 20.2171 78.3976 18.7297C79.4484 17.2423 80.9272 16.068 82.8342 15.2069C84.78 14.3457 87.0567 13.9151 89.6641 13.9151C93.5169 13.9151 96.5914 14.8937 98.8875 16.8508C101.184 18.7688 102.448 21.3718 102.682 24.6598H94.8595C94.7428 23.3681 94.198 22.3504 93.225 21.6067C92.291 20.8238 91.0262 20.4324 89.4306 20.4324C87.9518 20.4324 86.8037 20.7064 85.9864 21.2544C85.2081 21.8024 84.8189 22.5657 84.8189 23.5442C84.8189 24.6402 85.3638 25.4818 86.4534 26.0689C87.5431 26.6169 89.236 27.1845 91.5321 27.7716C93.8671 28.3588 95.7936 28.9655 97.3113 29.5918C98.8291 30.218 100.133 31.1966 101.222 32.5275C102.351 33.8192 102.935 35.5414 102.974 37.6943C102.974 39.5731 102.448 41.2563 101.398 42.7437C100.386 44.2311 98.9069 45.4054 96.9611 46.2665C95.0541 47.0885 92.8164 47.4995 90.2479 47.4995Z" fill="white"/>
<path d="M117.855 14.4436V46.9711H109.682V14.4436H117.855Z" fill="white"/>
<path d="M138.597 13.9151C141.01 13.9151 143.131 14.4044 144.96 15.383C146.789 16.3224 148.229 17.5554 149.28 19.082V14.4436H157.511V47.2059C157.511 50.2199 156.908 52.9012 155.701 55.2497C154.495 57.6374 152.685 59.5163 150.272 60.8863C147.859 62.2954 144.941 63 141.516 63C136.924 63 133.149 61.9236 130.191 59.7707C127.272 57.6179 125.618 54.6822 125.229 50.9636H133.343C133.771 52.451 134.686 53.6253 136.087 54.4865C137.527 55.3867 139.259 55.8369 141.282 55.8369C143.656 55.8369 145.583 55.1127 147.062 53.6645C148.54 52.2553 149.28 50.1025 149.28 47.2059V42.1565C148.229 43.6831 146.77 44.9552 144.902 45.9729C143.073 46.9907 140.971 47.4995 138.597 47.4995C135.873 47.4995 133.382 46.7949 131.125 45.3858C128.868 43.9767 127.078 42 125.754 39.4557C124.47 36.8723 123.828 33.917 123.828 30.5899C123.828 27.3019 124.47 24.3858 125.754 21.8415C127.078 19.2973 128.848 17.3401 131.067 15.9701C133.324 14.6001 135.834 13.9151 138.597 13.9151ZM149.28 30.7073C149.28 28.7111 148.891 27.0083 148.112 25.5992C147.334 24.1509 146.283 23.0549 144.96 22.3112C143.637 21.5284 142.216 21.137 140.699 21.137C139.181 21.137 137.78 21.5088 136.496 22.2525C135.211 22.9962 134.16 24.0922 133.343 25.5405C132.565 26.9496 132.176 28.6328 132.176 30.5899C132.176 32.547 132.565 34.2693 133.343 35.7567C134.16 37.205 135.211 38.3206 136.496 39.1034C137.819 39.8863 139.22 40.2777 140.699 40.2777C142.216 40.2777 143.637 39.9058 144.96 39.1621C146.283 38.3793 147.334 37.2833 148.112 35.8742C148.891 34.4259 149.28 32.7036 149.28 30.7073Z" fill="white"/>
<path d="M183.414 13.9739C187.267 13.9739 190.38 15.2069 192.754 17.6728C195.128 20.0997 196.315 23.5051 196.315 27.8891V46.9711H188.142V29.0046C188.142 26.4212 187.5 24.4445 186.216 23.0745C184.932 21.6654 183.181 20.9608 180.962 20.9608C178.705 20.9608 176.915 21.6654 175.592 23.0745C174.307 24.4445 173.665 26.4212 173.665 29.0046V46.9711H165.493V14.4436H173.665V18.4948C174.755 17.0857 176.137 15.9897 177.81 15.2069C179.522 14.3849 181.39 13.9739 183.414 13.9739Z" fill="white"/>
<ellipse cx="113.89" cy="5.87139" rx="5.83757" ry="5.87139" fill="#00CAB2"/>
</svg>
