<svg id="Layer_1" data-name="Layer 1" xmlns="http://www.w3.org/2000/svg" viewBox="0 0 332 75"><defs><style>.cls-1{fill:#fff;}.cls-2{fill:#00cab2;}.cls-3{fill:#ff8368;}.cls-4{fill:#ffb800;}</style></defs><title>designdotlocallogo</title><path class="cls-1" d="M31.8,28.4a15.56,15.56,0,0,0-6.5-6.2A21.21,21.21,0,0,0,15.7,20H3.5V54.9H15.7a19.46,19.46,0,0,0,9.6-2.2,15.12,15.12,0,0,0,6.5-6,18.2,18.2,0,0,0,2.3-9.2A17.82,17.82,0,0,0,31.8,28.4ZM23.9,46.1c-2,2-4.8,3-8.5,3h-5v-23h5c3.7,0,6.5,1,8.5,3.1s3,4.9,3,8.5S25.9,44.1,23.9,46.1Z"/><path class="cls-1" d="M65,40.6a13.62,13.62,0,0,0-1.8-7.1,12.56,12.56,0,0,0-4.8-4.9,14.79,14.79,0,0,0-7-1.7,14,14,0,0,0-7.2,1.8,12.42,12.42,0,0,0-4.9,5,15.53,15.53,0,0,0-1.8,7.6,15.41,15.41,0,0,0,1.8,7.5,12.05,12.05,0,0,0,5,5,14.25,14.25,0,0,0,7.2,1.8,13.86,13.86,0,0,0,8.3-2.5,12.31,12.31,0,0,0,4.6-6.6H56.9a5.83,5.83,0,0,1-5.5,3.4,6.44,6.44,0,0,1-4.5-1.7,7.12,7.12,0,0,1-2.1-4.7H65Zm-20.4-2a7,7,0,0,1,2.1-4.3,6.29,6.29,0,0,1,4.4-1.6,6.69,6.69,0,0,1,4.6,1.7,5.68,5.68,0,0,1,2,4.3H44.6Z"/><path class="cls-1" d="M80.7,55.5a14.76,14.76,0,0,1-6.1-1.2A12,12,0,0,1,70.3,51a9,9,0,0,1-1.7-4.7h7.1A3.73,3.73,0,0,0,77.2,49a5.58,5.58,0,0,0,3.5,1,5.45,5.45,0,0,0,3.1-.8A2.35,2.35,0,0,0,85,47.1a2.13,2.13,0,0,0-1.4-2,18.6,18.6,0,0,0-4.3-1.5,41.28,41.28,0,0,1-5.1-1.5,8.14,8.14,0,0,1-3.4-2.5,6.82,6.82,0,0,1-1.4-4.4A7.18,7.18,0,0,1,70.7,31a8.8,8.8,0,0,1,3.8-3,15,15,0,0,1,5.8-1.1,11.7,11.7,0,0,1,7.9,2.5A8.44,8.44,0,0,1,91.4,36H84.7a3.56,3.56,0,0,0-1.4-2.6,4.72,4.72,0,0,0-3.2-1,5.34,5.34,0,0,0-3,.7,2.22,2.22,0,0,0-1,2,2.51,2.51,0,0,0,1.4,2.2,20.55,20.55,0,0,0,4.3,1.5,44.78,44.78,0,0,1,5,1.5,8.07,8.07,0,0,1,3.3,2.5,6.35,6.35,0,0,1,1.5,4.4,7.27,7.27,0,0,1-1.3,4.3,8.25,8.25,0,0,1-3.8,3A16.72,16.72,0,0,1,80.7,55.5Z"/><rect class="cls-1" x="97.4" y="27.3" width="7" height="27.7"/><path class="cls-1" d="M131.3,27.3v4a10.61,10.61,0,0,0-3.7-3.2,12,12,0,0,0-5.5-1.2,12,12,0,0,0-11,6.8,16.56,16.56,0,0,0-1.7,7.5,15.1,15.1,0,0,0,1.7,7.5,12.67,12.67,0,0,0,4.6,5.1,11.9,11.9,0,0,0,6.4,1.8,10.79,10.79,0,0,0,5.4-1.3,12.19,12.19,0,0,0,3.8-3.2v4.3c0,2.5-.6,4.3-1.9,5.5a7,7,0,0,1-5,1.8,9.36,9.36,0,0,1-4.5-1.1,4.61,4.61,0,0,1-2.3-3h-7a10.26,10.26,0,0,0,4.2,7.5,16.38,16.38,0,0,0,9.7,2.8,14.87,14.87,0,0,0,7.5-1.8,12,12,0,0,0,4.7-4.8,15.1,15.1,0,0,0,1.5-6.8V27.6h-6.9Zm-1,18.3a8.06,8.06,0,0,1-2.7,2.8,7.87,7.87,0,0,1-3.7,1,6.53,6.53,0,0,1-3.6-1,8.06,8.06,0,0,1-2.7-2.8,8.93,8.93,0,0,1-1-4.4,8.3,8.3,0,0,1,1-4.3,7.29,7.29,0,0,1,2.7-2.8,7.49,7.49,0,0,1,3.6-1,7.11,7.11,0,0,1,3.7,1,7.29,7.29,0,0,1,2.7,2.8,8.68,8.68,0,0,1,1,4.4A8.8,8.8,0,0,1,130.3,45.6Z"/><path class="cls-1" d="M160.5,26.9a10.55,10.55,0,0,1,8,3.1,12.15,12.15,0,0,1,3.1,8.7V54.9h-7V39.6a6.86,6.86,0,0,0-1.7-5,5.8,5.8,0,0,0-4.5-1.8,6,6,0,0,0-4.6,1.8,7,7,0,0,0-1.7,5V54.9h-7V27.2h7v3.5a9.22,9.22,0,0,1,3.6-2.8A12.87,12.87,0,0,1,160.5,26.9Z"/><rect class="cls-1" x="207.4" y="18" width="7" height="37"/><path class="cls-1" d="M252.3,41.2a14.87,14.87,0,0,1,1.8-7.5,12.85,12.85,0,0,1,4.8-5,13.88,13.88,0,0,1,7.1-1.8,13.66,13.66,0,0,1,8.5,2.6,12.43,12.43,0,0,1,4.6,7.2h-7.6a5.79,5.79,0,0,0-2-2.8,5.58,5.58,0,0,0-3.5-1,5.79,5.79,0,0,0-4.8,2.2c-1.2,1.4-1.8,3.5-1.8,6.2a9.25,9.25,0,0,0,1.8,6.1,6.09,6.09,0,0,0,4.8,2.2,5.26,5.26,0,0,0,5.5-3.8h7.6a12.5,12.5,0,0,1-4.6,7.1,13.3,13.3,0,0,1-8.5,2.7,13.88,13.88,0,0,1-7.1-1.8,12.16,12.16,0,0,1-4.8-5A16.08,16.08,0,0,1,252.3,41.2Z"/><path class="cls-1" d="M304.2,27.3v4a11,11,0,0,0-3.8-3.2,11.33,11.33,0,0,0-5.4-1.2,12,12,0,0,0-11,6.8,16.56,16.56,0,0,0-1.7,7.5,16.26,16.26,0,0,0,1.7,7.5,13.21,13.21,0,0,0,4.5,5.1,11.9,11.9,0,0,0,6.4,1.8,12,12,0,0,0,5.5-1.2,13.45,13.45,0,0,0,3.8-3.2v4h7V27.5h-7Zm-1,18.3a8.06,8.06,0,0,1-2.7,2.8,7.87,7.87,0,0,1-3.7,1,6.53,6.53,0,0,1-3.6-1,8.06,8.06,0,0,1-2.7-2.8,8.93,8.93,0,0,1-1-4.4,8.3,8.3,0,0,1,1-4.3,7.29,7.29,0,0,1,2.7-2.8,7.49,7.49,0,0,1,3.6-1,7.11,7.11,0,0,1,3.7,1,7.29,7.29,0,0,1,2.7,2.8,8.68,8.68,0,0,1,1,4.4A8.8,8.8,0,0,1,303.2,45.6Z"/><rect class="cls-1" x="318.1" y="18" width="7" height="37"/><circle class="cls-2" cx="101" cy="19" r="5"/><circle class="cls-3" cx="190" cy="49" r="6"/><circle class="cls-4" cx="233.5" cy="41.5" r="13.5"/></svg>