<svg width="24" height="19" viewBox="0 0 24 19" fill="none" xmlns="http://www.w3.org/2000/svg">
<path d="M23.9378 17.1608C23.7119 18.0467 22.914 18.6667 21.9998 18.6667C20.6562 18.6667 19.2285 18.2504 17.7457 17.4277C15.6357 17.9122 13.1977 17.756 11.164 16.8679C12.8783 16.7462 14.5124 16.3537 16.0111 15.6718C16.6912 15.621 17.3725 15.4918 18.0374 15.2721C18.9335 15.8485 20.4443 16.6667 21.9998 16.6667C20.6665 15.9394 20.199 15.0434 20.0765 14.2291C21.1367 13.4437 21.9998 12.2631 21.9998 10.8485C21.9998 10.4112 21.9005 9.95112 21.7065 9.49566C22.015 8.41525 22.0671 7.40425 21.9225 6.41491C23.2627 7.68412 23.9998 9.29525 23.9998 10.8485C23.9998 12.2607 23.4618 13.5587 22.5425 14.6451C22.653 14.73 22.7893 14.8191 22.9576 14.9108C23.7601 15.3487 24.1637 16.275 23.9378 17.1608V17.1608ZM10.0001 2C4.87784 2 2.00017 5.03654 2.00017 7.45454C2.00017 9.04604 3.03597 10.3742 4.30813 11.2577C4.16117 12.1739 3.60017 13.1818 2.00017 14C3.86684 14 5.67976 13.0796 6.75513 12.4311C7.81846 12.7605 8.91692 12.9091 10.0001 12.9091C15.1249 12.9091 18 9.874 18 7.45454C18 5.03675 15.1226 2 10.0001 2ZM10.0001 0C16.258 0 20 3.91775 20 7.45454C20 8.40225 19.7289 9.38762 19.216 10.3042C18.7211 11.1886 18.0269 11.9831 17.1525 12.6656C16.2528 13.368 15.2026 13.9175 14.0312 14.2988C12.7872 14.7037 11.431 14.909 10.0001 14.909C8.98138 14.909 7.98592 14.7971 7.02959 14.5755C5.26297 15.5213 3.57438 16 2.00017 16C1.07601 16 0.272175 15.3668 0.0558003 14.4683C-0.160616 13.5698 0.2668 12.64 1.08959 12.2193C1.40888 12.056 1.64476 11.8969 1.81955 11.7487C1.51151 11.4225 1.23822 11.0769 1.00147 10.7135C0.337092 9.69395 0.000216974 8.59745 0.000216974 7.45454C0.000216974 3.92746 3.72951 0 10.0001 0Z" fill="white"/>
</svg>
