<svg width="24" height="17" viewBox="0 0 24 17" fill="none" xmlns="http://www.w3.org/2000/svg">
<path d="M23.1 2.4H21.3C21.0335 2.4 20.7941 2.51591 20.6294 2.7H19.7471L18.5798 1.33875L18.5738 1.332C18.2077 0.913567 17.7565 0.578238 17.2503 0.348505C16.744 0.118772 16.1945 -5.2936e-05 15.6386 1.76911e-08H13.893C13.2274 1.76911e-08 12.5843 0.18525 12.0296 0.525375C11.4124 0.184875 10.7126 1.76911e-08 9.99825 1.76911e-08H8.79413C7.71026 1.76911e-08 6.63416 0.420713 5.82413 1.23L4.3545 2.7H3.37065C3.20588 2.51591 2.96651 2.4 2.7 2.4H0.9C0.402938 2.4 0 2.80294 0 3.3V12.3C0 12.7971 0.402938 13.2 0.9 13.2H2.7C3.09184 13.2 3.42503 12.9495 3.54859 12.6H4.25363L7.07925 15.1339C8.03708 16.1257 9.32644 16.8 10.701 16.8C11.3156 16.8 11.9115 16.6556 12.4298 16.3901C13.3649 16.4087 14.346 16.0013 15.0199 15.2122C15.758 15.003 16.4262 14.5588 16.9219 13.9147C17.709 13.7497 18.4492 13.2963 18.9251 12.6H20.4514C20.575 12.9495 20.9082 13.2 21.3 13.2H23.1C23.5971 13.2 24 12.7971 24 12.3V3.3C24 2.80294 23.5971 2.4 23.1 2.4ZM1.8 12C1.46861 12 1.2 11.7314 1.2 11.4C1.2 11.0686 1.46861 10.8 1.8 10.8C2.13139 10.8 2.4 11.0686 2.4 11.4C2.4 11.7314 2.13139 12 1.8 12ZM17.2695 11.784C16.6939 12.3201 15.8864 12.2088 15.7714 12.084C15.8244 12.5858 15.0867 13.6231 13.9309 13.542C13.7231 14.2366 12.8727 14.8105 12 14.5076C11.6666 14.841 11.1577 15 10.701 15C9.76537 15 8.90963 14.4547 8.33325 13.8409L5.2845 11.1067C5.06445 10.9092 4.77919 10.8 4.4835 10.8H3.6V4.5H4.60313C4.92113 4.5 5.22638 4.37362 5.45138 4.14862L7.09688 2.50312C7.31975 2.28022 7.58435 2.10339 7.87556 1.98275C8.16678 1.8621 8.47891 1.80001 8.79413 1.8H9.99825C10.2158 1.8 10.4299 1.82963 10.6358 1.88625L9.01313 3.77962C8.12963 4.81012 8.11913 6.31537 8.98838 7.35862C10.2029 8.8161 12.4151 8.82967 13.6564 7.43287L14.6306 6.30487L17.3471 9.9C17.8511 10.4475 17.7578 11.3299 17.2695 11.784ZM20.4 10.8H19.4828C19.4867 10.0402 19.2279 9.32512 18.7418 8.76L15.8138 4.8855C15.9829 4.52887 15.9015 4.08937 15.5884 3.81862C15.2106 3.49271 14.6423 3.53741 14.3186 3.91162L12.3075 6.24112C11.789 6.819 10.8741 6.80906 10.371 6.20625C10.2234 6.02998 10.1433 5.807 10.1448 5.5771C10.1464 5.34721 10.2296 5.12535 10.3796 4.95112L12.5516 2.41687C12.7175 2.22335 12.9232 2.06801 13.1547 1.96152C13.3863 1.85504 13.6381 1.79994 13.893 1.8H15.6386C16.2428 1.8 16.8176 2.06025 17.2163 2.514L18.9195 4.5H20.4V10.8ZM22.2 12C21.8686 12 21.6 11.7314 21.6 11.4C21.6 11.0686 21.8686 10.8 22.2 10.8C22.5314 10.8 22.8 11.0686 22.8 11.4C22.8 11.7314 22.5314 12 22.2 12Z" fill="white"/>
</svg>
