<svg width="168" height="112" viewBox="0 0 168 112" fill="none" xmlns="http://www.w3.org/2000/svg">
<path d="M2.52737 59.3117C3.16443 40.3549 14.9132 21.7557 40.4178 11.4265C53.2199 6.24552 69.4956 3.16628 85.8306 2.59642C102.174 2.02627 118.37 3.97532 131.041 8.68453L131.043 8.68526C156.311 18.0526 167.595 38.356 165.178 55.5433C162.717 72.7516 146.336 88.1395 119.796 98.4402C106.605 103.547 91.1055 107.301 76.0037 108.792C60.8705 110.287 46.3298 109.491 34.9666 105.667C12.4799 98.0994 1.88592 78.4227 2.52737 59.3117ZM2.52737 59.3117L0.0287822 59.2277L2.52737 59.3117Z" stroke="#FFB800" stroke-width="5"/>
<path d="M46.4265 43.32V49H44.6065V34.9H49.0865C50.6998 34.9 51.9065 35.28 52.7065 36.04C53.5065 36.7867 53.9065 37.8133 53.9065 39.12C53.9065 40.44 53.4932 41.4733 52.6665 42.22C51.8398 42.9533 50.6465 43.32 49.0865 43.32H46.4265ZM48.9265 41.8C50.0332 41.8 50.8265 41.5667 51.3065 41.1C51.7998 40.6333 52.0465 39.9733 52.0465 39.12C52.0465 38.24 51.7998 37.5733 51.3065 37.12C50.8265 36.6533 50.0332 36.42 48.9265 36.42H46.4265V41.8H48.9265ZM57.8523 40.24C58.2123 39.48 58.7389 38.8933 59.4323 38.48C60.1256 38.0533 60.9523 37.84 61.9123 37.84V39.82H61.3523C60.3256 39.82 59.4856 40.0867 58.8323 40.62C58.1789 41.14 57.8523 42.0067 57.8523 43.22V49H56.0323V38.02H57.8523V40.24ZM73.808 42.9C73.808 43.2867 73.7814 43.62 73.728 43.9H64.948C64.988 45.1533 65.3414 46.0933 66.008 46.72C66.688 47.3467 67.5147 47.66 68.488 47.66C69.368 47.66 70.1014 47.44 70.688 47C71.288 46.5467 71.6547 45.9467 71.788 45.2H73.728C73.5947 45.96 73.2947 46.64 72.828 47.24C72.3747 47.84 71.7814 48.3067 71.048 48.64C70.3147 48.9733 69.488 49.14 68.568 49.14C67.5147 49.14 66.5814 48.9133 65.768 48.46C64.9547 48.0067 64.3147 47.36 63.848 46.52C63.3947 45.6667 63.168 44.6667 63.168 43.52C63.168 42.3733 63.3947 41.3733 63.848 40.52C64.3147 39.6667 64.9547 39.0133 65.768 38.56C66.5814 38.1067 67.5147 37.88 68.568 37.88C69.6347 37.88 70.5614 38.1067 71.348 38.56C72.148 39.0133 72.7547 39.62 73.168 40.38C73.5947 41.14 73.808 41.98 73.808 42.9ZM71.968 43.02C72.008 42.2067 71.8747 41.5267 71.568 40.98C71.2614 40.4333 70.8414 40.0267 70.308 39.76C69.7747 39.4933 69.1947 39.36 68.568 39.36C67.568 39.36 66.728 39.6733 66.048 40.3C65.368 40.9133 65.0014 41.82 64.948 43.02H71.968ZM79.6285 37.88C80.8685 37.88 81.8618 38.2067 82.6085 38.86C83.3685 39.5 83.8285 40.3667 83.9885 41.46H82.2485C82.1685 40.8067 81.8952 40.2733 81.4285 39.86C80.9752 39.4333 80.3618 39.22 79.5885 39.22C78.9352 39.22 78.4218 39.38 78.0485 39.7C77.6885 40.0067 77.5085 40.4267 77.5085 40.96C77.5085 41.36 77.6285 41.6867 77.8685 41.94C78.1218 42.18 78.4285 42.3667 78.7885 42.5C79.1618 42.62 79.6685 42.7533 80.3085 42.9C81.1218 43.0867 81.7752 43.28 82.2685 43.48C82.7752 43.6667 83.2018 43.9733 83.5485 44.4C83.9085 44.8267 84.0885 45.4 84.0885 46.12C84.0885 47.0133 83.7485 47.74 83.0685 48.3C82.4018 48.86 81.5085 49.14 80.3885 49.14C79.0818 49.14 78.0152 48.8267 77.1885 48.2C76.3618 47.5733 75.8752 46.7 75.7285 45.58H77.4885C77.5552 46.2467 77.8418 46.7867 78.3485 47.2C78.8685 47.6133 79.5485 47.82 80.3885 47.82C81.0152 47.82 81.5018 47.66 81.8485 47.34C82.2085 47.02 82.3885 46.6 82.3885 46.08C82.3885 45.6533 82.2618 45.3133 82.0085 45.06C81.7552 44.8067 81.4418 44.6133 81.0685 44.48C80.6952 44.3467 80.1818 44.2067 79.5285 44.06C78.7152 43.8733 78.0618 43.6867 77.5685 43.5C77.0885 43.3133 76.6752 43.02 76.3285 42.62C75.9952 42.2067 75.8285 41.6533 75.8285 40.96C75.8285 40.04 76.1685 39.3 76.8485 38.74C77.5285 38.1667 78.4552 37.88 79.6285 37.88ZM96.6205 42.9C96.6205 43.2867 96.5939 43.62 96.5405 43.9H87.7605C87.8005 45.1533 88.1539 46.0933 88.8205 46.72C89.5005 47.3467 90.3272 47.66 91.3005 47.66C92.1805 47.66 92.9139 47.44 93.5005 47C94.1005 46.5467 94.4672 45.9467 94.6005 45.2H96.5405C96.4072 45.96 96.1072 46.64 95.6405 47.24C95.1872 47.84 94.5939 48.3067 93.8605 48.64C93.1272 48.9733 92.3005 49.14 91.3805 49.14C90.3272 49.14 89.3939 48.9133 88.5805 48.46C87.7672 48.0067 87.1272 47.36 86.6605 46.52C86.2072 45.6667 85.9805 44.6667 85.9805 43.52C85.9805 42.3733 86.2072 41.3733 86.6605 40.52C87.1272 39.6667 87.7672 39.0133 88.5805 38.56C89.3939 38.1067 90.3272 37.88 91.3805 37.88C92.4472 37.88 93.3739 38.1067 94.1605 38.56C94.9605 39.0133 95.5672 39.62 95.9805 40.38C96.4072 41.14 96.6205 41.98 96.6205 42.9ZM94.7805 43.02C94.8205 42.2067 94.6872 41.5267 94.3805 40.98C94.0739 40.4333 93.6539 40.0267 93.1205 39.76C92.5872 39.4933 92.0072 39.36 91.3805 39.36C90.3805 39.36 89.5405 39.6733 88.8605 40.3C88.1805 40.9133 87.8139 41.82 87.7605 43.02H94.7805ZM104.781 37.84C106.061 37.84 107.094 38.2533 107.881 39.08C108.668 39.8933 109.061 41.0733 109.061 42.62V49H107.241V42.78C107.241 41.6867 106.961 40.8467 106.401 40.26C105.841 39.6733 105.081 39.38 104.121 39.38C103.121 39.38 102.321 39.7067 101.721 40.36C101.121 41 100.821 41.94 100.821 43.18V49H99.001V38.02H100.821V40.62C101.101 39.7267 101.594 39.04 102.301 38.56C103.021 38.08 103.848 37.84 104.781 37.84ZM117.093 47.4V49H115.733C114.613 49 113.773 48.7333 113.213 48.2C112.666 47.6667 112.393 46.7733 112.393 45.52V39.6H110.753V38.02H112.393V35.28H114.233V38.02H117.073V39.6H114.233V45.56C114.233 46.2667 114.359 46.7533 114.613 47.02C114.879 47.2733 115.333 47.4 115.973 47.4H117.093ZM44.8016 64.76C46.5216 64.76 47.9416 65.1867 49.0616 66.04C50.1816 66.88 50.9549 68.0333 51.3816 69.5H49.4616C49.1016 68.5667 48.5216 67.8267 47.7216 67.28C46.9216 66.72 45.9416 66.44 44.7816 66.44C43.8616 66.44 43.0349 66.6667 42.3016 67.12C41.5816 67.56 41.0082 68.2 40.5816 69.04C40.1682 69.8667 39.9616 70.84 39.9616 71.96C39.9616 73.0667 40.1682 74.0333 40.5816 74.86C41.0082 75.6867 41.5816 76.3267 42.3016 76.78C43.0349 77.22 43.8616 77.44 44.7816 77.44C45.9416 77.44 46.9216 77.1667 47.7216 76.62C48.5216 76.06 49.1016 75.3133 49.4616 74.38H51.3816C50.9549 75.8467 50.1816 77.0067 49.0616 77.86C47.9416 78.7 46.5216 79.12 44.8016 79.12C43.4816 79.12 42.3149 78.82 41.3016 78.22C40.2882 77.6067 39.4949 76.76 38.9216 75.68C38.3616 74.5867 38.0816 73.3467 38.0816 71.96C38.0816 70.56 38.3616 69.3133 38.9216 68.22C39.4949 67.1267 40.2882 66.28 41.3016 65.68C42.3149 65.0667 43.4816 64.76 44.8016 64.76ZM58.7955 67.88C59.8488 67.88 60.7888 68.1067 61.6155 68.56C62.4555 69.0133 63.1088 69.6667 63.5755 70.52C64.0555 71.3733 64.2955 72.3733 64.2955 73.52C64.2955 74.6667 64.0555 75.6667 63.5755 76.52C63.1088 77.36 62.4555 78.0067 61.6155 78.46C60.7888 78.9133 59.8488 79.14 58.7955 79.14C57.7421 79.14 56.7955 78.9133 55.9555 78.46C55.1288 78.0067 54.4755 77.36 53.9955 76.52C53.5155 75.6667 53.2755 74.6667 53.2755 73.52C53.2755 72.3733 53.5155 71.3733 53.9955 70.52C54.4755 69.6667 55.1288 69.0133 55.9555 68.56C56.7955 68.1067 57.7421 67.88 58.7955 67.88ZM58.7955 69.48C58.1421 69.48 57.5355 69.6267 56.9755 69.92C56.4288 70.2133 55.9821 70.6667 55.6355 71.28C55.3021 71.88 55.1355 72.6267 55.1355 73.52C55.1355 74.4 55.3021 75.1467 55.6355 75.76C55.9821 76.36 56.4288 76.8067 56.9755 77.1C57.5355 77.3933 58.1421 77.54 58.7955 77.54C59.4488 77.54 60.0488 77.3933 60.5955 77.1C61.1555 76.8067 61.6021 76.36 61.9355 75.76C62.2821 75.1467 62.4555 74.4 62.4555 73.52C62.4555 72.6267 62.2821 71.88 61.9355 71.28C61.6021 70.6667 61.1555 70.2133 60.5955 69.92C60.0488 69.6267 59.4488 69.48 58.7955 69.48ZM72.447 67.84C73.727 67.84 74.7604 68.2533 75.547 69.08C76.3337 69.8933 76.727 71.0733 76.727 72.62V79H74.907V72.78C74.907 71.6867 74.627 70.8467 74.067 70.26C73.507 69.6733 72.747 69.38 71.787 69.38C70.787 69.38 69.987 69.7067 69.387 70.36C68.787 71 68.487 71.94 68.487 73.18V79H66.667V68.02H68.487V70.62C68.767 69.7267 69.2604 69.04 69.967 68.56C70.687 68.08 71.5137 67.84 72.447 67.84ZM84.3786 67.88C85.7786 67.88 86.9386 68.2533 87.8586 69C88.7786 69.7467 89.3453 70.7467 89.5586 72H87.6386C87.5053 71.2133 87.1386 70.6 86.5386 70.16C85.9519 69.7067 85.2186 69.48 84.3386 69.48C83.6986 69.48 83.1119 69.6267 82.5786 69.92C82.0586 70.2133 81.6386 70.6667 81.3186 71.28C80.9986 71.88 80.8386 72.6267 80.8386 73.52C80.8386 74.4133 80.9986 75.1667 81.3186 75.78C81.6386 76.38 82.0586 76.8267 82.5786 77.12C83.1119 77.4133 83.6986 77.56 84.3386 77.56C85.2186 77.56 85.9519 77.3333 86.5386 76.88C87.1386 76.4267 87.5053 75.8067 87.6386 75.02H89.5586C89.3453 76.2867 88.7786 77.2933 87.8586 78.04C86.9386 78.7733 85.7786 79.14 84.3786 79.14C83.3253 79.14 82.3919 78.9133 81.5786 78.46C80.7653 78.0067 80.1253 77.36 79.6586 76.52C79.2053 75.6667 78.9786 74.6667 78.9786 73.52C78.9786 72.3733 79.2053 71.3733 79.6586 70.52C80.1253 69.6667 80.7653 69.0133 81.5786 68.56C82.3919 68.1067 83.3253 67.88 84.3786 67.88ZM102.04 72.9C102.04 73.2867 102.014 73.62 101.96 73.9H93.1805C93.2205 75.1533 93.5738 76.0933 94.2405 76.72C94.9205 77.3467 95.7471 77.66 96.7205 77.66C97.6005 77.66 98.3338 77.44 98.9205 77C99.5205 76.5467 99.8871 75.9467 100.02 75.2H101.96C101.827 75.96 101.527 76.64 101.06 77.24C100.607 77.84 100.014 78.3067 99.2805 78.64C98.5471 78.9733 97.7205 79.14 96.8005 79.14C95.7471 79.14 94.8138 78.9133 94.0005 78.46C93.1871 78.0067 92.5471 77.36 92.0805 76.52C91.6271 75.6667 91.4005 74.6667 91.4005 73.52C91.4005 72.3733 91.6271 71.3733 92.0805 70.52C92.5471 69.6667 93.1871 69.0133 94.0005 68.56C94.8138 68.1067 95.7471 67.88 96.8005 67.88C97.8671 67.88 98.7938 68.1067 99.5805 68.56C100.38 69.0133 100.987 69.62 101.4 70.38C101.827 71.14 102.04 71.98 102.04 72.9ZM100.2 73.02C100.24 72.2067 100.107 71.5267 99.8005 70.98C99.4938 70.4333 99.0738 70.0267 98.5405 69.76C98.0071 69.4933 97.4271 69.36 96.8005 69.36C95.8005 69.36 94.9605 69.6733 94.2805 70.3C93.6005 70.9133 93.2338 71.82 93.1805 73.02H100.2ZM110.481 67.88C111.454 67.88 112.321 68.1067 113.081 68.56C113.841 69.0133 114.434 69.6667 114.861 70.52C115.301 71.3733 115.521 72.3733 115.521 73.52C115.521 74.6667 115.301 75.6667 114.861 76.52C114.434 77.36 113.841 78.0067 113.081 78.46C112.321 78.9133 111.454 79.14 110.481 79.14C109.414 79.14 108.508 78.8733 107.761 78.34C107.028 77.7933 106.521 77.08 106.241 76.2V84.2H104.421V68.02H106.241V70.82C106.521 69.94 107.028 69.2333 107.761 68.7C108.508 68.1533 109.414 67.88 110.481 67.88ZM109.961 69.5C109.254 69.5 108.614 69.6667 108.041 70C107.468 70.32 107.021 70.7867 106.701 71.4C106.381 72.0133 106.221 72.72 106.221 73.52C106.221 74.32 106.381 75.0267 106.701 75.64C107.021 76.24 107.468 76.7067 108.041 77.04C108.614 77.3733 109.254 77.54 109.961 77.54C111.094 77.54 111.994 77.1867 112.661 76.48C113.341 75.76 113.681 74.7733 113.681 73.52C113.681 72.2667 113.341 71.2867 112.661 70.58C111.994 69.86 111.094 69.5 109.961 69.5ZM123.138 77.4V79H121.778C120.658 79 119.818 78.7333 119.258 78.2C118.711 77.6667 118.438 76.7733 118.438 75.52V69.6H116.798V68.02H118.438V65.28H120.278V68.02H123.118V69.6H120.278V75.56C120.278 76.2667 120.404 76.7533 120.658 77.02C120.924 77.2733 121.378 77.4 122.018 77.4H123.138Z" fill="white" fill-opacity="0.95"/>
</svg>
