<svg width="201" height="484" viewBox="0 0 201 484" fill="none" xmlns="http://www.w3.org/2000/svg">
<g clip-path="url(#clip0)">
<path fill-rule="evenodd" clip-rule="evenodd" d="M57.005 425.729C62.245 417.462 61.245 404.796 55.5117 396.489C49.765 388.169 39.2984 384.222 28.4717 384.009C17.6317 383.796 6.43171 387.329 2.13838 394.809C-2.15496 402.289 0.458375 413.702 6.05837 422.182C11.6717 430.662 20.245 436.196 30.2717 437.036C40.2984 437.862 51.7784 433.996 57.005 425.729Z" fill="#4A6BAC"/>
<path fill-rule="evenodd" clip-rule="evenodd" d="M201.104 46V350.791C186.38 348.645 171.771 344.863 157.501 339.864C122.151 327.455 88.8886 307.547 70.1026 277.753C51.3166 247.891 46.94 208.143 54.5487 171.531C62.1573 134.919 81.684 101.444 109.425 79.831C134.576 60.175 166.423 50.2697 201.104 46Z" fill="#FF8368"/>
</g>
<defs>
<clipPath id="clip0">
<rect width="201" height="484" fill="white"/>
</clipPath>
</defs>
</svg>
