<svg width="124" height="124" viewBox="0 0 124 124" fill="none" xmlns="http://www.w3.org/2000/svg">
<path d="M26.4001 78.2C26.4001 85.3 20.6001 91.1 13.5001 91.1C6.4001 91.1 0.600098 85.3 0.600098 78.2C0.600098 71.1 6.4001 65.3 13.5001 65.3H26.4001V78.2Z" fill="#E01E5A"/>
<path d="M32.9001 78.2C32.9001 71.1 38.7001 65.3 45.8001 65.3C52.9001 65.3 58.7001 71.1 58.7001 78.2V110.5C58.7001 117.6 52.9001 123.4 45.8001 123.4C38.7001 123.4 32.9001 117.6 32.9001 110.5V78.2Z" fill="#E01E5A"/>
<path d="M45.8001 26.4C38.7001 26.4 32.9001 20.6 32.9001 13.5C32.9001 6.40001 38.7001 0.600006 45.8001 0.600006C52.9001 0.600006 58.7001 6.40001 58.7001 13.5V26.4H45.8001Z" fill="#36C5F0"/>
<path d="M45.8001 32.9C52.9001 32.9 58.7001 38.7 58.7001 45.8C58.7001 52.9 52.9001 58.7 45.8001 58.7H13.5001C6.4001 58.7 0.600098 52.9 0.600098 45.8C0.600098 38.7 6.4001 32.9 13.5001 32.9H45.8001Z" fill="#36C5F0"/>
<path d="M97.6001 45.8C97.6001 38.7 103.4 32.9 110.5 32.9C117.6 32.9 123.4 38.7 123.4 45.8C123.4 52.9 117.6 58.7 110.5 58.7H97.6001V45.8Z" fill="#2EB67D"/>
<path d="M91.1001 45.8C91.1001 52.9 85.3 58.7 78.2 58.7C71.1 58.7 65.3 52.9 65.3 45.8V13.5C65.3 6.40001 71.1 0.600006 78.2 0.600006C85.3 0.600006 91.1001 6.40001 91.1001 13.5V45.8Z" fill="#2EB67D"/>
<path d="M78.2 97.6C85.3 97.6 91.1001 103.4 91.1001 110.5C91.1001 117.6 85.3 123.4 78.2 123.4C71.1 123.4 65.3 117.6 65.3 110.5V97.6H78.2Z" fill="#ECB22E"/>
<path d="M78.2 91.1C71.1 91.1 65.3 85.3 65.3 78.2C65.3 71.1 71.1 65.3 78.2 65.3H110.5C117.6 65.3 123.4 71.1 123.4 78.2C123.4 85.3 117.6 91.1 110.5 91.1H78.2Z" fill="#ECB22E"/>
</svg>
