<svg width="184" height="134" viewBox="0 0 184 134" fill="none" xmlns="http://www.w3.org/2000/svg">
<path d="M23.2375 107.452L23.2346 107.449C10.899 96.2362 5.23791 81.6884 3.21859 65.6597L3.21852 65.6592C1.17842 49.4935 2.99059 32.9946 14.993 22.5714C21.0963 17.2888 30.0047 13.3784 40.603 10.4553C51.1661 7.54194 63.1896 5.66662 75.346 4.32071C99.7699 1.62106 123.845 1.21092 142.364 8.10716C160.767 14.9755 173.795 29.1269 178.895 43.6835C183.957 58.13 181.263 73.2666 174.062 87.8678C166.868 102.428 155.395 115.993 138.321 123.641C121.102 131.337 97.9564 133.196 76.491 130.027C55.0344 126.859 35.6281 118.75 23.2375 107.452Z" stroke="#4A6BAC" stroke-width="5"/>
<path d="M58.5148 56.34C58.5148 57.0067 58.3548 57.6267 58.0348 58.2C57.7148 58.7733 57.2281 59.24 56.5748 59.6C55.9214 59.96 55.1148 60.14 54.1548 60.14C53.2214 60.14 52.3881 59.9733 51.6548 59.64C50.9348 59.2933 50.3548 58.8267 49.9148 58.24C49.4881 57.64 49.2414 56.96 49.1748 56.2H51.1148C51.1548 56.6 51.2881 56.9933 51.5148 57.38C51.7548 57.7533 52.0881 58.0667 52.5148 58.32C52.9548 58.56 53.4814 58.68 54.0948 58.68C54.8948 58.68 55.5081 58.4667 55.9348 58.04C56.3614 57.6133 56.5748 57.0667 56.5748 56.4C56.5748 55.8267 56.4214 55.36 56.1148 55C55.8214 54.64 55.4548 54.36 55.0148 54.16C54.5748 53.9467 53.9748 53.72 53.2148 53.48C52.3214 53.1867 51.6014 52.9133 51.0548 52.66C50.5214 52.3933 50.0614 52 49.6748 51.48C49.3014 50.96 49.1148 50.2733 49.1148 49.42C49.1148 48.6867 49.2881 48.04 49.6348 47.48C49.9948 46.92 50.5014 46.4867 51.1548 46.18C51.8214 45.8733 52.6014 45.72 53.4948 45.72C54.8814 45.72 55.9814 46.06 56.7948 46.74C57.6081 47.4067 58.0814 48.26 58.2148 49.3H56.2548C56.1481 48.74 55.8614 48.2467 55.3948 47.82C54.9281 47.3933 54.2948 47.18 53.4948 47.18C52.7614 47.18 52.1748 47.3733 51.7348 47.76C51.2948 48.1333 51.0748 48.6667 51.0748 49.36C51.0748 49.9067 51.2148 50.3533 51.4948 50.7C51.7881 51.0333 52.1481 51.3 52.5748 51.5C53.0014 51.6867 53.5881 51.9 54.3348 52.14C55.2414 52.4333 55.9681 52.7133 56.5148 52.98C57.0748 53.2467 57.5481 53.6533 57.9348 54.2C58.3214 54.7333 58.5148 55.4467 58.5148 56.34ZM70.722 49.02V60H68.902V57.42C68.622 58.3133 68.122 59 67.402 59.48C66.6953 59.9467 65.8686 60.18 64.922 60.18C63.6553 60.18 62.6286 59.7733 61.842 58.96C61.0553 58.1333 60.662 56.9533 60.662 55.42V49.02H62.482V55.24C62.482 56.3333 62.762 57.18 63.322 57.78C63.882 58.3667 64.642 58.66 65.602 58.66C66.602 58.66 67.402 58.34 68.002 57.7C68.602 57.0467 68.902 56.1 68.902 54.86V49.02H70.722ZM79.6977 48.88C80.6711 48.88 81.5377 49.1067 82.2977 49.56C83.0577 50.0133 83.6511 50.6667 84.0777 51.52C84.5177 52.3733 84.7377 53.3733 84.7377 54.52C84.7377 55.6667 84.5177 56.6667 84.0777 57.52C83.6511 58.36 83.0577 59.0067 82.2977 59.46C81.5377 59.9133 80.6711 60.14 79.6977 60.14C78.6311 60.14 77.7244 59.8733 76.9777 59.34C76.2444 58.7933 75.7377 58.08 75.4577 57.2V60H73.6377V45.2H75.4577V51.82C75.7377 50.94 76.2444 50.2333 76.9777 49.7C77.7244 49.1533 78.6311 48.88 79.6977 48.88ZM79.1777 50.5C78.4711 50.5 77.8311 50.6667 77.2577 51C76.6844 51.32 76.2377 51.7867 75.9177 52.4C75.5977 53.0133 75.4377 53.72 75.4377 54.52C75.4377 55.32 75.5977 56.0267 75.9177 56.64C76.2377 57.24 76.6844 57.7067 77.2577 58.04C77.8311 58.3733 78.4711 58.54 79.1777 58.54C80.3111 58.54 81.2111 58.1867 81.8777 57.48C82.5577 56.76 82.8977 55.7733 82.8977 54.52C82.8977 53.2667 82.5577 52.2867 81.8777 51.58C81.2111 50.86 80.3111 50.5 79.1777 50.5ZM100.614 48.84C101.894 48.84 102.921 49.2533 103.694 50.08C104.481 50.8933 104.874 52.0733 104.874 53.62V60H103.054V53.78C103.054 52.7 102.788 51.8733 102.254 51.3C101.734 50.7267 101.014 50.44 100.094 50.44C99.1343 50.44 98.361 50.76 97.7743 51.4C97.201 52.0267 96.9143 52.9533 96.9143 54.18V60H95.0943V53.78C95.0943 52.7 94.8276 51.8733 94.2943 51.3C93.761 50.7267 93.041 50.44 92.1343 50.44C91.161 50.44 90.381 50.76 89.7943 51.4C89.221 52.0267 88.9343 52.9533 88.9343 54.18V60H87.1143V49.02H88.9343V51.52C89.201 50.6533 89.6743 49.9933 90.3543 49.54C91.0476 49.0733 91.841 48.84 92.7343 48.84C93.6676 48.84 94.4743 49.08 95.1543 49.56C95.8476 50.0267 96.341 50.72 96.6343 51.64C96.941 50.7467 97.4543 50.06 98.1743 49.58C98.8943 49.0867 99.7076 48.84 100.614 48.84ZM107.38 45.8C107.38 45.4667 107.494 45.2 107.72 45C107.947 44.7867 108.247 44.68 108.62 44.68C108.994 44.68 109.294 44.7867 109.52 45C109.747 45.2 109.86 45.4667 109.86 45.8C109.86 46.1333 109.747 46.4067 109.52 46.62C109.294 46.82 108.994 46.92 108.62 46.92C108.247 46.92 107.947 46.82 107.72 46.62C107.494 46.4067 107.38 46.1333 107.38 45.8ZM109.52 49.02V60H107.7V49.02H109.52ZM117.686 58.4V60H116.326C115.206 60 114.366 59.7333 113.806 59.2C113.26 58.6667 112.986 57.7733 112.986 56.52V50.6H111.346V49.02H112.986V46.28H114.826V49.02H117.666V50.6H114.826V56.56C114.826 57.2667 114.953 57.7533 115.206 58.02C115.473 58.2733 115.926 58.4 116.566 58.4H117.686ZM129.349 48.88C130.415 48.88 131.315 49.1467 132.049 49.68C132.795 50.2133 133.315 50.9267 133.609 51.82V49.02H135.429V60H133.609V57.2C133.315 58.0933 132.795 58.8067 132.049 59.34C131.315 59.8733 130.415 60.14 129.349 60.14C128.375 60.14 127.509 59.9133 126.749 59.46C125.989 59.0067 125.389 58.36 124.949 57.52C124.522 56.6667 124.309 55.6667 124.309 54.52C124.309 53.3733 124.522 52.3733 124.949 51.52C125.389 50.6667 125.989 50.0133 126.749 49.56C127.509 49.1067 128.375 48.88 129.349 48.88ZM129.869 50.5C128.749 50.5 127.849 50.86 127.169 51.58C126.502 52.2867 126.169 53.2667 126.169 54.52C126.169 55.7733 126.502 56.76 127.169 57.48C127.849 58.1867 128.749 58.54 129.869 58.54C130.589 58.54 131.229 58.3733 131.789 58.04C132.362 57.7067 132.809 57.24 133.129 56.64C133.449 56.0267 133.609 55.32 133.609 54.52C133.609 53.72 133.449 53.0133 133.129 52.4C132.809 51.7867 132.362 51.32 131.789 51C131.229 50.6667 130.589 50.5 129.869 50.5ZM52.362 84.32V90H50.542V75.9H55.022C56.6354 75.9 57.842 76.28 58.642 77.04C59.442 77.7867 59.842 78.8133 59.842 80.12C59.842 81.44 59.4287 82.4733 58.602 83.22C57.7754 83.9533 56.582 84.32 55.022 84.32H52.362ZM54.862 82.8C55.9687 82.8 56.762 82.5667 57.242 82.1C57.7354 81.6333 57.982 80.9733 57.982 80.12C57.982 79.24 57.7354 78.5733 57.242 78.12C56.762 77.6533 55.9687 77.42 54.862 77.42H52.362V82.8H54.862ZM63.7878 81.24C64.1478 80.48 64.6745 79.8933 65.3678 79.48C66.0611 79.0533 66.8878 78.84 67.8478 78.84V80.82H67.2878C66.2611 80.82 65.4211 81.0867 64.7678 81.62C64.1145 82.14 63.7878 83.0067 63.7878 84.22V90H61.9678V79.02H63.7878V81.24ZM74.6236 78.88C75.6769 78.88 76.6169 79.1067 77.4436 79.56C78.2836 80.0133 78.9369 80.6667 79.4036 81.52C79.8836 82.3733 80.1236 83.3733 80.1236 84.52C80.1236 85.6667 79.8836 86.6667 79.4036 87.52C78.9369 88.36 78.2836 89.0067 77.4436 89.46C76.6169 89.9133 75.6769 90.14 74.6236 90.14C73.5703 90.14 72.6236 89.9133 71.7836 89.46C70.9569 89.0067 70.3036 88.36 69.8236 87.52C69.3436 86.6667 69.1036 85.6667 69.1036 84.52C69.1036 83.3733 69.3436 82.3733 69.8236 81.52C70.3036 80.6667 70.9569 80.0133 71.7836 79.56C72.6236 79.1067 73.5703 78.88 74.6236 78.88ZM74.6236 80.48C73.9703 80.48 73.3636 80.6267 72.8036 80.92C72.2569 81.2133 71.8103 81.6667 71.4636 82.28C71.1303 82.88 70.9636 83.6267 70.9636 84.52C70.9636 85.4 71.1303 86.1467 71.4636 86.76C71.8103 87.36 72.2569 87.8067 72.8036 88.1C73.3636 88.3933 73.9703 88.54 74.6236 88.54C75.2769 88.54 75.8769 88.3933 76.4236 88.1C76.9836 87.8067 77.4303 87.36 77.7636 86.76C78.1103 86.1467 78.2836 85.4 78.2836 84.52C78.2836 83.6267 78.1103 82.88 77.7636 82.28C77.4303 81.6667 76.9836 81.2133 76.4236 80.92C75.8769 80.6267 75.2769 80.48 74.6236 80.48ZM88.5552 78.88C89.5285 78.88 90.3952 79.1067 91.1552 79.56C91.9152 80.0133 92.5085 80.6667 92.9352 81.52C93.3752 82.3733 93.5952 83.3733 93.5952 84.52C93.5952 85.6667 93.3752 86.6667 92.9352 87.52C92.5085 88.36 91.9152 89.0067 91.1552 89.46C90.3952 89.9133 89.5285 90.14 88.5552 90.14C87.4885 90.14 86.5818 89.8733 85.8352 89.34C85.1018 88.7933 84.5952 88.08 84.3152 87.2V95.2H82.4952V79.02H84.3152V81.82C84.5952 80.94 85.1018 80.2333 85.8352 79.7C86.5818 79.1533 87.4885 78.88 88.5552 78.88ZM88.0352 80.5C87.3285 80.5 86.6885 80.6667 86.1152 81C85.5418 81.32 85.0952 81.7867 84.7752 82.4C84.4552 83.0133 84.2952 83.72 84.2952 84.52C84.2952 85.32 84.4552 86.0267 84.7752 86.64C85.0952 87.24 85.5418 87.7067 86.1152 88.04C86.6885 88.3733 87.3285 88.54 88.0352 88.54C89.1685 88.54 90.0685 88.1867 90.7352 87.48C91.4152 86.76 91.7552 85.7733 91.7552 84.52C91.7552 83.2667 91.4152 82.2867 90.7352 81.58C90.0685 80.86 89.1685 80.5 88.0352 80.5ZM100.952 78.88C102.005 78.88 102.945 79.1067 103.772 79.56C104.612 80.0133 105.265 80.6667 105.732 81.52C106.212 82.3733 106.452 83.3733 106.452 84.52C106.452 85.6667 106.212 86.6667 105.732 87.52C105.265 88.36 104.612 89.0067 103.772 89.46C102.945 89.9133 102.005 90.14 100.952 90.14C99.8984 90.14 98.9517 89.9133 98.1117 89.46C97.2851 89.0067 96.6317 88.36 96.1517 87.52C95.6717 86.6667 95.4317 85.6667 95.4317 84.52C95.4317 83.3733 95.6717 82.3733 96.1517 81.52C96.6317 80.6667 97.2851 80.0133 98.1117 79.56C98.9517 79.1067 99.8984 78.88 100.952 78.88ZM100.952 80.48C100.298 80.48 99.6917 80.6267 99.1317 80.92C98.5851 81.2133 98.1384 81.6667 97.7917 82.28C97.4584 82.88 97.2917 83.6267 97.2917 84.52C97.2917 85.4 97.4584 86.1467 97.7917 86.76C98.1384 87.36 98.5851 87.8067 99.1317 88.1C99.6917 88.3933 100.298 88.54 100.952 88.54C101.605 88.54 102.205 88.3933 102.752 88.1C103.312 87.8067 103.758 87.36 104.092 86.76C104.438 86.1467 104.612 85.4 104.612 84.52C104.612 83.6267 104.438 82.88 104.092 82.28C103.758 81.6667 103.312 81.2133 102.752 80.92C102.205 80.6267 101.605 80.48 100.952 80.48ZM112.263 78.88C113.503 78.88 114.497 79.2067 115.243 79.86C116.003 80.5 116.463 81.3667 116.623 82.46H114.883C114.803 81.8067 114.53 81.2733 114.063 80.86C113.61 80.4333 112.997 80.22 112.223 80.22C111.57 80.22 111.057 80.38 110.683 80.7C110.323 81.0067 110.143 81.4267 110.143 81.96C110.143 82.36 110.263 82.6867 110.503 82.94C110.757 83.18 111.063 83.3667 111.423 83.5C111.797 83.62 112.303 83.7533 112.943 83.9C113.757 84.0867 114.41 84.28 114.903 84.48C115.41 84.6667 115.837 84.9733 116.183 85.4C116.543 85.8267 116.723 86.4 116.723 87.12C116.723 88.0133 116.383 88.74 115.703 89.3C115.037 89.86 114.143 90.14 113.023 90.14C111.717 90.14 110.65 89.8267 109.823 89.2C108.997 88.5733 108.51 87.7 108.363 86.58H110.123C110.19 87.2467 110.477 87.7867 110.983 88.2C111.503 88.6133 112.183 88.82 113.023 88.82C113.65 88.82 114.137 88.66 114.483 88.34C114.843 88.02 115.023 87.6 115.023 87.08C115.023 86.6533 114.897 86.3133 114.643 86.06C114.39 85.8067 114.077 85.6133 113.703 85.48C113.33 85.3467 112.817 85.2067 112.163 85.06C111.35 84.8733 110.697 84.6867 110.203 84.5C109.723 84.3133 109.31 84.02 108.963 83.62C108.63 83.2067 108.463 82.6533 108.463 81.96C108.463 81.04 108.803 80.3 109.483 79.74C110.163 79.1667 111.09 78.88 112.263 78.88ZM123.655 78.88C124.722 78.88 125.622 79.1467 126.355 79.68C127.102 80.2133 127.622 80.9267 127.915 81.82V79.02H129.735V90H127.915V87.2C127.622 88.0933 127.102 88.8067 126.355 89.34C125.622 89.8733 124.722 90.14 123.655 90.14C122.682 90.14 121.815 89.9133 121.055 89.46C120.295 89.0067 119.695 88.36 119.255 87.52C118.829 86.6667 118.615 85.6667 118.615 84.52C118.615 83.3733 118.829 82.3733 119.255 81.52C119.695 80.6667 120.295 80.0133 121.055 79.56C121.815 79.1067 122.682 78.88 123.655 78.88ZM124.175 80.5C123.055 80.5 122.155 80.86 121.475 81.58C120.809 82.2867 120.475 83.2667 120.475 84.52C120.475 85.7733 120.809 86.76 121.475 87.48C122.155 88.1867 123.055 88.54 124.175 88.54C124.895 88.54 125.535 88.3733 126.095 88.04C126.669 87.7067 127.115 87.24 127.435 86.64C127.755 86.0267 127.915 85.32 127.915 84.52C127.915 83.72 127.755 83.0133 127.435 82.4C127.115 81.7867 126.669 81.32 126.095 81C125.535 80.6667 124.895 80.5 124.175 80.5ZM134.452 75.2V90H132.632V75.2H134.452Z" fill="white" fill-opacity="0.95"/>
</svg>
